<?xml version="1.0" standalone="no"?>
 <!DOCTYPE svg PUBLIC "-//W3C//DTD SVG 1.1//EN" 
 "http://www.w3.org/Graphics/SVG/1.1/DTD/svg11.dtd"> 
<svg xmlns="http://www.w3.org/2000/svg" version="1.1" 
    width="29.7002cm" height="21.0007cm" viewBox="0 0 116930 82680 ">
<title>SVG Picture created as CharlyRobot3-parallel-Dessus_Cu.svg date 2013/12/21 20:35:46 </title>
  <desc>Picture generated by PCBNEW </desc>
<g style="fill:#000000; fill-opacity:1;stroke:#000000; stroke-opacity:1;
stroke-linecap:round; stroke-linejoin:round; "
 transform="translate(0 0) scale(1 1)">
</g>
<g style="fill:#000000; fill-opacity:0.0; 
stroke:#000000; stroke-width:98.4252; stroke-opacity:1; 
stroke-linecap:round; stroke-linejoin:round;">
<path d="M21299 50841
L20905 50841
" />
<path d="M21280 50841
L21299 50804
L21299 50729
L21280 50691
L21261 50673
L21224 50654
L21111 50654
L21074 50673
L21055 50691
L21036 50729
L21036 50804
L21055 50841
" />
<path d="M21299 51085
L21280 51048
L21261 51029
L21224 51010
L21111 51010
L21074 51029
L21055 51048
L21036 51085
L21036 51141
L21055 51179
L21074 51198
L21111 51216
L21224 51216
L21261 51198
L21280 51179
L21299 51141
L21299 51085
" />
<path d="M21036 51348
L21299 51423
L21111 51498
L21299 51573
L21036 51648
" />
<path d="M21036 51798
L21299 51798
" />
<path d="M21074 51798
L21055 51816
L21036 51854
L21036 51910
L21055 51948
L21093 51966
L21299 51966
" />
<path d="M30049 53816
L29655 53816
" />
<path d="M30030 53816
L30049 53779
L30049 53704
L30030 53666
L30011 53648
L29974 53629
L29861 53629
L29824 53648
L29805 53666
L29786 53704
L29786 53779
L29805 53816
" />
<path d="M30049 54060
L30030 54023
L30011 54004
L29974 53985
L29861 53985
L29824 54004
L29805 54023
L29786 54060
L29786 54116
L29805 54154
L29824 54173
L29861 54191
L29974 54191
L30011 54173
L30030 54154
L30049 54116
L30049 54060
" />
<path d="M29786 54323
L30049 54398
L29861 54473
L30049 54548
L29786 54623
" />
<path d="M29786 54773
L30049 54773
" />
<path d="M29824 54773
L29805 54791
L29786 54829
L29786 54885
L29805 54923
L29843 54941
L30049 54941
" />
</g>
<g style="fill:#000000; fill-opacity:0.0; 
stroke:#000000; stroke-width:118.11; stroke-opacity:1; 
stroke-linecap:round; stroke-linejoin:round;">
<path d="M28104 54134
L28104 53740
" />
<path d="M27851 54134
L27851 53825
L27879 53769
L27935 53740
L28020 53740
L28076 53769
L28104 53797
" />
<path d="M28385 54134
L28385 53544
" />
<path d="M28385 54106
L28441 54134
L28554 54134
L28610 54106
L28638 54078
L28666 54022
L28666 53853
L28638 53797
L28610 53769
L28554 53740
L28441 53740
L28385 53769
" />
<path d="M29015 66495
L29464 66495
" />
<path d="M20510 67825
L20959 67825
" />
<path d="M13755 60125
L14204 60125
" />
<path d="M13980 59900
L13980 60350
" />
<path d="M25030 66275
L25479 66275
" />
<path d="M25255 66050
L25255 66500
" />
<path d="M14560 66430
L15009 66430
" />
<path d="M14785 66205
L14785 66655
" />
<path d="M18094 50984
L18094 50590
" />
<path d="M17841 50984
L17841 50675
L17869 50619
L17925 50590
L18010 50590
L18066 50619
L18094 50647
" />
<path d="M18375 50984
L18375 50394
" />
<path d="M18375 50956
L18431 50984
L18544 50984
L18600 50956
L18628 50928
L18656 50872
L18656 50703
L18628 50647
L18600 50619
L18544 50590
L18431 50590
L18375 50619
" />
<path d="M23495 50649
L23439 50620
L23326 50620
L23270 50649
L23242 50705
L23242 50930
L23270 50986
L23326 51014
L23439 51014
L23495 50986
L23523 50930
L23523 50874
L23242 50817
" />
<path d="M23776 51014
L23776 50620
" />
<path d="M23776 50958
L23804 50986
L23860 51014
L23945 51014
L24001 50986
L24029 50930
L24029 50620
" />
<path d="M13845 50649
L13789 50620
L13676 50620
L13620 50649
L13592 50705
L13592 50930
L13620 50986
L13676 51014
L13789 51014
L13845 50986
L13873 50930
L13873 50874
L13592 50817
" />
<path d="M14126 51014
L14126 50620
" />
<path d="M14126 50958
L14154 50986
L14210 51014
L14295 51014
L14351 50986
L14379 50930
L14379 50620
" />
<path d="M14224 65535
L14224 65984
" />
<path d="M18434 71966
L18434 71572
" />
<path d="M18294 72191
L18153 71769
L18519 71769
" />
<path d="M18772 71572
L18884 71572
L18940 71600
L18968 71628
L19025 71713
L19053 71825
L19053 72050
L19025 72106
L18997 72134
L18940 72163
L18828 72163
L18772 72134
L18743 72106
L18715 72050
L18715 71909
L18743 71853
L18772 71825
L18828 71797
L18940 71797
L18997 71825
L19025 71853
L19053 71909
" />
<path d="M19334 71600
L19334 71572
L19306 71516
L19278 71488
" />
<path d="M19531 72163
L19925 72163
L19671 71572
" />
<path d="M20234 71909
L20178 71938
L20150 71966
L20121 72022
L20121 72050
L20150 72106
L20178 72134
L20234 72163
L20346 72163
L20403 72134
L20431 72106
L20459 72050
L20459 72022
L20431 71966
L20403 71938
L20346 71909
L20234 71909
L20178 71881
L20150 71853
L20121 71797
L20121 71684
L20150 71628
L20178 71600
L20234 71572
L20346 71572
L20403 71600
L20431 71628
L20459 71684
L20459 71797
L20431 71853
L20403 71881
L20346 71909
" />
<path d="M20965 71966
L20965 71572
" />
<path d="M20824 72191
L20684 71769
L21049 71769
" />
<path d="M21724 71572
L21724 71966
" />
<path d="M21724 71909
L21752 71938
L21809 71966
L21893 71966
L21949 71938
L21977 71881
L21977 71572
" />
<path d="M21977 71881
L22006 71938
L22062 71966
L22146 71966
L22202 71938
L22231 71881
L22231 71572
" />
<path d="M22512 71572
L22512 71966
" />
<path d="M22512 71909
L22540 71938
L22596 71966
L22680 71966
L22737 71938
L22765 71881
L22765 71572
" />
<path d="M22765 71881
L22793 71938
L22849 71966
L22934 71966
L22990 71938
L23018 71881
L23018 71572
" />
<path d="M30400 71279
L10800 71279
" />
<path d="M30400 69880
L30400 72342
" />
<path d="M10800 69880
L10800 72342
" />
<path d="M10800 71279
L11243 71510
" />
<path d="M10800 71279
L11243 71049
" />
<path d="M30400 71279
L29956 71510
" />
<path d="M30400 71279
L29956 71049
" />
<path d="M32686 62245
L32292 62245
" />
<path d="M32911 62385
L32489 62526
L32489 62160
" />
<path d="M32292 61907
L32292 61795
L32320 61739
L32348 61711
L32433 61654
L32545 61626
L32770 61626
L32826 61654
L32854 61682
L32883 61739
L32883 61851
L32854 61907
L32826 61936
L32770 61964
L32629 61964
L32573 61936
L32545 61907
L32517 61851
L32517 61739
L32545 61682
L32573 61654
L32629 61626
" />
<path d="M32320 61345
L32292 61345
L32236 61373
L32208 61401
" />
<path d="M32883 61148
L32883 60754
L32292 61008
" />
<path d="M32629 60445
L32658 60501
L32686 60529
L32742 60558
L32770 60558
L32826 60529
L32854 60501
L32883 60445
L32883 60333
L32854 60276
L32826 60248
L32770 60220
L32742 60220
L32686 60248
L32658 60276
L32629 60333
L32629 60445
L32601 60501
L32573 60529
L32517 60558
L32404 60558
L32348 60529
L32320 60501
L32292 60445
L32292 60333
L32320 60276
L32348 60248
L32404 60220
L32517 60220
L32573 60248
L32601 60276
L32629 60333
" />
<path d="M32686 59714
L32292 59714
" />
<path d="M32911 59855
L32489 59995
L32489 59630
" />
<path d="M32292 58955
L32686 58955
" />
<path d="M32629 58955
L32658 58927
L32686 58870
L32686 58786
L32658 58730
L32601 58702
L32292 58702
" />
<path d="M32601 58702
L32658 58673
L32686 58617
L32686 58533
L32658 58477
L32601 58448
L32292 58448
" />
<path d="M32292 58167
L32686 58167
" />
<path d="M32629 58167
L32658 58139
L32686 58083
L32686 57999
L32658 57942
L32601 57914
L32292 57914
" />
<path d="M32601 57914
L32658 57886
L32686 57830
L32686 57745
L32658 57689
L32601 57661
L32292 57661
" />
<path d="M31999 69880
L31999 50280
" />
<path d="M30400 69880
L33062 69880
" />
<path d="M30400 50280
L33062 50280
" />
<path d="M31999 50280
L31769 50723
" />
<path d="M31999 50280
L32230 50723
" />
<path d="M31999 69880
L31769 69436
" />
<path d="M31999 69880
L32230 69436
" />
</g>
<g style="fill:#000000; fill-opacity:0.0; 
stroke:#000000; stroke-width:39.3701; stroke-opacity:1; 
stroke-linecap:round; stroke-linejoin:round;">
<path d="M30400 69880
L30400 50280
" />
<path d="M11000 50280
L30800 50280
" />
<path d="M10800 69880
L30800 69880
" />
<path d="M10835 70440
L10835 68920
" />
<path d="M10835 69160
L10835 49880
" />
<circle cx="55240" cy="64960" r="0.655906" /> 
<path d="M55239 64960
L55240 64960
" />
<path d="M55240 64960
L55240 64959
" />
</g>
<g style="fill:#000000; fill-opacity:0.0; 
stroke:#000000; stroke-width:59.0551; stroke-opacity:1; 
stroke-linecap:round; stroke-linejoin:round;">
</g>
<g style="fill:#000000; fill-opacity:1.0; 
stroke:#000000; stroke-width:59.0551; stroke-opacity:1; 
stroke-linecap:round; stroke-linejoin:round;">
<circle cx="23349" cy="51893" r="245.472" /> 
<circle cx="23349" cy="54893" r="245.472" /> 
<circle cx="13420" cy="51810" r="245.472" /> 
<circle cx="13420" cy="54810" r="245.472" /> 
<circle cx="23900" cy="66280" r="245.472" /> 
<circle cx="20900" cy="66280" r="245.472" /> 
<polyline style="fill-rule:evenodd;"
points="18435,56880
18435,57371
18926,57371
18926,56880
18435,56880
" /> 
<circle cx="19681" cy="57126" r="245.472" /> 
<circle cx="20681" cy="57126" r="245.472" /> 
<circle cx="21681" cy="57126" r="245.472" /> 
<circle cx="22681" cy="57126" r="245.472" /> 
<circle cx="23681" cy="57126" r="245.472" /> 
<circle cx="24681" cy="57126" r="245.472" /> 
<circle cx="25681" cy="57126" r="245.472" /> 
<circle cx="26681" cy="57126" r="245.472" /> 
<circle cx="27681" cy="57126" r="245.472" /> 
<circle cx="27681" cy="60126" r="245.472" /> 
<circle cx="26681" cy="60126" r="245.472" /> 
<circle cx="25681" cy="60126" r="245.472" /> 
<circle cx="24681" cy="60126" r="245.472" /> 
<circle cx="23681" cy="60126" r="245.472" /> 
<circle cx="22681" cy="60126" r="245.472" /> 
<circle cx="21681" cy="60126" r="245.472" /> 
<circle cx="20681" cy="60126" r="245.472" /> 
<circle cx="19681" cy="60126" r="245.472" /> 
<circle cx="18681" cy="60126" r="245.472" /> 
<polyline style="fill-rule:evenodd;"
points="24345,64525
24345,64034
23854,64034
23854,64525
24345,64525
" /> 
<circle cx="27100" cy="64280" r="245.472" /> 
<polyline style="fill-rule:evenodd;"
points="26854,62634
26854,63125
27345,63125
27345,62634
26854,62634
" /> 
<circle cx="24100" cy="62880" r="245.472" /> 
<circle cx="16100" cy="54880" r="245.472" /> 
<circle cx="15100" cy="54880" r="245.472" /> 
<circle cx="20900" cy="54280" r="245.472" /> 
<circle cx="21900" cy="54280" r="245.472" /> 
<circle cx="20000" cy="64180" r="245.472" /> 
<circle cx="20000" cy="63180" r="245.472" /> 
<circle cx="28800" cy="64180" r="245.472" /> 
<circle cx="28800" cy="63180" r="245.472" /> 
<circle cx="16310" cy="63690" r="245.472" /> 
<circle cx="16310" cy="62690" r="245.472" /> 
<circle cx="18250" cy="63755" r="245.472" /> 
<circle cx="18250" cy="62755" r="245.472" /> 
<polyline style="fill-rule:evenodd;"
points="20150,52286
20150,51345
19209,51345
19209,52286
20150,52286
" /> 
<circle cx="17680" cy="51816" r="470.472" /> 
<circle cx="15680" cy="51816" r="470.472" /> 
<polyline style="fill-rule:evenodd;"
points="14873,67884
14873,68825
15814,68825
15814,67884
14873,67884
" /> 
<circle cx="17344" cy="68355" r="470.472" /> 
<circle cx="19344" cy="68355" r="470.472" /> 
<polyline style="fill-rule:evenodd;"
points="29811,52320
29811,51379
28870,51379
28870,52320
29811,52320
" /> 
<circle cx="27341" cy="51850" r="470.472" /> 
<circle cx="25341" cy="51850" r="470.472" /> 
<polyline style="fill-rule:evenodd;"
points="12930,61099
11989,61099
11989,62040
12930,62040
12930,61099
" /> 
<circle cx="12460" cy="63570" r="470.472" /> 
<circle cx="12460" cy="65570" r="470.472" /> 
<polyline style="fill-rule:evenodd;"
points="24904,67884
24904,68825
25845,68825
25845,67884
24904,67884
" /> 
<circle cx="27375" cy="68355" r="470.472" /> 
<circle cx="29375" cy="68355" r="470.472" /> 
</g>
<g style="fill:#000000; fill-opacity:1.0; 
stroke:#000000; stroke-width:393.701; stroke-opacity:1; 
stroke-linecap:round; stroke-linejoin:round;">
<path d="M16310 63690
L18185 63690
" />
<path d="M18185 63690
L18250 63755
" />
<path d="M22681 57126
L22681 56561
" />
<path d="M20900 54780
L20900 54280
" />
<path d="M22681 56561
L20900 54780
" />
<path d="M23681 60126
L22681 60126
" />
<path d="M23681 57126
L23681 60126
" />
<path d="M22681 57126
L23681 57126
" />
<path d="M17344 68355
L17344 68336
" />
<path d="M25956 66936
L27375 68355
" />
<path d="M24743 66936
L25956 66936
" />
<path d="M24400 67280
L24743 66936
" />
<path d="M20400 67280
L24400 67280
" />
<path d="M20000 66880
L20400 67280
" />
<path d="M18800 66880
L20000 66880
" />
<path d="M17344 68336
L18800 66880
" />
<path d="M12460 63570
L13290 63570
" />
<path d="M17800 67899
L17344 68355
" />
<path d="M17800 65680
L17800 67899
" />
<path d="M17000 64880
L17800 65680
" />
<path d="M14600 64880
L17000 64880
" />
<path d="M13290 63570
L14600 64880
" />
<path d="M18681 60126
L18681 59806
" />
<path d="M15100 56225
L15100 54880
" />
<path d="M18681 59806
L15100 56225
" />
<path d="M13420 54810
L15030 54810
" />
<path d="M15030 54810
L15100 54880
" />
<path d="M25341 51850
L23392 51850
" />
<path d="M23392 51850
L23349 51893
" />
<path d="M15680 51816
L13426 51816
" />
<path d="M13426 51816
L13420 51810
" />
<path d="M19681 57126
L19681 51817
" />
<path d="M19681 51817
L19680 51816
" />
<path d="M25681 60126
L25681 60936
" />
<path d="M30030 67700
L29375 68355
" />
<path d="M30030 62415
L30030 67700
" />
<path d="M28875 61260
L30030 62415
" />
<path d="M26005 61260
L28875 61260
" />
<path d="M25681 60936
L26005 61260
" />
<path d="M23349 54893
L22513 54893
" />
<path d="M22513 54893
L21900 54280
" />
<path d="M27681 60126
L27681 59089
" />
<path d="M27823 54893
L23349 54893
" />
<path d="M29080 56150
L27823 54893
" />
<path d="M29080 57690
L29080 56150
" />
<path d="M27681 59089
L29080 57690
" />
<path d="M18681 57126
L18681 52817
" />
<path d="M18681 52817
L17680 51816
" />
<path d="M18250 62755
L16375 62755
" />
<path d="M16375 62755
L15190 61570
" />
<path d="M15190 61570
L12460 61570
" />
<path d="M23800 61480
L24800 61480
" />
<path d="M26200 64280
L27100 64280
" />
<path d="M25600 63680
L26200 64280
" />
<path d="M25600 62280
L25600 63680
" />
<path d="M24800 61480
L25600 62280
" />
<path d="M24681 60126
L24681 60599
" />
<path d="M23800 61480
L21000 61480
" />
<path d="M24681 60599
L23800 61480
" />
<path d="M21681 60126
L21681 60799
" />
<path d="M19525 61480
L18250 62755
" />
<path d="M21000 61480
L19525 61480
" />
<path d="M21681 60799
L21000 61480
" />
</g> 
</svg>
