<?xml version="1.0" standalone="no"?>
 <!DOCTYPE svg PUBLIC "-//W3C//DTD SVG 1.1//EN" 
 "http://www.w3.org/Graphics/SVG/1.1/DTD/svg11.dtd"> 
<svg xmlns="http://www.w3.org/2000/svg" version="1.1" 
    width="29.7002cm" height="21.0007cm" viewBox="0 0 116930 82680 ">
<title>SVG Picture created as CharlyRobot3-parallel-Eco2_User.svg date 2013/12/21 20:35:46 </title>
  <desc>Picture generated by PCBNEW </desc>
<g style="fill:#000000; fill-opacity:1;stroke:#000000; stroke-opacity:1;
stroke-linecap:round; stroke-linejoin:round; "
 transform="translate(0 0) scale(1 1)">
</g>
<g style="fill:#000000; fill-opacity:0.0; 
stroke:#000000; stroke-width:118.11; stroke-opacity:1; 
stroke-linecap:round; stroke-linejoin:round;">
<path d="M18434 71966
L18434 71572
" />
<path d="M18294 72191
L18153 71769
L18519 71769
" />
<path d="M18772 71572
L18884 71572
L18940 71600
L18968 71628
L19025 71713
L19053 71825
L19053 72050
L19025 72106
L18997 72134
L18940 72163
L18828 72163
L18772 72134
L18743 72106
L18715 72050
L18715 71909
L18743 71853
L18772 71825
L18828 71797
L18940 71797
L18997 71825
L19025 71853
L19053 71909
" />
<path d="M19334 71600
L19334 71572
L19306 71516
L19278 71488
" />
<path d="M19531 72163
L19925 72163
L19671 71572
" />
<path d="M20234 71909
L20178 71938
L20150 71966
L20121 72022
L20121 72050
L20150 72106
L20178 72134
L20234 72163
L20346 72163
L20403 72134
L20431 72106
L20459 72050
L20459 72022
L20431 71966
L20403 71938
L20346 71909
L20234 71909
L20178 71881
L20150 71853
L20121 71797
L20121 71684
L20150 71628
L20178 71600
L20234 71572
L20346 71572
L20403 71600
L20431 71628
L20459 71684
L20459 71797
L20431 71853
L20403 71881
L20346 71909
" />
<path d="M20965 71966
L20965 71572
" />
<path d="M20824 72191
L20684 71769
L21049 71769
" />
<path d="M21724 71572
L21724 71966
" />
<path d="M21724 71909
L21752 71938
L21809 71966
L21893 71966
L21949 71938
L21977 71881
L21977 71572
" />
<path d="M21977 71881
L22006 71938
L22062 71966
L22146 71966
L22202 71938
L22231 71881
L22231 71572
" />
<path d="M22512 71572
L22512 71966
" />
<path d="M22512 71909
L22540 71938
L22596 71966
L22680 71966
L22737 71938
L22765 71881
L22765 71572
" />
<path d="M22765 71881
L22793 71938
L22849 71966
L22934 71966
L22990 71938
L23018 71881
L23018 71572
" />
<path d="M30400 71279
L10800 71279
" />
<path d="M30400 69880
L30400 72342
" />
<path d="M10800 69880
L10800 72342
" />
<path d="M10800 71279
L11243 71510
" />
<path d="M10800 71279
L11243 71049
" />
<path d="M30400 71279
L29956 71510
" />
<path d="M30400 71279
L29956 71049
" />
<path d="M32686 62245
L32292 62245
" />
<path d="M32911 62385
L32489 62526
L32489 62160
" />
<path d="M32292 61907
L32292 61795
L32320 61739
L32348 61711
L32433 61654
L32545 61626
L32770 61626
L32826 61654
L32854 61682
L32883 61739
L32883 61851
L32854 61907
L32826 61936
L32770 61964
L32629 61964
L32573 61936
L32545 61907
L32517 61851
L32517 61739
L32545 61682
L32573 61654
L32629 61626
" />
<path d="M32320 61345
L32292 61345
L32236 61373
L32208 61401
" />
<path d="M32883 61148
L32883 60754
L32292 61008
" />
<path d="M32629 60445
L32658 60501
L32686 60529
L32742 60558
L32770 60558
L32826 60529
L32854 60501
L32883 60445
L32883 60333
L32854 60276
L32826 60248
L32770 60220
L32742 60220
L32686 60248
L32658 60276
L32629 60333
L32629 60445
L32601 60501
L32573 60529
L32517 60558
L32404 60558
L32348 60529
L32320 60501
L32292 60445
L32292 60333
L32320 60276
L32348 60248
L32404 60220
L32517 60220
L32573 60248
L32601 60276
L32629 60333
" />
<path d="M32686 59714
L32292 59714
" />
<path d="M32911 59855
L32489 59995
L32489 59630
" />
<path d="M32292 58955
L32686 58955
" />
<path d="M32629 58955
L32658 58927
L32686 58870
L32686 58786
L32658 58730
L32601 58702
L32292 58702
" />
<path d="M32601 58702
L32658 58673
L32686 58617
L32686 58533
L32658 58477
L32601 58448
L32292 58448
" />
<path d="M32292 58167
L32686 58167
" />
<path d="M32629 58167
L32658 58139
L32686 58083
L32686 57999
L32658 57942
L32601 57914
L32292 57914
" />
<path d="M32601 57914
L32658 57886
L32686 57830
L32686 57745
L32658 57689
L32601 57661
L32292 57661
" />
<path d="M31999 69880
L31999 50280
" />
<path d="M30400 69880
L33062 69880
" />
<path d="M30400 50280
L33062 50280
" />
<path d="M31999 50280
L31769 50723
" />
<path d="M31999 50280
L32230 50723
" />
<path d="M31999 69880
L31769 69436
" />
<path d="M31999 69880
L32230 69436
" />
</g>
<g style="fill:#000000; fill-opacity:0.0; 
stroke:#000000; stroke-width:39.3701; stroke-opacity:1; 
stroke-linecap:round; stroke-linejoin:round;">
<path d="M30400 69880
L30400 50280
" />
<path d="M11000 50280
L30800 50280
" />
<path d="M10800 69880
L30800 69880
" />
<path d="M10835 70440
L10835 68920
" />
<path d="M10835 69160
L10835 49880
" />
<circle cx="55240" cy="64960" r="0.655906" /> 
<path d="M55239 64960
L55240 64960
" />
<path d="M55240 64960
L55240 64959
" />
</g> 
</svg>
