G04 (created by PCBNEW (2013-07-07 BZR 4022)-stable) date 24/11/2013 20:20:40*
%MOIN*%
G04 Gerber Fmt 3.4, Leading zero omitted, Abs format*
%FSLAX34Y34*%
G01*
G70*
G90*
G04 APERTURE LIST*
%ADD10C,0.00590551*%
%ADD11C,0.011811*%
%ADD12C,0.00393701*%
%ADD13C,0.1516*%
%ADD14C,0.06*%
%ADD15C,0.1*%
%ADD16R,0.06X0.06*%
%ADD17R,0.055X0.055*%
%ADD18C,0.055*%
%ADD19R,0.1X0.1*%
%ADD20C,0.15*%
%ADD21C,0.035*%
%ADD22C,0.01*%
%ADD23C,0.0590551*%
G04 APERTURE END LIST*
G54D10*
G54D11*
X15626Y-1796D02*
X15739Y-1796D01*
X15795Y-1768D01*
X15823Y-1740D01*
X15880Y-1656D01*
X15908Y-1543D01*
X15908Y-1318D01*
X15880Y-1262D01*
X15852Y-1234D01*
X15796Y-1206D01*
X15684Y-1205D01*
X15627Y-1233D01*
X15599Y-1261D01*
X15571Y-1318D01*
X15571Y-1458D01*
X15599Y-1515D01*
X15627Y-1543D01*
X15683Y-1571D01*
X15795Y-1571D01*
X15852Y-1543D01*
X15880Y-1515D01*
X15908Y-1459D01*
X16470Y-1797D02*
X16132Y-1797D01*
X16301Y-1797D02*
X16302Y-1206D01*
X16246Y-1291D01*
X16190Y-1347D01*
X16133Y-1375D01*
X16751Y-1770D02*
X16751Y-1798D01*
X16723Y-1854D01*
X16695Y-1882D01*
X17032Y-1798D02*
X17145Y-1799D01*
X17201Y-1770D01*
X17229Y-1742D01*
X17286Y-1658D01*
X17314Y-1546D01*
X17314Y-1321D01*
X17286Y-1264D01*
X17258Y-1236D01*
X17202Y-1208D01*
X17090Y-1208D01*
X17033Y-1236D01*
X17005Y-1264D01*
X16977Y-1320D01*
X16977Y-1461D01*
X17005Y-1517D01*
X17033Y-1545D01*
X17089Y-1573D01*
X17201Y-1574D01*
X17258Y-1546D01*
X17286Y-1518D01*
X17314Y-1461D01*
X17820Y-1406D02*
X17820Y-1800D01*
X17680Y-1181D02*
X17539Y-1602D01*
X17904Y-1603D01*
X18214Y-1463D02*
X18158Y-1435D01*
X18130Y-1407D01*
X18102Y-1350D01*
X18102Y-1322D01*
X18130Y-1266D01*
X18158Y-1238D01*
X18214Y-1210D01*
X18327Y-1210D01*
X18383Y-1238D01*
X18411Y-1266D01*
X18439Y-1323D01*
X18439Y-1351D01*
X18411Y-1407D01*
X18383Y-1435D01*
X18327Y-1463D01*
X18214Y-1463D01*
X18158Y-1491D01*
X18130Y-1519D01*
X18101Y-1575D01*
X18101Y-1688D01*
X18129Y-1744D01*
X18157Y-1772D01*
X18213Y-1800D01*
X18326Y-1801D01*
X18382Y-1773D01*
X18410Y-1744D01*
X18439Y-1688D01*
X18439Y-1576D01*
X18411Y-1519D01*
X18383Y-1491D01*
X18327Y-1463D01*
X19141Y-1802D02*
X19142Y-1408D01*
X19142Y-1465D02*
X19170Y-1436D01*
X19227Y-1408D01*
X19311Y-1409D01*
X19367Y-1437D01*
X19395Y-1493D01*
X19395Y-1802D01*
X19395Y-1493D02*
X19423Y-1437D01*
X19480Y-1409D01*
X19564Y-1409D01*
X19620Y-1437D01*
X19648Y-1494D01*
X19648Y-1803D01*
X19929Y-1803D02*
X19930Y-1410D01*
X19929Y-1466D02*
X19958Y-1438D01*
X20014Y-1410D01*
X20098Y-1410D01*
X20154Y-1438D01*
X20183Y-1494D01*
X20182Y-1804D01*
X20183Y-1494D02*
X20211Y-1438D01*
X20267Y-1410D01*
X20351Y-1410D01*
X20408Y-1439D01*
X20436Y-1495D01*
X20435Y-1804D01*
X-81Y-999D02*
X36118Y-1059D01*
X-80Y-40D02*
X-83Y-2062D01*
X36120Y-100D02*
X36116Y-2122D01*
X36118Y-1059D02*
X35674Y-1290D01*
X36118Y-1059D02*
X35675Y-828D01*
X-81Y-999D02*
X361Y-1231D01*
X-81Y-999D02*
X362Y-769D01*
G54D12*
X60Y-60D02*
X20Y-60D01*
X60Y60300D02*
X60Y-60D01*
X36080Y60300D02*
X60Y60300D01*
X36080Y-40D02*
X36080Y60300D01*
X40Y-40D02*
X36080Y-40D01*
X44960Y56040D02*
G75*
G03X44960Y56040I0J0D01*
G74*
G01*
X44959Y56040D02*
X44960Y56040D01*
X44960Y56040D02*
X44960Y56039D01*
G54D13*
X4500Y30930D03*
X4500Y35430D03*
G54D14*
X7000Y34930D03*
X8000Y34680D03*
X7000Y33930D03*
X8000Y33680D03*
X7000Y32930D03*
X8000Y32680D03*
X7000Y31930D03*
G54D15*
X5700Y30130D03*
X5700Y36230D03*
G54D14*
X9900Y34330D03*
X9900Y32030D03*
X9900Y35330D03*
X9900Y31030D03*
G54D16*
X8000Y31680D03*
G54D13*
X4500Y46290D03*
X4500Y50790D03*
G54D14*
X7000Y50290D03*
X8000Y50040D03*
X7000Y49290D03*
X8000Y49040D03*
X7000Y48290D03*
X8000Y48040D03*
X7000Y47290D03*
G54D15*
X5700Y45490D03*
X5700Y51590D03*
G54D14*
X9900Y49690D03*
X9900Y47390D03*
X9900Y50690D03*
X9900Y46390D03*
G54D16*
X8000Y47040D03*
G54D13*
X4500Y38610D03*
X4500Y43110D03*
G54D14*
X7000Y42610D03*
X8000Y42360D03*
X7000Y41610D03*
X8000Y41360D03*
X7000Y40610D03*
X8000Y40360D03*
X7000Y39610D03*
G54D15*
X5700Y37810D03*
X5700Y43910D03*
G54D14*
X9900Y42010D03*
X9900Y39710D03*
X9900Y43010D03*
X9900Y38710D03*
G54D16*
X8000Y39360D03*
G54D17*
X28980Y31600D03*
G54D18*
X27980Y31600D03*
X26980Y31600D03*
X25980Y31600D03*
X24980Y31600D03*
X23980Y31600D03*
X22980Y31600D03*
X21980Y31600D03*
X20980Y31600D03*
X19980Y31600D03*
X19980Y28600D03*
X20980Y28600D03*
X21980Y28600D03*
X22980Y28600D03*
X23980Y28600D03*
X24980Y28600D03*
X25980Y28600D03*
X26980Y28600D03*
X27980Y28600D03*
X28980Y28600D03*
G54D17*
X29000Y18560D03*
G54D18*
X28000Y18560D03*
X27000Y18560D03*
X26000Y18560D03*
X25000Y18560D03*
X24000Y18560D03*
X23000Y18560D03*
X22000Y18560D03*
X21000Y18560D03*
X20000Y18560D03*
X20000Y15560D03*
X21000Y15560D03*
X22000Y15560D03*
X23000Y15560D03*
X24000Y15560D03*
X25000Y15560D03*
X26000Y15560D03*
X27000Y15560D03*
X28000Y15560D03*
X29000Y15560D03*
G54D17*
X28400Y48500D03*
G54D18*
X27400Y48500D03*
X26400Y48500D03*
X25400Y48500D03*
X24400Y48500D03*
X23400Y48500D03*
X22400Y48500D03*
X21400Y48500D03*
X21400Y45500D03*
X22400Y45500D03*
X23400Y45500D03*
X24400Y45500D03*
X25400Y45500D03*
X26400Y45500D03*
X27400Y45500D03*
X28400Y45500D03*
G54D17*
X28010Y41190D03*
G54D18*
X27010Y41190D03*
X26010Y41190D03*
X25010Y41190D03*
X24010Y41190D03*
X23010Y41190D03*
X22010Y41190D03*
X21010Y41190D03*
X21010Y38190D03*
X22010Y38190D03*
X23010Y38190D03*
X24010Y38190D03*
X25010Y38190D03*
X26010Y38190D03*
X27010Y38190D03*
X28010Y38190D03*
G54D17*
X21000Y10660D03*
G54D18*
X24000Y10660D03*
G54D17*
X22980Y22500D03*
G54D18*
X19980Y22500D03*
G54D17*
X23000Y9440D03*
G54D18*
X20000Y9440D03*
G54D17*
X20980Y23700D03*
G54D18*
X23980Y23700D03*
X31220Y43240D03*
X30220Y43240D03*
X17080Y26080D03*
X17080Y25080D03*
X21740Y42780D03*
X22740Y42780D03*
X31220Y41960D03*
X30220Y41960D03*
X31220Y46500D03*
X31220Y47500D03*
X21940Y50140D03*
X22940Y50140D03*
X25380Y50180D03*
X24380Y50180D03*
X27780Y50180D03*
X26780Y50180D03*
X25030Y42770D03*
X24030Y42770D03*
X27590Y42810D03*
X26590Y42810D03*
X14620Y8640D03*
X14620Y7640D03*
X19980Y25080D03*
X20980Y25080D03*
X26980Y23740D03*
X27980Y23740D03*
X16380Y27620D03*
X16380Y28620D03*
X14560Y15200D03*
X14560Y14200D03*
X14560Y12000D03*
X14560Y11000D03*
X27000Y10900D03*
X28000Y10900D03*
X20000Y11900D03*
X21000Y11900D03*
X18420Y26080D03*
X18420Y25080D03*
G54D19*
X34520Y12580D03*
G54D15*
X34520Y10580D03*
X34520Y8580D03*
G54D19*
X34520Y19060D03*
G54D15*
X34520Y17060D03*
X34520Y15060D03*
G54D19*
X34520Y25600D03*
G54D15*
X34520Y23600D03*
X34520Y21600D03*
G54D19*
X34520Y32100D03*
G54D15*
X34520Y30100D03*
X34520Y28100D03*
G54D18*
X9980Y11000D03*
X12980Y11000D03*
X10060Y7640D03*
X13060Y7640D03*
X23980Y22500D03*
X26980Y22500D03*
X10020Y14200D03*
X13020Y14200D03*
X17880Y31600D03*
X17880Y28600D03*
X24000Y9440D03*
X27000Y9440D03*
G54D19*
X34540Y4800D03*
G54D15*
X34540Y2800D03*
X34540Y800D03*
G54D19*
X34460Y44280D03*
G54D15*
X34460Y42280D03*
G54D20*
X30010Y54720D03*
X20010Y54720D03*
G54D16*
X22810Y53720D03*
G54D14*
X23910Y53720D03*
X24960Y53720D03*
X26060Y53720D03*
X27160Y53720D03*
X23360Y54720D03*
X24460Y54720D03*
X25510Y54720D03*
X26610Y54720D03*
G54D20*
X4520Y19730D03*
X4520Y1230D03*
G54D16*
X5520Y3980D03*
G54D14*
X5520Y5080D03*
X5520Y6130D03*
X5520Y7230D03*
X5520Y8330D03*
X5520Y9430D03*
X5520Y10480D03*
X5520Y11580D03*
X5520Y12680D03*
X5520Y13780D03*
X5520Y14830D03*
X5520Y15930D03*
X5520Y17030D03*
X4520Y4600D03*
X4520Y5600D03*
X4520Y6700D03*
X4520Y7780D03*
X4520Y8860D03*
X4520Y9960D03*
X4520Y11040D03*
X4520Y12120D03*
X4520Y13240D03*
X4520Y14300D03*
X4520Y15380D03*
X4520Y16480D03*
G54D19*
X1660Y23920D03*
G54D15*
X1660Y25920D03*
X1660Y27920D03*
G54D19*
X14060Y1280D03*
G54D15*
X12060Y1280D03*
X10060Y1280D03*
G54D19*
X10680Y56920D03*
G54D15*
X12680Y56920D03*
X14680Y56920D03*
G54D19*
X4520Y56660D03*
G54D15*
X6520Y56660D03*
G54D21*
X28640Y44260D03*
X12560Y37660D03*
X12540Y40180D03*
X22780Y24500D03*
X21540Y19180D03*
X24660Y3240D03*
X16360Y17300D03*
X16500Y20100D03*
X8800Y33280D03*
X6360Y32440D03*
X3620Y6240D03*
X7980Y35320D03*
X16240Y7640D03*
X17660Y8340D03*
X32440Y26260D03*
X32440Y33160D03*
X11060Y50480D03*
X25520Y52440D03*
X4500Y54740D03*
X6520Y54820D03*
X14660Y54780D03*
X16540Y45380D03*
X24120Y52020D03*
X12700Y54900D03*
X10660Y55020D03*
X15620Y48760D03*
X15620Y45000D03*
X6500Y40100D03*
X10000Y17040D03*
X8740Y40860D03*
X9560Y15940D03*
X17800Y50000D03*
X8900Y41560D03*
X19340Y48620D03*
X17260Y45340D03*
X22160Y53060D03*
X19360Y44460D03*
X12500Y44500D03*
X6460Y47740D03*
X32340Y13380D03*
X32380Y20040D03*
X18180Y12540D03*
X16320Y12340D03*
X23040Y27240D03*
X19980Y26280D03*
X25500Y13460D03*
X25480Y8000D03*
G54D22*
X30220Y43240D02*
X29220Y44240D01*
X29220Y44240D02*
X29220Y44260D01*
X28640Y44260D02*
X28920Y44260D01*
X34460Y42280D02*
X33600Y42280D01*
X33600Y42280D02*
X31620Y44260D01*
X31620Y44260D02*
X29220Y44260D01*
X29220Y44260D02*
X28920Y44260D01*
X28920Y44260D02*
X28660Y44260D01*
X12560Y37660D02*
X12560Y40160D01*
X12560Y40160D02*
X12540Y40180D01*
X24880Y28500D02*
X24980Y28600D01*
X24880Y27500D02*
X24880Y28500D01*
X22800Y25420D02*
X24880Y27500D01*
X22800Y25400D02*
X22800Y25420D01*
X22780Y25400D02*
X22800Y25400D01*
X22780Y24500D02*
X22780Y25400D01*
X23840Y19180D02*
X24000Y19020D01*
X24000Y19020D02*
X24000Y18560D01*
X24380Y19180D02*
X25000Y18560D01*
X21540Y19180D02*
X23840Y19180D01*
X23840Y19180D02*
X24380Y19180D01*
X24980Y28600D02*
X24980Y31600D01*
X24650Y14910D02*
X25000Y15260D01*
X25000Y15260D02*
X25000Y15560D01*
X16380Y27620D02*
X17260Y27620D01*
X23320Y27940D02*
X23980Y28600D01*
X18200Y27940D02*
X23320Y27940D01*
X17880Y27620D02*
X18200Y27940D01*
X17260Y27620D02*
X17880Y27620D01*
X24000Y15560D02*
X24650Y14910D01*
X24650Y14910D02*
X24660Y14900D01*
X24660Y14900D02*
X24660Y3240D01*
X7770Y6130D02*
X5520Y6130D01*
X9280Y7640D02*
X7770Y6130D01*
X10060Y7640D02*
X9280Y7640D01*
X28980Y28600D02*
X30040Y27540D01*
X16360Y17300D02*
X16360Y16780D01*
X17320Y20920D02*
X16500Y20100D01*
X28480Y20920D02*
X17320Y20920D01*
X30040Y22480D02*
X28480Y20920D01*
X30040Y22500D02*
X30040Y22480D01*
X30040Y27540D02*
X30040Y22500D01*
X16360Y16780D02*
X15840Y16260D01*
X15840Y16260D02*
X15840Y14860D01*
X15840Y14860D02*
X15840Y14640D01*
X15840Y14640D02*
X15420Y14220D01*
X14580Y14220D02*
X14560Y14200D01*
X15420Y14220D02*
X14580Y14220D01*
X13020Y14200D02*
X14560Y14200D01*
X17300Y19400D02*
X17720Y19820D01*
X7360Y10480D02*
X7680Y10480D01*
X7680Y10480D02*
X9500Y12300D01*
X9500Y12300D02*
X10080Y12300D01*
X10080Y12300D02*
X10160Y12300D01*
X10160Y12300D02*
X10200Y12300D01*
X10200Y12300D02*
X17300Y19400D01*
X5520Y10480D02*
X7360Y10480D01*
X29040Y31540D02*
X28980Y31600D01*
X30340Y31540D02*
X29040Y31540D01*
X31040Y30840D02*
X30340Y31540D01*
X31040Y21980D02*
X31040Y30840D01*
X28880Y19820D02*
X31040Y21980D01*
X17720Y19820D02*
X28880Y19820D01*
X28840Y29860D02*
X29740Y29860D01*
X28840Y29860D02*
X27980Y30720D01*
X27980Y31600D02*
X27980Y30720D01*
X29740Y29840D02*
X30420Y29160D01*
X29740Y29860D02*
X29740Y29840D01*
X30420Y22360D02*
X30420Y29160D01*
X28620Y20560D02*
X30420Y22360D01*
X17680Y20560D02*
X28620Y20560D01*
X10360Y13240D02*
X17680Y20560D01*
X10360Y13020D02*
X10360Y13240D01*
X10340Y13000D02*
X10360Y13020D01*
X9480Y13000D02*
X10340Y13000D01*
X8060Y11580D02*
X9480Y13000D01*
X7740Y11580D02*
X8060Y11580D01*
X5520Y11580D02*
X7740Y11580D01*
X8560Y12740D02*
X10020Y14200D01*
X5520Y12680D02*
X5580Y12740D01*
X5580Y12740D02*
X8560Y12740D01*
G54D23*
X27980Y23740D02*
X27980Y28600D01*
G54D22*
X9600Y32980D02*
X8960Y32340D01*
X9600Y33240D02*
X9600Y32980D01*
X9340Y33500D02*
X9600Y33240D01*
X9020Y33500D02*
X9340Y33500D01*
X8800Y33280D02*
X9020Y33500D01*
X8960Y32340D02*
X8960Y15840D01*
X8960Y15840D02*
X6900Y13780D01*
X6900Y13780D02*
X5520Y13780D01*
X6040Y32120D02*
X6040Y31420D01*
X6360Y32440D02*
X6040Y32120D01*
X5520Y14830D02*
X6430Y14830D01*
X8200Y29260D02*
X6040Y31420D01*
X8200Y16600D02*
X8200Y29260D01*
X6430Y14830D02*
X8200Y16600D01*
X3330Y6530D02*
X3330Y6550D01*
X3620Y6240D02*
X3330Y6530D01*
X7800Y35500D02*
X7800Y35520D01*
X7980Y35320D02*
X7800Y35500D01*
X7640Y35680D02*
X7800Y35520D01*
X6680Y35680D02*
X7640Y35680D01*
X3160Y32160D02*
X6680Y35680D01*
X3160Y21840D02*
X3160Y32160D01*
X3000Y21680D02*
X3160Y21840D01*
X3000Y6880D02*
X3000Y21680D01*
X3330Y6550D02*
X3000Y6880D01*
X14620Y7640D02*
X13060Y7640D01*
X14620Y7640D02*
X16240Y7640D01*
X17660Y8340D02*
X17660Y15600D01*
X29000Y15560D02*
X29000Y16120D01*
X18840Y16780D02*
X17660Y15600D01*
X28340Y16780D02*
X18840Y16780D01*
X29000Y16120D02*
X28340Y16780D01*
G54D23*
X28000Y10900D02*
X28000Y15560D01*
X32440Y26260D02*
X32440Y26600D01*
X32440Y33160D02*
X32440Y26600D01*
X32440Y26600D02*
X32440Y26280D01*
G54D22*
X19980Y28600D02*
X17880Y28600D01*
X17880Y28600D02*
X16380Y28600D01*
X16380Y28600D02*
X16360Y28620D01*
X29000Y18560D02*
X29000Y17680D01*
X15720Y3980D02*
X5520Y3980D01*
X17300Y5560D02*
X15720Y3980D01*
X17300Y15720D02*
X17300Y5560D01*
X18680Y17100D02*
X17300Y15720D01*
X28420Y17100D02*
X18680Y17100D01*
X29000Y17680D02*
X28420Y17100D01*
X4520Y6700D02*
X4340Y6880D01*
X11450Y50090D02*
X11450Y47510D01*
X11060Y50480D02*
X11450Y50090D01*
X22010Y38190D02*
X22020Y38180D01*
X13480Y45480D02*
X11450Y47510D01*
X13480Y45460D02*
X13480Y45480D01*
X13480Y42720D02*
X13480Y45460D01*
X19260Y36940D02*
X13480Y42720D01*
X21680Y36940D02*
X19260Y36940D01*
X22020Y37280D02*
X21680Y36940D01*
X22020Y38180D02*
X22020Y37280D01*
X24460Y51380D02*
X24460Y51240D01*
X25520Y52440D02*
X24460Y51380D01*
X23660Y49760D02*
X22400Y48500D01*
X24460Y51240D02*
X23660Y50440D01*
X23660Y50440D02*
X23660Y49760D01*
X28000Y18560D02*
X28000Y17860D01*
X16380Y5080D02*
X5520Y5080D01*
X16980Y5680D02*
X16380Y5080D01*
X16980Y15840D02*
X16980Y5680D01*
X18560Y17420D02*
X16980Y15840D01*
X27560Y17420D02*
X18560Y17420D01*
X28000Y17860D02*
X27560Y17420D01*
X4520Y54720D02*
X4520Y54520D01*
X4500Y54740D02*
X4520Y54720D01*
X4520Y54520D02*
X4520Y54220D01*
X20500Y37680D02*
X19680Y37680D01*
X19680Y37680D02*
X19640Y37680D01*
X19640Y37680D02*
X14320Y43000D01*
X14320Y43000D02*
X14320Y47800D01*
X14320Y47800D02*
X9080Y53040D01*
X9080Y53040D02*
X5700Y53040D01*
X5700Y53040D02*
X4520Y54220D01*
X20500Y37680D02*
X21010Y38190D01*
X6520Y54820D02*
X6520Y54540D01*
X6520Y54540D02*
X7260Y53800D01*
X19500Y42680D02*
X21010Y41190D01*
X19500Y43680D02*
X19500Y42680D01*
X9460Y53740D02*
X19500Y43680D01*
X9460Y53800D02*
X9460Y53740D01*
X7260Y53800D02*
X9460Y53800D01*
X14640Y54760D02*
X14640Y54100D01*
X14660Y54780D02*
X14640Y54760D01*
X24400Y45500D02*
X23120Y46780D01*
X14640Y54020D02*
X14640Y54100D01*
X23120Y46780D02*
X20380Y46780D01*
X20380Y46780D02*
X20200Y46780D01*
X20200Y46780D02*
X18600Y48380D01*
X18600Y48380D02*
X18600Y50060D01*
X18600Y50060D02*
X14640Y54020D01*
X23720Y39480D02*
X20660Y39480D01*
X20660Y39480D02*
X17520Y42620D01*
X23720Y39480D02*
X25010Y38190D01*
X17520Y42620D02*
X17520Y44400D01*
X17520Y44400D02*
X16540Y45380D01*
X24120Y52020D02*
X24040Y52020D01*
X21400Y48500D02*
X20940Y48960D01*
X20940Y48960D02*
X20940Y51100D01*
X20940Y51100D02*
X20940Y51160D01*
X21780Y52000D02*
X21800Y52020D01*
X21800Y52020D02*
X24040Y52020D01*
X20940Y51160D02*
X21780Y52000D01*
X21780Y52000D02*
X21820Y52040D01*
X12680Y54260D02*
X16780Y50160D01*
X12700Y54900D02*
X12700Y54240D01*
X16780Y50160D02*
X16780Y47800D01*
X16780Y47800D02*
X19220Y45360D01*
X19220Y45360D02*
X21260Y45360D01*
X21260Y45360D02*
X21400Y45500D01*
X10670Y55010D02*
X10670Y54010D01*
X10660Y55020D02*
X10670Y55010D01*
X24010Y38190D02*
X23200Y39000D01*
X15520Y49160D02*
X10670Y54010D01*
X15520Y49160D02*
X15620Y49060D01*
X15620Y49060D02*
X15620Y48760D01*
X23200Y39000D02*
X20520Y39000D01*
X20520Y39000D02*
X20480Y39000D01*
X20480Y39000D02*
X15620Y43860D01*
X15620Y43860D02*
X15620Y45000D01*
X6335Y39935D02*
X6325Y39935D01*
X6500Y40100D02*
X6335Y39935D01*
X6325Y39935D02*
X6160Y39770D01*
X6160Y39770D02*
X6160Y38760D01*
X6160Y38760D02*
X6180Y38760D01*
X6180Y38760D02*
X8580Y36360D01*
X8580Y36360D02*
X9960Y36360D01*
X9960Y36360D02*
X11020Y35300D01*
X11020Y35300D02*
X11020Y17520D01*
X11020Y17520D02*
X10540Y17040D01*
X10540Y17040D02*
X10000Y17040D01*
X21000Y18560D02*
X20200Y17760D01*
X5950Y7660D02*
X5520Y7230D01*
X7280Y7660D02*
X5950Y7660D01*
X9400Y9780D02*
X7280Y7660D01*
X15200Y9780D02*
X9400Y9780D01*
X16760Y11340D02*
X15200Y9780D01*
X16760Y16060D02*
X16760Y11340D01*
X18460Y17760D02*
X16760Y16060D01*
X20200Y17760D02*
X18460Y17760D01*
X9500Y40380D02*
X9040Y39920D01*
X9500Y40800D02*
X9500Y40380D01*
X9280Y41020D02*
X9500Y40800D01*
X8900Y41020D02*
X9280Y41020D01*
X8740Y40860D02*
X8900Y41020D01*
X9040Y37880D02*
X9040Y39920D01*
X11400Y35520D02*
X9040Y37880D01*
X9560Y15940D02*
X10420Y15940D01*
X10420Y15940D02*
X11400Y16920D01*
X11400Y16920D02*
X11400Y35520D01*
X17800Y48200D02*
X17800Y50000D01*
X19640Y46360D02*
X17800Y48200D01*
X19860Y46360D02*
X19640Y46360D01*
X22540Y46360D02*
X19860Y46360D01*
X23400Y45500D02*
X22540Y46360D01*
X5520Y8330D02*
X6030Y8840D01*
X18740Y18560D02*
X20000Y18560D01*
X16400Y16220D02*
X18740Y18560D01*
X16400Y13560D02*
X16400Y16220D01*
X15840Y13000D02*
X16400Y13560D01*
X13480Y13000D02*
X15840Y13000D01*
X10700Y10220D02*
X13480Y13000D01*
X9160Y10220D02*
X10700Y10220D01*
X7780Y8840D02*
X9160Y10220D01*
X6030Y8840D02*
X7780Y8840D01*
X23010Y36930D02*
X23010Y38190D01*
X22220Y36140D02*
X23010Y36930D01*
X19080Y36140D02*
X22220Y36140D01*
X13840Y41380D02*
X19080Y36140D01*
X9080Y41380D02*
X13840Y41380D01*
X8900Y41560D02*
X9080Y41380D01*
X24000Y40200D02*
X20840Y40200D01*
X20840Y40200D02*
X20800Y40200D01*
X20800Y40200D02*
X18180Y42820D01*
X24000Y40200D02*
X26010Y38190D01*
X20520Y51430D02*
X20520Y49800D01*
X20520Y49800D02*
X19340Y48620D01*
X17260Y45340D02*
X17260Y45240D01*
X17260Y45240D02*
X18180Y44320D01*
X18180Y44320D02*
X18180Y42820D01*
X20520Y51420D02*
X20520Y51430D01*
X22160Y53060D02*
X20520Y51420D01*
X6460Y47740D02*
X6450Y47740D01*
X8120Y44500D02*
X5920Y46700D01*
X5920Y46700D02*
X5920Y47210D01*
X21400Y44500D02*
X19400Y44500D01*
X19400Y44500D02*
X19360Y44460D01*
X12500Y44500D02*
X8120Y44500D01*
X22400Y45500D02*
X21400Y44500D01*
X6450Y47740D02*
X5920Y47210D01*
G54D23*
X32340Y13380D02*
X32380Y13420D01*
X32380Y13420D02*
X32380Y13600D01*
X32380Y13400D02*
X32380Y13600D01*
X32380Y13600D02*
X32380Y20040D01*
G54D22*
X7510Y9430D02*
X5520Y9430D01*
X9080Y11000D02*
X7510Y9430D01*
X9980Y11000D02*
X9080Y11000D01*
X18180Y13740D02*
X20000Y15560D01*
X18180Y12540D02*
X18180Y13740D01*
X15900Y12340D02*
X16320Y12340D01*
X14560Y11000D02*
X12980Y11000D01*
X14560Y11000D02*
X15900Y12340D01*
G54D23*
X22960Y27160D02*
X23040Y27240D01*
X20520Y27160D02*
X22960Y27160D01*
X19980Y27000D02*
X20520Y27160D01*
X19980Y26280D02*
X19980Y27000D01*
X25500Y8020D02*
X25480Y8000D01*
X25500Y13460D02*
X25500Y8020D01*
M02*
