G04 (created by PCBNEW (2013-07-07 BZR 4022)-stable) date 08/11/2013 11:05:38*
%MOIN*%
G04 Gerber Fmt 3.4, Leading zero omitted, Abs format*
%FSLAX34Y34*%
G01*
G70*
G90*
G04 APERTURE LIST*
%ADD10C,0.00590551*%
%ADD11C,0.011811*%
%ADD12C,0.00393701*%
G04 APERTURE END LIST*
G54D10*
G54D11*
X15626Y-1796D02*
X15739Y-1796D01*
X15795Y-1768D01*
X15823Y-1740D01*
X15880Y-1656D01*
X15908Y-1543D01*
X15908Y-1318D01*
X15880Y-1262D01*
X15852Y-1234D01*
X15796Y-1206D01*
X15684Y-1205D01*
X15627Y-1233D01*
X15599Y-1261D01*
X15571Y-1318D01*
X15571Y-1458D01*
X15599Y-1515D01*
X15627Y-1543D01*
X15683Y-1571D01*
X15795Y-1571D01*
X15852Y-1543D01*
X15880Y-1515D01*
X15908Y-1459D01*
X16470Y-1797D02*
X16132Y-1797D01*
X16301Y-1797D02*
X16302Y-1206D01*
X16246Y-1291D01*
X16190Y-1347D01*
X16133Y-1375D01*
X16751Y-1770D02*
X16751Y-1798D01*
X16723Y-1854D01*
X16695Y-1882D01*
X17032Y-1798D02*
X17145Y-1799D01*
X17201Y-1770D01*
X17229Y-1742D01*
X17286Y-1658D01*
X17314Y-1546D01*
X17314Y-1321D01*
X17286Y-1264D01*
X17258Y-1236D01*
X17202Y-1208D01*
X17090Y-1208D01*
X17033Y-1236D01*
X17005Y-1264D01*
X16977Y-1320D01*
X16977Y-1461D01*
X17005Y-1517D01*
X17033Y-1545D01*
X17089Y-1573D01*
X17201Y-1574D01*
X17258Y-1546D01*
X17286Y-1518D01*
X17314Y-1461D01*
X17820Y-1406D02*
X17820Y-1800D01*
X17680Y-1181D02*
X17539Y-1602D01*
X17904Y-1603D01*
X18214Y-1463D02*
X18158Y-1435D01*
X18130Y-1407D01*
X18102Y-1350D01*
X18102Y-1322D01*
X18130Y-1266D01*
X18158Y-1238D01*
X18214Y-1210D01*
X18327Y-1210D01*
X18383Y-1238D01*
X18411Y-1266D01*
X18439Y-1323D01*
X18439Y-1351D01*
X18411Y-1407D01*
X18383Y-1435D01*
X18327Y-1463D01*
X18214Y-1463D01*
X18158Y-1491D01*
X18130Y-1519D01*
X18101Y-1575D01*
X18101Y-1688D01*
X18129Y-1744D01*
X18157Y-1772D01*
X18213Y-1800D01*
X18326Y-1801D01*
X18382Y-1773D01*
X18410Y-1744D01*
X18439Y-1688D01*
X18439Y-1576D01*
X18411Y-1519D01*
X18383Y-1491D01*
X18327Y-1463D01*
X19141Y-1802D02*
X19142Y-1408D01*
X19142Y-1465D02*
X19170Y-1436D01*
X19227Y-1408D01*
X19311Y-1409D01*
X19367Y-1437D01*
X19395Y-1493D01*
X19395Y-1802D01*
X19395Y-1493D02*
X19423Y-1437D01*
X19480Y-1409D01*
X19564Y-1409D01*
X19620Y-1437D01*
X19648Y-1494D01*
X19648Y-1803D01*
X19929Y-1803D02*
X19930Y-1410D01*
X19929Y-1466D02*
X19958Y-1438D01*
X20014Y-1410D01*
X20098Y-1410D01*
X20154Y-1438D01*
X20183Y-1494D01*
X20182Y-1804D01*
X20183Y-1494D02*
X20211Y-1438D01*
X20267Y-1410D01*
X20351Y-1410D01*
X20408Y-1439D01*
X20436Y-1495D01*
X20435Y-1804D01*
X-81Y-999D02*
X36118Y-1059D01*
X-80Y-40D02*
X-83Y-2062D01*
X36120Y-100D02*
X36116Y-2122D01*
X36118Y-1059D02*
X35674Y-1290D01*
X36118Y-1059D02*
X35675Y-828D01*
X-81Y-999D02*
X361Y-1231D01*
X-81Y-999D02*
X362Y-769D01*
G54D12*
X60Y-60D02*
X20Y-60D01*
X60Y60300D02*
X60Y-60D01*
X36080Y60300D02*
X60Y60300D01*
X36080Y-40D02*
X36080Y60300D01*
X40Y-40D02*
X36080Y-40D01*
X44960Y56040D02*
G75*
G03X44960Y56040I0J0D01*
G74*
G01*
X44959Y56040D02*
X44960Y56040D01*
X44960Y56040D02*
X44960Y56039D01*
M02*
