  0
SECTION
  2
HEADER
  9
$ANGBASE
  50
0.0
  9
$ANGDIR
  70
  1
  9
$MEASUREMENT
  70
0
  0
ENDSEC
  0
SECTION
  2
TABLES
  0
TABLE
  2
LTYPE
  70
1
  0
LTYPE
  2
CONTINUOUS
  70
0
  3
Solid line
  72
65
  73
0
  40
0.0
  0
ENDTAB
  0
TABLE
  2
STYLE
  70
4
  0
STYLE
  2
KICAD
  70
0
  40
0
  41
1
  42
1
  50
0
  71
0
  3
isocp.shx
  0
STYLE
  2
KICADB
  70
0
  40
0
  41
1
  42
1
  50
0
  71
0
  3
isocp.shx
  0
STYLE
  2
KICADI
  70
0
  40
0
  41
1
  42
1
  50
15
  71
0
  3
isocp.shx
  0
STYLE
  2
KICADBI
  70
0
  40
0
  41
1
  42
1
  50
15
  71
0
  3
isocp.shx
  0
ENDTAB
  0
TABLE
  2
LAYER
  70
24
  0
LAYER
  2
BLACK
  70
0
  62
250
  6
CONTINUOUS
  0
LAYER
  2
BLUE
  70
0
  62
5
  6
CONTINUOUS
  0
LAYER
  2
GREEN
  70
0
  62
3
  6
CONTINUOUS
  0
LAYER
  2
CYAN
  70
0
  62
4
  6
CONTINUOUS
  0
LAYER
  2
RED
  70
0
  62
1
  6
CONTINUOUS
  0
LAYER
  2
MAGENTA
  70
0
  62
6
  6
CONTINUOUS
  0
LAYER
  2
BROWN
  70
0
  62
54
  6
CONTINUOUS
  0
LAYER
  2
LIGHTGRAY
  70
0
  62
9
  6
CONTINUOUS
  0
LAYER
  2
DARKGRAY
  70
0
  62
8
  6
CONTINUOUS
  0
LAYER
  2
LIGHTBLUE
  70
0
  62
171
  6
CONTINUOUS
  0
LAYER
  2
LIGHTGREEN
  70
0
  62
91
  6
CONTINUOUS
  0
LAYER
  2
LIGHTCYAN
  70
0
  62
131
  6
CONTINUOUS
  0
LAYER
  2
LIGHTRED
  70
0
  62
11
  6
CONTINUOUS
  0
LAYER
  2
LIGHTMAGENTA
  70
0
  62
221
  6
CONTINUOUS
  0
LAYER
  2
YELLOW
  70
0
  62
2
  6
CONTINUOUS
  0
LAYER
  2
WHITE
  70
0
  62
7
  6
CONTINUOUS
  0
LAYER
  2
DARKDARKGRAY
  70
0
  62
251
  6
CONTINUOUS
  0
LAYER
  2
DARKBLUE
  70
0
  62
178
  6
CONTINUOUS
  0
LAYER
  2
DARKGREEN
  70
0
  62
98
  6
CONTINUOUS
  0
LAYER
  2
DARKCYAN
  70
0
  62
138
  6
CONTINUOUS
  0
LAYER
  2
DARKRED
  70
0
  62
18
  6
CONTINUOUS
  0
LAYER
  2
DARKMAGENTA
  70
0
  62
228
  6
CONTINUOUS
  0
LAYER
  2
DARKBROWN
  70
0
  62
58
  6
CONTINUOUS
  0
LAYER
  2
LIGHTYELLOW
  70
0
  62
51
  6
CONTINUOUS
  0
ENDTAB
  0
ENDSEC
  0
SECTION
  2
ENTITIES
0
LINE
8
BLACK
10
65.8032
20
-191.913
11
66.089
21
-191.914
0
LINE
8
BLACK
10
66.089
20
-191.914
11
66.2319
21
-191.842
0
LINE
8
BLACK
10
66.2319
20
-191.842
11
66.3035
21
-191.771
0
LINE
8
BLACK
10
66.3035
20
-191.771
11
66.4467
21
-191.557
0
LINE
8
BLACK
10
66.4467
20
-191.557
11
66.5186
21
-191.272
0
LINE
8
BLACK
10
66.5186
20
-191.272
11
66.5196
21
-190.7
0
LINE
8
BLACK
10
66.5196
20
-190.7
11
66.4485
21
-190.557
0
LINE
8
BLACK
10
66.4485
20
-190.557
11
66.3772
21
-190.486
0
LINE
8
BLACK
10
66.3772
20
-190.486
11
66.2344
21
-190.414
0
LINE
8
BLACK
10
66.2344
20
-190.414
11
65.9487
21
-190.413
0
LINE
8
BLACK
10
65.9487
20
-190.413
11
65.8057
21
-190.485
0
LINE
8
BLACK
10
65.8057
20
-190.485
11
65.7342
21
-190.556
0
LINE
8
BLACK
10
65.7342
20
-190.556
11
65.6625
21
-190.699
0
LINE
8
BLACK
10
65.6625
20
-190.699
11
65.6619
21
-191.056
0
LINE
8
BLACK
10
65.6619
20
-191.056
11
65.7331
21
-191.199
0
LINE
8
BLACK
10
65.7331
20
-191.199
11
65.8044
21
-191.27
0
LINE
8
BLACK
10
65.8044
20
-191.27
11
65.9471
21
-191.342
0
LINE
8
BLACK
10
65.9471
20
-191.342
11
66.2328
21
-191.342
0
LINE
8
BLACK
10
66.2328
20
-191.342
11
66.3758
21
-191.271
0
LINE
8
BLACK
10
66.3758
20
-191.271
11
66.4473
21
-191.2
0
LINE
8
BLACK
10
66.4473
20
-191.2
11
66.519
21
-191.057
0
LINE
8
BLACK
10
67.9461
20
-191.917
11
67.089
21
-191.915
0
LINE
8
BLACK
10
67.5175
20
-191.916
11
67.5201
21
-190.416
0
LINE
8
BLACK
10
67.5201
20
-190.416
11
67.3769
21
-190.63
0
LINE
8
BLACK
10
67.3769
20
-190.63
11
67.2338
21
-190.773
0
LINE
8
BLACK
10
67.2338
20
-190.773
11
67.0908
21
-190.844
0
LINE
8
BLACK
10
68.6605
20
-191.847
11
68.6604
21
-191.918
0
LINE
8
BLACK
10
68.6604
20
-191.918
11
68.5887
21
-192.061
0
LINE
8
BLACK
10
68.5887
20
-192.061
11
68.5171
21
-192.132
0
LINE
8
BLACK
10
69.3747
20
-191.919
11
69.6604
21
-191.92
0
LINE
8
BLACK
10
69.6604
20
-191.92
11
69.8034
21
-191.849
0
LINE
8
BLACK
10
69.8034
20
-191.849
11
69.8749
21
-191.777
0
LINE
8
BLACK
10
69.8749
20
-191.777
11
70.0181
21
-191.563
0
LINE
8
BLACK
10
70.0181
20
-191.563
11
70.0901
21
-191.278
0
LINE
8
BLACK
10
70.0901
20
-191.278
11
70.0911
21
-190.706
0
LINE
8
BLACK
10
70.0911
20
-190.706
11
70.0199
21
-190.563
0
LINE
8
BLACK
10
70.0199
20
-190.563
11
69.9486
21
-190.492
0
LINE
8
BLACK
10
69.9486
20
-190.492
11
69.8059
21
-190.42
0
LINE
8
BLACK
10
69.8059
20
-190.42
11
69.5201
21
-190.42
0
LINE
8
BLACK
10
69.5201
20
-190.42
11
69.3772
21
-190.491
0
LINE
8
BLACK
10
69.3772
20
-190.491
11
69.3056
21
-190.562
0
LINE
8
BLACK
10
69.3056
20
-190.562
11
69.2339
21
-190.705
0
LINE
8
BLACK
10
69.2339
20
-190.705
11
69.2333
21
-191.062
0
LINE
8
BLACK
10
69.2333
20
-191.062
11
69.3045
21
-191.205
0
LINE
8
BLACK
10
69.3045
20
-191.205
11
69.3758
21
-191.277
0
LINE
8
BLACK
10
69.3758
20
-191.277
11
69.5185
21
-191.348
0
LINE
8
BLACK
10
69.5185
20
-191.348
11
69.8042
21
-191.349
0
LINE
8
BLACK
10
69.8042
20
-191.349
11
69.9472
21
-191.278
0
LINE
8
BLACK
10
69.9472
20
-191.278
11
70.0188
21
-191.206
0
LINE
8
BLACK
10
70.0188
20
-191.206
11
70.0904
21
-191.063
0
LINE
8
BLACK
10
71.3764
20
-190.923
11
71.3747
21
-191.923
0
LINE
8
BLACK
10
71.0203
20
-190.351
11
70.6613
21
-191.422
0
LINE
8
BLACK
10
70.6613
20
-191.422
11
71.5898
21
-191.423
0
LINE
8
BLACK
10
72.3762
20
-191.067
11
72.2334
21
-190.996
0
LINE
8
BLACK
10
72.2334
20
-190.996
11
72.1621
21
-190.924
0
LINE
8
BLACK
10
72.1621
20
-190.924
11
72.0909
21
-190.781
0
LINE
8
BLACK
10
72.0909
20
-190.781
11
72.0911
21
-190.71
0
LINE
8
BLACK
10
72.0911
20
-190.71
11
72.1627
21
-190.567
0
LINE
8
BLACK
10
72.1627
20
-190.567
11
72.2343
21
-190.496
0
LINE
8
BLACK
10
72.2343
20
-190.496
11
72.3773
21
-190.425
0
LINE
8
BLACK
10
72.3773
20
-190.425
11
72.663
21
-190.425
0
LINE
8
BLACK
10
72.663
20
-190.425
11
72.8057
21
-190.497
0
LINE
8
BLACK
10
72.8057
20
-190.497
11
72.877
21
-190.568
0
LINE
8
BLACK
10
72.877
20
-190.568
11
72.9482
21
-190.711
0
LINE
8
BLACK
10
72.9482
20
-190.711
11
72.9481
21
-190.783
0
LINE
8
BLACK
10
72.9481
20
-190.783
11
72.8764
21
-190.925
0
LINE
8
BLACK
10
72.8764
20
-190.925
11
72.8049
21
-190.997
0
LINE
8
BLACK
10
72.8049
20
-190.997
11
72.6619
21
-191.068
0
LINE
8
BLACK
10
72.6619
20
-191.068
11
72.3762
21
-191.067
0
LINE
8
BLACK
10
72.3762
20
-191.067
11
72.2332
21
-191.139
0
LINE
8
BLACK
10
72.2332
20
-191.139
11
72.1616
21
-191.21
0
LINE
8
BLACK
10
72.1616
20
-191.21
11
72.0899
21
-191.353
0
LINE
8
BLACK
10
72.0899
20
-191.353
11
72.0894
21
-191.638
0
LINE
8
BLACK
10
72.0894
20
-191.638
11
72.1606
21
-191.781
0
LINE
8
BLACK
10
72.1606
20
-191.781
11
72.2319
21
-191.853
0
LINE
8
BLACK
10
72.2319
20
-191.853
11
72.3747
21
-191.925
0
LINE
8
BLACK
10
72.3747
20
-191.925
11
72.6604
21
-191.925
0
LINE
8
BLACK
10
72.6604
20
-191.925
11
72.8034
21
-191.854
0
LINE
8
BLACK
10
72.8034
20
-191.854
11
72.8749
21
-191.783
0
LINE
8
BLACK
10
72.8749
20
-191.783
11
72.9466
21
-191.64
0
LINE
8
BLACK
10
72.9466
20
-191.64
11
72.9471
21
-191.354
0
LINE
8
BLACK
10
72.9471
20
-191.354
11
72.8759
21
-191.211
0
LINE
8
BLACK
10
72.8759
20
-191.211
11
72.8046
21
-191.14
0
LINE
8
BLACK
10
72.8046
20
-191.14
11
72.6619
21
-191.068
0
LINE
8
BLACK
10
74.7318
20
-191.929
11
74.7335
21
-190.929
0
LINE
8
BLACK
10
74.7333
20
-191.072
11
74.8048
21
-191
0
LINE
8
BLACK
10
74.8048
20
-191
11
74.9478
21
-190.929
0
LINE
8
BLACK
10
74.9478
20
-190.929
11
75.1621
21
-190.929
0
LINE
8
BLACK
10
75.1621
20
-190.929
11
75.3048
21
-191.001
0
LINE
8
BLACK
10
75.3048
20
-191.001
11
75.376
21
-191.144
0
LINE
8
BLACK
10
75.376
20
-191.144
11
75.3747
21
-191.93
0
LINE
8
BLACK
10
75.376
20
-191.144
11
75.4477
21
-191.001
0
LINE
8
BLACK
10
75.4477
20
-191.001
11
75.5907
21
-190.93
0
LINE
8
BLACK
10
75.5907
20
-190.93
11
75.805
21
-190.931
0
LINE
8
BLACK
10
75.805
20
-190.931
11
75.9477
21
-191.002
0
LINE
8
BLACK
10
75.9477
20
-191.002
11
76.0189
21
-191.145
0
LINE
8
BLACK
10
76.0189
20
-191.145
11
76.0175
21
-191.931
0
LINE
8
BLACK
10
76.7318
20
-191.932
11
76.7335
21
-190.932
0
LINE
8
BLACK
10
76.7333
20
-191.075
11
76.8048
21
-191.004
0
LINE
8
BLACK
10
76.8048
20
-191.004
11
76.9478
21
-190.933
0
LINE
8
BLACK
10
76.9478
20
-190.933
11
77.1621
21
-190.933
0
LINE
8
BLACK
10
77.1621
20
-190.933
11
77.3048
21
-191.005
0
LINE
8
BLACK
10
77.3048
20
-191.005
11
77.376
21
-191.148
0
LINE
8
BLACK
10
77.376
20
-191.148
11
77.3747
21
-191.933
0
LINE
8
BLACK
10
77.376
20
-191.148
11
77.4477
21
-191.005
0
LINE
8
BLACK
10
77.4477
20
-191.005
11
77.5907
21
-190.934
0
LINE
8
BLACK
10
77.5907
20
-190.934
11
77.805
21
-190.934
0
LINE
8
BLACK
10
77.805
20
-190.934
11
77.9477
21
-191.006
0
LINE
8
BLACK
10
77.9477
20
-191.006
11
78.0189
21
-191.149
0
LINE
8
BLACK
10
78.0189
20
-191.149
11
78.0175
21
-191.934
0
LINE
8
BLACK
10
25.9039
20
-190.117
11
117.852
21
-190.117
0
LINE
8
BLACK
10
25.9039
20
-189.817
11
117.852
21
-189.817
0
ARC
8
BLACK
10
117.852
20
-189.967
40
0.15
50
270
51
450
0
ARC
8
BLACK
10
25.9039
20
-189.967
40
0.15
50
90
51
270
0
LINE
8
BLACK
10
25.7537
20
-187.452
11
25.7537
21
-192.59
0
LINE
8
BLACK
10
26.0537
20
-187.452
11
26.0537
21
-192.59
0
ARC
8
BLACK
10
25.9037
20
-192.59
40
0.15
50
180
51
360
0
ARC
8
BLACK
10
25.9037
20
-187.452
40
0.15
50
0
51
180
0
LINE
8
BLACK
10
117.702
20
-187.604
11
117.702
21
-192.743
0
LINE
8
BLACK
10
118.002
20
-187.604
11
118.002
21
-192.743
0
ARC
8
BLACK
10
117.852
20
-192.743
40
0.15
50
180
51
360
0
ARC
8
BLACK
10
117.852
20
-187.604
40
0.15
50
0
51
180
0
LINE
8
BLACK
10
117.782
20
-189.909
11
116.656
21
-190.495
0
LINE
8
BLACK
10
117.921
20
-190.175
11
116.794
21
-190.761
0
ARC
8
BLACK
10
116.725
20
-190.628
40
0.15
50
117.5
51
297.5
0
ARC
8
BLACK
10
117.851
20
-190.042
40
0.15
50
-62.5
51
117.5
0
LINE
8
BLACK
10
117.921
20
-189.91
11
116.796
21
-189.322
0
LINE
8
BLACK
10
117.782
20
-190.176
11
116.657
21
-189.587
0
ARC
8
BLACK
10
116.726
20
-189.454
40
0.15
50
422.4
51
602.4
0
ARC
8
BLACK
10
117.852
20
-190.043
40
0.15
50
242.4
51
422.4
0
LINE
8
BLACK
10
25.8342
20
-190.024
11
26.9607
21
-190.611
0
LINE
8
BLACK
10
25.9727
20
-189.758
11
27.0992
21
-190.345
0
ARC
8
BLACK
10
27.03
20
-190.478
40
0.15
50
242.5
51
422.5
0
ARC
8
BLACK
10
25.9035
20
-189.891
40
0.15
50
62.5
51
242.5
0
LINE
8
BLACK
10
25.973
20
-190.024
11
27.1005
21
-189.439
0
LINE
8
BLACK
10
25.8349
20
-189.757
11
26.9624
21
-189.173
0
ARC
8
BLACK
10
27.0315
20
-189.306
40
0.15
50
297.4
51
477.4
0
ARC
8
BLACK
10
25.9039
20
-189.89
40
0.15
50
117.4
51
297.4
0
LINE
8
BLACK
10
26.162
20
-187.553
11
26.2636
21
-187.553
0
LINE
8
BLACK
10
26.162
20
-187.453
11
26.2636
21
-187.453
0
ARC
8
BLACK
10
26.2636
20
-187.503
40
0.05
50
270
51
450
0
ARC
8
BLACK
10
26.162
20
-187.503
40
0.05
50
90
51
270
0
LINE
8
BLACK
10
26.3136
20
-187.503
11
26.3136
21
-34.1884
0
LINE
8
BLACK
10
26.2136
20
-187.503
11
26.2136
21
-34.1884
0
ARC
8
BLACK
10
26.2636
20
-34.1884
40
0.05
50
360
51
540
0
ARC
8
BLACK
10
26.2636
20
-187.503
40
0.05
50
180
51
360
0
LINE
8
BLACK
10
26.2636
20
-34.2384
11
117.754
21
-34.2384
0
LINE
8
BLACK
10
26.2636
20
-34.1384
11
117.754
21
-34.1384
0
ARC
8
BLACK
10
117.754
20
-34.1884
40
0.05
50
270
51
450
0
ARC
8
BLACK
10
26.2636
20
-34.1884
40
0.05
50
90
51
270
0
LINE
8
BLACK
10
117.804
20
-187.452
11
117.804
21
-34.1884
0
LINE
8
BLACK
10
117.704
20
-187.452
11
117.704
21
-34.1884
0
ARC
8
BLACK
10
117.754
20
-34.1884
40
0.05
50
360
51
540
0
ARC
8
BLACK
10
117.754
20
-187.452
40
0.05
50
180
51
360
0
LINE
8
BLACK
10
26.2128
20
-187.502
11
117.754
21
-187.502
0
LINE
8
BLACK
10
26.2128
20
-187.402
11
117.754
21
-187.402
0
ARC
8
BLACK
10
117.754
20
-187.452
40
0.05
50
270
51
450
0
ARC
8
BLACK
10
26.2128
20
-187.452
40
0.05
50
90
51
270
0
CIRCLE
8
BLACK
10
140.31
20
-45.0088
40
0.051666
0
LINE
8
BLACK
10
140.307
20
-45.0588
11
140.312
21
-45.0588
0
LINE
8
BLACK
10
140.307
20
-44.9588
11
140.312
21
-44.9588
0
ARC
8
BLACK
10
140.312
20
-45.0088
40
0.05
50
270
51
450
0
ARC
8
BLACK
10
140.307
20
-45.0088
40
0.05
50
90
51
270
0
LINE
8
BLACK
10
140.36
20
-45.0113
11
140.36
21
-45.0063
0
LINE
8
BLACK
10
140.26
20
-45.0113
11
140.26
21
-45.0063
0
ARC
8
BLACK
10
140.31
20
-45.0063
40
0.05
50
360
51
540
0
ARC
8
BLACK
10
140.31
20
-45.0113
40
0.05
50
180
51
360
  0
ENDSEC
  0
EOF
