  0
SECTION
  2
HEADER
  9
$ANGBASE
  50
0.0
  9
$ANGDIR
  70
  1
  9
$MEASUREMENT
  70
0
  0
ENDSEC
  0
SECTION
  2
TABLES
  0
TABLE
  2
LTYPE
  70
1
  0
LTYPE
  2
CONTINUOUS
  70
0
  3
Solid line
  72
65
  73
0
  40
0.0
  0
ENDTAB
  0
TABLE
  2
STYLE
  70
4
  0
STYLE
  2
KICAD
  70
0
  40
0
  41
1
  42
1
  50
0
  71
0
  3
isocp.shx
  0
STYLE
  2
KICADB
  70
0
  40
0
  41
1
  42
1
  50
0
  71
0
  3
isocp.shx
  0
STYLE
  2
KICADI
  70
0
  40
0
  41
1
  42
1
  50
15
  71
0
  3
isocp.shx
  0
STYLE
  2
KICADBI
  70
0
  40
0
  41
1
  42
1
  50
15
  71
0
  3
isocp.shx
  0
ENDTAB
  0
TABLE
  2
LAYER
  70
24
  0
LAYER
  2
BLACK
  70
0
  62
250
  6
CONTINUOUS
  0
LAYER
  2
BLUE
  70
0
  62
5
  6
CONTINUOUS
  0
LAYER
  2
GREEN
  70
0
  62
3
  6
CONTINUOUS
  0
LAYER
  2
CYAN
  70
0
  62
4
  6
CONTINUOUS
  0
LAYER
  2
RED
  70
0
  62
1
  6
CONTINUOUS
  0
LAYER
  2
MAGENTA
  70
0
  62
6
  6
CONTINUOUS
  0
LAYER
  2
BROWN
  70
0
  62
54
  6
CONTINUOUS
  0
LAYER
  2
LIGHTGRAY
  70
0
  62
9
  6
CONTINUOUS
  0
LAYER
  2
DARKGRAY
  70
0
  62
8
  6
CONTINUOUS
  0
LAYER
  2
LIGHTBLUE
  70
0
  62
171
  6
CONTINUOUS
  0
LAYER
  2
LIGHTGREEN
  70
0
  62
91
  6
CONTINUOUS
  0
LAYER
  2
LIGHTCYAN
  70
0
  62
131
  6
CONTINUOUS
  0
LAYER
  2
LIGHTRED
  70
0
  62
11
  6
CONTINUOUS
  0
LAYER
  2
LIGHTMAGENTA
  70
0
  62
221
  6
CONTINUOUS
  0
LAYER
  2
YELLOW
  70
0
  62
2
  6
CONTINUOUS
  0
LAYER
  2
WHITE
  70
0
  62
7
  6
CONTINUOUS
  0
LAYER
  2
DARKDARKGRAY
  70
0
  62
251
  6
CONTINUOUS
  0
LAYER
  2
DARKBLUE
  70
0
  62
178
  6
CONTINUOUS
  0
LAYER
  2
DARKGREEN
  70
0
  62
98
  6
CONTINUOUS
  0
LAYER
  2
DARKCYAN
  70
0
  62
138
  6
CONTINUOUS
  0
LAYER
  2
DARKRED
  70
0
  62
18
  6
CONTINUOUS
  0
LAYER
  2
DARKMAGENTA
  70
0
  62
228
  6
CONTINUOUS
  0
LAYER
  2
DARKBROWN
  70
0
  62
58
  6
CONTINUOUS
  0
LAYER
  2
LIGHTYELLOW
  70
0
  62
51
  6
CONTINUOUS
  0
ENDTAB
  0
ENDSEC
  0
SECTION
  2
ENTITIES
0
LINE
8
BLACK
10
65.8032
20
-191.913
11
66.089
21
-191.914
0
LINE
8
BLACK
10
66.089
20
-191.914
11
66.2319
21
-191.842
0
LINE
8
BLACK
10
66.2319
20
-191.842
11
66.3035
21
-191.771
0
LINE
8
BLACK
10
66.3035
20
-191.771
11
66.4467
21
-191.557
0
LINE
8
BLACK
10
66.4467
20
-191.557
11
66.5186
21
-191.272
0
LINE
8
BLACK
10
66.5186
20
-191.272
11
66.5196
21
-190.7
0
LINE
8
BLACK
10
66.5196
20
-190.7
11
66.4485
21
-190.557
0
LINE
8
BLACK
10
66.4485
20
-190.557
11
66.3772
21
-190.486
0
LINE
8
BLACK
10
66.3772
20
-190.486
11
66.2344
21
-190.414
0
LINE
8
BLACK
10
66.2344
20
-190.414
11
65.9487
21
-190.413
0
LINE
8
BLACK
10
65.9487
20
-190.413
11
65.8057
21
-190.485
0
LINE
8
BLACK
10
65.8057
20
-190.485
11
65.7342
21
-190.556
0
LINE
8
BLACK
10
65.7342
20
-190.556
11
65.6625
21
-190.699
0
LINE
8
BLACK
10
65.6625
20
-190.699
11
65.6619
21
-191.056
0
LINE
8
BLACK
10
65.6619
20
-191.056
11
65.7331
21
-191.199
0
LINE
8
BLACK
10
65.7331
20
-191.199
11
65.8044
21
-191.27
0
LINE
8
BLACK
10
65.8044
20
-191.27
11
65.9471
21
-191.342
0
LINE
8
BLACK
10
65.9471
20
-191.342
11
66.2328
21
-191.342
0
LINE
8
BLACK
10
66.2328
20
-191.342
11
66.3758
21
-191.271
0
LINE
8
BLACK
10
66.3758
20
-191.271
11
66.4473
21
-191.2
0
LINE
8
BLACK
10
66.4473
20
-191.2
11
66.519
21
-191.057
0
LINE
8
BLACK
10
67.9461
20
-191.917
11
67.089
21
-191.915
0
LINE
8
BLACK
10
67.5175
20
-191.916
11
67.5201
21
-190.416
0
LINE
8
BLACK
10
67.5201
20
-190.416
11
67.3769
21
-190.63
0
LINE
8
BLACK
10
67.3769
20
-190.63
11
67.2338
21
-190.773
0
LINE
8
BLACK
10
67.2338
20
-190.773
11
67.0908
21
-190.844
0
LINE
8
BLACK
10
68.6605
20
-191.847
11
68.6604
21
-191.918
0
LINE
8
BLACK
10
68.6604
20
-191.918
11
68.5887
21
-192.061
0
LINE
8
BLACK
10
68.5887
20
-192.061
11
68.5171
21
-192.132
0
LINE
8
BLACK
10
69.3747
20
-191.919
11
69.6604
21
-191.92
0
LINE
8
BLACK
10
69.6604
20
-191.92
11
69.8034
21
-191.849
0
LINE
8
BLACK
10
69.8034
20
-191.849
11
69.8749
21
-191.777
0
LINE
8
BLACK
10
69.8749
20
-191.777
11
70.0181
21
-191.563
0
LINE
8
BLACK
10
70.0181
20
-191.563
11
70.0901
21
-191.278
0
LINE
8
BLACK
10
70.0901
20
-191.278
11
70.0911
21
-190.706
0
LINE
8
BLACK
10
70.0911
20
-190.706
11
70.0199
21
-190.563
0
LINE
8
BLACK
10
70.0199
20
-190.563
11
69.9486
21
-190.492
0
LINE
8
BLACK
10
69.9486
20
-190.492
11
69.8059
21
-190.42
0
LINE
8
BLACK
10
69.8059
20
-190.42
11
69.5201
21
-190.42
0
LINE
8
BLACK
10
69.5201
20
-190.42
11
69.3772
21
-190.491
0
LINE
8
BLACK
10
69.3772
20
-190.491
11
69.3056
21
-190.562
0
LINE
8
BLACK
10
69.3056
20
-190.562
11
69.2339
21
-190.705
0
LINE
8
BLACK
10
69.2339
20
-190.705
11
69.2333
21
-191.062
0
LINE
8
BLACK
10
69.2333
20
-191.062
11
69.3045
21
-191.205
0
LINE
8
BLACK
10
69.3045
20
-191.205
11
69.3758
21
-191.277
0
LINE
8
BLACK
10
69.3758
20
-191.277
11
69.5185
21
-191.348
0
LINE
8
BLACK
10
69.5185
20
-191.348
11
69.8042
21
-191.349
0
LINE
8
BLACK
10
69.8042
20
-191.349
11
69.9472
21
-191.278
0
LINE
8
BLACK
10
69.9472
20
-191.278
11
70.0188
21
-191.206
0
LINE
8
BLACK
10
70.0188
20
-191.206
11
70.0904
21
-191.063
0
LINE
8
BLACK
10
71.3764
20
-190.923
11
71.3747
21
-191.923
0
LINE
8
BLACK
10
71.0203
20
-190.351
11
70.6613
21
-191.422
0
LINE
8
BLACK
10
70.6613
20
-191.422
11
71.5898
21
-191.423
0
LINE
8
BLACK
10
72.3762
20
-191.067
11
72.2334
21
-190.996
0
LINE
8
BLACK
10
72.2334
20
-190.996
11
72.1621
21
-190.924
0
LINE
8
BLACK
10
72.1621
20
-190.924
11
72.0909
21
-190.781
0
LINE
8
BLACK
10
72.0909
20
-190.781
11
72.0911
21
-190.71
0
LINE
8
BLACK
10
72.0911
20
-190.71
11
72.1627
21
-190.567
0
LINE
8
BLACK
10
72.1627
20
-190.567
11
72.2343
21
-190.496
0
LINE
8
BLACK
10
72.2343
20
-190.496
11
72.3773
21
-190.425
0
LINE
8
BLACK
10
72.3773
20
-190.425
11
72.663
21
-190.425
0
LINE
8
BLACK
10
72.663
20
-190.425
11
72.8057
21
-190.497
0
LINE
8
BLACK
10
72.8057
20
-190.497
11
72.877
21
-190.568
0
LINE
8
BLACK
10
72.877
20
-190.568
11
72.9482
21
-190.711
0
LINE
8
BLACK
10
72.9482
20
-190.711
11
72.9481
21
-190.783
0
LINE
8
BLACK
10
72.9481
20
-190.783
11
72.8764
21
-190.925
0
LINE
8
BLACK
10
72.8764
20
-190.925
11
72.8049
21
-190.997
0
LINE
8
BLACK
10
72.8049
20
-190.997
11
72.6619
21
-191.068
0
LINE
8
BLACK
10
72.6619
20
-191.068
11
72.3762
21
-191.067
0
LINE
8
BLACK
10
72.3762
20
-191.067
11
72.2332
21
-191.139
0
LINE
8
BLACK
10
72.2332
20
-191.139
11
72.1616
21
-191.21
0
LINE
8
BLACK
10
72.1616
20
-191.21
11
72.0899
21
-191.353
0
LINE
8
BLACK
10
72.0899
20
-191.353
11
72.0894
21
-191.638
0
LINE
8
BLACK
10
72.0894
20
-191.638
11
72.1606
21
-191.781
0
LINE
8
BLACK
10
72.1606
20
-191.781
11
72.2319
21
-191.853
0
LINE
8
BLACK
10
72.2319
20
-191.853
11
72.3747
21
-191.925
0
LINE
8
BLACK
10
72.3747
20
-191.925
11
72.6604
21
-191.925
0
LINE
8
BLACK
10
72.6604
20
-191.925
11
72.8034
21
-191.854
0
LINE
8
BLACK
10
72.8034
20
-191.854
11
72.8749
21
-191.783
0
LINE
8
BLACK
10
72.8749
20
-191.783
11
72.9466
21
-191.64
0
LINE
8
BLACK
10
72.9466
20
-191.64
11
72.9471
21
-191.354
0
LINE
8
BLACK
10
72.9471
20
-191.354
11
72.8759
21
-191.211
0
LINE
8
BLACK
10
72.8759
20
-191.211
11
72.8046
21
-191.14
0
LINE
8
BLACK
10
72.8046
20
-191.14
11
72.6619
21
-191.068
0
LINE
8
BLACK
10
74.7318
20
-191.929
11
74.7335
21
-190.929
0
LINE
8
BLACK
10
74.7333
20
-191.072
11
74.8048
21
-191
0
LINE
8
BLACK
10
74.8048
20
-191
11
74.9478
21
-190.929
0
LINE
8
BLACK
10
74.9478
20
-190.929
11
75.1621
21
-190.929
0
LINE
8
BLACK
10
75.1621
20
-190.929
11
75.3048
21
-191.001
0
LINE
8
BLACK
10
75.3048
20
-191.001
11
75.376
21
-191.144
0
LINE
8
BLACK
10
75.376
20
-191.144
11
75.3747
21
-191.93
0
LINE
8
BLACK
10
75.376
20
-191.144
11
75.4477
21
-191.001
0
LINE
8
BLACK
10
75.4477
20
-191.001
11
75.5907
21
-190.93
0
LINE
8
BLACK
10
75.5907
20
-190.93
11
75.805
21
-190.931
0
LINE
8
BLACK
10
75.805
20
-190.931
11
75.9477
21
-191.002
0
LINE
8
BLACK
10
75.9477
20
-191.002
11
76.0189
21
-191.145
0
LINE
8
BLACK
10
76.0189
20
-191.145
11
76.0175
21
-191.931
0
LINE
8
BLACK
10
76.7318
20
-191.932
11
76.7335
21
-190.932
0
LINE
8
BLACK
10
76.7333
20
-191.075
11
76.8048
21
-191.004
0
LINE
8
BLACK
10
76.8048
20
-191.004
11
76.9478
21
-190.933
0
LINE
8
BLACK
10
76.9478
20
-190.933
11
77.1621
21
-190.933
0
LINE
8
BLACK
10
77.1621
20
-190.933
11
77.3048
21
-191.005
0
LINE
8
BLACK
10
77.3048
20
-191.005
11
77.376
21
-191.148
0
LINE
8
BLACK
10
77.376
20
-191.148
11
77.3747
21
-191.933
0
LINE
8
BLACK
10
77.376
20
-191.148
11
77.4477
21
-191.005
0
LINE
8
BLACK
10
77.4477
20
-191.005
11
77.5907
21
-190.934
0
LINE
8
BLACK
10
77.5907
20
-190.934
11
77.805
21
-190.934
0
LINE
8
BLACK
10
77.805
20
-190.934
11
77.9477
21
-191.006
0
LINE
8
BLACK
10
77.9477
20
-191.006
11
78.0189
21
-191.149
0
LINE
8
BLACK
10
78.0189
20
-191.149
11
78.0175
21
-191.934
0
LINE
8
BLACK
10
25.9039
20
-190.117
11
117.852
21
-190.117
0
LINE
8
BLACK
10
25.9039
20
-189.817
11
117.852
21
-189.817
0
ARC
8
BLACK
10
117.852
20
-189.967
40
0.15
50
270
51
450
0
ARC
8
BLACK
10
25.9039
20
-189.967
40
0.15
50
90
51
270
0
LINE
8
BLACK
10
25.7537
20
-187.452
11
25.7537
21
-192.59
0
LINE
8
BLACK
10
26.0537
20
-187.452
11
26.0537
21
-192.59
0
ARC
8
BLACK
10
25.9037
20
-192.59
40
0.15
50
180
51
360
0
ARC
8
BLACK
10
25.9037
20
-187.452
40
0.15
50
0
51
180
0
LINE
8
BLACK
10
117.702
20
-187.604
11
117.702
21
-192.743
0
LINE
8
BLACK
10
118.002
20
-187.604
11
118.002
21
-192.743
0
ARC
8
BLACK
10
117.852
20
-192.743
40
0.15
50
180
51
360
0
ARC
8
BLACK
10
117.852
20
-187.604
40
0.15
50
0
51
180
0
LINE
8
BLACK
10
117.782
20
-189.909
11
116.656
21
-190.495
0
LINE
8
BLACK
10
117.921
20
-190.175
11
116.794
21
-190.761
0
ARC
8
BLACK
10
116.725
20
-190.628
40
0.15
50
117.5
51
297.5
0
ARC
8
BLACK
10
117.851
20
-190.042
40
0.15
50
-62.5
51
117.5
0
LINE
8
BLACK
10
117.921
20
-189.91
11
116.796
21
-189.322
0
LINE
8
BLACK
10
117.782
20
-190.176
11
116.657
21
-189.587
0
ARC
8
BLACK
10
116.726
20
-189.454
40
0.15
50
422.4
51
602.4
0
ARC
8
BLACK
10
117.852
20
-190.043
40
0.15
50
242.4
51
422.4
0
LINE
8
BLACK
10
25.8342
20
-190.024
11
26.9607
21
-190.611
0
LINE
8
BLACK
10
25.9727
20
-189.758
11
27.0992
21
-190.345
0
ARC
8
BLACK
10
27.03
20
-190.478
40
0.15
50
242.5
51
422.5
0
ARC
8
BLACK
10
25.9035
20
-189.891
40
0.15
50
62.5
51
242.5
0
LINE
8
BLACK
10
25.973
20
-190.024
11
27.1005
21
-189.439
0
LINE
8
BLACK
10
25.8349
20
-189.757
11
26.9624
21
-189.173
0
ARC
8
BLACK
10
27.0315
20
-189.306
40
0.15
50
297.4
51
477.4
0
ARC
8
BLACK
10
25.9039
20
-189.89
40
0.15
50
117.4
51
297.4
0
LINE
8
BLACK
10
26.162
20
-187.553
11
26.2636
21
-187.553
0
LINE
8
BLACK
10
26.162
20
-187.453
11
26.2636
21
-187.453
0
ARC
8
BLACK
10
26.2636
20
-187.503
40
0.05
50
270
51
450
0
ARC
8
BLACK
10
26.162
20
-187.503
40
0.05
50
90
51
270
0
LINE
8
BLACK
10
26.3136
20
-187.503
11
26.3136
21
-34.1884
0
LINE
8
BLACK
10
26.2136
20
-187.503
11
26.2136
21
-34.1884
0
ARC
8
BLACK
10
26.2636
20
-34.1884
40
0.05
50
360
51
540
0
ARC
8
BLACK
10
26.2636
20
-187.503
40
0.05
50
180
51
360
0
LINE
8
BLACK
10
26.2636
20
-34.2384
11
117.754
21
-34.2384
0
LINE
8
BLACK
10
26.2636
20
-34.1384
11
117.754
21
-34.1384
0
ARC
8
BLACK
10
117.754
20
-34.1884
40
0.05
50
270
51
450
0
ARC
8
BLACK
10
26.2636
20
-34.1884
40
0.05
50
90
51
270
0
LINE
8
BLACK
10
117.804
20
-187.452
11
117.804
21
-34.1884
0
LINE
8
BLACK
10
117.704
20
-187.452
11
117.704
21
-34.1884
0
ARC
8
BLACK
10
117.754
20
-34.1884
40
0.05
50
360
51
540
0
ARC
8
BLACK
10
117.754
20
-187.452
40
0.05
50
180
51
360
0
LINE
8
BLACK
10
26.2128
20
-187.502
11
117.754
21
-187.502
0
LINE
8
BLACK
10
26.2128
20
-187.402
11
117.754
21
-187.402
0
ARC
8
BLACK
10
117.754
20
-187.452
40
0.05
50
270
51
450
0
ARC
8
BLACK
10
26.2128
20
-187.452
40
0.05
50
90
51
270
0
CIRCLE
8
BLACK
10
140.31
20
-45.0088
40
0.051666
0
LINE
8
BLACK
10
140.307
20
-45.0588
11
140.312
21
-45.0588
0
LINE
8
BLACK
10
140.307
20
-44.9588
11
140.312
21
-44.9588
0
ARC
8
BLACK
10
140.312
20
-45.0088
40
0.05
50
270
51
450
0
ARC
8
BLACK
10
140.307
20
-45.0088
40
0.05
50
90
51
270
0
LINE
8
BLACK
10
140.36
20
-45.0113
11
140.36
21
-45.0063
0
LINE
8
BLACK
10
140.26
20
-45.0113
11
140.26
21
-45.0063
0
ARC
8
BLACK
10
140.31
20
-45.0063
40
0.05
50
360
51
540
0
ARC
8
BLACK
10
140.31
20
-45.0113
40
0.05
50
180
51
360
0
CIRCLE
8
BLACK
10
37.5412
20
-108.788
40
1.92532
0
CIRCLE
8
BLACK
10
37.5412
20
-97.3582
40
1.92532
0
CIRCLE
8
BLACK
10
43.8912
20
-98.6282
40
0.762
0
CIRCLE
8
BLACK
10
46.4312
20
-99.2632
40
0.762
0
CIRCLE
8
BLACK
10
43.8912
20
-101.168
40
0.762
0
CIRCLE
8
BLACK
10
46.4312
20
-101.803
40
0.762
0
CIRCLE
8
BLACK
10
43.8912
20
-103.708
40
0.762
0
CIRCLE
8
BLACK
10
46.4312
20
-104.343
40
0.762
0
CIRCLE
8
BLACK
10
43.8912
20
-106.248
40
0.762
0
CIRCLE
8
BLACK
10
40.5892
20
-110.82
40
1.27
0
CIRCLE
8
BLACK
10
40.5892
20
-95.3262
40
1.27
0
CIRCLE
8
BLACK
10
51.2572
20
-100.152
40
0.762
0
CIRCLE
8
BLACK
10
51.2572
20
-105.994
40
0.762
0
CIRCLE
8
BLACK
10
51.2572
20
-97.6122
40
0.762
0
CIRCLE
8
BLACK
10
51.2572
20
-108.534
40
0.762
0
LINE
8
BLACK
10
47.1932
20
-106.121
11
45.6692
21
-106.121
0
LINE
8
BLACK
10
45.6692
20
-106.121
11
45.6692
21
-107.645
0
LINE
8
BLACK
10
45.6692
20
-107.645
11
47.1932
21
-107.645
0
LINE
8
BLACK
10
47.1932
20
-107.645
11
47.1932
21
-106.121
0
CIRCLE
8
BLACK
10
37.5412
20
-69.7738
40
1.92532
0
CIRCLE
8
BLACK
10
37.5412
20
-58.3438
40
1.92532
0
CIRCLE
8
BLACK
10
43.8912
20
-59.6138
40
0.762
0
CIRCLE
8
BLACK
10
46.4312
20
-60.2488
40
0.762
0
CIRCLE
8
BLACK
10
43.8912
20
-62.1538
40
0.762
0
CIRCLE
8
BLACK
10
46.4312
20
-62.7888
40
0.762
0
CIRCLE
8
BLACK
10
43.8912
20
-64.6938
40
0.762
0
CIRCLE
8
BLACK
10
46.4312
20
-65.3288
40
0.762
0
CIRCLE
8
BLACK
10
43.8912
20
-67.2338
40
0.762
0
CIRCLE
8
BLACK
10
40.5892
20
-71.8058
40
1.27
0
CIRCLE
8
BLACK
10
40.5892
20
-56.3118
40
1.27
0
CIRCLE
8
BLACK
10
51.2572
20
-61.1378
40
0.762
0
CIRCLE
8
BLACK
10
51.2572
20
-66.9798
40
0.762
0
CIRCLE
8
BLACK
10
51.2572
20
-58.5978
40
0.762
0
CIRCLE
8
BLACK
10
51.2572
20
-69.5198
40
0.762
0
LINE
8
BLACK
10
47.1932
20
-67.1068
11
45.6692
21
-67.1068
0
LINE
8
BLACK
10
45.6692
20
-67.1068
11
45.6692
21
-68.6308
0
LINE
8
BLACK
10
45.6692
20
-68.6308
11
47.1932
21
-68.6308
0
LINE
8
BLACK
10
47.1932
20
-68.6308
11
47.1932
21
-67.1068
0
CIRCLE
8
BLACK
10
37.5412
20
-89.281
40
1.92532
0
CIRCLE
8
BLACK
10
37.5412
20
-77.851
40
1.92532
0
CIRCLE
8
BLACK
10
43.8912
20
-79.121
40
0.762
0
CIRCLE
8
BLACK
10
46.4312
20
-79.756
40
0.762
0
CIRCLE
8
BLACK
10
43.8912
20
-81.661
40
0.762
0
CIRCLE
8
BLACK
10
46.4312
20
-82.296
40
0.762
0
CIRCLE
8
BLACK
10
43.8912
20
-84.201
40
0.762
0
CIRCLE
8
BLACK
10
46.4312
20
-84.836
40
0.762
0
CIRCLE
8
BLACK
10
43.8912
20
-86.741
40
0.762
0
CIRCLE
8
BLACK
10
40.5892
20
-91.313
40
1.27
0
CIRCLE
8
BLACK
10
40.5892
20
-75.819
40
1.27
0
CIRCLE
8
BLACK
10
51.2572
20
-80.645
40
0.762
0
CIRCLE
8
BLACK
10
51.2572
20
-86.487
40
0.762
0
CIRCLE
8
BLACK
10
51.2572
20
-78.105
40
0.762
0
CIRCLE
8
BLACK
10
51.2572
20
-89.027
40
0.762
0
LINE
8
BLACK
10
47.1932
20
-86.614
11
45.6692
21
-86.614
0
LINE
8
BLACK
10
45.6692
20
-86.614
11
45.6692
21
-88.138
0
LINE
8
BLACK
10
45.6692
20
-88.138
11
47.1932
21
-88.138
0
LINE
8
BLACK
10
47.1932
20
-88.138
11
47.1932
21
-86.614
0
LINE
8
BLACK
10
100.419
20
-107.785
11
100.419
21
-106.388
0
LINE
8
BLACK
10
100.419
20
-106.388
11
99.0219
21
-106.388
0
LINE
8
BLACK
10
99.0219
20
-106.388
11
99.0219
21
-107.785
0
LINE
8
BLACK
10
99.0219
20
-107.785
11
100.419
21
-107.785
0
CIRCLE
8
BLACK
10
97.1804
20
-107.086
40
0.6985
0
CIRCLE
8
BLACK
10
94.6404
20
-107.086
40
0.6985
0
CIRCLE
8
BLACK
10
92.1004
20
-107.086
40
0.6985
0
CIRCLE
8
BLACK
10
89.5604
20
-107.086
40
0.6985
0
CIRCLE
8
BLACK
10
87.0204
20
-107.086
40
0.6985
0
CIRCLE
8
BLACK
10
84.4804
20
-107.086
40
0.6985
0
CIRCLE
8
BLACK
10
81.9404
20
-107.086
40
0.6985
0
CIRCLE
8
BLACK
10
79.4004
20
-107.086
40
0.6985
0
CIRCLE
8
BLACK
10
76.8604
20
-107.086
40
0.6985
0
CIRCLE
8
BLACK
10
76.8604
20
-114.706
40
0.6985
0
CIRCLE
8
BLACK
10
79.4004
20
-114.706
40
0.6985
0
CIRCLE
8
BLACK
10
81.9404
20
-114.706
40
0.6985
0
CIRCLE
8
BLACK
10
84.4804
20
-114.706
40
0.6985
0
CIRCLE
8
BLACK
10
87.0204
20
-114.706
40
0.6985
0
CIRCLE
8
BLACK
10
89.5604
20
-114.706
40
0.6985
0
CIRCLE
8
BLACK
10
92.1004
20
-114.706
40
0.6985
0
CIRCLE
8
BLACK
10
94.6404
20
-114.706
40
0.6985
0
CIRCLE
8
BLACK
10
97.1804
20
-114.706
40
0.6985
0
CIRCLE
8
BLACK
10
99.7204
20
-114.706
40
0.6985
0
LINE
8
BLACK
10
100.47
20
-140.907
11
100.47
21
-139.51
0
LINE
8
BLACK
10
100.47
20
-139.51
11
99.0727
21
-139.51
0
LINE
8
BLACK
10
99.0727
20
-139.51
11
99.0727
21
-140.907
0
LINE
8
BLACK
10
99.0727
20
-140.907
11
100.47
21
-140.907
0
CIRCLE
8
BLACK
10
97.2312
20
-140.208
40
0.6985
0
CIRCLE
8
BLACK
10
94.6912
20
-140.208
40
0.6985
0
CIRCLE
8
BLACK
10
92.1512
20
-140.208
40
0.6985
0
CIRCLE
8
BLACK
10
89.6112
20
-140.208
40
0.6985
0
CIRCLE
8
BLACK
10
87.0712
20
-140.208
40
0.6985
0
CIRCLE
8
BLACK
10
84.5312
20
-140.208
40
0.6985
0
CIRCLE
8
BLACK
10
81.9912
20
-140.208
40
0.6985
0
CIRCLE
8
BLACK
10
79.4512
20
-140.208
40
0.6985
0
CIRCLE
8
BLACK
10
76.9112
20
-140.208
40
0.6985
0
CIRCLE
8
BLACK
10
76.9112
20
-147.828
40
0.6985
0
CIRCLE
8
BLACK
10
79.4512
20
-147.828
40
0.6985
0
CIRCLE
8
BLACK
10
81.9912
20
-147.828
40
0.6985
0
CIRCLE
8
BLACK
10
84.5312
20
-147.828
40
0.6985
0
CIRCLE
8
BLACK
10
87.0712
20
-147.828
40
0.6985
0
CIRCLE
8
BLACK
10
89.6112
20
-147.828
40
0.6985
0
CIRCLE
8
BLACK
10
92.1512
20
-147.828
40
0.6985
0
CIRCLE
8
BLACK
10
94.6912
20
-147.828
40
0.6985
0
CIRCLE
8
BLACK
10
97.2312
20
-147.828
40
0.6985
0
CIRCLE
8
BLACK
10
99.7712
20
-147.828
40
0.6985
0
LINE
8
BLACK
10
98.9457
20
-64.8589
11
98.9457
21
-63.4619
0
LINE
8
BLACK
10
98.9457
20
-63.4619
11
97.5487
21
-63.4619
0
LINE
8
BLACK
10
97.5487
20
-63.4619
11
97.5487
21
-64.8589
0
LINE
8
BLACK
10
97.5487
20
-64.8589
11
98.9457
21
-64.8589
0
CIRCLE
8
BLACK
10
95.7072
20
-64.1604
40
0.6985
0
CIRCLE
8
BLACK
10
93.1672
20
-64.1604
40
0.6985
0
CIRCLE
8
BLACK
10
90.6272
20
-64.1604
40
0.6985
0
CIRCLE
8
BLACK
10
88.0872
20
-64.1604
40
0.6985
0
CIRCLE
8
BLACK
10
85.5472
20
-64.1604
40
0.6985
0
CIRCLE
8
BLACK
10
83.0072
20
-64.1604
40
0.6985
0
CIRCLE
8
BLACK
10
80.4672
20
-64.1604
40
0.6985
0
CIRCLE
8
BLACK
10
80.4672
20
-71.7804
40
0.6985
0
CIRCLE
8
BLACK
10
83.0072
20
-71.7804
40
0.6985
0
CIRCLE
8
BLACK
10
85.5472
20
-71.7804
40
0.6985
0
CIRCLE
8
BLACK
10
88.0872
20
-71.7804
40
0.6985
0
CIRCLE
8
BLACK
10
90.6272
20
-71.7804
40
0.6985
0
CIRCLE
8
BLACK
10
93.1672
20
-71.7804
40
0.6985
0
CIRCLE
8
BLACK
10
95.7072
20
-71.7804
40
0.6985
0
CIRCLE
8
BLACK
10
98.2472
20
-71.7804
40
0.6985
0
LINE
8
BLACK
10
97.9551
20
-83.4263
11
97.9551
21
-82.0293
0
LINE
8
BLACK
10
97.9551
20
-82.0293
11
96.5581
21
-82.0293
0
LINE
8
BLACK
10
96.5581
20
-82.0293
11
96.5581
21
-83.4263
0
LINE
8
BLACK
10
96.5581
20
-83.4263
11
97.9551
21
-83.4263
0
CIRCLE
8
BLACK
10
94.7166
20
-82.7278
40
0.6985
0
CIRCLE
8
BLACK
10
92.1766
20
-82.7278
40
0.6985
0
CIRCLE
8
BLACK
10
89.6366
20
-82.7278
40
0.6985
0
CIRCLE
8
BLACK
10
87.0966
20
-82.7278
40
0.6985
0
CIRCLE
8
BLACK
10
84.5566
20
-82.7278
40
0.6985
0
CIRCLE
8
BLACK
10
82.0166
20
-82.7278
40
0.6985
0
CIRCLE
8
BLACK
10
79.4766
20
-82.7278
40
0.6985
0
CIRCLE
8
BLACK
10
79.4766
20
-90.3478
40
0.6985
0
CIRCLE
8
BLACK
10
82.0166
20
-90.3478
40
0.6985
0
CIRCLE
8
BLACK
10
84.5566
20
-90.3478
40
0.6985
0
CIRCLE
8
BLACK
10
87.0966
20
-90.3478
40
0.6985
0
CIRCLE
8
BLACK
10
89.6366
20
-90.3478
40
0.6985
0
CIRCLE
8
BLACK
10
92.1766
20
-90.3478
40
0.6985
0
CIRCLE
8
BLACK
10
94.7166
20
-90.3478
40
0.6985
0
CIRCLE
8
BLACK
10
97.2566
20
-90.3478
40
0.6985
0
LINE
8
BLACK
10
80.1497
20
-160.973
11
80.1497
21
-159.576
0
LINE
8
BLACK
10
80.1497
20
-159.576
11
78.7527
21
-159.576
0
LINE
8
BLACK
10
78.7527
20
-159.576
11
78.7527
21
-160.973
0
LINE
8
BLACK
10
78.7527
20
-160.973
11
80.1497
21
-160.973
0
CIRCLE
8
BLACK
10
87.0712
20
-160.274
40
0.6985
0
LINE
8
BLACK
10
83.7819
20
-129.502
11
83.7819
21
-130.899
0
LINE
8
BLACK
10
83.7819
20
-130.899
11
85.1789
21
-130.899
0
LINE
8
BLACK
10
85.1789
20
-130.899
11
85.1789
21
-129.502
0
LINE
8
BLACK
10
85.1789
20
-129.502
11
83.7819
21
-129.502
0
CIRCLE
8
BLACK
10
76.8604
20
-130.2
40
0.6985
0
LINE
8
BLACK
10
83.8327
20
-162.674
11
83.8327
21
-164.071
0
LINE
8
BLACK
10
83.8327
20
-164.071
11
85.2297
21
-164.071
0
LINE
8
BLACK
10
85.2297
20
-164.071
11
85.2297
21
-162.674
0
LINE
8
BLACK
10
85.2297
20
-162.674
11
83.8327
21
-162.674
0
CIRCLE
8
BLACK
10
76.9112
20
-163.373
40
0.6985
0
LINE
8
BLACK
10
80.0989
20
-127.851
11
80.0989
21
-126.454
0
LINE
8
BLACK
10
80.0989
20
-126.454
11
78.7019
21
-126.454
0
LINE
8
BLACK
10
78.7019
20
-126.454
11
78.7019
21
-127.851
0
LINE
8
BLACK
10
78.7019
20
-127.851
11
80.0989
21
-127.851
0
CIRCLE
8
BLACK
10
87.0204
20
-127.152
40
0.6985
0
CIRCLE
8
BLACK
10
105.41
20
-77.5208
40
0.6985
0
CIRCLE
8
BLACK
10
102.87
20
-77.5208
40
0.6985
0
CIRCLE
8
BLACK
10
69.4944
20
-121.107
40
0.6985
0
CIRCLE
8
BLACK
10
69.4944
20
-123.647
40
0.6985
0
CIRCLE
8
BLACK
10
81.3308
20
-78.6892
40
0.6985
0
CIRCLE
8
BLACK
10
83.8708
20
-78.6892
40
0.6985
0
CIRCLE
8
BLACK
10
105.41
20
-80.772
40
0.6985
0
CIRCLE
8
BLACK
10
102.87
20
-80.772
40
0.6985
0
CIRCLE
8
BLACK
10
105.41
20
-69.2404
40
0.6985
0
CIRCLE
8
BLACK
10
105.41
20
-66.7004
40
0.6985
0
CIRCLE
8
BLACK
10
81.8388
20
-59.9948
40
0.6985
0
CIRCLE
8
BLACK
10
84.3788
20
-59.9948
40
0.6985
0
CIRCLE
8
BLACK
10
90.5764
20
-59.8932
40
0.6985
0
CIRCLE
8
BLACK
10
88.0364
20
-59.8932
40
0.6985
0
CIRCLE
8
BLACK
10
96.6724
20
-59.8932
40
0.6985
0
CIRCLE
8
BLACK
10
94.1324
20
-59.8932
40
0.6985
0
CIRCLE
8
BLACK
10
89.6874
20
-78.7146
40
0.6985
0
CIRCLE
8
BLACK
10
87.1474
20
-78.7146
40
0.6985
0
CIRCLE
8
BLACK
10
96.1898
20
-78.613
40
0.6985
0
CIRCLE
8
BLACK
10
93.6498
20
-78.613
40
0.6985
0
CIRCLE
8
BLACK
10
63.246
20
-165.405
40
0.6985
0
CIRCLE
8
BLACK
10
63.246
20
-167.945
40
0.6985
0
CIRCLE
8
BLACK
10
76.8604
20
-123.647
40
0.6985
0
CIRCLE
8
BLACK
10
79.4004
20
-123.647
40
0.6985
0
CIRCLE
8
BLACK
10
94.6404
20
-127.051
40
0.6985
0
CIRCLE
8
BLACK
10
97.1804
20
-127.051
40
0.6985
0
CIRCLE
8
BLACK
10
67.7164
20
-117.196
40
0.6985
0
CIRCLE
8
BLACK
10
67.7164
20
-114.656
40
0.6985
0
CIRCLE
8
BLACK
10
63.0936
20
-148.742
40
0.6985
0
CIRCLE
8
BLACK
10
63.0936
20
-151.282
40
0.6985
0
CIRCLE
8
BLACK
10
63.0936
20
-156.87
40
0.6985
0
CIRCLE
8
BLACK
10
63.0936
20
-159.41
40
0.6985
0
CIRCLE
8
BLACK
10
94.6912
20
-159.664
40
0.6985
0
CIRCLE
8
BLACK
10
97.2312
20
-159.664
40
0.6985
0
CIRCLE
8
BLACK
10
76.9112
20
-157.124
40
0.6985
0
CIRCLE
8
BLACK
10
79.4512
20
-157.124
40
0.6985
0
CIRCLE
8
BLACK
10
72.898
20
-121.107
40
0.6985
0
CIRCLE
8
BLACK
10
72.898
20
-123.647
40
0.6985
0
LINE
8
BLACK
10
115.062
20
-154.127
11
112.522
21
-154.127
0
LINE
8
BLACK
10
112.522
20
-154.127
11
112.522
21
-156.667
0
LINE
8
BLACK
10
112.522
20
-156.667
11
115.062
21
-156.667
0
LINE
8
BLACK
10
115.062
20
-156.667
11
115.062
21
-154.127
0
CIRCLE
8
BLACK
10
113.792
20
-160.477
40
1.27
0
CIRCLE
8
BLACK
10
113.792
20
-165.557
40
1.27
0
LINE
8
BLACK
10
115.062
20
-137.668
11
112.522
21
-137.668
0
LINE
8
BLACK
10
112.522
20
-137.668
11
112.522
21
-140.208
0
LINE
8
BLACK
10
112.522
20
-140.208
11
115.062
21
-140.208
0
LINE
8
BLACK
10
115.062
20
-140.208
11
115.062
21
-137.668
0
CIRCLE
8
BLACK
10
113.792
20
-144.018
40
1.27
0
CIRCLE
8
BLACK
10
113.792
20
-149.098
40
1.27
0
LINE
8
BLACK
10
115.062
20
-121.056
11
112.522
21
-121.056
0
LINE
8
BLACK
10
112.522
20
-121.056
11
112.522
21
-123.596
0
LINE
8
BLACK
10
112.522
20
-123.596
11
115.062
21
-123.596
0
LINE
8
BLACK
10
115.062
20
-123.596
11
115.062
21
-121.056
0
CIRCLE
8
BLACK
10
113.792
20
-127.406
40
1.27
0
CIRCLE
8
BLACK
10
113.792
20
-132.486
40
1.27
0
LINE
8
BLACK
10
115.062
20
-104.546
11
112.522
21
-104.546
0
LINE
8
BLACK
10
112.522
20
-104.546
11
112.522
21
-107.086
0
LINE
8
BLACK
10
112.522
20
-107.086
11
115.062
21
-107.086
0
LINE
8
BLACK
10
115.062
20
-107.086
11
115.062
21
-104.546
0
CIRCLE
8
BLACK
10
113.792
20
-110.896
40
1.27
0
CIRCLE
8
BLACK
10
113.792
20
-115.976
40
1.27
0
CIRCLE
8
BLACK
10
51.4604
20
-159.41
40
0.6985
0
CIRCLE
8
BLACK
10
59.0804
20
-159.41
40
0.6985
0
CIRCLE
8
BLACK
10
51.6636
20
-167.945
40
0.6985
0
CIRCLE
8
BLACK
10
59.2836
20
-167.945
40
0.6985
0
CIRCLE
8
BLACK
10
87.0204
20
-130.2
40
0.6985
0
CIRCLE
8
BLACK
10
94.6404
20
-130.2
40
0.6985
0
CIRCLE
8
BLACK
10
51.562
20
-151.282
40
0.6985
0
CIRCLE
8
BLACK
10
59.182
20
-151.282
40
0.6985
0
CIRCLE
8
BLACK
10
71.5264
20
-107.086
40
0.6985
0
CIRCLE
8
BLACK
10
71.5264
20
-114.706
40
0.6985
0
CIRCLE
8
BLACK
10
87.0712
20
-163.373
40
0.6985
0
CIRCLE
8
BLACK
10
94.6912
20
-163.373
40
0.6985
0
LINE
8
BLACK
10
115.113
20
-173.888
11
112.573
21
-173.888
0
LINE
8
BLACK
10
112.573
20
-173.888
11
112.573
21
-176.428
0
LINE
8
BLACK
10
112.573
20
-176.428
11
115.113
21
-176.428
0
LINE
8
BLACK
10
115.113
20
-176.428
11
115.113
21
-173.888
0
CIRCLE
8
BLACK
10
113.843
20
-180.238
40
1.27
0
CIRCLE
8
BLACK
10
113.843
20
-185.318
40
1.27
0
LINE
8
BLACK
10
114.91
20
-73.6092
11
112.37
21
-73.6092
0
LINE
8
BLACK
10
112.37
20
-73.6092
11
112.37
21
-76.1492
0
LINE
8
BLACK
10
112.37
20
-76.1492
11
114.91
21
-76.1492
0
LINE
8
BLACK
10
114.91
20
-76.1492
11
114.91
21
-73.6092
0
CIRCLE
8
BLACK
10
113.64
20
-79.9592
40
1.27
0
CIRCLE
8
BLACK
10
102.337
20
-48.3616
40
1.905
0
CIRCLE
8
BLACK
10
76.9366
20
-48.3616
40
1.905
0
LINE
8
BLACK
10
83.2866
20
-50.1396
11
83.2866
21
-51.6636
0
LINE
8
BLACK
10
83.2866
20
-51.6636
11
84.8106
21
-51.6636
0
LINE
8
BLACK
10
84.8106
20
-51.6636
11
84.8106
21
-50.1396
0
LINE
8
BLACK
10
84.8106
20
-50.1396
11
83.2866
21
-50.1396
0
CIRCLE
8
BLACK
10
86.8426
20
-50.9016
40
0.762
0
CIRCLE
8
BLACK
10
89.5096
20
-50.9016
40
0.762
0
CIRCLE
8
BLACK
10
92.3036
20
-50.9016
40
0.762
0
CIRCLE
8
BLACK
10
95.0976
20
-50.9016
40
0.762
0
CIRCLE
8
BLACK
10
85.4456
20
-48.3616
40
0.762
0
CIRCLE
8
BLACK
10
88.2396
20
-48.3616
40
0.762
0
CIRCLE
8
BLACK
10
90.9066
20
-48.3616
40
0.762
0
CIRCLE
8
BLACK
10
93.7006
20
-48.3616
40
0.762
0
CIRCLE
8
BLACK
10
37.592
20
-137.236
40
1.905
0
CIRCLE
8
BLACK
10
37.592
20
-184.226
40
1.905
0
LINE
8
BLACK
10
39.37
20
-178.003
11
40.894
21
-178.003
0
LINE
8
BLACK
10
40.894
20
-178.003
11
40.894
21
-176.479
0
LINE
8
BLACK
10
40.894
20
-176.479
11
39.37
21
-176.479
0
LINE
8
BLACK
10
39.37
20
-176.479
11
39.37
21
-178.003
0
CIRCLE
8
BLACK
10
40.132
20
-174.447
40
0.762
0
CIRCLE
8
BLACK
10
40.132
20
-171.78
40
0.762
0
CIRCLE
8
BLACK
10
40.132
20
-168.986
40
0.762
0
CIRCLE
8
BLACK
10
40.132
20
-166.192
40
0.762
0
CIRCLE
8
BLACK
10
40.132
20
-163.398
40
0.762
0
CIRCLE
8
BLACK
10
40.132
20
-160.731
40
0.762
0
CIRCLE
8
BLACK
10
40.132
20
-157.937
40
0.762
0
CIRCLE
8
BLACK
10
40.132
20
-155.143
40
0.762
0
CIRCLE
8
BLACK
10
40.132
20
-152.349
40
0.762
0
CIRCLE
8
BLACK
10
40.132
20
-149.682
40
0.762
0
CIRCLE
8
BLACK
10
40.132
20
-146.888
40
0.762
0
CIRCLE
8
BLACK
10
40.132
20
-144.094
40
0.762
0
CIRCLE
8
BLACK
10
37.592
20
-175.666
40
0.762
0
CIRCLE
8
BLACK
10
37.592
20
-173.126
40
0.762
0
CIRCLE
8
BLACK
10
37.592
20
-170.332
40
0.762
0
CIRCLE
8
BLACK
10
37.592
20
-167.589
40
0.762
0
CIRCLE
8
BLACK
10
37.592
20
-164.846
40
0.762
0
CIRCLE
8
BLACK
10
37.592
20
-162.052
40
0.762
0
CIRCLE
8
BLACK
10
37.592
20
-159.309
40
0.762
0
CIRCLE
8
BLACK
10
37.592
20
-156.566
40
0.762
0
CIRCLE
8
BLACK
10
37.592
20
-153.721
40
0.762
0
CIRCLE
8
BLACK
10
37.592
20
-151.028
40
0.762
0
CIRCLE
8
BLACK
10
37.592
20
-148.285
40
0.762
0
CIRCLE
8
BLACK
10
37.592
20
-145.491
40
0.762
0
LINE
8
BLACK
10
29.0576
20
-127.864
11
31.5976
21
-127.864
0
LINE
8
BLACK
10
31.5976
20
-127.864
11
31.5976
21
-125.324
0
LINE
8
BLACK
10
31.5976
20
-125.324
11
29.0576
21
-125.324
0
LINE
8
BLACK
10
29.0576
20
-125.324
11
29.0576
21
-127.864
0
CIRCLE
8
BLACK
10
30.3276
20
-121.514
40
1.27
0
CIRCLE
8
BLACK
10
30.3276
20
-116.434
40
1.27
0
LINE
8
BLACK
10
63.0936
20
-185.369
11
63.0936
21
-182.829
0
LINE
8
BLACK
10
63.0936
20
-182.829
11
60.5536
21
-182.829
0
LINE
8
BLACK
10
60.5536
20
-182.829
11
60.5536
21
-185.369
0
LINE
8
BLACK
10
60.5536
20
-185.369
11
63.0936
21
-185.369
0
CIRCLE
8
BLACK
10
56.7436
20
-184.099
40
1.27
0
CIRCLE
8
BLACK
10
51.6636
20
-184.099
40
1.27
0
LINE
8
BLACK
10
51.9684
20
-41.5036
11
51.9684
21
-44.0436
0
LINE
8
BLACK
10
51.9684
20
-44.0436
11
54.5084
21
-44.0436
0
LINE
8
BLACK
10
54.5084
20
-44.0436
11
54.5084
21
-41.5036
0
LINE
8
BLACK
10
54.5084
20
-41.5036
11
51.9684
21
-41.5036
0
CIRCLE
8
BLACK
10
58.3184
20
-42.7736
40
1.27
0
CIRCLE
8
BLACK
10
63.3984
20
-42.7736
40
1.27
0
LINE
8
BLACK
10
36.322
20
-42.164
11
36.322
21
-44.704
0
LINE
8
BLACK
10
36.322
20
-44.704
11
38.862
21
-44.704
0
LINE
8
BLACK
10
38.862
20
-44.704
11
38.862
21
-42.164
0
LINE
8
BLACK
10
38.862
20
-42.164
11
36.322
21
-42.164
0
CIRCLE
8
BLACK
10
42.672
20
-43.434
40
1.27
0
CIRCLE
8
BLACK
10
98.8568
20
-74.93
40
0.4445
0
CIRCLE
8
BLACK
10
58.0136
20
-91.694
40
0.4445
0
CIRCLE
8
BLACK
10
57.9628
20
-85.2932
40
0.4445
0
CIRCLE
8
BLACK
10
83.9724
20
-125.12
40
0.4445
0
CIRCLE
8
BLACK
10
80.8228
20
-138.633
40
0.4445
0
CIRCLE
8
BLACK
10
88.7476
20
-179.121
40
0.4445
0
CIRCLE
8
BLACK
10
67.6656
20
-143.408
40
0.4445
0
CIRCLE
8
BLACK
10
68.0212
20
-136.296
40
0.4445
0
CIRCLE
8
BLACK
10
48.4632
20
-102.819
40
0.4445
0
CIRCLE
8
BLACK
10
42.2656
20
-104.953
40
0.4445
0
CIRCLE
8
BLACK
10
35.306
20
-171.501
40
0.4445
0
CIRCLE
8
BLACK
10
46.3804
20
-97.6376
40
0.4445
0
CIRCLE
8
BLACK
10
67.3608
20
-167.945
40
0.4445
0
CIRCLE
8
BLACK
10
70.9676
20
-166.167
40
0.4445
0
CIRCLE
8
BLACK
10
108.509
20
-120.65
40
0.4445
0
CIRCLE
8
BLACK
10
108.509
20
-103.124
40
0.4445
0
CIRCLE
8
BLACK
10
54.2036
20
-59.1312
40
0.4445
0
CIRCLE
8
BLACK
10
90.932
20
-54.1528
40
0.4445
0
CIRCLE
8
BLACK
10
37.5412
20
-48.3108
40
0.4445
0
CIRCLE
8
BLACK
10
42.672
20
-48.1076
40
0.4445
0
CIRCLE
8
BLACK
10
63.3476
20
-48.2092
40
0.4445
0
CIRCLE
8
BLACK
10
68.1228
20
-72.0852
40
0.4445
0
CIRCLE
8
BLACK
10
87.376
20
-55.2196
40
0.4445
0
CIRCLE
8
BLACK
10
58.3692
20
-47.9044
40
0.4445
0
CIRCLE
8
BLACK
10
53.1876
20
-47.5996
40
0.4445
0
CIRCLE
8
BLACK
10
65.786
20
-63.5
40
0.4445
0
CIRCLE
8
BLACK
10
65.786
20
-73.0504
40
0.4445
0
CIRCLE
8
BLACK
10
42.6212
20
-85.4964
40
0.4445
0
CIRCLE
8
BLACK
10
51.5112
20
-144.069
40
0.4445
0
CIRCLE
8
BLACK
10
48.3108
20
-83.566
40
0.4445
0
CIRCLE
8
BLACK
10
50.3936
20
-146.863
40
0.4445
0
CIRCLE
8
BLACK
10
71.3232
20
-60.3504
40
0.4445
0
CIRCLE
8
BLACK
10
48.7172
20
-81.788
40
0.4445
0
CIRCLE
8
BLACK
10
75.2348
20
-63.8556
40
0.4445
0
CIRCLE
8
BLACK
10
69.9516
20
-72.1868
40
0.4445
0
CIRCLE
8
BLACK
10
82.3976
20
-52.578
40
0.4445
0
CIRCLE
8
BLACK
10
75.2856
20
-74.422
40
0.4445
0
CIRCLE
8
BLACK
10
57.8612
20
-74.3204
40
0.4445
0
CIRCLE
8
BLACK
10
42.5196
20
-66.0908
40
0.4445
0
CIRCLE
8
BLACK
10
108.255
20
-153.365
40
0.4445
0
CIRCLE
8
BLACK
10
108.356
20
-136.449
40
0.4445
0
CIRCLE
8
BLACK
10
72.2884
20
-155.499
40
0.4445
0
CIRCLE
8
BLACK
10
67.564
20
-156.007
40
0.4445
0
CIRCLE
8
BLACK
10
84.6328
20
-118.161
40
0.4445
0
CIRCLE
8
BLACK
10
76.8604
20
-120.599
40
0.4445
0
CIRCLE
8
BLACK
10
90.8812
20
-153.162
40
0.4445
0
CIRCLE
8
BLACK
10
90.8304
20
-167.03
40
0.4445
0
LINE
8
BLACK
10
105.537
20
-77.5208
11
105.537
21
-69.2404
0
LINE
8
BLACK
10
105.283
20
-77.5208
11
105.283
21
-69.2404
0
ARC
8
BLACK
10
105.41
20
-69.2404
40
0.127
50
360
51
540
0
ARC
8
BLACK
10
105.41
20
-77.5208
40
0.127
50
180
51
360
0
LINE
8
BLACK
10
105.537
20
-77.5208
11
105.537
21
-77.47
0
LINE
8
BLACK
10
105.283
20
-77.5208
11
105.283
21
-77.47
0
ARC
8
BLACK
10
105.41
20
-77.47
40
0.127
50
360
51
540
0
ARC
8
BLACK
10
105.41
20
-77.5208
40
0.127
50
180
51
360
0
LINE
8
BLACK
10
98.2472
20
-71.9074
11
99.7204
21
-71.9074
0
LINE
8
BLACK
10
98.2472
20
-71.6534
11
99.7204
21
-71.6534
0
ARC
8
BLACK
10
99.7204
20
-71.7804
40
0.127
50
270
51
450
0
ARC
8
BLACK
10
98.2472
20
-71.7804
40
0.127
50
90
51
270
0
LINE
8
BLACK
10
105.5
20
-77.3802
11
99.8102
21
-71.6906
0
LINE
8
BLACK
10
105.32
20
-77.5598
11
99.6306
21
-71.8702
0
ARC
8
BLACK
10
99.7204
20
-71.7804
40
0.127
50
405
51
585
0
ARC
8
BLACK
10
105.41
20
-77.47
40
0.127
50
225
51
405
0
LINE
8
BLACK
10
108.052
20
-75.0062
11
113.64
21
-75.0062
0
LINE
8
BLACK
10
108.052
20
-74.7522
11
113.64
21
-74.7522
0
ARC
8
BLACK
10
113.64
20
-74.8792
40
0.127
50
270
51
450
0
ARC
8
BLACK
10
108.052
20
-74.8792
40
0.127
50
90
51
270
0
LINE
8
BLACK
10
107.962
20
-74.7894
11
105.32
21
-77.431
0
LINE
8
BLACK
10
108.141
20
-74.969
11
105.5
21
-77.6106
0
ARC
8
BLACK
10
105.41
20
-77.5208
40
0.127
50
135
51
315
0
ARC
8
BLACK
10
108.052
20
-74.8792
40
0.127
50
-45
51
135
0
LINE
8
BLACK
10
105.537
20
-80.772
11
105.537
21
-77.5208
0
LINE
8
BLACK
10
105.283
20
-80.772
11
105.283
21
-77.5208
0
ARC
8
BLACK
10
105.41
20
-77.5208
40
0.127
50
360
51
540
0
ARC
8
BLACK
10
105.41
20
-80.772
40
0.127
50
180
51
360
0
LINE
8
BLACK
10
105.32
20
-80.8618
11
105.371
21
-80.9126
0
LINE
8
BLACK
10
105.5
20
-80.6822
11
105.551
21
-80.733
0
ARC
8
BLACK
10
105.461
20
-80.8228
40
0.127
50
225
51
405
0
ARC
8
BLACK
10
105.41
20
-80.772
40
0.127
50
45
51
225
0
LINE
8
BLACK
10
105.588
20
-89.0016
11
105.588
21
-80.8228
0
LINE
8
BLACK
10
105.334
20
-89.0016
11
105.334
21
-80.8228
0
ARC
8
BLACK
10
105.461
20
-80.8228
40
0.127
50
360
51
540
0
ARC
8
BLACK
10
105.461
20
-89.0016
40
0.127
50
180
51
360
0
LINE
8
BLACK
10
105.297
20
-77.8138
11
105.5
21
-77.6106
0
LINE
8
BLACK
10
105.117
20
-77.6342
11
105.32
21
-77.431
0
ARC
8
BLACK
10
105.41
20
-77.5208
40
0.127
50
315
51
495
0
ARC
8
BLACK
10
105.207
20
-77.724
40
0.127
50
135
51
315
0
LINE
8
BLACK
10
105.371
20
-88.9118
11
104.025
21
-90.258
0
LINE
8
BLACK
10
105.551
20
-89.0914
11
104.204
21
-90.4376
0
ARC
8
BLACK
10
104.115
20
-90.3478
40
0.127
50
135
51
315
0
ARC
8
BLACK
10
105.461
20
-89.0016
40
0.127
50
-45
51
135
0
LINE
8
BLACK
10
97.3836
20
-90.3478
11
97.3836
21
-89.027
0
LINE
8
BLACK
10
97.1296
20
-90.3478
11
97.1296
21
-89.027
0
ARC
8
BLACK
10
97.2566
20
-89.027
40
0.127
50
360
51
540
0
ARC
8
BLACK
10
97.2566
20
-90.3478
40
0.127
50
180
51
360
0
LINE
8
BLACK
10
97.2566
20
-90.4748
11
104.115
21
-90.4748
0
LINE
8
BLACK
10
97.2566
20
-90.2208
11
104.115
21
-90.2208
0
ARC
8
BLACK
10
104.115
20
-90.3478
40
0.127
50
270
51
450
0
ARC
8
BLACK
10
97.2566
20
-90.3478
40
0.127
50
90
51
270
0
LINE
8
BLACK
10
45.7318
20
-93.3822
11
43.8014
21
-95.3126
0
LINE
8
BLACK
10
45.9114
20
-93.5618
11
43.981
21
-95.4922
0
ARC
8
BLACK
10
43.8912
20
-95.4024
40
0.127
50
135
51
315
0
ARC
8
BLACK
10
45.8216
20
-93.472
40
0.127
50
-45
51
135
0
LINE
8
BLACK
10
45.8216
20
-93.599
11
52.2224
21
-93.599
0
LINE
8
BLACK
10
45.8216
20
-93.345
11
52.2224
21
-93.345
0
ARC
8
BLACK
10
52.2224
20
-93.472
40
0.127
50
270
51
450
0
ARC
8
BLACK
10
45.8216
20
-93.472
40
0.127
50
90
51
270
0
LINE
8
BLACK
10
57.9746
20
-87.5402
11
52.1326
21
-93.3822
0
LINE
8
BLACK
10
58.1542
20
-87.7198
11
52.3122
21
-93.5618
0
ARC
8
BLACK
10
52.2224
20
-93.472
40
0.127
50
135
51
315
0
ARC
8
BLACK
10
58.0644
20
-87.63
40
0.127
50
-45
51
135
0
LINE
8
BLACK
10
58.0644
20
-87.757
11
95.8596
21
-87.757
0
LINE
8
BLACK
10
58.0644
20
-87.503
11
95.8596
21
-87.503
0
ARC
8
BLACK
10
95.8596
20
-87.63
40
0.127
50
270
51
450
0
ARC
8
BLACK
10
58.0644
20
-87.63
40
0.127
50
90
51
270
0
LINE
8
BLACK
10
97.3464
20
-88.9372
11
95.9494
21
-87.5402
0
LINE
8
BLACK
10
97.1668
20
-89.1168
11
95.7698
21
-87.7198
0
ARC
8
BLACK
10
95.8596
20
-87.63
40
0.127
50
405
51
585
0
ARC
8
BLACK
10
97.2566
20
-89.027
40
0.127
50
225
51
405
0
LINE
8
BLACK
10
42.2402
20
-67.3608
11
43.8912
21
-67.3608
0
LINE
8
BLACK
10
42.2402
20
-67.1068
11
43.8912
21
-67.1068
0
ARC
8
BLACK
10
43.8912
20
-67.2338
40
0.127
50
270
51
450
0
ARC
8
BLACK
10
42.2402
20
-67.2338
40
0.127
50
90
51
270
0
LINE
8
BLACK
10
41.7322
20
-59.7408
11
43.8912
21
-59.7408
0
LINE
8
BLACK
10
41.7322
20
-59.4868
11
43.8912
21
-59.4868
0
ARC
8
BLACK
10
43.8912
20
-59.6138
40
0.127
50
270
51
450
0
ARC
8
BLACK
10
41.7322
20
-59.6138
40
0.127
50
90
51
270
0
LINE
8
BLACK
10
41.3902
20
-60.1354
11
41.822
21
-59.7036
0
LINE
8
BLACK
10
41.2106
20
-59.9558
11
41.6424
21
-59.524
0
ARC
8
BLACK
10
41.7322
20
-59.6138
40
0.127
50
315
51
495
0
ARC
8
BLACK
10
41.3004
20
-60.0456
40
0.127
50
135
51
315
0
LINE
8
BLACK
10
41.4274
20
-66.294
11
41.4274
21
-60.0456
0
LINE
8
BLACK
10
41.1734
20
-66.294
11
41.1734
21
-60.0456
0
ARC
8
BLACK
10
41.3004
20
-60.0456
40
0.127
50
360
51
540
0
ARC
8
BLACK
10
41.3004
20
-66.294
40
0.127
50
180
51
360
0
LINE
8
BLACK
10
42.33
20
-67.144
11
41.3902
21
-66.2042
0
LINE
8
BLACK
10
42.1504
20
-67.3236
11
41.2106
21
-66.3838
0
ARC
8
BLACK
10
41.3004
20
-66.294
40
0.127
50
405
51
585
0
ARC
8
BLACK
10
42.2402
20
-67.2338
40
0.127
50
225
51
405
0
LINE
8
BLACK
10
44.0182
20
-79.121
11
44.0182
21
-67.2338
0
LINE
8
BLACK
10
43.7642
20
-79.121
11
43.7642
21
-67.2338
0
ARC
8
BLACK
10
43.8912
20
-67.2338
40
0.127
50
360
51
540
0
ARC
8
BLACK
10
43.8912
20
-79.121
40
0.127
50
180
51
360
0
LINE
8
BLACK
10
42.291
20
-86.868
11
43.8912
21
-86.868
0
LINE
8
BLACK
10
42.291
20
-86.614
11
43.8912
21
-86.614
0
ARC
8
BLACK
10
43.8912
20
-86.741
40
0.127
50
270
51
450
0
ARC
8
BLACK
10
42.291
20
-86.741
40
0.127
50
90
51
270
0
LINE
8
BLACK
10
42.1386
20
-79.248
11
43.8912
21
-79.248
0
LINE
8
BLACK
10
42.1386
20
-78.994
11
43.8912
21
-78.994
0
ARC
8
BLACK
10
43.8912
20
-79.121
40
0.127
50
270
51
450
0
ARC
8
BLACK
10
42.1386
20
-79.121
40
0.127
50
90
51
270
0
LINE
8
BLACK
10
41.695
20
-79.7442
11
42.2284
21
-79.2108
0
LINE
8
BLACK
10
41.5154
20
-79.5646
11
42.0488
21
-79.0312
0
ARC
8
BLACK
10
42.1386
20
-79.121
40
0.127
50
315
51
495
0
ARC
8
BLACK
10
41.6052
20
-79.6544
40
0.127
50
135
51
315
0
LINE
8
BLACK
10
41.7322
20
-86.0552
11
41.7322
21
-79.6544
0
LINE
8
BLACK
10
41.4782
20
-86.0552
11
41.4782
21
-79.6544
0
ARC
8
BLACK
10
41.6052
20
-79.6544
40
0.127
50
360
51
540
0
ARC
8
BLACK
10
41.6052
20
-86.0552
40
0.127
50
180
51
360
0
LINE
8
BLACK
10
42.3808
20
-86.6512
11
41.695
21
-85.9654
0
LINE
8
BLACK
10
42.2012
20
-86.8308
11
41.5154
21
-86.145
0
ARC
8
BLACK
10
41.6052
20
-86.0552
40
0.127
50
405
51
585
0
ARC
8
BLACK
10
42.291
20
-86.741
40
0.127
50
225
51
405
0
LINE
8
BLACK
10
44.0182
20
-98.6282
11
44.0182
21
-95.4024
0
LINE
8
BLACK
10
43.7642
20
-98.6282
11
43.7642
21
-95.4024
0
ARC
8
BLACK
10
43.8912
20
-95.4024
40
0.127
50
360
51
540
0
ARC
8
BLACK
10
43.8912
20
-98.6282
40
0.127
50
180
51
360
0
LINE
8
BLACK
10
44.0182
20
-95.4024
11
44.0182
21
-86.741
0
LINE
8
BLACK
10
43.7642
20
-95.4024
11
43.7642
21
-86.741
0
ARC
8
BLACK
10
43.8912
20
-86.741
40
0.127
50
360
51
540
0
ARC
8
BLACK
10
43.8912
20
-95.4024
40
0.127
50
180
51
360
0
LINE
8
BLACK
10
42.0878
20
-106.375
11
43.8912
21
-106.375
0
LINE
8
BLACK
10
42.0878
20
-106.121
11
43.8912
21
-106.121
0
ARC
8
BLACK
10
43.8912
20
-106.248
40
0.127
50
270
51
450
0
ARC
8
BLACK
10
42.0878
20
-106.248
40
0.127
50
90
51
270
0
LINE
8
BLACK
10
41.8338
20
-98.7552
11
43.8912
21
-98.7552
0
LINE
8
BLACK
10
41.8338
20
-98.5012
11
43.8912
21
-98.5012
0
ARC
8
BLACK
10
43.8912
20
-98.6282
40
0.127
50
270
51
450
0
ARC
8
BLACK
10
41.8338
20
-98.6282
40
0.127
50
90
51
270
0
LINE
8
BLACK
10
41.2886
20
-99.353
11
41.9236
21
-98.718
0
LINE
8
BLACK
10
41.109
20
-99.1734
11
41.744
21
-98.5384
0
ARC
8
BLACK
10
41.8338
20
-98.6282
40
0.127
50
315
51
495
0
ARC
8
BLACK
10
41.1988
20
-99.2632
40
0.127
50
135
51
315
0
LINE
8
BLACK
10
41.3258
20
-105.359
11
41.3258
21
-99.2632
0
LINE
8
BLACK
10
41.0718
20
-105.359
11
41.0718
21
-99.2632
0
ARC
8
BLACK
10
41.1988
20
-99.2632
40
0.127
50
360
51
540
0
ARC
8
BLACK
10
41.1988
20
-105.359
40
0.127
50
180
51
360
0
LINE
8
BLACK
10
42.1776
20
-106.158
11
41.2886
21
-105.269
0
LINE
8
BLACK
10
41.998
20
-106.338
11
41.109
21
-105.449
0
ARC
8
BLACK
10
41.1988
20
-105.359
40
0.127
50
405
51
585
0
ARC
8
BLACK
10
42.0878
20
-106.248
40
0.127
50
225
51
405
0
LINE
8
BLACK
10
40.7162
20
-71.8058
11
40.7162
21
-56.3118
0
LINE
8
BLACK
10
40.4622
20
-71.8058
11
40.4622
21
-56.3118
0
ARC
8
BLACK
10
40.5892
20
-56.3118
40
0.127
50
360
51
540
0
ARC
8
BLACK
10
40.5892
20
-71.8058
40
0.127
50
180
51
360
0
LINE
8
BLACK
10
40.7162
20
-75.819
11
40.7162
21
-71.8058
0
LINE
8
BLACK
10
40.4622
20
-75.819
11
40.4622
21
-71.8058
0
ARC
8
BLACK
10
40.5892
20
-71.8058
40
0.127
50
360
51
540
0
ARC
8
BLACK
10
40.5892
20
-75.819
40
0.127
50
180
51
360
0
LINE
8
BLACK
10
40.7162
20
-91.313
11
40.7162
21
-75.819
0
LINE
8
BLACK
10
40.4622
20
-91.313
11
40.4622
21
-75.819
0
ARC
8
BLACK
10
40.5892
20
-75.819
40
0.127
50
360
51
540
0
ARC
8
BLACK
10
40.5892
20
-91.313
40
0.127
50
180
51
360
0
LINE
8
BLACK
10
40.7162
20
-95.3262
11
40.7162
21
-91.313
0
LINE
8
BLACK
10
40.4622
20
-95.3262
11
40.4622
21
-91.313
0
ARC
8
BLACK
10
40.5892
20
-91.313
40
0.127
50
360
51
540
0
ARC
8
BLACK
10
40.5892
20
-95.3262
40
0.127
50
180
51
360
0
LINE
8
BLACK
10
40.7162
20
-110.82
11
40.7162
21
-95.3262
0
LINE
8
BLACK
10
40.4622
20
-110.82
11
40.4622
21
-95.3262
0
ARC
8
BLACK
10
40.5892
20
-95.3262
40
0.127
50
360
51
540
0
ARC
8
BLACK
10
40.5892
20
-110.82
40
0.127
50
180
51
360
0
LINE
8
BLACK
10
40.7298
20
-95.2872
11
40.679
21
-95.2364
0
LINE
8
BLACK
10
40.5502
20
-95.4668
11
40.4994
21
-95.416
0
ARC
8
BLACK
10
40.5892
20
-95.3262
40
0.127
50
405
51
585
0
ARC
8
BLACK
10
40.64
20
-95.377
40
0.127
50
225
51
405
0
LINE
8
BLACK
10
46.3414
20
-106.793
11
42.4044
21
-110.73
0
LINE
8
BLACK
10
46.521
20
-106.973
11
42.584
21
-110.91
0
ARC
8
BLACK
10
42.4942
20
-110.82
40
0.127
50
135
51
315
0
ARC
8
BLACK
10
46.4312
20
-106.883
40
0.127
50
-45
51
135
0
LINE
8
BLACK
10
40.5892
20
-110.947
11
42.4942
21
-110.947
0
LINE
8
BLACK
10
40.5892
20
-110.693
11
42.4942
21
-110.693
0
ARC
8
BLACK
10
42.4942
20
-110.82
40
0.127
50
270
51
450
0
ARC
8
BLACK
10
40.5892
20
-110.82
40
0.127
50
90
51
270
0
LINE
8
BLACK
10
95.8206
20
-93.2806
11
94.195
21
-94.9062
0
LINE
8
BLACK
10
96.0002
20
-93.4602
11
94.3746
21
-95.0858
0
ARC
8
BLACK
10
94.2848
20
-94.996
40
0.127
50
135
51
315
0
ARC
8
BLACK
10
95.9104
20
-93.3704
40
0.127
50
-45
51
135
0
LINE
8
BLACK
10
59.3226
20
-94.9062
11
58.0018
21
-93.5854
0
LINE
8
BLACK
10
59.143
20
-95.0858
11
57.8222
21
-93.765
0
ARC
8
BLACK
10
57.912
20
-93.6752
40
0.127
50
405
51
585
0
ARC
8
BLACK
10
59.2328
20
-94.996
40
0.127
50
225
51
405
0
LINE
8
BLACK
10
59.2328
20
-95.123
11
94.2848
21
-95.123
0
LINE
8
BLACK
10
59.2328
20
-94.869
11
94.2848
21
-94.869
0
ARC
8
BLACK
10
94.2848
20
-94.996
40
0.127
50
270
51
450
0
ARC
8
BLACK
10
59.2328
20
-94.996
40
0.127
50
90
51
270
0
ARC
8
BLACK
10
95.9104
20
-93.3704
40
0.127
50
180
51
360
0
ARC
8
BLACK
10
95.9104
20
-93.3704
40
0.127
50
0
51
180
0
ARC
8
BLACK
10
95.9104
20
-93.3704
40
0.127
50
180
51
360
0
ARC
8
BLACK
10
95.9104
20
-93.3704
40
0.127
50
0
51
180
0
LINE
8
BLACK
10
95.6174
20
-71.8702
11
98.767
21
-75.0198
0
LINE
8
BLACK
10
95.797
20
-71.6906
11
98.9466
21
-74.8402
0
ARC
8
BLACK
10
98.8568
20
-74.93
40
0.127
50
225
51
405
0
ARC
8
BLACK
10
95.7072
20
-71.7804
40
0.127
50
45
51
225
0
LINE
8
BLACK
10
95.2246
20
-52.1208
11
95.2246
21
-50.9016
0
LINE
8
BLACK
10
94.9706
20
-52.1208
11
94.9706
21
-50.9016
0
ARC
8
BLACK
10
95.0976
20
-50.9016
40
0.127
50
360
51
540
0
ARC
8
BLACK
10
95.0976
20
-52.1208
40
0.127
50
180
51
360
0
LINE
8
BLACK
10
81.9658
20
-59.9948
11
81.9658
21
-57.404
0
LINE
8
BLACK
10
81.7118
20
-59.9948
11
81.7118
21
-57.404
0
ARC
8
BLACK
10
81.8388
20
-57.404
40
0.127
50
360
51
540
0
ARC
8
BLACK
10
81.8388
20
-59.9948
40
0.127
50
180
51
360
0
LINE
8
BLACK
10
82.8158
20
-56.2474
11
81.749
21
-57.3142
0
LINE
8
BLACK
10
82.9954
20
-56.427
11
81.9286
21
-57.4938
0
ARC
8
BLACK
10
81.8388
20
-57.404
40
0.127
50
135
51
315
0
ARC
8
BLACK
10
82.9056
20
-56.3372
40
0.127
50
-45
51
135
0
LINE
8
BLACK
10
82.9056
20
-56.4642
11
90.8812
21
-56.4642
0
LINE
8
BLACK
10
82.9056
20
-56.2102
11
90.8812
21
-56.2102
0
ARC
8
BLACK
10
90.8812
20
-56.3372
40
0.127
50
270
51
450
0
ARC
8
BLACK
10
82.9056
20
-56.3372
40
0.127
50
90
51
270
0
LINE
8
BLACK
10
95.0078
20
-52.031
11
90.7914
21
-56.2474
0
LINE
8
BLACK
10
95.1874
20
-52.2106
11
90.971
21
-56.427
0
ARC
8
BLACK
10
90.8812
20
-56.3372
40
0.127
50
135
51
315
0
ARC
8
BLACK
10
95.0976
20
-52.1208
40
0.127
50
-45
51
135
0
LINE
8
BLACK
10
113.767
20
-79.9592
11
113.767
21
-79.5528
0
LINE
8
BLACK
10
113.513
20
-79.9592
11
113.513
21
-79.5528
0
ARC
8
BLACK
10
113.64
20
-79.5528
40
0.127
50
360
51
540
0
ARC
8
BLACK
10
113.64
20
-79.9592
40
0.127
50
180
51
360
0
LINE
8
BLACK
10
99.4546
20
-55.079
11
95.1874
21
-50.8118
0
LINE
8
BLACK
10
99.275
20
-55.2586
11
95.0078
21
-50.9914
0
ARC
8
BLACK
10
95.0976
20
-50.9016
40
0.127
50
405
51
585
0
ARC
8
BLACK
10
99.3648
20
-55.1688
40
0.127
50
225
51
405
0
LINE
8
BLACK
10
99.3648
20
-55.2958
11
103.886
21
-55.2958
0
LINE
8
BLACK
10
99.3648
20
-55.0418
11
103.886
21
-55.0418
0
ARC
8
BLACK
10
103.886
20
-55.1688
40
0.127
50
270
51
450
0
ARC
8
BLACK
10
99.3648
20
-55.1688
40
0.127
50
90
51
270
0
LINE
8
BLACK
10
116.422
20
-67.525
11
103.976
21
-55.079
0
LINE
8
BLACK
10
116.242
20
-67.7046
11
103.796
21
-55.2586
0
ARC
8
BLACK
10
103.886
20
-55.1688
40
0.127
50
405
51
585
0
ARC
8
BLACK
10
116.332
20
-67.6148
40
0.127
50
225
51
405
0
LINE
8
BLACK
10
116.459
20
-76.8604
11
116.459
21
-67.6148
0
LINE
8
BLACK
10
116.205
20
-76.8604
11
116.205
21
-67.6148
0
ARC
8
BLACK
10
116.332
20
-67.6148
40
0.127
50
360
51
540
0
ARC
8
BLACK
10
116.332
20
-76.8604
40
0.127
50
180
51
360
0
LINE
8
BLACK
10
113.729
20
-79.6426
11
116.422
21
-76.9502
0
LINE
8
BLACK
10
113.55
20
-79.463
11
116.242
21
-76.7706
0
ARC
8
BLACK
10
116.332
20
-76.8604
40
0.127
50
315
51
495
0
ARC
8
BLACK
10
113.64
20
-79.5528
40
0.127
50
135
51
315
0
LINE
8
BLACK
10
95.8342
20
-71.9328
11
95.8342
21
-71.7804
0
LINE
8
BLACK
10
95.5802
20
-71.9328
11
95.5802
21
-71.7804
0
ARC
8
BLACK
10
95.7072
20
-71.7804
40
0.127
50
360
51
540
0
ARC
8
BLACK
10
95.7072
20
-71.9328
40
0.127
50
180
51
360
0
LINE
8
BLACK
10
95.6174
20
-71.843
11
91.9598
21
-75.5006
0
LINE
8
BLACK
10
95.797
20
-72.0226
11
92.1394
21
-75.6802
0
ARC
8
BLACK
10
92.0496
20
-75.5904
40
0.127
50
135
51
315
0
ARC
8
BLACK
10
95.7072
20
-71.9328
40
0.127
50
-45
51
135
0
LINE
8
BLACK
10
84.3398
20
-75.5006
11
81.241
21
-78.5994
0
LINE
8
BLACK
10
84.5194
20
-75.6802
11
81.4206
21
-78.779
0
ARC
8
BLACK
10
81.3308
20
-78.6892
40
0.127
50
135
51
315
0
ARC
8
BLACK
10
84.4296
20
-75.5904
40
0.127
50
-45
51
135
0
LINE
8
BLACK
10
84.4296
20
-75.7174
11
92.0496
21
-75.7174
0
LINE
8
BLACK
10
84.4296
20
-75.4634
11
92.0496
21
-75.4634
0
ARC
8
BLACK
10
92.0496
20
-75.5904
40
0.127
50
270
51
450
0
ARC
8
BLACK
10
84.4296
20
-75.5904
40
0.127
50
90
51
270
0
LINE
8
BLACK
10
113.767
20
-90.0684
11
113.767
21
-79.9592
0
LINE
8
BLACK
10
113.513
20
-90.0684
11
113.513
21
-79.9592
0
ARC
8
BLACK
10
113.64
20
-79.9592
40
0.127
50
360
51
540
0
ARC
8
BLACK
10
113.64
20
-90.0684
40
0.127
50
180
51
360
0
LINE
8
BLACK
10
94.8436
20
-92.1766
11
94.8436
21
-90.3478
0
LINE
8
BLACK
10
94.5896
20
-92.1766
11
94.5896
21
-90.3478
0
ARC
8
BLACK
10
94.7166
20
-90.3478
40
0.127
50
360
51
540
0
ARC
8
BLACK
10
94.7166
20
-92.1766
40
0.127
50
180
51
360
0
LINE
8
BLACK
10
96.0002
20
-93.2806
11
94.8064
21
-92.0868
0
LINE
8
BLACK
10
95.8206
20
-93.4602
11
94.6268
21
-92.2664
0
ARC
8
BLACK
10
94.7166
20
-92.1766
40
0.127
50
405
51
585
0
ARC
8
BLACK
10
95.9104
20
-93.3704
40
0.127
50
225
51
405
0
LINE
8
BLACK
10
95.9104
20
-93.4974
11
110.338
21
-93.4974
0
LINE
8
BLACK
10
95.9104
20
-93.2434
11
110.338
21
-93.2434
0
ARC
8
BLACK
10
110.338
20
-93.3704
40
0.127
50
270
51
450
0
ARC
8
BLACK
10
95.9104
20
-93.3704
40
0.127
50
90
51
270
0
LINE
8
BLACK
10
113.55
20
-89.9786
11
110.248
21
-93.2806
0
LINE
8
BLACK
10
113.729
20
-90.1582
11
110.427
21
-93.4602
0
ARC
8
BLACK
10
110.338
20
-93.3704
40
0.127
50
135
51
315
0
ARC
8
BLACK
10
113.64
20
-90.0684
40
0.127
50
-45
51
135
0
LINE
8
BLACK
10
46.3414
20
-67.9586
11
57.873
21
-79.4902
0
LINE
8
BLACK
10
46.521
20
-67.779
11
58.0526
21
-79.3106
0
ARC
8
BLACK
10
57.9628
20
-79.4004
40
0.127
50
225
51
405
0
ARC
8
BLACK
10
46.4312
20
-67.8688
40
0.127
50
45
51
225
0
LINE
8
BLACK
10
58.0898
20
-84.328
11
58.0898
21
-79.4004
0
LINE
8
BLACK
10
57.8358
20
-84.328
11
57.8358
21
-79.4004
0
ARC
8
BLACK
10
57.9628
20
-79.4004
40
0.127
50
360
51
540
0
ARC
8
BLACK
10
57.9628
20
-84.328
40
0.127
50
180
51
360
0
LINE
8
BLACK
10
46.521
20
-106.973
11
49.8738
21
-103.62
0
LINE
8
BLACK
10
46.3414
20
-106.793
11
49.6942
21
-103.441
0
ARC
8
BLACK
10
49.784
20
-103.53
40
0.127
50
315
51
495
0
ARC
8
BLACK
10
46.4312
20
-106.883
40
0.127
50
135
51
315
0
LINE
8
BLACK
10
58.039
20
-95.1992
11
58.039
21
-93.6752
0
LINE
8
BLACK
10
57.785
20
-95.1992
11
57.785
21
-93.6752
0
ARC
8
BLACK
10
57.912
20
-93.6752
40
0.127
50
360
51
540
0
ARC
8
BLACK
10
57.912
20
-95.1992
40
0.127
50
180
51
360
0
LINE
8
BLACK
10
49.784
20
-103.657
11
56.0832
21
-103.657
0
LINE
8
BLACK
10
49.784
20
-103.403
11
56.0832
21
-103.403
0
ARC
8
BLACK
10
56.0832
20
-103.53
40
0.127
50
270
51
450
0
ARC
8
BLACK
10
49.784
20
-103.53
40
0.127
50
90
51
270
0
LINE
8
BLACK
10
56.173
20
-103.62
11
58.0018
21
-101.791
0
LINE
8
BLACK
10
55.9934
20
-103.441
11
57.8222
21
-101.612
0
ARC
8
BLACK
10
57.912
20
-101.702
40
0.127
50
315
51
495
0
ARC
8
BLACK
10
56.0832
20
-103.53
40
0.127
50
135
51
315
0
LINE
8
BLACK
10
58.039
20
-101.702
11
58.039
21
-95.1992
0
LINE
8
BLACK
10
57.785
20
-101.702
11
57.785
21
-95.1992
0
ARC
8
BLACK
10
57.912
20
-95.1992
40
0.127
50
360
51
540
0
ARC
8
BLACK
10
57.912
20
-101.702
40
0.127
50
180
51
360
0
LINE
8
BLACK
10
50.2022
20
-83.4254
11
46.3414
21
-87.2862
0
LINE
8
BLACK
10
50.3818
20
-83.605
11
46.521
21
-87.4658
0
ARC
8
BLACK
10
46.4312
20
-87.376
40
0.127
50
135
51
315
0
ARC
8
BLACK
10
50.292
20
-83.5152
40
0.127
50
-45
51
135
0
LINE
8
BLACK
10
50.292
20
-83.6422
11
57.15
21
-83.6422
0
LINE
8
BLACK
10
50.292
20
-83.3882
11
57.15
21
-83.3882
0
ARC
8
BLACK
10
57.15
20
-83.5152
40
0.127
50
270
51
450
0
ARC
8
BLACK
10
50.292
20
-83.5152
40
0.127
50
90
51
270
0
LINE
8
BLACK
10
58.0526
20
-84.2382
11
57.2398
21
-83.4254
0
LINE
8
BLACK
10
57.873
20
-84.4178
11
57.0602
21
-83.605
0
ARC
8
BLACK
10
57.15
20
-83.5152
40
0.127
50
405
51
585
0
ARC
8
BLACK
10
57.9628
20
-84.328
40
0.127
50
225
51
405
0
LINE
8
BLACK
10
58.0898
20
-85.2932
11
58.0898
21
-84.328
0
LINE
8
BLACK
10
57.8358
20
-85.2932
11
57.8358
21
-84.328
0
ARC
8
BLACK
10
57.9628
20
-84.328
40
0.127
50
360
51
540
0
ARC
8
BLACK
10
57.9628
20
-85.2932
40
0.127
50
180
51
360
0
LINE
8
BLACK
10
58.039
20
-93.6752
11
58.039
21
-91.7956
0
LINE
8
BLACK
10
57.785
20
-93.6752
11
57.785
21
-91.7956
0
ARC
8
BLACK
10
57.912
20
-91.7956
40
0.127
50
360
51
540
0
ARC
8
BLACK
10
57.912
20
-93.6752
40
0.127
50
180
51
360
0
LINE
8
BLACK
10
58.0018
20
-91.8854
11
58.1034
21
-91.7838
0
LINE
8
BLACK
10
57.8222
20
-91.7058
11
57.9238
21
-91.6042
0
ARC
8
BLACK
10
58.0136
20
-91.694
40
0.127
50
315
51
495
0
ARC
8
BLACK
10
57.912
20
-91.7956
40
0.127
50
135
51
315
0
LINE
8
BLACK
10
87.0204
20
-114.833
11
89.5604
21
-114.833
0
LINE
8
BLACK
10
87.0204
20
-114.579
11
89.5604
21
-114.579
0
ARC
8
BLACK
10
89.5604
20
-114.706
40
0.127
50
270
51
450
0
ARC
8
BLACK
10
87.0204
20
-114.706
40
0.127
50
90
51
270
0
LINE
8
BLACK
10
87.0204
20
-107.213
11
89.5604
21
-107.213
0
LINE
8
BLACK
10
87.0204
20
-106.959
11
89.5604
21
-106.959
0
ARC
8
BLACK
10
89.5604
20
-107.086
40
0.127
50
270
51
450
0
ARC
8
BLACK
10
87.0204
20
-107.086
40
0.127
50
90
51
270
0
LINE
8
BLACK
10
77.3058
20
-138.621
11
82.081
21
-133.846
0
LINE
8
BLACK
10
77.1262
20
-138.442
11
81.9014
21
-133.667
0
ARC
8
BLACK
10
81.9912
20
-133.756
40
0.127
50
315
51
495
0
ARC
8
BLACK
10
77.216
20
-138.532
40
0.127
50
135
51
315
0
LINE
8
BLACK
10
82.081
20
-127.191
11
84.0622
21
-125.21
0
LINE
8
BLACK
10
81.9014
20
-127.012
11
83.8826
21
-125.031
0
ARC
8
BLACK
10
83.9724
20
-125.12
40
0.127
50
315
51
495
0
ARC
8
BLACK
10
81.9912
20
-127.102
40
0.127
50
135
51
315
0
LINE
8
BLACK
10
82.1182
20
-133.756
11
82.1182
21
-127.102
0
LINE
8
BLACK
10
81.8642
20
-133.756
11
81.8642
21
-127.102
0
ARC
8
BLACK
10
81.9912
20
-127.102
40
0.127
50
360
51
540
0
ARC
8
BLACK
10
81.9912
20
-133.756
40
0.127
50
180
51
360
0
LINE
8
BLACK
10
76.6962
20
-144.487
11
73.5974
21
-141.388
0
LINE
8
BLACK
10
76.5166
20
-144.667
11
73.4178
21
-141.568
0
ARC
8
BLACK
10
73.5076
20
-141.478
40
0.127
50
405
51
585
0
ARC
8
BLACK
10
76.6064
20
-144.577
40
0.127
50
225
51
405
0
LINE
8
BLACK
10
76.6064
20
-144.704
11
83.82
21
-144.704
0
LINE
8
BLACK
10
76.6064
20
-144.45
11
83.82
21
-144.45
0
ARC
8
BLACK
10
83.82
20
-144.577
40
0.127
50
270
51
450
0
ARC
8
BLACK
10
76.6064
20
-144.577
40
0.127
50
90
51
270
0
LINE
8
BLACK
10
87.161
20
-147.738
11
83.9098
21
-144.487
0
LINE
8
BLACK
10
86.9814
20
-147.918
11
83.7302
21
-144.667
0
ARC
8
BLACK
10
83.82
20
-144.577
40
0.127
50
405
51
585
0
ARC
8
BLACK
10
87.0712
20
-147.828
40
0.127
50
225
51
405
0
LINE
8
BLACK
10
80.6314
20
-138.621
11
80.733
21
-138.723
0
LINE
8
BLACK
10
80.811
20
-138.442
11
80.9126
21
-138.543
0
ARC
8
BLACK
10
80.8228
20
-138.633
40
0.127
50
225
51
405
0
ARC
8
BLACK
10
80.7212
20
-138.532
40
0.127
50
45
51
225
0
LINE
8
BLACK
10
74.7268
20
-138.659
11
77.216
21
-138.659
0
LINE
8
BLACK
10
74.7268
20
-138.405
11
77.216
21
-138.405
0
ARC
8
BLACK
10
77.216
20
-138.532
40
0.127
50
270
51
450
0
ARC
8
BLACK
10
74.7268
20
-138.532
40
0.127
50
90
51
270
0
LINE
8
BLACK
10
77.216
20
-138.659
11
80.7212
21
-138.659
0
LINE
8
BLACK
10
77.216
20
-138.405
11
80.7212
21
-138.405
0
ARC
8
BLACK
10
80.7212
20
-138.532
40
0.127
50
270
51
450
0
ARC
8
BLACK
10
77.216
20
-138.532
40
0.127
50
90
51
270
0
LINE
8
BLACK
10
73.5974
20
-139.841
11
74.8166
21
-138.621
0
LINE
8
BLACK
10
73.4178
20
-139.661
11
74.637
21
-138.442
0
ARC
8
BLACK
10
74.7268
20
-138.532
40
0.127
50
315
51
495
0
ARC
8
BLACK
10
73.5076
20
-139.751
40
0.127
50
135
51
315
0
LINE
8
BLACK
10
73.6346
20
-139.802
11
73.6346
21
-139.751
0
LINE
8
BLACK
10
73.3806
20
-139.802
11
73.3806
21
-139.751
0
ARC
8
BLACK
10
73.5076
20
-139.751
40
0.127
50
360
51
540
0
ARC
8
BLACK
10
73.5076
20
-139.802
40
0.127
50
180
51
360
0
LINE
8
BLACK
10
73.6346
20
-141.478
11
73.6346
21
-139.802
0
LINE
8
BLACK
10
73.3806
20
-141.478
11
73.3806
21
-139.802
0
ARC
8
BLACK
10
73.5076
20
-139.802
40
0.127
50
360
51
540
0
ARC
8
BLACK
10
73.5076
20
-141.478
40
0.127
50
180
51
360
0
LINE
8
BLACK
10
87.0712
20
-140.335
11
89.6112
21
-140.335
0
LINE
8
BLACK
10
87.0712
20
-140.081
11
89.6112
21
-140.081
0
ARC
8
BLACK
10
89.6112
20
-140.208
40
0.127
50
270
51
450
0
ARC
8
BLACK
10
87.0712
20
-140.208
40
0.127
50
90
51
270
0
LINE
8
BLACK
10
87.0712
20
-147.955
11
89.6112
21
-147.955
0
LINE
8
BLACK
10
87.0712
20
-147.701
11
89.6112
21
-147.701
0
ARC
8
BLACK
10
89.6112
20
-147.828
40
0.127
50
270
51
450
0
ARC
8
BLACK
10
87.0712
20
-147.828
40
0.127
50
90
51
270
0
LINE
8
BLACK
10
39.3192
20
-145.618
11
42.5196
21
-145.618
0
LINE
8
BLACK
10
39.3192
20
-145.364
11
42.5196
21
-145.364
0
ARC
8
BLACK
10
42.5196
20
-145.491
40
0.127
50
270
51
450
0
ARC
8
BLACK
10
39.3192
20
-145.491
40
0.127
50
90
51
270
0
LINE
8
BLACK
10
42.5196
20
-145.618
11
55.8292
21
-145.618
0
LINE
8
BLACK
10
42.5196
20
-145.364
11
55.8292
21
-145.364
0
ARC
8
BLACK
10
55.8292
20
-145.491
40
0.127
50
270
51
450
0
ARC
8
BLACK
10
42.5196
20
-145.491
40
0.127
50
90
51
270
0
LINE
8
BLACK
10
39.0144
20
-145.618
11
39.3192
21
-145.618
0
LINE
8
BLACK
10
39.0144
20
-145.364
11
39.3192
21
-145.364
0
ARC
8
BLACK
10
39.3192
20
-145.491
40
0.127
50
270
51
450
0
ARC
8
BLACK
10
39.0144
20
-145.491
40
0.127
50
90
51
270
0
LINE
8
BLACK
10
55.8292
20
-145.618
11
59.8424
21
-145.618
0
LINE
8
BLACK
10
55.8292
20
-145.364
11
59.8424
21
-145.364
0
ARC
8
BLACK
10
59.8424
20
-145.491
40
0.127
50
270
51
450
0
ARC
8
BLACK
10
55.8292
20
-145.491
40
0.127
50
90
51
270
0
LINE
8
BLACK
10
37.592
20
-145.618
11
38.8112
21
-145.618
0
LINE
8
BLACK
10
37.592
20
-145.364
11
38.8112
21
-145.364
0
ARC
8
BLACK
10
38.8112
20
-145.491
40
0.127
50
270
51
450
0
ARC
8
BLACK
10
37.592
20
-145.491
40
0.127
50
90
51
270
0
LINE
8
BLACK
10
38.8112
20
-145.618
11
39.0144
21
-145.618
0
LINE
8
BLACK
10
38.8112
20
-145.364
11
39.0144
21
-145.364
0
ARC
8
BLACK
10
39.0144
20
-145.491
40
0.127
50
270
51
450
0
ARC
8
BLACK
10
38.8112
20
-145.491
40
0.127
50
90
51
270
0
LINE
8
BLACK
10
114.373
20
-184.788
11
108.176
21
-178.59
0
LINE
8
BLACK
10
113.312
20
-185.849
11
107.115
21
-179.651
0
ARC
8
BLACK
10
107.645
20
-179.121
40
0.75
50
405
51
585
0
ARC
8
BLACK
10
113.843
20
-185.318
40
0.75
50
225
51
405
0
LINE
8
BLACK
10
88.7476
20
-179.871
11
107.645
21
-179.871
0
LINE
8
BLACK
10
88.7476
20
-178.371
11
107.645
21
-178.371
0
ARC
8
BLACK
10
107.645
20
-179.121
40
0.75
50
270
51
450
0
ARC
8
BLACK
10
88.7476
20
-179.121
40
0.75
50
90
51
270
0
LINE
8
BLACK
10
113.262
20
-161.008
11
116.106
21
-163.852
0
LINE
8
BLACK
10
114.322
20
-159.947
11
117.167
21
-162.792
0
ARC
8
BLACK
10
116.637
20
-163.322
40
0.75
50
225
51
405
0
ARC
8
BLACK
10
113.792
20
-160.477
40
0.75
50
45
51
225
0
LINE
8
BLACK
10
117.387
20
-163.322
11
117.387
21
-163.271
0
LINE
8
BLACK
10
115.887
20
-163.322
11
115.887
21
-163.271
0
ARC
8
BLACK
10
116.637
20
-163.271
40
0.75
50
360
51
540
0
ARC
8
BLACK
10
116.637
20
-163.322
40
0.75
50
180
51
360
0
LINE
8
BLACK
10
116.106
20
-181.994
11
113.312
21
-184.788
0
LINE
8
BLACK
10
117.167
20
-183.055
11
114.373
21
-185.849
0
ARC
8
BLACK
10
113.843
20
-185.318
40
0.75
50
135
51
315
0
ARC
8
BLACK
10
116.637
20
-182.524
40
0.75
50
-45
51
135
0
LINE
8
BLACK
10
117.387
20
-182.524
11
117.387
21
-163.271
0
LINE
8
BLACK
10
115.887
20
-182.524
11
115.887
21
-163.271
0
ARC
8
BLACK
10
116.637
20
-163.271
40
0.75
50
360
51
540
0
ARC
8
BLACK
10
116.637
20
-182.524
40
0.75
50
180
51
360
0
LINE
8
BLACK
10
72.771
20
-163.525
11
72.771
21
-163.474
0
LINE
8
BLACK
10
72.517
20
-163.525
11
72.517
21
-163.474
0
ARC
8
BLACK
10
72.644
20
-163.474
40
0.127
50
360
51
540
0
ARC
8
BLACK
10
72.644
20
-163.525
40
0.127
50
180
51
360
0
LINE
8
BLACK
10
72.644
20
-163.652
11
72.6948
21
-163.652
0
LINE
8
BLACK
10
72.644
20
-163.398
11
72.6948
21
-163.398
0
ARC
8
BLACK
10
72.6948
20
-163.525
40
0.127
50
270
51
450
0
ARC
8
BLACK
10
72.644
20
-163.525
40
0.127
50
90
51
270
0
LINE
8
BLACK
10
72.6948
20
-163.652
11
73.152
21
-163.652
0
LINE
8
BLACK
10
72.6948
20
-163.398
11
73.152
21
-163.398
0
ARC
8
BLACK
10
73.152
20
-163.525
40
0.127
50
270
51
450
0
ARC
8
BLACK
10
72.6948
20
-163.525
40
0.127
50
90
51
270
0
LINE
8
BLACK
10
73.0622
20
-163.615
11
88.6578
21
-179.211
0
LINE
8
BLACK
10
73.2418
20
-163.435
11
88.8374
21
-179.031
0
ARC
8
BLACK
10
88.7476
20
-179.121
40
0.127
50
225
51
405
0
ARC
8
BLACK
10
73.152
20
-163.525
40
0.127
50
45
51
225
0
LINE
8
BLACK
10
59.7526
20
-145.581
11
63.0038
21
-148.832
0
LINE
8
BLACK
10
59.9322
20
-145.401
11
63.1834
21
-148.653
0
ARC
8
BLACK
10
63.0936
20
-148.742
40
0.127
50
225
51
405
0
ARC
8
BLACK
10
59.8424
20
-145.491
40
0.127
50
45
51
225
0
LINE
8
BLACK
10
63.1326
20
-148.883
11
63.1834
21
-148.832
0
LINE
8
BLACK
10
62.953
20
-148.703
11
63.0038
21
-148.653
0
ARC
8
BLACK
10
63.0936
20
-148.742
40
0.127
50
315
51
495
0
ARC
8
BLACK
10
63.0428
20
-148.793
40
0.127
50
135
51
315
0
LINE
8
BLACK
10
61.0362
20
-154.686
11
61.0362
21
-149.454
0
LINE
8
BLACK
10
60.7822
20
-154.686
11
60.7822
21
-149.454
0
ARC
8
BLACK
10
60.9092
20
-149.454
40
0.127
50
360
51
540
0
ARC
8
BLACK
10
60.9092
20
-154.686
40
0.127
50
180
51
360
0
LINE
8
BLACK
10
117.387
20
-163.271
11
117.387
21
-146.761
0
LINE
8
BLACK
10
115.887
20
-163.271
11
115.887
21
-146.761
0
ARC
8
BLACK
10
116.637
20
-146.761
40
0.75
50
360
51
540
0
ARC
8
BLACK
10
116.637
20
-163.271
40
0.75
50
180
51
360
0
LINE
8
BLACK
10
113.262
20
-127.937
11
116.106
21
-130.782
0
LINE
8
BLACK
10
114.322
20
-126.876
11
117.167
21
-129.721
0
ARC
8
BLACK
10
116.637
20
-130.251
40
0.75
50
225
51
405
0
ARC
8
BLACK
10
113.792
20
-127.406
40
0.75
50
45
51
225
0
LINE
8
BLACK
10
117.387
20
-130.251
11
117.387
21
-129.896
0
LINE
8
BLACK
10
115.887
20
-130.251
11
115.887
21
-129.896
0
ARC
8
BLACK
10
116.637
20
-129.896
40
0.75
50
360
51
540
0
ARC
8
BLACK
10
116.637
20
-130.251
40
0.75
50
180
51
360
0
LINE
8
BLACK
10
117.387
20
-129.896
11
117.387
21
-113.741
0
LINE
8
BLACK
10
115.887
20
-129.896
11
115.887
21
-113.741
0
ARC
8
BLACK
10
116.637
20
-113.741
40
0.75
50
360
51
540
0
ARC
8
BLACK
10
116.637
20
-129.896
40
0.75
50
180
51
360
0
LINE
8
BLACK
10
113.262
20
-144.548
11
116.106
21
-147.393
0
LINE
8
BLACK
10
114.322
20
-143.488
11
117.167
21
-146.332
0
ARC
8
BLACK
10
116.637
20
-146.863
40
0.75
50
225
51
405
0
ARC
8
BLACK
10
113.792
20
-144.018
40
0.75
50
45
51
225
0
LINE
8
BLACK
10
117.387
20
-146.863
11
117.387
21
-146.761
0
LINE
8
BLACK
10
115.887
20
-146.863
11
115.887
21
-146.761
0
ARC
8
BLACK
10
116.637
20
-146.761
40
0.75
50
360
51
540
0
ARC
8
BLACK
10
116.637
20
-146.863
40
0.75
50
180
51
360
0
LINE
8
BLACK
10
117.387
20
-146.761
11
117.387
21
-129.896
0
LINE
8
BLACK
10
115.887
20
-146.761
11
115.887
21
-129.896
0
ARC
8
BLACK
10
116.637
20
-129.896
40
0.75
50
360
51
540
0
ARC
8
BLACK
10
116.637
20
-146.761
40
0.75
50
180
51
360
0
LINE
8
BLACK
10
113.262
20
-111.427
11
116.106
21
-114.272
0
LINE
8
BLACK
10
114.322
20
-110.366
11
117.167
21
-113.211
0
ARC
8
BLACK
10
116.637
20
-113.741
40
0.75
50
225
51
405
0
ARC
8
BLACK
10
113.792
20
-110.896
40
0.75
50
45
51
225
0
LINE
8
BLACK
10
94.7928
20
-111.646
11
113.792
21
-111.646
0
LINE
8
BLACK
10
94.7928
20
-110.146
11
113.792
21
-110.146
0
ARC
8
BLACK
10
113.792
20
-110.896
40
0.75
50
270
51
450
0
ARC
8
BLACK
10
94.7928
20
-110.896
40
0.75
50
90
51
270
0
LINE
8
BLACK
10
93.2719
20
-110.436
11
94.2625
21
-111.427
0
LINE
8
BLACK
10
94.3325
20
-109.375
11
95.3231
21
-110.366
0
ARC
8
BLACK
10
94.7928
20
-110.896
40
0.75
50
225
51
405
0
ARC
8
BLACK
10
93.8022
20
-109.906
40
0.75
50
45
51
225
0
LINE
8
BLACK
10
95.3904
20
-109.068
11
95.3904
21
-107.086
0
LINE
8
BLACK
10
93.8904
20
-109.068
11
93.8904
21
-107.086
0
ARC
8
BLACK
10
94.6404
20
-107.086
40
0.75
50
360
51
540
0
ARC
8
BLACK
10
94.6404
20
-109.068
40
0.75
50
180
51
360
0
LINE
8
BLACK
10
94.1039
20
-110.665
11
94.3325
21
-110.436
0
LINE
8
BLACK
10
93.0433
20
-109.604
11
93.2719
21
-109.375
0
ARC
8
BLACK
10
93.8022
20
-109.906
40
0.75
50
315
51
495
0
ARC
8
BLACK
10
93.5736
20
-110.134
40
0.75
50
135
51
315
0
LINE
8
BLACK
10
94.3325
20
-110.436
11
95.1707
21
-109.598
0
LINE
8
BLACK
10
93.2719
20
-109.375
11
94.1101
21
-108.537
0
ARC
8
BLACK
10
94.6404
20
-109.068
40
0.75
50
315
51
495
0
ARC
8
BLACK
10
93.8022
20
-109.906
40
0.75
50
135
51
315
0
LINE
8
BLACK
10
94.5388
20
-144.768
11
113.792
21
-144.768
0
LINE
8
BLACK
10
94.5388
20
-143.268
11
113.792
21
-143.268
0
ARC
8
BLACK
10
113.792
20
-144.018
40
0.75
50
270
51
450
0
ARC
8
BLACK
10
94.5388
20
-144.018
40
0.75
50
90
51
270
0
LINE
8
BLACK
10
92.8909
20
-143.431
11
94.0085
21
-144.548
0
LINE
8
BLACK
10
93.9515
20
-142.37
11
95.0691
21
-143.488
0
ARC
8
BLACK
10
94.5388
20
-144.018
40
0.75
50
225
51
405
0
ARC
8
BLACK
10
93.4212
20
-142.9
40
0.75
50
45
51
225
0
LINE
8
BLACK
10
95.1707
20
-140.789
11
95.2215
21
-140.738
0
LINE
8
BLACK
10
94.1101
20
-139.728
11
94.1609
21
-139.678
0
ARC
8
BLACK
10
94.6912
20
-140.208
40
0.75
50
315
51
495
0
ARC
8
BLACK
10
94.6404
20
-140.259
40
0.75
50
135
51
315
0
LINE
8
BLACK
10
95.3904
20
-141.681
11
95.3904
21
-140.259
0
LINE
8
BLACK
10
93.8904
20
-141.681
11
93.8904
21
-140.259
0
ARC
8
BLACK
10
94.6404
20
-140.259
40
0.75
50
360
51
540
0
ARC
8
BLACK
10
94.6404
20
-141.681
40
0.75
50
180
51
360
0
LINE
8
BLACK
10
93.9515
20
-143.431
11
95.1707
21
-142.212
0
LINE
8
BLACK
10
92.8909
20
-142.37
11
94.1101
21
-141.151
0
ARC
8
BLACK
10
94.6404
20
-141.681
40
0.75
50
315
51
495
0
ARC
8
BLACK
10
93.4212
20
-142.9
40
0.75
50
135
51
315
0
LINE
8
BLACK
10
81.4609
20
-142.415
11
82.4769
21
-143.431
0
LINE
8
BLACK
10
82.5215
20
-141.354
11
83.5375
21
-142.37
0
ARC
8
BLACK
10
83.0072
20
-142.9
40
0.75
50
225
51
405
0
ARC
8
BLACK
10
81.9912
20
-141.884
40
0.75
50
45
51
225
0
LINE
8
BLACK
10
83.4136
20
-143.65
11
93.4212
21
-143.65
0
LINE
8
BLACK
10
83.4136
20
-142.15
11
93.4212
21
-142.15
0
ARC
8
BLACK
10
93.4212
20
-142.9
40
0.75
50
270
51
450
0
ARC
8
BLACK
10
83.4136
20
-142.9
40
0.75
50
90
51
270
0
LINE
8
BLACK
10
82.7412
20
-141.884
11
82.7412
21
-140.208
0
LINE
8
BLACK
10
81.2412
20
-141.884
11
81.2412
21
-140.208
0
ARC
8
BLACK
10
81.9912
20
-140.208
40
0.75
50
360
51
540
0
ARC
8
BLACK
10
81.9912
20
-141.884
40
0.75
50
180
51
360
0
LINE
8
BLACK
10
83.0072
20
-143.65
11
83.4136
21
-143.65
0
LINE
8
BLACK
10
83.0072
20
-142.15
11
83.4136
21
-142.15
0
ARC
8
BLACK
10
83.4136
20
-142.9
40
0.75
50
270
51
450
0
ARC
8
BLACK
10
83.0072
20
-142.9
40
0.75
50
90
51
270
0
LINE
8
BLACK
10
61.5696
20
-148.92
11
63.0428
21
-148.92
0
LINE
8
BLACK
10
61.5696
20
-148.666
11
63.0428
21
-148.666
0
ARC
8
BLACK
10
63.0428
20
-148.793
40
0.127
50
270
51
450
0
ARC
8
BLACK
10
61.5696
20
-148.793
40
0.127
50
90
51
270
0
LINE
8
BLACK
10
60.999
20
-149.543
11
61.6594
21
-148.883
0
LINE
8
BLACK
10
60.8194
20
-149.364
11
61.4798
21
-148.703
0
ARC
8
BLACK
10
61.5696
20
-148.793
40
0.127
50
315
51
495
0
ARC
8
BLACK
10
60.9092
20
-149.454
40
0.127
50
135
51
315
0
LINE
8
BLACK
10
91.0336
20
-110.884
11
93.5736
21
-110.884
0
LINE
8
BLACK
10
91.0336
20
-109.384
11
93.5736
21
-109.384
0
ARC
8
BLACK
10
93.5736
20
-110.134
40
0.75
50
270
51
450
0
ARC
8
BLACK
10
91.0336
20
-110.134
40
0.75
50
90
51
270
0
LINE
8
BLACK
10
82.8325
20
-109.604
11
81.1053
21
-111.331
0
LINE
8
BLACK
10
83.8931
20
-110.665
11
82.1659
21
-112.392
0
ARC
8
BLACK
10
81.6356
20
-111.862
40
0.75
50
135
51
315
0
ARC
8
BLACK
10
83.3628
20
-110.134
40
0.75
50
-45
51
135
0
LINE
8
BLACK
10
83.3628
20
-110.884
11
91.0336
21
-110.884
0
LINE
8
BLACK
10
83.3628
20
-109.384
11
91.0336
21
-109.384
0
ARC
8
BLACK
10
91.0336
20
-110.134
40
0.75
50
270
51
450
0
ARC
8
BLACK
10
83.3628
20
-110.134
40
0.75
50
90
51
270
0
LINE
8
BLACK
10
82.7412
20
-108.864
11
82.7412
21
-107.137
0
LINE
8
BLACK
10
81.2412
20
-108.864
11
81.2412
21
-107.137
0
ARC
8
BLACK
10
81.9912
20
-107.137
40
0.75
50
360
51
540
0
ARC
8
BLACK
10
81.9912
20
-108.864
40
0.75
50
180
51
360
0
LINE
8
BLACK
10
81.9912
20
-109.614
11
82.0928
21
-109.614
0
LINE
8
BLACK
10
81.9912
20
-108.114
11
82.0928
21
-108.114
0
ARC
8
BLACK
10
82.0928
20
-108.864
40
0.75
50
270
51
450
0
ARC
8
BLACK
10
81.9912
20
-108.864
40
0.75
50
90
51
270
0
LINE
8
BLACK
10
81.5625
20
-109.395
11
82.8325
21
-110.665
0
LINE
8
BLACK
10
82.6231
20
-108.334
11
83.8931
21
-109.604
0
ARC
8
BLACK
10
83.3628
20
-110.134
40
0.75
50
225
51
405
0
ARC
8
BLACK
10
82.0928
20
-108.864
40
0.75
50
45
51
225
0
LINE
8
BLACK
10
81.4101
20
-107.617
11
81.4609
21
-107.668
0
LINE
8
BLACK
10
82.4707
20
-106.556
11
82.5215
21
-106.607
0
ARC
8
BLACK
10
81.9912
20
-107.137
40
0.75
50
225
51
405
0
ARC
8
BLACK
10
81.9404
20
-107.086
40
0.75
50
45
51
225
0
LINE
8
BLACK
10
76.962
20
-112.612
11
81.6356
21
-112.612
0
LINE
8
BLACK
10
76.962
20
-111.112
11
81.6356
21
-111.112
0
ARC
8
BLACK
10
81.6356
20
-111.862
40
0.75
50
270
51
450
0
ARC
8
BLACK
10
76.962
20
-111.862
40
0.75
50
90
51
270
0
LINE
8
BLACK
10
76.2285
20
-111.331
11
73.4853
21
-114.074
0
LINE
8
BLACK
10
77.2891
20
-112.392
11
74.5459
21
-115.135
0
ARC
8
BLACK
10
74.0156
20
-114.605
40
0.75
50
135
51
315
0
ARC
8
BLACK
10
76.7588
20
-111.862
40
0.75
50
-45
51
135
0
LINE
8
BLACK
10
76.7588
20
-112.612
11
76.962
21
-112.612
0
LINE
8
BLACK
10
76.7588
20
-111.112
11
76.962
21
-111.112
0
ARC
8
BLACK
10
76.962
20
-111.862
40
0.75
50
270
51
450
0
ARC
8
BLACK
10
76.7588
20
-111.862
40
0.75
50
90
51
270
0
LINE
8
BLACK
10
73.4853
20
-119.459
11
72.3677
21
-120.577
0
LINE
8
BLACK
10
74.5459
20
-120.52
11
73.4283
21
-121.638
0
ARC
8
BLACK
10
72.898
20
-121.107
40
0.75
50
135
51
315
0
ARC
8
BLACK
10
74.0156
20
-119.99
40
0.75
50
-45
51
135
0
LINE
8
BLACK
10
74.7656
20
-119.99
11
74.7656
21
-114.605
0
LINE
8
BLACK
10
73.2656
20
-119.99
11
73.2656
21
-114.605
0
ARC
8
BLACK
10
74.0156
20
-114.605
40
0.75
50
360
51
540
0
ARC
8
BLACK
10
74.0156
20
-119.99
40
0.75
50
180
51
360
0
LINE
8
BLACK
10
63.1834
20
-156.781
11
60.999
21
-154.596
0
LINE
8
BLACK
10
63.0038
20
-156.96
11
60.8194
21
-154.776
0
ARC
8
BLACK
10
60.9092
20
-154.686
40
0.127
50
405
51
585
0
ARC
8
BLACK
10
63.0936
20
-156.87
40
0.127
50
225
51
405
0
LINE
8
BLACK
10
60.8974
20
-159.246
11
63.1834
21
-156.96
0
LINE
8
BLACK
10
60.7178
20
-159.067
11
63.0038
21
-156.781
0
ARC
8
BLACK
10
63.0936
20
-156.87
40
0.127
50
315
51
495
0
ARC
8
BLACK
10
60.8076
20
-159.156
40
0.127
50
135
51
315
0
LINE
8
BLACK
10
69.4944
20
-121.857
11
72.898
21
-121.857
0
LINE
8
BLACK
10
69.4944
20
-120.357
11
72.898
21
-120.357
0
ARC
8
BLACK
10
72.898
20
-121.107
40
0.75
50
270
51
450
0
ARC
8
BLACK
10
69.4944
20
-121.107
40
0.75
50
90
51
270
0
LINE
8
BLACK
10
60.9346
20
-162.966
11
60.9346
21
-159.156
0
LINE
8
BLACK
10
60.6806
20
-162.966
11
60.6806
21
-159.156
0
ARC
8
BLACK
10
60.8076
20
-159.156
40
0.127
50
360
51
540
0
ARC
8
BLACK
10
60.8076
20
-162.966
40
0.127
50
180
51
360
0
LINE
8
BLACK
10
63.3358
20
-165.315
11
60.8974
21
-162.877
0
LINE
8
BLACK
10
63.1562
20
-165.495
11
60.7178
21
-163.056
0
ARC
8
BLACK
10
60.8076
20
-162.966
40
0.127
50
405
51
585
0
ARC
8
BLACK
10
63.246
20
-165.405
40
0.127
50
225
51
405
0
LINE
8
BLACK
10
63.3358
20
-165.495
11
65.2662
21
-163.564
0
LINE
8
BLACK
10
63.1562
20
-165.315
11
65.0866
21
-163.385
0
ARC
8
BLACK
10
65.1764
20
-163.474
40
0.127
50
315
51
495
0
ARC
8
BLACK
10
63.246
20
-165.405
40
0.127
50
135
51
315
0
LINE
8
BLACK
10
65.1764
20
-163.601
11
72.644
21
-163.601
0
LINE
8
BLACK
10
65.1764
20
-163.347
11
72.644
21
-163.347
0
ARC
8
BLACK
10
72.644
20
-163.474
40
0.127
50
270
51
450
0
ARC
8
BLACK
10
65.1764
20
-163.474
40
0.127
50
90
51
270
0
LINE
8
BLACK
10
67.9314
20
-142.963
11
67.5758
21
-143.319
0
LINE
8
BLACK
10
68.111
20
-143.143
11
67.7554
21
-143.498
0
ARC
8
BLACK
10
67.6656
20
-143.408
40
0.127
50
135
51
315
0
ARC
8
BLACK
10
68.0212
20
-143.053
40
0.127
50
-45
51
135
0
LINE
8
BLACK
10
68.1482
20
-143.053
11
68.1482
21
-136.296
0
LINE
8
BLACK
10
67.8942
20
-143.053
11
67.8942
21
-136.296
0
ARC
8
BLACK
10
68.0212
20
-136.296
40
0.127
50
360
51
540
0
ARC
8
BLACK
10
68.0212
20
-143.053
40
0.127
50
180
51
360
0
LINE
8
BLACK
10
46.4312
20
-104.47
11
46.9392
21
-104.47
0
LINE
8
BLACK
10
46.4312
20
-104.216
11
46.9392
21
-104.216
0
ARC
8
BLACK
10
46.9392
20
-104.343
40
0.127
50
270
51
450
0
ARC
8
BLACK
10
46.4312
20
-104.343
40
0.127
50
90
51
270
0
LINE
8
BLACK
10
47.029
20
-104.433
11
48.553
21
-102.909
0
LINE
8
BLACK
10
46.8494
20
-104.253
11
48.3734
21
-102.729
0
ARC
8
BLACK
10
48.4632
20
-102.819
40
0.127
50
315
51
495
0
ARC
8
BLACK
10
46.9392
20
-104.343
40
0.127
50
135
51
315
0
LINE
8
BLACK
10
43.5102
20
-103.835
11
43.8912
21
-103.835
0
LINE
8
BLACK
10
43.5102
20
-103.581
11
43.8912
21
-103.581
0
ARC
8
BLACK
10
43.8912
20
-103.708
40
0.127
50
270
51
450
0
ARC
8
BLACK
10
43.5102
20
-103.708
40
0.127
50
90
51
270
0
LINE
8
BLACK
10
43.4204
20
-103.618
11
42.1758
21
-104.863
0
LINE
8
BLACK
10
43.6
20
-103.798
11
42.3554
21
-105.043
0
ARC
8
BLACK
10
42.2656
20
-104.953
40
0.127
50
135
51
315
0
ARC
8
BLACK
10
43.5102
20
-103.708
40
0.127
50
-45
51
135
0
LINE
8
BLACK
10
36.9316
20
-173.253
11
37.592
21
-173.253
0
LINE
8
BLACK
10
36.9316
20
-172.999
11
37.592
21
-172.999
0
ARC
8
BLACK
10
37.592
20
-173.126
40
0.127
50
270
51
450
0
ARC
8
BLACK
10
36.9316
20
-173.126
40
0.127
50
90
51
270
0
LINE
8
BLACK
10
37.0214
20
-173.037
11
35.3958
21
-171.411
0
LINE
8
BLACK
10
36.8418
20
-173.216
11
35.2162
21
-171.591
0
ARC
8
BLACK
10
35.306
20
-171.501
40
0.127
50
405
51
585
0
ARC
8
BLACK
10
36.9316
20
-173.126
40
0.127
50
225
51
405
0
LINE
8
BLACK
10
46.5582
20
-99.2632
11
46.5582
21
-97.6884
0
LINE
8
BLACK
10
46.3042
20
-99.2632
11
46.3042
21
-97.6884
0
ARC
8
BLACK
10
46.4312
20
-97.6884
40
0.127
50
360
51
540
0
ARC
8
BLACK
10
46.4312
20
-99.2632
40
0.127
50
180
51
360
0
LINE
8
BLACK
10
46.521
20
-97.5986
11
46.4702
21
-97.5478
0
LINE
8
BLACK
10
46.3414
20
-97.7782
11
46.2906
21
-97.7274
0
ARC
8
BLACK
10
46.3804
20
-97.6376
40
0.127
50
405
51
585
0
ARC
8
BLACK
10
46.4312
20
-97.6884
40
0.127
50
225
51
405
0
LINE
8
BLACK
10
70.9558
20
-167.374
11
71.0574
21
-167.273
0
LINE
8
BLACK
10
70.7762
20
-167.195
11
70.8778
21
-167.093
0
ARC
8
BLACK
10
70.9676
20
-167.183
40
0.127
50
315
51
495
0
ARC
8
BLACK
10
70.866
20
-167.284
40
0.127
50
135
51
315
0
LINE
8
BLACK
10
67.3608
20
-168.072
11
70.2056
21
-168.072
0
LINE
8
BLACK
10
67.3608
20
-167.818
11
70.2056
21
-167.818
0
ARC
8
BLACK
10
70.2056
20
-167.945
40
0.127
50
270
51
450
0
ARC
8
BLACK
10
67.3608
20
-167.945
40
0.127
50
90
51
270
0
LINE
8
BLACK
10
70.2954
20
-168.035
11
70.905
21
-167.425
0
LINE
8
BLACK
10
70.1158
20
-167.855
11
70.7254
21
-167.245
0
ARC
8
BLACK
10
70.8152
20
-167.335
40
0.127
50
315
51
495
0
ARC
8
BLACK
10
70.2056
20
-167.945
40
0.127
50
135
51
315
0
LINE
8
BLACK
10
70.905
20
-167.425
11
70.9558
21
-167.374
0
LINE
8
BLACK
10
70.7254
20
-167.245
11
70.7762
21
-167.195
0
ARC
8
BLACK
10
70.866
20
-167.284
40
0.127
50
315
51
495
0
ARC
8
BLACK
10
70.8152
20
-167.335
40
0.127
50
135
51
315
0
LINE
8
BLACK
10
71.0946
20
-167.183
11
71.0946
21
-166.167
0
LINE
8
BLACK
10
70.8406
20
-167.183
11
70.8406
21
-166.167
0
ARC
8
BLACK
10
70.9676
20
-166.167
40
0.127
50
360
51
540
0
ARC
8
BLACK
10
70.9676
20
-167.183
40
0.127
50
180
51
360
0
LINE
8
BLACK
10
103.784
20
-136.64
11
103.988
21
-136.64
0
LINE
8
BLACK
10
103.784
20
-135.14
11
103.988
21
-135.14
0
ARC
8
BLACK
10
103.988
20
-135.89
40
0.75
50
270
51
450
0
ARC
8
BLACK
10
103.784
20
-135.89
40
0.75
50
90
51
270
0
LINE
8
BLACK
10
93.4497
20
-135.36
11
91.6209
21
-137.188
0
LINE
8
BLACK
10
94.5103
20
-136.42
11
92.6815
21
-138.249
0
ARC
8
BLACK
10
92.1512
20
-137.719
40
0.75
50
135
51
315
0
ARC
8
BLACK
10
93.98
20
-135.89
40
0.75
50
-45
51
135
0
LINE
8
BLACK
10
92.9012
20
-140.208
11
92.9012
21
-137.719
0
LINE
8
BLACK
10
91.4012
20
-140.208
11
91.4012
21
-137.719
0
ARC
8
BLACK
10
92.1512
20
-137.719
40
0.75
50
360
51
540
0
ARC
8
BLACK
10
92.1512
20
-140.208
40
0.75
50
180
51
360
0
LINE
8
BLACK
10
94.3356
20
-136.64
11
103.784
21
-136.64
0
LINE
8
BLACK
10
94.3356
20
-135.14
11
103.784
21
-135.14
0
ARC
8
BLACK
10
103.784
20
-135.89
40
0.75
50
270
51
450
0
ARC
8
BLACK
10
94.3356
20
-135.89
40
0.75
50
90
51
270
0
LINE
8
BLACK
10
93.98
20
-136.64
11
94.3356
21
-136.64
0
LINE
8
BLACK
10
93.98
20
-135.14
11
94.3356
21
-135.14
0
ARC
8
BLACK
10
94.3356
20
-135.89
40
0.75
50
270
51
450
0
ARC
8
BLACK
10
93.98
20
-135.89
40
0.75
50
90
51
270
0
LINE
8
BLACK
10
107.036
20
-139.688
11
113.792
21
-139.688
0
LINE
8
BLACK
10
107.036
20
-138.188
11
113.792
21
-138.188
0
ARC
8
BLACK
10
113.792
20
-138.938
40
0.75
50
270
51
450
0
ARC
8
BLACK
10
107.036
20
-138.938
40
0.75
50
90
51
270
0
LINE
8
BLACK
10
103.457
20
-136.42
11
106.505
21
-139.468
0
LINE
8
BLACK
10
104.518
20
-135.36
11
107.566
21
-138.408
0
ARC
8
BLACK
10
107.036
20
-138.938
40
0.75
50
225
51
405
0
ARC
8
BLACK
10
103.988
20
-135.89
40
0.75
50
45
51
225
0
LINE
8
BLACK
10
106.883
20
-106.566
11
113.792
21
-106.566
0
LINE
8
BLACK
10
106.883
20
-105.066
11
113.792
21
-105.066
0
ARC
8
BLACK
10
113.792
20
-105.816
40
0.75
50
270
51
450
0
ARC
8
BLACK
10
106.883
20
-105.816
40
0.75
50
90
51
270
0
LINE
8
BLACK
10
92.8504
20
-107.086
11
92.8504
21
-104.445
0
LINE
8
BLACK
10
91.3504
20
-107.086
11
91.3504
21
-104.445
0
ARC
8
BLACK
10
92.1004
20
-104.445
40
0.75
50
360
51
540
0
ARC
8
BLACK
10
92.1004
20
-107.086
40
0.75
50
180
51
360
0
LINE
8
BLACK
10
93.5513
20
-101.933
11
91.5701
21
-103.914
0
LINE
8
BLACK
10
94.6119
20
-102.994
11
92.6307
21
-104.975
0
ARC
8
BLACK
10
92.1004
20
-104.445
40
0.75
50
135
51
315
0
ARC
8
BLACK
10
94.0816
20
-102.464
40
0.75
50
-45
51
135
0
LINE
8
BLACK
10
94.0816
20
-103.214
11
103.53
21
-103.214
0
LINE
8
BLACK
10
94.0816
20
-101.714
11
103.53
21
-101.714
0
ARC
8
BLACK
10
103.53
20
-102.464
40
0.75
50
270
51
450
0
ARC
8
BLACK
10
94.0816
20
-102.464
40
0.75
50
90
51
270
0
LINE
8
BLACK
10
107.414
20
-105.286
11
104.061
21
-101.933
0
LINE
8
BLACK
10
106.353
20
-106.347
11
103
21
-102.994
0
ARC
8
BLACK
10
103.53
20
-102.464
40
0.75
50
405
51
585
0
ARC
8
BLACK
10
106.883
20
-105.816
40
0.75
50
225
51
405
0
LINE
8
BLACK
10
95.4412
20
-163.373
11
95.4412
21
-159.664
0
LINE
8
BLACK
10
93.9412
20
-163.373
11
93.9412
21
-159.664
0
ARC
8
BLACK
10
94.6912
20
-159.664
40
0.75
50
360
51
540
0
ARC
8
BLACK
10
94.6912
20
-163.373
40
0.75
50
180
51
360
0
LINE
8
BLACK
10
114.542
20
-116.027
11
114.542
21
-115.976
0
LINE
8
BLACK
10
113.042
20
-116.027
11
113.042
21
-115.976
0
ARC
8
BLACK
10
113.792
20
-115.976
40
0.75
50
360
51
540
0
ARC
8
BLACK
10
113.792
20
-116.027
40
0.75
50
180
51
360
0
LINE
8
BLACK
10
95.3904
20
-117.094
11
95.3904
21
-114.706
0
LINE
8
BLACK
10
93.8904
20
-117.094
11
93.8904
21
-114.706
0
ARC
8
BLACK
10
94.6404
20
-114.706
40
0.75
50
360
51
540
0
ARC
8
BLACK
10
94.6404
20
-117.094
40
0.75
50
180
51
360
0
LINE
8
BLACK
10
96.3391
20
-117.732
11
95.1707
21
-116.564
0
LINE
8
BLACK
10
95.2785
20
-118.793
11
94.1101
21
-117.624
0
ARC
8
BLACK
10
94.6404
20
-117.094
40
0.75
50
405
51
585
0
ARC
8
BLACK
10
95.8088
20
-118.262
40
0.75
50
225
51
405
0
LINE
8
BLACK
10
95.8088
20
-119.012
11
111.557
21
-119.012
0
LINE
8
BLACK
10
95.8088
20
-117.512
11
111.557
21
-117.512
0
ARC
8
BLACK
10
111.557
20
-118.262
40
0.75
50
270
51
450
0
ARC
8
BLACK
10
95.8088
20
-118.262
40
0.75
50
90
51
270
0
LINE
8
BLACK
10
113.262
20
-115.497
11
111.026
21
-117.732
0
LINE
8
BLACK
10
114.322
20
-116.558
11
112.087
21
-118.793
0
ARC
8
BLACK
10
111.557
20
-118.262
40
0.75
50
135
51
315
0
ARC
8
BLACK
10
113.792
20
-116.027
40
0.75
50
-45
51
135
0
LINE
8
BLACK
10
87.7704
20
-130.2
11
87.7704
21
-127.152
0
LINE
8
BLACK
10
86.2704
20
-130.2
11
86.2704
21
-127.152
0
ARC
8
BLACK
10
87.0204
20
-127.152
40
0.75
50
360
51
540
0
ARC
8
BLACK
10
87.0204
20
-130.2
40
0.75
50
180
51
360
0
LINE
8
BLACK
10
84.4804
20
-130.95
11
87.0204
21
-130.95
0
LINE
8
BLACK
10
84.4804
20
-129.45
11
87.0204
21
-129.45
0
ARC
8
BLACK
10
87.0204
20
-130.2
40
0.75
50
270
51
450
0
ARC
8
BLACK
10
84.4804
20
-130.2
40
0.75
50
90
51
270
0
LINE
8
BLACK
10
82.6904
20
-119.482
11
82.6904
21
-114.706
0
LINE
8
BLACK
10
81.1904
20
-119.482
11
81.1904
21
-114.706
0
ARC
8
BLACK
10
81.9404
20
-114.706
40
0.75
50
360
51
540
0
ARC
8
BLACK
10
81.9404
20
-119.482
40
0.75
50
180
51
360
0
LINE
8
BLACK
10
111.15
20
-133.236
11
113.792
21
-133.236
0
LINE
8
BLACK
10
111.15
20
-131.736
11
113.792
21
-131.736
0
ARC
8
BLACK
10
113.792
20
-132.486
40
0.75
50
270
51
450
0
ARC
8
BLACK
10
111.15
20
-132.486
40
0.75
50
90
51
270
0
LINE
8
BLACK
10
108.436
20
-130.832
11
110.62
21
-133.017
0
LINE
8
BLACK
10
109.496
20
-129.772
11
111.681
21
-131.956
0
ARC
8
BLACK
10
111.15
20
-132.486
40
0.75
50
225
51
405
0
ARC
8
BLACK
10
108.966
20
-130.302
40
0.75
50
45
51
225
0
LINE
8
BLACK
10
109.716
20
-130.302
11
109.716
21
-124.866
0
LINE
8
BLACK
10
108.216
20
-130.302
11
108.216
21
-124.866
0
ARC
8
BLACK
10
108.966
20
-124.866
40
0.75
50
360
51
540
0
ARC
8
BLACK
10
108.966
20
-130.302
40
0.75
50
180
51
360
0
LINE
8
BLACK
10
104.524
20
-121.485
11
108.436
21
-125.397
0
LINE
8
BLACK
10
105.585
20
-120.424
11
109.496
21
-124.336
0
ARC
8
BLACK
10
108.966
20
-124.866
40
0.75
50
225
51
405
0
ARC
8
BLACK
10
105.054
20
-120.955
40
0.75
50
45
51
225
0
LINE
8
BLACK
10
83.4136
20
-121.705
11
105.054
21
-121.705
0
LINE
8
BLACK
10
83.4136
20
-120.205
11
105.054
21
-120.205
0
ARC
8
BLACK
10
105.054
20
-120.955
40
0.75
50
270
51
450
0
ARC
8
BLACK
10
83.4136
20
-120.955
40
0.75
50
90
51
270
0
LINE
8
BLACK
10
81.4101
20
-120.012
11
82.8833
21
-121.485
0
LINE
8
BLACK
10
82.4707
20
-118.951
11
83.9439
21
-120.424
0
ARC
8
BLACK
10
83.4136
20
-120.955
40
0.75
50
225
51
405
0
ARC
8
BLACK
10
81.9404
20
-119.482
40
0.75
50
45
51
225
0
LINE
8
BLACK
10
110.185
20
-123.076
11
113.792
21
-123.076
0
LINE
8
BLACK
10
110.185
20
-121.576
11
113.792
21
-121.576
0
ARC
8
BLACK
10
113.792
20
-122.326
40
0.75
50
270
51
450
0
ARC
8
BLACK
10
110.185
20
-122.326
40
0.75
50
90
51
270
0
LINE
8
BLACK
10
110.716
20
-121.796
11
109.039
21
-120.12
0
LINE
8
BLACK
10
109.655
20
-122.857
11
107.978
21
-121.18
0
ARC
8
BLACK
10
108.509
20
-120.65
40
0.75
50
405
51
585
0
ARC
8
BLACK
10
110.185
20
-122.326
40
0.75
50
225
51
405
0
LINE
8
BLACK
10
103.813
20
-99.4887
11
107.978
21
-103.654
0
LINE
8
BLACK
10
104.874
20
-98.4281
11
109.039
21
-102.594
0
ARC
8
BLACK
10
108.509
20
-103.124
40
0.75
50
225
51
405
0
ARC
8
BLACK
10
104.343
20
-98.9584
40
0.75
50
45
51
225
0
LINE
8
BLACK
10
85.2304
20
-107.086
11
85.2304
21
-102.464
0
LINE
8
BLACK
10
83.7304
20
-107.086
11
83.7304
21
-102.464
0
ARC
8
BLACK
10
84.4804
20
-102.464
40
0.75
50
360
51
540
0
ARC
8
BLACK
10
84.4804
20
-107.086
40
0.75
50
180
51
360
0
LINE
8
BLACK
10
87.9856
20
-99.7084
11
104.343
21
-99.7084
0
LINE
8
BLACK
10
87.9856
20
-98.2084
11
104.343
21
-98.2084
0
ARC
8
BLACK
10
104.343
20
-98.9584
40
0.75
50
270
51
450
0
ARC
8
BLACK
10
87.9856
20
-98.9584
40
0.75
50
90
51
270
0
LINE
8
BLACK
10
104.343
20
-99.7084
11
104.496
21
-99.7084
0
LINE
8
BLACK
10
104.343
20
-98.2084
11
104.496
21
-98.2084
0
ARC
8
BLACK
10
104.496
20
-98.9584
40
0.75
50
270
51
450
0
ARC
8
BLACK
10
104.343
20
-98.9584
40
0.75
50
90
51
270
0
LINE
8
BLACK
10
85.0107
20
-102.994
11
88.5159
21
-99.4887
0
LINE
8
BLACK
10
83.9501
20
-101.933
11
87.4553
21
-98.4281
0
ARC
8
BLACK
10
87.9856
20
-98.9584
40
0.75
50
315
51
495
0
ARC
8
BLACK
10
84.4804
20
-102.464
40
0.75
50
135
51
315
0
LINE
8
BLACK
10
76.7706
20
-106.997
11
75.145
21
-108.622
0
LINE
8
BLACK
10
76.9502
20
-107.176
11
75.3246
21
-108.802
0
ARC
8
BLACK
10
75.2348
20
-108.712
40
0.127
50
135
51
315
0
ARC
8
BLACK
10
76.8604
20
-107.086
40
0.127
50
-45
51
135
0
LINE
8
BLACK
10
30.4682
20
-121.475
11
30.4174
21
-121.424
0
LINE
8
BLACK
10
30.2886
20
-121.654
11
30.2378
21
-121.603
0
ARC
8
BLACK
10
30.3276
20
-121.514
40
0.127
50
405
51
585
0
ARC
8
BLACK
10
30.3784
20
-121.564
40
0.127
50
225
51
405
0
LINE
8
BLACK
10
30.3784
20
-121.691
11
48.7172
21
-121.691
0
LINE
8
BLACK
10
30.3784
20
-121.437
11
48.7172
21
-121.437
0
ARC
8
BLACK
10
48.7172
20
-121.564
40
0.127
50
270
51
450
0
ARC
8
BLACK
10
30.3784
20
-121.564
40
0.127
50
90
51
270
0
LINE
8
BLACK
10
61.4798
20
-108.622
11
48.6274
21
-121.475
0
LINE
8
BLACK
10
61.6594
20
-108.802
11
48.807
21
-121.654
0
ARC
8
BLACK
10
48.7172
20
-121.564
40
0.127
50
135
51
315
0
ARC
8
BLACK
10
61.5696
20
-108.712
40
0.127
50
-45
51
135
0
LINE
8
BLACK
10
61.5696
20
-108.839
11
61.6712
21
-108.839
0
LINE
8
BLACK
10
61.5696
20
-108.585
11
61.6712
21
-108.585
0
ARC
8
BLACK
10
61.6712
20
-108.712
40
0.127
50
270
51
450
0
ARC
8
BLACK
10
61.5696
20
-108.712
40
0.127
50
90
51
270
0
LINE
8
BLACK
10
61.6712
20
-108.839
11
75.2348
21
-108.839
0
LINE
8
BLACK
10
61.6712
20
-108.585
11
75.2348
21
-108.585
0
ARC
8
BLACK
10
75.2348
20
-108.712
40
0.127
50
270
51
450
0
ARC
8
BLACK
10
61.6712
20
-108.712
40
0.127
50
90
51
270
0
LINE
8
BLACK
10
30.3276
20
-116.561
11
50.9524
21
-116.561
0
LINE
8
BLACK
10
30.3276
20
-116.307
11
50.9524
21
-116.307
0
ARC
8
BLACK
10
50.9524
20
-116.434
40
0.127
50
270
51
450
0
ARC
8
BLACK
10
30.3276
20
-116.434
40
0.127
50
90
51
270
0
LINE
8
BLACK
10
61.5188
20
-107.213
11
71.5264
21
-107.213
0
LINE
8
BLACK
10
61.5188
20
-106.959
11
71.5264
21
-106.959
0
ARC
8
BLACK
10
71.5264
20
-107.086
40
0.127
50
270
51
450
0
ARC
8
BLACK
10
61.5188
20
-107.086
40
0.127
50
90
51
270
0
LINE
8
BLACK
10
52.2614
20
-116.523
11
61.6086
21
-107.176
0
LINE
8
BLACK
10
52.0818
20
-116.344
11
61.429
21
-106.997
0
ARC
8
BLACK
10
61.5188
20
-107.086
40
0.127
50
315
51
495
0
ARC
8
BLACK
10
52.1716
20
-116.434
40
0.127
50
135
51
315
0
LINE
8
BLACK
10
50.9524
20
-116.561
11
52.1716
21
-116.561
0
LINE
8
BLACK
10
50.9524
20
-116.307
11
52.1716
21
-116.307
0
ARC
8
BLACK
10
52.1716
20
-116.434
40
0.127
50
270
51
450
0
ARC
8
BLACK
10
50.9524
20
-116.434
40
0.127
50
90
51
270
0
LINE
8
BLACK
10
30.3276
20
-126.721
11
48.768
21
-126.721
0
LINE
8
BLACK
10
30.3276
20
-126.467
11
48.768
21
-126.467
0
ARC
8
BLACK
10
48.768
20
-126.594
40
0.127
50
270
51
450
0
ARC
8
BLACK
10
30.3276
20
-126.594
40
0.127
50
90
51
270
0
LINE
8
BLACK
10
76.5946
20
-110.072
11
79.4902
21
-107.176
0
LINE
8
BLACK
10
76.415
20
-109.892
11
79.3106
21
-106.997
0
ARC
8
BLACK
10
79.4004
20
-107.086
40
0.127
50
315
51
495
0
ARC
8
BLACK
10
76.5048
20
-109.982
40
0.127
50
135
51
315
0
LINE
8
BLACK
10
65.7352
20
-110.109
11
76.5048
21
-110.109
0
LINE
8
BLACK
10
65.7352
20
-109.855
11
76.5048
21
-109.855
0
ARC
8
BLACK
10
76.5048
20
-109.982
40
0.127
50
270
51
450
0
ARC
8
BLACK
10
65.7352
20
-109.982
40
0.127
50
90
51
270
0
LINE
8
BLACK
10
49.2134
20
-126.683
11
65.825
21
-110.072
0
LINE
8
BLACK
10
49.0338
20
-126.504
11
65.6454
21
-109.892
0
ARC
8
BLACK
10
65.7352
20
-109.982
40
0.127
50
315
51
495
0
ARC
8
BLACK
10
49.1236
20
-126.594
40
0.127
50
135
51
315
0
LINE
8
BLACK
10
48.768
20
-126.721
11
49.1236
21
-126.721
0
LINE
8
BLACK
10
48.768
20
-126.467
11
49.1236
21
-126.467
0
ARC
8
BLACK
10
49.1236
20
-126.594
40
0.127
50
270
51
450
0
ARC
8
BLACK
10
48.768
20
-126.594
40
0.127
50
90
51
270
0
LINE
8
BLACK
10
37.592
20
-170.459
11
42.9768
21
-170.459
0
LINE
8
BLACK
10
37.592
20
-170.205
11
42.9768
21
-170.205
0
ARC
8
BLACK
10
42.9768
20
-170.332
40
0.127
50
270
51
450
0
ARC
8
BLACK
10
37.592
20
-170.332
40
0.127
50
90
51
270
0
LINE
8
BLACK
10
42.887
20
-170.422
11
56.6538
21
-184.189
0
LINE
8
BLACK
10
43.0666
20
-170.243
11
56.8334
21
-184.009
0
ARC
8
BLACK
10
56.7436
20
-184.099
40
0.127
50
225
51
405
0
ARC
8
BLACK
10
42.9768
20
-170.332
40
0.127
50
45
51
225
0
LINE
8
BLACK
10
35.56
20
-167.716
11
37.592
21
-167.716
0
LINE
8
BLACK
10
35.56
20
-167.462
11
37.592
21
-167.462
0
ARC
8
BLACK
10
37.592
20
-167.589
40
0.127
50
270
51
450
0
ARC
8
BLACK
10
35.56
20
-167.589
40
0.127
50
90
51
270
0
LINE
8
BLACK
10
59.6274
20
-186.475
11
61.9134
21
-184.189
0
LINE
8
BLACK
10
59.4478
20
-186.295
11
61.7338
21
-184.009
0
ARC
8
BLACK
10
61.8236
20
-184.099
40
0.127
50
315
51
495
0
ARC
8
BLACK
10
59.5376
20
-186.385
40
0.127
50
135
51
315
0
LINE
8
BLACK
10
50.3428
20
-186.512
11
59.5376
21
-186.512
0
LINE
8
BLACK
10
50.3428
20
-186.258
11
59.5376
21
-186.258
0
ARC
8
BLACK
10
59.5376
20
-186.385
40
0.127
50
270
51
450
0
ARC
8
BLACK
10
50.3428
20
-186.385
40
0.127
50
90
51
270
0
LINE
8
BLACK
10
43.141
20
-179.363
11
50.253
21
-186.475
0
LINE
8
BLACK
10
43.3206
20
-179.183
11
50.4326
21
-186.295
0
ARC
8
BLACK
10
50.3428
20
-186.385
40
0.127
50
225
51
405
0
ARC
8
BLACK
10
43.2308
20
-179.273
40
0.127
50
45
51
225
0
LINE
8
BLACK
10
37.9984
20
-179.4
11
43.2308
21
-179.4
0
LINE
8
BLACK
10
37.9984
20
-179.146
11
43.2308
21
-179.146
0
ARC
8
BLACK
10
43.2308
20
-179.273
40
0.127
50
270
51
450
0
ARC
8
BLACK
10
37.9984
20
-179.273
40
0.127
50
90
51
270
0
LINE
8
BLACK
10
33.3874
20
-174.842
11
37.9086
21
-179.363
0
LINE
8
BLACK
10
33.567
20
-174.662
11
38.0882
21
-179.183
0
ARC
8
BLACK
10
37.9984
20
-179.273
40
0.127
50
225
51
405
0
ARC
8
BLACK
10
33.4772
20
-174.752
40
0.127
50
45
51
225
0
LINE
8
BLACK
10
33.6042
20
-174.752
11
33.6042
21
-169.672
0
LINE
8
BLACK
10
33.3502
20
-174.752
11
33.3502
21
-169.672
0
ARC
8
BLACK
10
33.4772
20
-169.672
40
0.127
50
360
51
540
0
ARC
8
BLACK
10
33.4772
20
-174.752
40
0.127
50
180
51
360
0
LINE
8
BLACK
10
35.4702
20
-167.499
11
33.3874
21
-169.582
0
LINE
8
BLACK
10
35.6498
20
-167.679
11
33.567
21
-169.762
0
ARC
8
BLACK
10
33.4772
20
-169.672
40
0.127
50
135
51
315
0
ARC
8
BLACK
10
35.56
20
-167.589
40
0.127
50
-45
51
135
0
LINE
8
BLACK
10
89.4198
20
-50.8118
11
86.8798
21
-53.3518
0
LINE
8
BLACK
10
89.5994
20
-50.9914
11
87.0594
21
-53.5314
0
ARC
8
BLACK
10
86.9696
20
-53.4416
40
0.127
50
135
51
315
0
ARC
8
BLACK
10
89.5096
20
-50.9016
40
0.127
50
-45
51
135
0
LINE
8
BLACK
10
86.829
20
-68.1618
11
90.5374
21
-71.8702
0
LINE
8
BLACK
10
87.0086
20
-67.9822
11
90.717
21
-71.6906
0
ARC
8
BLACK
10
90.6272
20
-71.7804
40
0.127
50
225
51
405
0
ARC
8
BLACK
10
86.9188
20
-68.072
40
0.127
50
45
51
225
0
LINE
8
BLACK
10
79.3496
20
-68.199
11
86.9188
21
-68.199
0
LINE
8
BLACK
10
79.3496
20
-67.945
11
86.9188
21
-67.945
0
ARC
8
BLACK
10
86.9188
20
-68.072
40
0.127
50
270
51
450
0
ARC
8
BLACK
10
79.3496
20
-68.072
40
0.127
50
90
51
270
0
LINE
8
BLACK
10
77.9898
20
-66.8918
11
79.2598
21
-68.1618
0
LINE
8
BLACK
10
78.1694
20
-66.7122
11
79.4394
21
-67.9822
0
ARC
8
BLACK
10
79.3496
20
-68.072
40
0.127
50
225
51
405
0
ARC
8
BLACK
10
78.0796
20
-66.802
40
0.127
50
45
51
225
0
LINE
8
BLACK
10
78.2066
20
-66.802
11
78.2066
21
-54.2544
0
LINE
8
BLACK
10
77.9526
20
-66.802
11
77.9526
21
-54.2544
0
ARC
8
BLACK
10
78.0796
20
-54.2544
40
0.127
50
360
51
540
0
ARC
8
BLACK
10
78.0796
20
-66.802
40
0.127
50
180
51
360
0
LINE
8
BLACK
10
78.8026
20
-53.3518
11
77.9898
21
-54.1646
0
LINE
8
BLACK
10
78.9822
20
-53.5314
11
78.1694
21
-54.3442
0
ARC
8
BLACK
10
78.0796
20
-54.2544
40
0.127
50
135
51
315
0
ARC
8
BLACK
10
78.8924
20
-53.4416
40
0.127
50
-45
51
135
0
LINE
8
BLACK
10
82.8548
20
-53.5686
11
86.9696
21
-53.5686
0
LINE
8
BLACK
10
82.8548
20
-53.3146
11
86.9696
21
-53.3146
0
ARC
8
BLACK
10
86.9696
20
-53.4416
40
0.127
50
270
51
450
0
ARC
8
BLACK
10
82.8548
20
-53.4416
40
0.127
50
90
51
270
0
LINE
8
BLACK
10
78.8924
20
-53.5686
11
82.8548
21
-53.5686
0
LINE
8
BLACK
10
78.8924
20
-53.3146
11
82.8548
21
-53.3146
0
ARC
8
BLACK
10
82.8548
20
-53.4416
40
0.127
50
270
51
450
0
ARC
8
BLACK
10
78.8924
20
-53.4416
40
0.127
50
90
51
270
0
LINE
8
BLACK
10
93.257
20
-71.6906
11
88.3294
21
-66.763
0
LINE
8
BLACK
10
93.0774
20
-71.8702
11
88.1498
21
-66.9426
0
ARC
8
BLACK
10
88.2396
20
-66.8528
40
0.127
50
405
51
585
0
ARC
8
BLACK
10
93.1672
20
-71.7804
40
0.127
50
225
51
405
0
LINE
8
BLACK
10
91.0218
20
-48.2972
11
90.9964
21
-48.2718
0
LINE
8
BLACK
10
90.8422
20
-48.4768
11
90.8168
21
-48.4514
0
ARC
8
BLACK
10
90.9066
20
-48.3616
40
0.127
50
405
51
585
0
ARC
8
BLACK
10
90.932
20
-48.387
40
0.127
50
225
51
405
0
LINE
8
BLACK
10
91.059
20
-51.9176
11
91.059
21
-48.387
0
LINE
8
BLACK
10
90.805
20
-51.9176
11
90.805
21
-48.387
0
ARC
8
BLACK
10
90.932
20
-48.387
40
0.127
50
360
51
540
0
ARC
8
BLACK
10
90.932
20
-51.9176
40
0.127
50
180
51
360
0
LINE
8
BLACK
10
88.685
20
-54.3442
11
91.0218
21
-52.0074
0
LINE
8
BLACK
10
88.5054
20
-54.1646
11
90.8422
21
-51.8278
0
ARC
8
BLACK
10
90.932
20
-51.9176
40
0.127
50
315
51
495
0
ARC
8
BLACK
10
88.5952
20
-54.2544
40
0.127
50
135
51
315
0
LINE
8
BLACK
10
79.8576
20
-54.3814
11
88.5952
21
-54.3814
0
LINE
8
BLACK
10
79.8576
20
-54.1274
11
88.5952
21
-54.1274
0
ARC
8
BLACK
10
88.5952
20
-54.2544
40
0.127
50
270
51
450
0
ARC
8
BLACK
10
79.8576
20
-54.2544
40
0.127
50
90
51
270
0
LINE
8
BLACK
10
79.1854
20
-55.1062
11
79.9474
21
-54.3442
0
LINE
8
BLACK
10
79.0058
20
-54.9266
11
79.7678
21
-54.1646
0
ARC
8
BLACK
10
79.8576
20
-54.2544
40
0.127
50
315
51
495
0
ARC
8
BLACK
10
79.0956
20
-55.0164
40
0.127
50
135
51
315
0
LINE
8
BLACK
10
79.2226
20
-55.2196
11
79.2226
21
-55.0164
0
LINE
8
BLACK
10
78.9686
20
-55.2196
11
78.9686
21
-55.0164
0
ARC
8
BLACK
10
79.0956
20
-55.0164
40
0.127
50
360
51
540
0
ARC
8
BLACK
10
79.0956
20
-55.2196
40
0.127
50
180
51
360
0
LINE
8
BLACK
10
79.2362
20
-55.1806
11
79.1854
21
-55.1298
0
LINE
8
BLACK
10
79.0566
20
-55.3602
11
79.0058
21
-55.3094
0
ARC
8
BLACK
10
79.0956
20
-55.2196
40
0.127
50
405
51
585
0
ARC
8
BLACK
10
79.1464
20
-55.2704
40
0.127
50
225
51
405
0
LINE
8
BLACK
10
79.2734
20
-66.2432
11
79.2734
21
-55.2704
0
LINE
8
BLACK
10
79.0194
20
-66.2432
11
79.0194
21
-55.2704
0
ARC
8
BLACK
10
79.1464
20
-55.2704
40
0.127
50
360
51
540
0
ARC
8
BLACK
10
79.1464
20
-66.2432
40
0.127
50
180
51
360
0
LINE
8
BLACK
10
79.8458
20
-66.763
11
79.2362
21
-66.1534
0
LINE
8
BLACK
10
79.6662
20
-66.9426
11
79.0566
21
-66.333
0
ARC
8
BLACK
10
79.1464
20
-66.2432
40
0.127
50
405
51
585
0
ARC
8
BLACK
10
79.756
20
-66.8528
40
0.127
50
225
51
405
0
LINE
8
BLACK
10
79.756
20
-66.9798
11
80.2132
21
-66.9798
0
LINE
8
BLACK
10
79.756
20
-66.7258
11
80.2132
21
-66.7258
0
ARC
8
BLACK
10
80.2132
20
-66.8528
40
0.127
50
270
51
450
0
ARC
8
BLACK
10
79.756
20
-66.8528
40
0.127
50
90
51
270
0
LINE
8
BLACK
10
80.2132
20
-66.9798
11
88.2396
21
-66.9798
0
LINE
8
BLACK
10
80.2132
20
-66.7258
11
88.2396
21
-66.7258
0
ARC
8
BLACK
10
88.2396
20
-66.8528
40
0.127
50
270
51
450
0
ARC
8
BLACK
10
80.2132
20
-66.8528
40
0.127
50
90
51
270
0
LINE
8
BLACK
10
46.5582
20
-60.2488
11
46.5582
21
-58.3184
0
LINE
8
BLACK
10
46.3042
20
-60.2488
11
46.3042
21
-58.3184
0
ARC
8
BLACK
10
46.4312
20
-58.3184
40
0.127
50
360
51
540
0
ARC
8
BLACK
10
46.4312
20
-60.2488
40
0.127
50
180
51
360
0
LINE
8
BLACK
10
51.523
20
-56.6302
11
54.1138
21
-59.221
0
LINE
8
BLACK
10
51.7026
20
-56.4506
11
54.2934
21
-59.0414
0
ARC
8
BLACK
10
54.2036
20
-59.1312
40
0.127
50
225
51
405
0
ARC
8
BLACK
10
51.6128
20
-56.5404
40
0.127
50
45
51
225
0
LINE
8
BLACK
10
48.2092
20
-56.6674
11
51.6128
21
-56.6674
0
LINE
8
BLACK
10
48.2092
20
-56.4134
11
51.6128
21
-56.4134
0
ARC
8
BLACK
10
51.6128
20
-56.5404
40
0.127
50
270
51
450
0
ARC
8
BLACK
10
48.2092
20
-56.5404
40
0.127
50
90
51
270
0
LINE
8
BLACK
10
46.521
20
-58.4082
11
48.299
21
-56.6302
0
LINE
8
BLACK
10
46.3414
20
-58.2286
11
48.1194
21
-56.4506
0
ARC
8
BLACK
10
48.2092
20
-56.5404
40
0.127
50
315
51
495
0
ARC
8
BLACK
10
46.4312
20
-58.3184
40
0.127
50
135
51
315
0
LINE
8
BLACK
10
82.1064
20
-82.638
11
77.001
21
-77.5326
0
LINE
8
BLACK
10
81.9268
20
-82.8176
11
76.8214
21
-77.7122
0
ARC
8
BLACK
10
76.9112
20
-77.6224
40
0.127
50
405
51
585
0
ARC
8
BLACK
10
82.0166
20
-82.7278
40
0.127
50
225
51
405
0
LINE
8
BLACK
10
85.3322
20
-48.6546
11
85.5354
21
-48.4514
0
LINE
8
BLACK
10
85.1526
20
-48.475
11
85.3558
21
-48.2718
0
ARC
8
BLACK
10
85.4456
20
-48.3616
40
0.127
50
315
51
495
0
ARC
8
BLACK
10
85.2424
20
-48.5648
40
0.127
50
135
51
315
0
LINE
8
BLACK
10
82.042
20
-48.6918
11
85.2424
21
-48.6918
0
LINE
8
BLACK
10
82.042
20
-48.4378
11
85.2424
21
-48.4378
0
ARC
8
BLACK
10
85.2424
20
-48.5648
40
0.127
50
270
51
450
0
ARC
8
BLACK
10
82.042
20
-48.5648
40
0.127
50
90
51
270
0
LINE
8
BLACK
10
77.001
20
-53.7854
11
82.1318
21
-48.6546
0
LINE
8
BLACK
10
76.8214
20
-53.6058
11
81.9522
21
-48.475
0
ARC
8
BLACK
10
82.042
20
-48.5648
40
0.127
50
315
51
495
0
ARC
8
BLACK
10
76.9112
20
-53.6956
40
0.127
50
135
51
315
0
LINE
8
BLACK
10
77.0382
20
-56.0832
11
77.0382
21
-53.6956
0
LINE
8
BLACK
10
76.7842
20
-56.0832
11
76.7842
21
-53.6956
0
ARC
8
BLACK
10
76.9112
20
-53.6956
40
0.127
50
360
51
540
0
ARC
8
BLACK
10
76.9112
20
-56.0832
40
0.127
50
180
51
360
0
LINE
8
BLACK
10
77.0382
20
-77.6224
11
77.0382
21
-56.0832
0
LINE
8
BLACK
10
76.7842
20
-77.6224
11
76.7842
21
-56.0832
0
ARC
8
BLACK
10
76.9112
20
-56.0832
40
0.127
50
360
51
540
0
ARC
8
BLACK
10
76.9112
20
-77.6224
40
0.127
50
180
51
360
0
LINE
8
BLACK
10
93.8276
20
-51.3842
11
93.8276
21
-48.3616
0
LINE
8
BLACK
10
93.5736
20
-51.3842
11
93.5736
21
-48.3616
0
ARC
8
BLACK
10
93.7006
20
-48.3616
40
0.127
50
360
51
540
0
ARC
8
BLACK
10
93.7006
20
-51.3842
40
0.127
50
180
51
360
0
LINE
8
BLACK
10
93.6108
20
-51.2944
11
90.8422
21
-54.063
0
LINE
8
BLACK
10
93.7904
20
-51.474
11
91.0218
21
-54.2426
0
ARC
8
BLACK
10
90.932
20
-54.1528
40
0.127
50
135
51
315
0
ARC
8
BLACK
10
93.7006
20
-51.3842
40
0.127
50
-45
51
135
0
LINE
8
BLACK
10
37.592
20
-175.793
11
43.2308
21
-175.793
0
LINE
8
BLACK
10
37.592
20
-175.539
11
43.2308
21
-175.539
0
ARC
8
BLACK
10
43.2308
20
-175.666
40
0.127
50
270
51
450
0
ARC
8
BLACK
10
37.592
20
-175.666
40
0.127
50
90
51
270
0
LINE
8
BLACK
10
43.141
20
-175.756
11
51.5738
21
-184.189
0
LINE
8
BLACK
10
43.3206
20
-175.577
11
51.7534
21
-184.009
0
ARC
8
BLACK
10
51.6636
20
-184.099
40
0.127
50
225
51
405
0
ARC
8
BLACK
10
43.2308
20
-175.666
40
0.127
50
45
51
225
0
LINE
8
BLACK
10
37.719
20
-48.26
11
37.719
21
-43.434
0
LINE
8
BLACK
10
37.465
20
-48.26
11
37.465
21
-43.434
0
ARC
8
BLACK
10
37.592
20
-43.434
40
0.127
50
360
51
540
0
ARC
8
BLACK
10
37.592
20
-48.26
40
0.127
50
180
51
360
0
LINE
8
BLACK
10
37.5022
20
-48.1702
11
37.4514
21
-48.221
0
LINE
8
BLACK
10
37.6818
20
-48.3498
11
37.631
21
-48.4006
0
ARC
8
BLACK
10
37.5412
20
-48.3108
40
0.127
50
135
51
315
0
ARC
8
BLACK
10
37.592
20
-48.26
40
0.127
50
-45
51
135
0
LINE
8
BLACK
10
42.799
20
-48.1076
11
42.799
21
-43.434
0
LINE
8
BLACK
10
42.545
20
-48.1076
11
42.545
21
-43.434
0
ARC
8
BLACK
10
42.672
20
-43.434
40
0.127
50
360
51
540
0
ARC
8
BLACK
10
42.672
20
-48.1076
40
0.127
50
180
51
360
0
LINE
8
BLACK
10
63.5254
20
-48.1584
11
63.5254
21
-42.7736
0
LINE
8
BLACK
10
63.2714
20
-48.1584
11
63.2714
21
-42.7736
0
ARC
8
BLACK
10
63.3984
20
-42.7736
40
0.127
50
360
51
540
0
ARC
8
BLACK
10
63.3984
20
-48.1584
40
0.127
50
180
51
360
0
LINE
8
BLACK
10
63.3086
20
-48.0686
11
63.2578
21
-48.1194
0
LINE
8
BLACK
10
63.4882
20
-48.2482
11
63.4374
21
-48.299
0
ARC
8
BLACK
10
63.3476
20
-48.2092
40
0.127
50
135
51
315
0
ARC
8
BLACK
10
63.3984
20
-48.1584
40
0.127
50
-45
51
135
0
LINE
8
BLACK
10
88.3294
20
-48.2718
11
85.9418
21
-45.8842
0
LINE
8
BLACK
10
88.1498
20
-48.4514
11
85.7622
21
-46.0638
0
ARC
8
BLACK
10
85.852
20
-45.974
40
0.127
50
405
51
585
0
ARC
8
BLACK
10
88.2396
20
-48.3616
40
0.127
50
225
51
405
0
LINE
8
BLACK
10
83.4136
20
-46.101
11
85.852
21
-46.101
0
LINE
8
BLACK
10
83.4136
20
-45.847
11
85.852
21
-45.847
0
ARC
8
BLACK
10
85.852
20
-45.974
40
0.127
50
270
51
450
0
ARC
8
BLACK
10
83.4136
20
-45.974
40
0.127
50
90
51
270
0
LINE
8
BLACK
10
75.8834
20
-53.6838
11
83.5034
21
-46.0638
0
LINE
8
BLACK
10
75.7038
20
-53.5042
11
83.3238
21
-45.8842
0
ARC
8
BLACK
10
83.4136
20
-45.974
40
0.127
50
315
51
495
0
ARC
8
BLACK
10
75.7936
20
-53.594
40
0.127
50
135
51
315
0
LINE
8
BLACK
10
68.2126
20
-68.2634
11
75.8834
21
-60.5926
0
LINE
8
BLACK
10
68.033
20
-68.0838
11
75.7038
21
-60.413
0
ARC
8
BLACK
10
75.7936
20
-60.5028
40
0.127
50
315
51
495
0
ARC
8
BLACK
10
68.1228
20
-68.1736
40
0.127
50
135
51
315
0
LINE
8
BLACK
10
68.2498
20
-72.0852
11
68.2498
21
-68.1736
0
LINE
8
BLACK
10
67.9958
20
-72.0852
11
67.9958
21
-68.1736
0
ARC
8
BLACK
10
68.1228
20
-68.1736
40
0.127
50
360
51
540
0
ARC
8
BLACK
10
68.1228
20
-72.0852
40
0.127
50
180
51
360
0
LINE
8
BLACK
10
75.9206
20
-60.5028
11
75.9206
21
-53.594
0
LINE
8
BLACK
10
75.6666
20
-60.5028
11
75.6666
21
-53.594
0
ARC
8
BLACK
10
75.7936
20
-53.594
40
0.127
50
360
51
540
0
ARC
8
BLACK
10
75.7936
20
-60.5028
40
0.127
50
180
51
360
0
LINE
8
BLACK
10
92.4306
20
-51.562
11
92.4306
21
-50.9016
0
LINE
8
BLACK
10
92.1766
20
-51.562
11
92.1766
21
-50.9016
0
ARC
8
BLACK
10
92.3036
20
-50.9016
40
0.127
50
360
51
540
0
ARC
8
BLACK
10
92.3036
20
-51.562
40
0.127
50
180
51
360
0
LINE
8
BLACK
10
87.376
20
-55.3466
11
88.646
21
-55.3466
0
LINE
8
BLACK
10
87.376
20
-55.0926
11
88.646
21
-55.0926
0
ARC
8
BLACK
10
88.646
20
-55.2196
40
0.127
50
270
51
450
0
ARC
8
BLACK
10
87.376
20
-55.2196
40
0.127
50
90
51
270
0
LINE
8
BLACK
10
92.2138
20
-51.4722
11
88.5562
21
-55.1298
0
LINE
8
BLACK
10
92.3934
20
-51.6518
11
88.7358
21
-55.3094
0
ARC
8
BLACK
10
88.646
20
-55.2196
40
0.127
50
135
51
315
0
ARC
8
BLACK
10
92.3036
20
-51.562
40
0.127
50
-45
51
135
0
LINE
8
BLACK
10
58.4454
20
-47.8536
11
58.4454
21
-42.7736
0
LINE
8
BLACK
10
58.1914
20
-47.8536
11
58.1914
21
-42.7736
0
ARC
8
BLACK
10
58.3184
20
-42.7736
40
0.127
50
360
51
540
0
ARC
8
BLACK
10
58.3184
20
-47.8536
40
0.127
50
180
51
360
0
LINE
8
BLACK
10
58.2286
20
-47.9434
11
58.2794
21
-47.9942
0
LINE
8
BLACK
10
58.4082
20
-47.7638
11
58.459
21
-47.8146
0
ARC
8
BLACK
10
58.3692
20
-47.9044
40
0.127
50
225
51
405
0
ARC
8
BLACK
10
58.3184
20
-47.8536
40
0.127
50
45
51
225
0
LINE
8
BLACK
10
53.3654
20
-47.5488
11
53.3654
21
-42.7736
0
LINE
8
BLACK
10
53.1114
20
-47.5488
11
53.1114
21
-42.7736
0
ARC
8
BLACK
10
53.2384
20
-42.7736
40
0.127
50
360
51
540
0
ARC
8
BLACK
10
53.2384
20
-47.5488
40
0.127
50
180
51
360
0
LINE
8
BLACK
10
53.1486
20
-47.459
11
53.0978
21
-47.5098
0
LINE
8
BLACK
10
53.3282
20
-47.6386
11
53.2774
21
-47.6894
0
ARC
8
BLACK
10
53.1876
20
-47.5996
40
0.127
50
135
51
315
0
ARC
8
BLACK
10
53.2384
20
-47.5488
40
0.127
50
-45
51
135
0
LINE
8
BLACK
10
65.913
20
-73.0504
11
65.913
21
-63.3476
0
LINE
8
BLACK
10
65.659
20
-73.0504
11
65.659
21
-63.3476
0
ARC
8
BLACK
10
65.786
20
-63.3476
40
0.127
50
360
51
540
0
ARC
8
BLACK
10
65.786
20
-73.0504
40
0.127
50
180
51
360
0
LINE
8
BLACK
10
65.913
20
-63.5
11
65.913
21
-63.3476
0
LINE
8
BLACK
10
65.659
20
-63.5
11
65.659
21
-63.3476
0
ARC
8
BLACK
10
65.786
20
-63.3476
40
0.127
50
360
51
540
0
ARC
8
BLACK
10
65.786
20
-63.5
40
0.127
50
180
51
360
0
LINE
8
BLACK
10
44.0182
20
-84.2264
11
44.0182
21
-84.201
0
LINE
8
BLACK
10
43.7642
20
-84.2264
11
43.7642
21
-84.201
0
ARC
8
BLACK
10
43.8912
20
-84.201
40
0.127
50
360
51
540
0
ARC
8
BLACK
10
43.8912
20
-84.2264
40
0.127
50
180
51
360
0
LINE
8
BLACK
10
43.8014
20
-84.1366
11
42.5314
21
-85.4066
0
LINE
8
BLACK
10
43.981
20
-84.3162
11
42.711
21
-85.5862
0
ARC
8
BLACK
10
42.6212
20
-85.4964
40
0.127
50
135
51
315
0
ARC
8
BLACK
10
43.8912
20
-84.2264
40
0.127
50
-45
51
135
0
LINE
8
BLACK
10
40.1574
20
-144.196
11
51.5112
21
-144.196
0
LINE
8
BLACK
10
40.1574
20
-143.942
11
51.5112
21
-143.942
0
ARC
8
BLACK
10
51.5112
20
-144.069
40
0.127
50
270
51
450
0
ARC
8
BLACK
10
40.1574
20
-144.069
40
0.127
50
90
51
270
0
LINE
8
BLACK
10
40.0676
20
-143.979
11
40.0422
21
-144.004
0
LINE
8
BLACK
10
40.2472
20
-144.159
11
40.2218
21
-144.184
0
ARC
8
BLACK
10
40.132
20
-144.094
40
0.127
50
135
51
315
0
ARC
8
BLACK
10
40.1574
20
-144.069
40
0.127
50
-45
51
135
0
LINE
8
BLACK
10
40.2218
20
-144.184
11
40.298
21
-144.108
0
LINE
8
BLACK
10
40.0422
20
-144.004
11
40.1184
21
-143.928
0
ARC
8
BLACK
10
40.2082
20
-144.018
40
0.127
50
315
51
495
0
ARC
8
BLACK
10
40.132
20
-144.094
40
0.127
50
135
51
315
0
LINE
8
BLACK
10
97.3836
20
-82.7278
11
97.3836
21
-79.6798
0
LINE
8
BLACK
10
97.1296
20
-82.7278
11
97.1296
21
-79.6798
0
ARC
8
BLACK
10
97.2566
20
-79.6798
40
0.127
50
360
51
540
0
ARC
8
BLACK
10
97.2566
20
-82.7278
40
0.127
50
180
51
360
0
LINE
8
BLACK
10
97.3464
20
-79.59
11
96.2796
21
-78.5232
0
LINE
8
BLACK
10
97.1668
20
-79.7696
11
96.1
21
-78.7028
0
ARC
8
BLACK
10
96.1898
20
-78.613
40
0.127
50
405
51
585
0
ARC
8
BLACK
10
97.2566
20
-79.6798
40
0.127
50
225
51
405
0
LINE
8
BLACK
10
92.3036
20
-82.7278
11
92.3036
21
-80.0862
0
LINE
8
BLACK
10
92.0496
20
-82.7278
11
92.0496
21
-80.0862
0
ARC
8
BLACK
10
92.1766
20
-80.0862
40
0.127
50
360
51
540
0
ARC
8
BLACK
10
92.1766
20
-82.7278
40
0.127
50
180
51
360
0
LINE
8
BLACK
10
92.2664
20
-80.176
11
93.7396
21
-78.7028
0
LINE
8
BLACK
10
92.0868
20
-79.9964
11
93.56
21
-78.5232
0
ARC
8
BLACK
10
93.6498
20
-78.613
40
0.127
50
315
51
495
0
ARC
8
BLACK
10
92.1766
20
-80.0862
40
0.127
50
135
51
315
0
LINE
8
BLACK
10
89.7636
20
-82.7278
11
89.7636
21
-78.7654
0
LINE
8
BLACK
10
89.5096
20
-82.7278
11
89.5096
21
-78.7654
0
ARC
8
BLACK
10
89.6366
20
-78.7654
40
0.127
50
360
51
540
0
ARC
8
BLACK
10
89.6366
20
-82.7278
40
0.127
50
180
51
360
0
LINE
8
BLACK
10
89.7264
20
-78.8552
11
89.7772
21
-78.8044
0
LINE
8
BLACK
10
89.5468
20
-78.6756
11
89.5976
21
-78.6248
0
ARC
8
BLACK
10
89.6874
20
-78.7146
40
0.127
50
315
51
495
0
ARC
8
BLACK
10
89.6366
20
-78.7654
40
0.127
50
135
51
315
0
LINE
8
BLACK
10
87.2236
20
-82.7278
11
87.2236
21
-78.7654
0
LINE
8
BLACK
10
86.9696
20
-82.7278
11
86.9696
21
-78.7654
0
ARC
8
BLACK
10
87.0966
20
-78.7654
40
0.127
50
360
51
540
0
ARC
8
BLACK
10
87.0966
20
-82.7278
40
0.127
50
180
51
360
0
LINE
8
BLACK
10
87.1864
20
-78.8552
11
87.2372
21
-78.8044
0
LINE
8
BLACK
10
87.0068
20
-78.6756
11
87.0576
21
-78.6248
0
ARC
8
BLACK
10
87.1474
20
-78.7146
40
0.127
50
315
51
495
0
ARC
8
BLACK
10
87.0966
20
-78.7654
40
0.127
50
135
51
315
0
LINE
8
BLACK
10
88.2142
20
-64.1604
11
88.2142
21
-59.944
0
LINE
8
BLACK
10
87.9602
20
-64.1604
11
87.9602
21
-59.944
0
ARC
8
BLACK
10
88.0872
20
-59.944
40
0.127
50
360
51
540
0
ARC
8
BLACK
10
88.0872
20
-64.1604
40
0.127
50
180
51
360
0
LINE
8
BLACK
10
88.177
20
-59.8542
11
88.1262
21
-59.8034
0
LINE
8
BLACK
10
87.9974
20
-60.0338
11
87.9466
21
-59.983
0
ARC
8
BLACK
10
88.0364
20
-59.8932
40
0.127
50
405
51
585
0
ARC
8
BLACK
10
88.0872
20
-59.944
40
0.127
50
225
51
405
0
LINE
8
BLACK
10
90.7542
20
-64.1604
11
90.7542
21
-59.944
0
LINE
8
BLACK
10
90.5002
20
-64.1604
11
90.5002
21
-59.944
0
ARC
8
BLACK
10
90.6272
20
-59.944
40
0.127
50
360
51
540
0
ARC
8
BLACK
10
90.6272
20
-64.1604
40
0.127
50
180
51
360
0
LINE
8
BLACK
10
90.717
20
-59.8542
11
90.6662
21
-59.8034
0
LINE
8
BLACK
10
90.5374
20
-60.0338
11
90.4866
21
-59.983
0
ARC
8
BLACK
10
90.5764
20
-59.8932
40
0.127
50
405
51
585
0
ARC
8
BLACK
10
90.6272
20
-59.944
40
0.127
50
225
51
405
0
LINE
8
BLACK
10
94.2594
20
-63.1952
11
94.2594
21
-59.8932
0
LINE
8
BLACK
10
94.0054
20
-63.1952
11
94.0054
21
-59.8932
0
ARC
8
BLACK
10
94.1324
20
-59.8932
40
0.127
50
360
51
540
0
ARC
8
BLACK
10
94.1324
20
-63.1952
40
0.127
50
180
51
360
0
LINE
8
BLACK
10
94.0426
20
-63.1054
11
93.0774
21
-64.0706
0
LINE
8
BLACK
10
94.2222
20
-63.285
11
93.257
21
-64.2502
0
ARC
8
BLACK
10
93.1672
20
-64.1604
40
0.127
50
135
51
315
0
ARC
8
BLACK
10
94.1324
20
-63.1952
40
0.127
50
-45
51
135
0
LINE
8
BLACK
10
98.3742
20
-64.1604
11
98.3742
21
-61.468
0
LINE
8
BLACK
10
98.1202
20
-64.1604
11
98.1202
21
-61.468
0
ARC
8
BLACK
10
98.2472
20
-61.468
40
0.127
50
360
51
540
0
ARC
8
BLACK
10
98.2472
20
-64.1604
40
0.127
50
180
51
360
0
LINE
8
BLACK
10
98.337
20
-61.3782
11
96.7622
21
-59.8034
0
LINE
8
BLACK
10
98.1574
20
-61.5578
11
96.5826
21
-59.983
0
ARC
8
BLACK
10
96.6724
20
-59.8932
40
0.127
50
405
51
585
0
ARC
8
BLACK
10
98.2472
20
-61.468
40
0.127
50
225
51
405
0
LINE
8
BLACK
10
84.5058
20
-62.992
11
84.5058
21
-59.9948
0
LINE
8
BLACK
10
84.2518
20
-62.992
11
84.2518
21
-59.9948
0
ARC
8
BLACK
10
84.3788
20
-59.9948
40
0.127
50
360
51
540
0
ARC
8
BLACK
10
84.3788
20
-62.992
40
0.127
50
180
51
360
0
LINE
8
BLACK
10
84.289
20
-63.0818
11
85.4574
21
-64.2502
0
LINE
8
BLACK
10
84.4686
20
-62.9022
11
85.637
21
-64.0706
0
ARC
8
BLACK
10
85.5472
20
-64.1604
40
0.127
50
225
51
405
0
ARC
8
BLACK
10
84.3788
20
-62.992
40
0.127
50
45
51
225
0
LINE
8
BLACK
10
84.6836
20
-82.7278
11
84.6836
21
-79.375
0
LINE
8
BLACK
10
84.4296
20
-82.7278
11
84.4296
21
-79.375
0
ARC
8
BLACK
10
84.5566
20
-79.375
40
0.127
50
360
51
540
0
ARC
8
BLACK
10
84.5566
20
-82.7278
40
0.127
50
180
51
360
0
LINE
8
BLACK
10
84.6464
20
-79.2852
11
83.9606
21
-78.5994
0
LINE
8
BLACK
10
84.4668
20
-79.4648
11
83.781
21
-78.779
0
ARC
8
BLACK
10
83.8708
20
-78.6892
40
0.127
50
405
51
585
0
ARC
8
BLACK
10
84.5566
20
-79.375
40
0.127
50
225
51
405
0
LINE
8
BLACK
10
46.4312
20
-84.963
11
47.0408
21
-84.963
0
LINE
8
BLACK
10
46.4312
20
-84.709
11
47.0408
21
-84.709
0
ARC
8
BLACK
10
47.0408
20
-84.836
40
0.127
50
270
51
450
0
ARC
8
BLACK
10
46.4312
20
-84.836
40
0.127
50
90
51
270
0
LINE
8
BLACK
10
47.1306
20
-84.9258
11
48.4006
21
-83.6558
0
LINE
8
BLACK
10
46.951
20
-84.7462
11
48.221
21
-83.4762
0
ARC
8
BLACK
10
48.3108
20
-83.566
40
0.127
50
315
51
495
0
ARC
8
BLACK
10
47.0408
20
-84.836
40
0.127
50
135
51
315
0
LINE
8
BLACK
10
40.2218
20
-146.978
11
40.2472
21
-146.953
0
LINE
8
BLACK
10
40.0422
20
-146.798
11
40.0676
21
-146.773
0
ARC
8
BLACK
10
40.1574
20
-146.863
40
0.127
50
315
51
495
0
ARC
8
BLACK
10
40.132
20
-146.888
40
0.127
50
135
51
315
0
LINE
8
BLACK
10
40.1574
20
-146.99
11
50.3936
21
-146.99
0
LINE
8
BLACK
10
40.1574
20
-146.736
11
50.3936
21
-146.736
0
ARC
8
BLACK
10
50.3936
20
-146.863
40
0.127
50
270
51
450
0
ARC
8
BLACK
10
40.1574
20
-146.863
40
0.127
50
90
51
270
0
LINE
8
BLACK
10
47.0526
20
-64.5278
11
46.3414
21
-65.239
0
LINE
8
BLACK
10
47.2322
20
-64.7074
11
46.521
21
-65.4186
0
ARC
8
BLACK
10
46.4312
20
-65.3288
40
0.127
50
135
51
315
0
ARC
8
BLACK
10
47.1424
20
-64.6176
40
0.127
50
-45
51
135
0
LINE
8
BLACK
10
47.1424
20
-64.7446
11
50.1396
21
-64.7446
0
LINE
8
BLACK
10
47.1424
20
-64.4906
11
50.1396
21
-64.4906
0
ARC
8
BLACK
10
50.1396
20
-64.6176
40
0.127
50
270
51
450
0
ARC
8
BLACK
10
47.1424
20
-64.6176
40
0.127
50
90
51
270
0
LINE
8
BLACK
10
54.317
20
-60.2606
11
50.0498
21
-64.5278
0
LINE
8
BLACK
10
54.4966
20
-60.4402
11
50.2294
21
-64.7074
0
ARC
8
BLACK
10
50.1396
20
-64.6176
40
0.127
50
135
51
315
0
ARC
8
BLACK
10
54.4068
20
-60.3504
40
0.127
50
-45
51
135
0
LINE
8
BLACK
10
54.4068
20
-60.4774
11
71.3232
21
-60.4774
0
LINE
8
BLACK
10
54.4068
20
-60.2234
11
71.3232
21
-60.2234
0
ARC
8
BLACK
10
71.3232
20
-60.3504
40
0.127
50
270
51
450
0
ARC
8
BLACK
10
54.4068
20
-60.3504
40
0.127
50
90
51
270
0
LINE
8
BLACK
10
46.4312
20
-79.883
11
46.6852
21
-79.883
0
LINE
8
BLACK
10
46.4312
20
-79.629
11
46.6852
21
-79.629
0
ARC
8
BLACK
10
46.6852
20
-79.756
40
0.127
50
270
51
450
0
ARC
8
BLACK
10
46.4312
20
-79.756
40
0.127
50
90
51
270
0
LINE
8
BLACK
10
46.5954
20
-79.8458
11
48.6274
21
-81.8778
0
LINE
8
BLACK
10
46.775
20
-79.6662
11
48.807
21
-81.6982
0
ARC
8
BLACK
10
48.7172
20
-81.788
40
0.127
50
225
51
405
0
ARC
8
BLACK
10
46.6852
20
-79.756
40
0.127
50
45
51
225
0
LINE
8
BLACK
10
84.1756
20
-50.927
11
84.1756
21
-50.9016
0
LINE
8
BLACK
10
83.9216
20
-50.927
11
83.9216
21
-50.9016
0
ARC
8
BLACK
10
84.0486
20
-50.9016
40
0.127
50
360
51
540
0
ARC
8
BLACK
10
84.0486
20
-50.927
40
0.127
50
180
51
360
0
LINE
8
BLACK
10
75.3618
20
-66.9036
11
75.3618
21
-63.8556
0
LINE
8
BLACK
10
75.1078
20
-66.9036
11
75.1078
21
-63.8556
0
ARC
8
BLACK
10
75.2348
20
-63.8556
40
0.127
50
360
51
540
0
ARC
8
BLACK
10
75.2348
20
-66.9036
40
0.127
50
180
51
360
0
LINE
8
BLACK
10
75.145
20
-66.8138
11
69.8618
21
-72.097
0
LINE
8
BLACK
10
75.3246
20
-66.9934
11
70.0414
21
-72.2766
0
ARC
8
BLACK
10
69.9516
20
-72.1868
40
0.127
50
135
51
315
0
ARC
8
BLACK
10
75.2348
20
-66.9036
40
0.127
50
-45
51
135
0
LINE
8
BLACK
10
83.9588
20
-50.8372
11
82.3078
21
-52.4882
0
LINE
8
BLACK
10
84.1384
20
-51.0168
11
82.4874
21
-52.6678
0
ARC
8
BLACK
10
82.3976
20
-52.578
40
0.127
50
135
51
315
0
ARC
8
BLACK
10
84.0486
20
-50.927
40
0.127
50
-45
51
135
0
LINE
8
BLACK
10
57.8612
20
-74.549
11
75.2856
21
-74.549
0
LINE
8
BLACK
10
57.8612
20
-74.295
11
75.2856
21
-74.295
0
ARC
8
BLACK
10
75.2856
20
-74.422
40
0.127
50
270
51
450
0
ARC
8
BLACK
10
57.8612
20
-74.422
40
0.127
50
90
51
270
0
LINE
8
BLACK
10
57.9882
20
-74.422
11
57.9882
21
-74.3204
0
LINE
8
BLACK
10
57.7342
20
-74.422
11
57.7342
21
-74.3204
0
ARC
8
BLACK
10
57.8612
20
-74.3204
40
0.127
50
360
51
540
0
ARC
8
BLACK
10
57.8612
20
-74.422
40
0.127
50
180
51
360
0
LINE
8
BLACK
10
43.8014
20
-64.6294
11
42.4298
21
-66.001
0
LINE
8
BLACK
10
43.981
20
-64.809
11
42.6094
21
-66.1806
0
ARC
8
BLACK
10
42.5196
20
-66.0908
40
0.127
50
135
51
315
0
ARC
8
BLACK
10
43.8912
20
-64.7192
40
0.127
50
-45
51
135
0
LINE
8
BLACK
10
44.0182
20
-64.7192
11
44.0182
21
-64.6938
0
LINE
8
BLACK
10
43.7642
20
-64.7192
11
43.7642
21
-64.6938
0
ARC
8
BLACK
10
43.8912
20
-64.6938
40
0.127
50
360
51
540
0
ARC
8
BLACK
10
43.8912
20
-64.7192
40
0.127
50
180
51
360
0
LINE
8
BLACK
10
102.997
20
-84.2772
11
102.997
21
-80.772
0
LINE
8
BLACK
10
102.743
20
-84.2772
11
102.743
21
-80.772
0
ARC
8
BLACK
10
102.87
20
-80.772
40
0.127
50
360
51
540
0
ARC
8
BLACK
10
102.87
20
-84.2772
40
0.127
50
180
51
360
0
LINE
8
BLACK
10
94.8436
20
-84.5058
11
94.8436
21
-82.7278
0
LINE
8
BLACK
10
94.5896
20
-84.5058
11
94.5896
21
-82.7278
0
ARC
8
BLACK
10
94.7166
20
-82.7278
40
0.127
50
360
51
540
0
ARC
8
BLACK
10
94.7166
20
-84.5058
40
0.127
50
180
51
360
0
LINE
8
BLACK
10
95.8478
20
-85.4574
11
94.8064
21
-84.416
0
LINE
8
BLACK
10
95.6682
20
-85.637
11
94.6268
21
-84.5956
0
ARC
8
BLACK
10
94.7166
20
-84.5058
40
0.127
50
405
51
585
0
ARC
8
BLACK
10
95.758
20
-85.5472
40
0.127
50
225
51
405
0
LINE
8
BLACK
10
95.758
20
-85.6742
11
101.6
21
-85.6742
0
LINE
8
BLACK
10
95.758
20
-85.4202
11
101.6
21
-85.4202
0
ARC
8
BLACK
10
101.6
20
-85.5472
40
0.127
50
270
51
450
0
ARC
8
BLACK
10
95.758
20
-85.5472
40
0.127
50
90
51
270
0
LINE
8
BLACK
10
102.78
20
-84.1874
11
101.51
21
-85.4574
0
LINE
8
BLACK
10
102.96
20
-84.367
11
101.69
21
-85.637
0
ARC
8
BLACK
10
101.6
20
-85.5472
40
0.127
50
135
51
315
0
ARC
8
BLACK
10
102.87
20
-84.2772
40
0.127
50
-45
51
135
0
LINE
8
BLACK
10
98.2472
20
-66.8274
11
105.41
21
-66.8274
0
LINE
8
BLACK
10
98.2472
20
-66.5734
11
105.41
21
-66.5734
0
ARC
8
BLACK
10
105.41
20
-66.7004
40
0.127
50
270
51
450
0
ARC
8
BLACK
10
98.2472
20
-66.7004
40
0.127
50
90
51
270
0
LINE
8
BLACK
10
98.337
20
-66.6106
11
95.797
21
-64.0706
0
LINE
8
BLACK
10
98.1574
20
-66.7902
11
95.6174
21
-64.2502
0
ARC
8
BLACK
10
95.7072
20
-64.1604
40
0.127
50
405
51
585
0
ARC
8
BLACK
10
98.2472
20
-66.7004
40
0.127
50
225
51
405
0
LINE
8
BLACK
10
110.287
20
-156.147
11
113.792
21
-156.147
0
LINE
8
BLACK
10
110.287
20
-154.647
11
113.792
21
-154.647
0
ARC
8
BLACK
10
113.792
20
-155.397
40
0.75
50
270
51
450
0
ARC
8
BLACK
10
110.287
20
-155.397
40
0.75
50
90
51
270
0
LINE
8
BLACK
10
110.817
20
-154.867
11
108.785
21
-152.835
0
LINE
8
BLACK
10
109.756
20
-155.928
11
107.724
21
-153.896
0
ARC
8
BLACK
10
108.255
20
-153.365
40
0.75
50
405
51
585
0
ARC
8
BLACK
10
110.287
20
-155.397
40
0.75
50
225
51
405
0
LINE
8
BLACK
10
85.2812
20
-140.208
11
85.2812
21
-136.5
0
LINE
8
BLACK
10
83.7812
20
-140.208
11
83.7812
21
-136.5
0
ARC
8
BLACK
10
84.5312
20
-136.5
40
0.75
50
360
51
540
0
ARC
8
BLACK
10
84.5312
20
-140.208
40
0.75
50
180
51
360
0
LINE
8
BLACK
10
84.9889
20
-137.092
11
89.258
21
-133.792
0
LINE
8
BLACK
10
84.0716
20
-135.905
11
88.3407
21
-132.605
0
ARC
8
BLACK
10
88.7994
20
-133.199
40
0.75
50
307.7
51
487.7
0
ARC
8
BLACK
10
84.5302
20
-136.498
40
0.75
50
127.7
51
307.7
0
LINE
8
BLACK
10
108.887
20
-135.918
11
105.636
21
-132.667
0
LINE
8
BLACK
10
107.826
20
-136.979
11
104.575
21
-133.728
0
ARC
8
BLACK
10
105.105
20
-133.198
40
0.75
50
405
51
585
0
ARC
8
BLACK
10
108.356
20
-136.449
40
0.75
50
225
51
405
0
LINE
8
BLACK
10
88.7984
20
-133.948
11
105.105
21
-133.948
0
LINE
8
BLACK
10
88.7984
20
-132.448
11
105.105
21
-132.448
0
ARC
8
BLACK
10
105.105
20
-133.198
40
0.75
50
270
51
450
0
ARC
8
BLACK
10
88.7984
20
-133.198
40
0.75
50
90
51
270
0
LINE
8
BLACK
10
113.487
20
-149.848
11
113.792
21
-149.848
0
LINE
8
BLACK
10
113.487
20
-148.348
11
113.792
21
-148.348
0
ARC
8
BLACK
10
113.792
20
-149.098
40
0.75
50
270
51
450
0
ARC
8
BLACK
10
113.487
20
-149.098
40
0.75
50
90
51
270
0
LINE
8
BLACK
10
95.4412
20
-150.063
11
95.4412
21
-147.828
0
LINE
8
BLACK
10
93.9412
20
-150.063
11
93.9412
21
-147.828
0
ARC
8
BLACK
10
94.6912
20
-147.828
40
0.75
50
360
51
540
0
ARC
8
BLACK
10
94.6912
20
-150.063
40
0.75
50
180
51
360
0
LINE
8
BLACK
10
96.6439
20
-150.955
11
95.2215
21
-149.533
0
LINE
8
BLACK
10
95.5833
20
-152.016
11
94.1609
21
-150.594
0
ARC
8
BLACK
10
94.6912
20
-150.063
40
0.75
50
405
51
585
0
ARC
8
BLACK
10
96.1136
20
-151.486
40
0.75
50
225
51
405
0
LINE
8
BLACK
10
96.1136
20
-152.236
11
111.1
21
-152.236
0
LINE
8
BLACK
10
96.1136
20
-150.736
11
111.1
21
-150.736
0
ARC
8
BLACK
10
111.1
20
-151.486
40
0.75
50
270
51
450
0
ARC
8
BLACK
10
96.1136
20
-151.486
40
0.75
50
90
51
270
0
LINE
8
BLACK
10
112.957
20
-148.568
11
110.569
21
-150.955
0
LINE
8
BLACK
10
114.018
20
-149.628
11
111.63
21
-152.016
0
ARC
8
BLACK
10
111.1
20
-151.486
40
0.75
50
135
51
315
0
ARC
8
BLACK
10
113.487
20
-149.098
40
0.75
50
-45
51
135
0
LINE
8
BLACK
10
82.7412
20
-153.619
11
82.7412
21
-147.828
0
LINE
8
BLACK
10
81.2412
20
-153.619
11
81.2412
21
-147.828
0
ARC
8
BLACK
10
81.9912
20
-147.828
40
0.75
50
360
51
540
0
ARC
8
BLACK
10
81.9912
20
-153.619
40
0.75
50
180
51
360
0
LINE
8
BLACK
10
110.033
20
-166.307
11
113.792
21
-166.307
0
LINE
8
BLACK
10
110.033
20
-164.807
11
113.792
21
-164.807
0
ARC
8
BLACK
10
113.792
20
-165.557
40
0.75
50
270
51
450
0
ARC
8
BLACK
10
110.033
20
-165.557
40
0.75
50
90
51
270
0
LINE
8
BLACK
10
107.928
20
-164.513
11
109.502
21
-166.088
0
LINE
8
BLACK
10
108.988
20
-163.452
11
110.563
21
-165.027
0
ARC
8
BLACK
10
110.033
20
-165.557
40
0.75
50
225
51
405
0
ARC
8
BLACK
10
108.458
20
-163.982
40
0.75
50
45
51
225
0
LINE
8
BLACK
10
109.208
20
-163.982
11
109.208
21
-159.918
0
LINE
8
BLACK
10
107.708
20
-163.982
11
107.708
21
-159.918
0
ARC
8
BLACK
10
108.458
20
-159.918
40
0.75
50
360
51
540
0
ARC
8
BLACK
10
108.458
20
-163.982
40
0.75
50
180
51
360
0
LINE
8
BLACK
10
103.864
20
-156.385
11
107.928
21
-160.449
0
LINE
8
BLACK
10
104.924
20
-155.324
11
108.988
21
-159.388
0
ARC
8
BLACK
10
108.458
20
-159.918
40
0.75
50
225
51
405
0
ARC
8
BLACK
10
104.394
20
-155.854
40
0.75
50
45
51
225
0
LINE
8
BLACK
10
84.2264
20
-156.604
11
104.394
21
-156.604
0
LINE
8
BLACK
10
84.2264
20
-155.104
11
104.394
21
-155.104
0
ARC
8
BLACK
10
104.394
20
-155.854
40
0.75
50
270
51
450
0
ARC
8
BLACK
10
84.2264
20
-155.854
40
0.75
50
90
51
270
0
LINE
8
BLACK
10
81.4609
20
-154.15
11
83.6961
21
-156.385
0
LINE
8
BLACK
10
82.5215
20
-153.089
11
84.7567
21
-155.324
0
ARC
8
BLACK
10
84.2264
20
-155.854
40
0.75
50
225
51
405
0
ARC
8
BLACK
10
81.9912
20
-153.619
40
0.75
50
45
51
225
0
LINE
8
BLACK
10
80.2012
20
-157.124
11
80.2012
21
-147.828
0
LINE
8
BLACK
10
78.7012
20
-157.124
11
78.7012
21
-147.828
0
ARC
8
BLACK
10
79.4512
20
-147.828
40
0.75
50
360
51
540
0
ARC
8
BLACK
10
79.4512
20
-157.124
40
0.75
50
180
51
360
0
LINE
8
BLACK
10
80.2012
20
-160.274
11
80.2012
21
-157.124
0
LINE
8
BLACK
10
78.7012
20
-160.274
11
78.7012
21
-157.124
0
ARC
8
BLACK
10
79.4512
20
-157.124
40
0.75
50
360
51
540
0
ARC
8
BLACK
10
79.4512
20
-160.274
40
0.75
50
180
51
360
0
LINE
8
BLACK
10
71.8702
20
-156.097
11
72.3782
21
-155.589
0
LINE
8
BLACK
10
71.6906
20
-155.917
11
72.1986
21
-155.409
0
ARC
8
BLACK
10
72.2884
20
-155.499
40
0.127
50
315
51
495
0
ARC
8
BLACK
10
71.7804
20
-156.007
40
0.127
50
135
51
315
0
LINE
8
BLACK
10
67.564
20
-156.134
11
71.7804
21
-156.134
0
LINE
8
BLACK
10
67.564
20
-155.88
11
71.7804
21
-155.88
0
ARC
8
BLACK
10
71.7804
20
-156.007
40
0.127
50
270
51
450
0
ARC
8
BLACK
10
67.564
20
-156.007
40
0.127
50
90
51
270
0
LINE
8
BLACK
10
87.8212
20
-163.373
11
87.8212
21
-160.274
0
LINE
8
BLACK
10
86.3212
20
-163.373
11
86.3212
21
-160.274
0
ARC
8
BLACK
10
87.0712
20
-160.274
40
0.75
50
360
51
540
0
ARC
8
BLACK
10
87.0712
20
-163.373
40
0.75
50
180
51
360
0
LINE
8
BLACK
10
84.5312
20
-164.123
11
87.0712
21
-164.123
0
LINE
8
BLACK
10
84.5312
20
-162.623
11
87.0712
21
-162.623
0
ARC
8
BLACK
10
87.0712
20
-163.373
40
0.75
50
270
51
450
0
ARC
8
BLACK
10
84.5312
20
-163.373
40
0.75
50
90
51
270
0
LINE
8
BLACK
10
80.1504
20
-123.647
11
80.1504
21
-114.706
0
LINE
8
BLACK
10
78.6504
20
-123.647
11
78.6504
21
-114.706
0
ARC
8
BLACK
10
79.4004
20
-114.706
40
0.75
50
360
51
540
0
ARC
8
BLACK
10
79.4004
20
-123.647
40
0.75
50
180
51
360
0
LINE
8
BLACK
10
80.1504
20
-127.152
11
80.1504
21
-123.647
0
LINE
8
BLACK
10
78.6504
20
-127.152
11
78.6504
21
-123.647
0
ARC
8
BLACK
10
79.4004
20
-123.647
40
0.75
50
360
51
540
0
ARC
8
BLACK
10
79.4004
20
-127.152
40
0.75
50
180
51
360
0
LINE
8
BLACK
10
95.3904
20
-130.2
11
95.3904
21
-127.051
0
LINE
8
BLACK
10
93.8904
20
-130.2
11
93.8904
21
-127.051
0
ARC
8
BLACK
10
94.6404
20
-127.051
40
0.75
50
360
51
540
0
ARC
8
BLACK
10
94.6404
20
-130.2
40
0.75
50
180
51
360
0
LINE
8
BLACK
10
77.6104
20
-123.647
11
77.6104
21
-120.599
0
LINE
8
BLACK
10
76.1104
20
-123.647
11
76.1104
21
-120.599
0
ARC
8
BLACK
10
76.8604
20
-120.599
40
0.75
50
360
51
540
0
ARC
8
BLACK
10
76.8604
20
-123.647
40
0.75
50
180
51
360
0
LINE
8
BLACK
10
85.332
20
-118.618
11
85.332
21
-118.161
0
LINE
8
BLACK
10
83.832
20
-118.618
11
83.832
21
-118.161
0
ARC
8
BLACK
10
84.582
20
-118.161
40
0.75
50
360
51
540
0
ARC
8
BLACK
10
84.582
20
-118.618
40
0.75
50
180
51
360
0
LINE
8
BLACK
10
84.582
20
-118.911
11
84.6328
21
-118.911
0
LINE
8
BLACK
10
84.582
20
-117.411
11
84.6328
21
-117.411
0
ARC
8
BLACK
10
84.6328
20
-118.161
40
0.75
50
270
51
450
0
ARC
8
BLACK
10
84.582
20
-118.161
40
0.75
50
90
51
270
0
LINE
8
BLACK
10
83.7302
20
-114.726
11
83.8327
21
-118.638
0
LINE
8
BLACK
10
85.2297
20
-114.687
11
85.3322
21
-118.598
0
ARC
8
BLACK
10
84.5824
20
-118.618
40
0.75
50
181.5
51
361.5
0
ARC
8
BLACK
10
84.48
20
-114.706
40
0.75
50
1.5
51
181.5
0
LINE
8
BLACK
10
92.8504
20
-117.602
11
92.8504
21
-114.706
0
LINE
8
BLACK
10
91.3504
20
-117.602
11
91.3504
21
-114.706
0
ARC
8
BLACK
10
92.1004
20
-114.706
40
0.75
50
360
51
540
0
ARC
8
BLACK
10
92.1004
20
-117.602
40
0.75
50
180
51
360
0
LINE
8
BLACK
10
84.4594
20
-119.358
11
85.374
21
-119.51
0
LINE
8
BLACK
10
84.7044
20
-117.879
11
85.619
21
-118.03
0
ARC
8
BLACK
10
85.4965
20
-118.77
40
0.75
50
260.6
51
440.6
0
ARC
8
BLACK
10
84.5819
20
-118.618
40
0.75
50
80.6
51
260.6
0
LINE
8
BLACK
10
85.4964
20
-119.52
11
90.932
21
-119.52
0
LINE
8
BLACK
10
85.4964
20
-118.02
11
90.932
21
-118.02
0
ARC
8
BLACK
10
90.932
20
-118.77
40
0.75
50
270
51
450
0
ARC
8
BLACK
10
85.4964
20
-118.77
40
0.75
50
90
51
270
0
LINE
8
BLACK
10
91.4623
20
-119.301
11
92.6307
21
-118.132
0
LINE
8
BLACK
10
90.4017
20
-118.24
11
91.5701
21
-117.072
0
ARC
8
BLACK
10
92.1004
20
-117.602
40
0.75
50
315
51
495
0
ARC
8
BLACK
10
90.932
20
-118.77
40
0.75
50
135
51
315
0
LINE
8
BLACK
10
76.3301
20
-129.67
11
70.9453
21
-135.055
0
LINE
8
BLACK
10
77.3907
20
-130.731
11
72.0059
21
-136.116
0
ARC
8
BLACK
10
71.4756
20
-135.585
40
0.75
50
135
51
315
0
ARC
8
BLACK
10
76.8604
20
-130.2
40
0.75
50
-45
51
135
0
LINE
8
BLACK
10
70.9453
20
-152.219
11
76.3809
21
-157.655
0
LINE
8
BLACK
10
72.0059
20
-151.158
11
77.4415
21
-156.594
0
ARC
8
BLACK
10
76.9112
20
-157.124
40
0.75
50
225
51
405
0
ARC
8
BLACK
10
71.4756
20
-151.689
40
0.75
50
45
51
225
0
LINE
8
BLACK
10
72.2256
20
-151.689
11
72.2256
21
-150.876
0
LINE
8
BLACK
10
70.7256
20
-151.689
11
70.7256
21
-150.876
0
ARC
8
BLACK
10
71.4756
20
-150.876
40
0.75
50
360
51
540
0
ARC
8
BLACK
10
71.4756
20
-151.689
40
0.75
50
180
51
360
0
LINE
8
BLACK
10
72.2256
20
-150.876
11
72.2256
21
-135.585
0
LINE
8
BLACK
10
70.7256
20
-150.876
11
70.7256
21
-135.585
0
ARC
8
BLACK
10
71.4756
20
-135.585
40
0.75
50
360
51
540
0
ARC
8
BLACK
10
71.4756
20
-150.876
40
0.75
50
180
51
360
0
LINE
8
BLACK
10
76.3809
20
-163.903
11
88.1665
21
-175.689
0
LINE
8
BLACK
10
77.4415
20
-162.842
11
89.2271
21
-174.628
0
ARC
8
BLACK
10
88.6968
20
-175.158
40
0.75
50
225
51
405
0
ARC
8
BLACK
10
76.9112
20
-163.373
40
0.75
50
45
51
225
0
LINE
8
BLACK
10
88.6968
20
-175.908
11
98.9076
21
-175.908
0
LINE
8
BLACK
10
88.6968
20
-174.408
11
98.9076
21
-174.408
0
ARC
8
BLACK
10
98.9076
20
-175.158
40
0.75
50
270
51
450
0
ARC
8
BLACK
10
88.6968
20
-175.158
40
0.75
50
90
51
270
0
LINE
8
BLACK
10
77.6612
20
-163.373
11
77.6612
21
-157.124
0
LINE
8
BLACK
10
76.1612
20
-163.373
11
76.1612
21
-157.124
0
ARC
8
BLACK
10
76.9112
20
-157.124
40
0.75
50
360
51
540
0
ARC
8
BLACK
10
76.9112
20
-163.373
40
0.75
50
180
51
360
0
LINE
8
BLACK
10
97.8693
20
-175.181
11
98.3773
21
-175.689
0
LINE
8
BLACK
10
98.9299
20
-174.12
11
99.4379
21
-174.628
0
ARC
8
BLACK
10
98.9076
20
-175.158
40
0.75
50
225
51
405
0
ARC
8
BLACK
10
98.3996
20
-174.65
40
0.75
50
45
51
225
0
LINE
8
BLACK
10
98.9299
20
-174.12
11
91.4623
21
-166.652
0
LINE
8
BLACK
10
97.8693
20
-175.181
11
90.4017
21
-167.713
0
ARC
8
BLACK
10
90.932
20
-167.183
40
0.75
50
405
51
585
0
ARC
8
BLACK
10
98.3996
20
-174.65
40
0.75
50
225
51
405
0
LINE
8
BLACK
10
90.8304
20
-167.933
11
90.932
21
-167.933
0
LINE
8
BLACK
10
90.8304
20
-166.433
11
90.932
21
-166.433
0
ARC
8
BLACK
10
90.932
20
-167.183
40
0.75
50
270
51
450
0
ARC
8
BLACK
10
90.8304
20
-167.183
40
0.75
50
90
51
270
0
LINE
8
BLACK
10
91.5804
20
-167.183
11
91.5804
21
-167.03
0
LINE
8
BLACK
10
90.0804
20
-167.183
11
90.0804
21
-167.03
0
ARC
8
BLACK
10
90.8304
20
-167.03
40
0.75
50
360
51
540
0
ARC
8
BLACK
10
90.8304
20
-167.183
40
0.75
50
180
51
360
0
LINE
8
BLACK
10
98.9076
20
-175.908
11
113.843
21
-175.908
0
LINE
8
BLACK
10
98.9076
20
-174.408
11
113.843
21
-174.408
0
ARC
8
BLACK
10
113.843
20
-175.158
40
0.75
50
270
51
450
0
ARC
8
BLACK
10
98.9076
20
-175.158
40
0.75
50
90
51
270
0
LINE
8
BLACK
10
69.4944
20
-124.397
11
72.898
21
-124.397
0
LINE
8
BLACK
10
69.4944
20
-122.897
11
72.898
21
-122.897
0
ARC
8
BLACK
10
72.898
20
-123.647
40
0.75
50
270
51
450
0
ARC
8
BLACK
10
69.4944
20
-123.647
40
0.75
50
90
51
270
0
LINE
8
BLACK
10
72.898
20
-124.397
11
76.8604
21
-124.397
0
LINE
8
BLACK
10
72.898
20
-122.897
11
76.8604
21
-122.897
0
ARC
8
BLACK
10
76.8604
20
-123.647
40
0.75
50
270
51
450
0
ARC
8
BLACK
10
72.898
20
-123.647
40
0.75
50
90
51
270
0
LINE
8
BLACK
10
85.2812
20
-151.892
11
85.2812
21
-147.828
0
LINE
8
BLACK
10
83.7812
20
-151.892
11
83.7812
21
-147.828
0
ARC
8
BLACK
10
84.5312
20
-147.828
40
0.75
50
360
51
540
0
ARC
8
BLACK
10
84.5312
20
-151.892
40
0.75
50
180
51
360
0
LINE
8
BLACK
10
92.9012
20
-151.892
11
92.9012
21
-147.828
0
LINE
8
BLACK
10
91.4012
20
-151.892
11
91.4012
21
-147.828
0
ARC
8
BLACK
10
92.1512
20
-147.828
40
0.75
50
360
51
540
0
ARC
8
BLACK
10
92.1512
20
-151.892
40
0.75
50
180
51
360
0
LINE
8
BLACK
10
91.4115
20
-153.692
11
92.6815
21
-152.422
0
LINE
8
BLACK
10
90.3509
20
-152.632
11
91.6209
21
-151.362
0
ARC
8
BLACK
10
92.1512
20
-151.892
40
0.75
50
315
51
495
0
ARC
8
BLACK
10
90.8812
20
-153.162
40
0.75
50
135
51
315
0
LINE
8
BLACK
10
85.8012
20
-153.912
11
90.8812
21
-153.912
0
LINE
8
BLACK
10
85.8012
20
-152.412
11
90.8812
21
-152.412
0
ARC
8
BLACK
10
90.8812
20
-153.162
40
0.75
50
270
51
450
0
ARC
8
BLACK
10
85.8012
20
-153.162
40
0.75
50
90
51
270
0
LINE
8
BLACK
10
84.0009
20
-152.422
11
85.2709
21
-153.692
0
LINE
8
BLACK
10
85.0615
20
-151.362
11
86.3315
21
-152.632
0
ARC
8
BLACK
10
85.8012
20
-153.162
40
0.75
50
225
51
405
0
ARC
8
BLACK
10
84.5312
20
-151.892
40
0.75
50
45
51
225
0
LINE
8
BLACK
10
77.6104
20
-130.2
11
77.6104
21
-123.647
0
LINE
8
BLACK
10
76.1104
20
-130.2
11
76.1104
21
-123.647
0
ARC
8
BLACK
10
76.8604
20
-123.647
40
0.75
50
360
51
540
0
ARC
8
BLACK
10
76.8604
20
-130.2
40
0.75
50
180
51
360
  0
ENDSEC
  0
EOF
