  0
SECTION
  2
HEADER
  9
$ANGBASE
  50
0.0
  9
$ANGDIR
  70
  1
  9
$MEASUREMENT
  70
0
  0
ENDSEC
  0
SECTION
  2
TABLES
  0
TABLE
  2
LTYPE
  70
1
  0
LTYPE
  2
CONTINUOUS
  70
0
  3
Solid line
  72
65
  73
0
  40
0.0
  0
ENDTAB
  0
TABLE
  2
STYLE
  70
4
  0
STYLE
  2
KICAD
  70
0
  40
0
  41
1
  42
1
  50
0
  71
0
  3
isocp.shx
  0
STYLE
  2
KICADB
  70
0
  40
0
  41
1
  42
1
  50
0
  71
0
  3
isocp.shx
  0
STYLE
  2
KICADI
  70
0
  40
0
  41
1
  42
1
  50
15
  71
0
  3
isocp.shx
  0
STYLE
  2
KICADBI
  70
0
  40
0
  41
1
  42
1
  50
15
  71
0
  3
isocp.shx
  0
ENDTAB
  0
TABLE
  2
LAYER
  70
24
  0
LAYER
  2
BLACK
  70
0
  62
250
  6
CONTINUOUS
  0
LAYER
  2
BLUE
  70
0
  62
5
  6
CONTINUOUS
  0
LAYER
  2
GREEN
  70
0
  62
3
  6
CONTINUOUS
  0
LAYER
  2
CYAN
  70
0
  62
4
  6
CONTINUOUS
  0
LAYER
  2
RED
  70
0
  62
1
  6
CONTINUOUS
  0
LAYER
  2
MAGENTA
  70
0
  62
6
  6
CONTINUOUS
  0
LAYER
  2
BROWN
  70
0
  62
54
  6
CONTINUOUS
  0
LAYER
  2
LIGHTGRAY
  70
0
  62
9
  6
CONTINUOUS
  0
LAYER
  2
DARKGRAY
  70
0
  62
8
  6
CONTINUOUS
  0
LAYER
  2
LIGHTBLUE
  70
0
  62
171
  6
CONTINUOUS
  0
LAYER
  2
LIGHTGREEN
  70
0
  62
91
  6
CONTINUOUS
  0
LAYER
  2
LIGHTCYAN
  70
0
  62
131
  6
CONTINUOUS
  0
LAYER
  2
LIGHTRED
  70
0
  62
11
  6
CONTINUOUS
  0
LAYER
  2
LIGHTMAGENTA
  70
0
  62
221
  6
CONTINUOUS
  0
LAYER
  2
YELLOW
  70
0
  62
2
  6
CONTINUOUS
  0
LAYER
  2
WHITE
  70
0
  62
7
  6
CONTINUOUS
  0
LAYER
  2
DARKDARKGRAY
  70
0
  62
251
  6
CONTINUOUS
  0
LAYER
  2
DARKBLUE
  70
0
  62
178
  6
CONTINUOUS
  0
LAYER
  2
DARKGREEN
  70
0
  62
98
  6
CONTINUOUS
  0
LAYER
  2
DARKCYAN
  70
0
  62
138
  6
CONTINUOUS
  0
LAYER
  2
DARKRED
  70
0
  62
18
  6
CONTINUOUS
  0
LAYER
  2
DARKMAGENTA
  70
0
  62
228
  6
CONTINUOUS
  0
LAYER
  2
DARKBROWN
  70
0
  62
58
  6
CONTINUOUS
  0
LAYER
  2
LIGHTYELLOW
  70
0
  62
51
  6
CONTINUOUS
  0
ENDTAB
  0
ENDSEC
  0
SECTION
  2
ENTITIES
0
LINE
8
BLACK
10
65.8032
20
-191.913
11
66.089
21
-191.914
0
LINE
8
BLACK
10
66.089
20
-191.914
11
66.2319
21
-191.842
0
LINE
8
BLACK
10
66.2319
20
-191.842
11
66.3035
21
-191.771
0
LINE
8
BLACK
10
66.3035
20
-191.771
11
66.4467
21
-191.557
0
LINE
8
BLACK
10
66.4467
20
-191.557
11
66.5186
21
-191.272
0
LINE
8
BLACK
10
66.5186
20
-191.272
11
66.5196
21
-190.7
0
LINE
8
BLACK
10
66.5196
20
-190.7
11
66.4485
21
-190.557
0
LINE
8
BLACK
10
66.4485
20
-190.557
11
66.3772
21
-190.486
0
LINE
8
BLACK
10
66.3772
20
-190.486
11
66.2344
21
-190.414
0
LINE
8
BLACK
10
66.2344
20
-190.414
11
65.9487
21
-190.413
0
LINE
8
BLACK
10
65.9487
20
-190.413
11
65.8057
21
-190.485
0
LINE
8
BLACK
10
65.8057
20
-190.485
11
65.7342
21
-190.556
0
LINE
8
BLACK
10
65.7342
20
-190.556
11
65.6625
21
-190.699
0
LINE
8
BLACK
10
65.6625
20
-190.699
11
65.6619
21
-191.056
0
LINE
8
BLACK
10
65.6619
20
-191.056
11
65.7331
21
-191.199
0
LINE
8
BLACK
10
65.7331
20
-191.199
11
65.8044
21
-191.27
0
LINE
8
BLACK
10
65.8044
20
-191.27
11
65.9471
21
-191.342
0
LINE
8
BLACK
10
65.9471
20
-191.342
11
66.2328
21
-191.342
0
LINE
8
BLACK
10
66.2328
20
-191.342
11
66.3758
21
-191.271
0
LINE
8
BLACK
10
66.3758
20
-191.271
11
66.4473
21
-191.2
0
LINE
8
BLACK
10
66.4473
20
-191.2
11
66.519
21
-191.057
0
LINE
8
BLACK
10
67.9461
20
-191.917
11
67.089
21
-191.915
0
LINE
8
BLACK
10
67.5175
20
-191.916
11
67.5201
21
-190.416
0
LINE
8
BLACK
10
67.5201
20
-190.416
11
67.3769
21
-190.63
0
LINE
8
BLACK
10
67.3769
20
-190.63
11
67.2338
21
-190.773
0
LINE
8
BLACK
10
67.2338
20
-190.773
11
67.0908
21
-190.844
0
LINE
8
BLACK
10
68.6605
20
-191.847
11
68.6604
21
-191.918
0
LINE
8
BLACK
10
68.6604
20
-191.918
11
68.5887
21
-192.061
0
LINE
8
BLACK
10
68.5887
20
-192.061
11
68.5171
21
-192.132
0
LINE
8
BLACK
10
69.3747
20
-191.919
11
69.6604
21
-191.92
0
LINE
8
BLACK
10
69.6604
20
-191.92
11
69.8034
21
-191.849
0
LINE
8
BLACK
10
69.8034
20
-191.849
11
69.8749
21
-191.777
0
LINE
8
BLACK
10
69.8749
20
-191.777
11
70.0181
21
-191.563
0
LINE
8
BLACK
10
70.0181
20
-191.563
11
70.0901
21
-191.278
0
LINE
8
BLACK
10
70.0901
20
-191.278
11
70.0911
21
-190.706
0
LINE
8
BLACK
10
70.0911
20
-190.706
11
70.0199
21
-190.563
0
LINE
8
BLACK
10
70.0199
20
-190.563
11
69.9486
21
-190.492
0
LINE
8
BLACK
10
69.9486
20
-190.492
11
69.8059
21
-190.42
0
LINE
8
BLACK
10
69.8059
20
-190.42
11
69.5201
21
-190.42
0
LINE
8
BLACK
10
69.5201
20
-190.42
11
69.3772
21
-190.491
0
LINE
8
BLACK
10
69.3772
20
-190.491
11
69.3056
21
-190.562
0
LINE
8
BLACK
10
69.3056
20
-190.562
11
69.2339
21
-190.705
0
LINE
8
BLACK
10
69.2339
20
-190.705
11
69.2333
21
-191.062
0
LINE
8
BLACK
10
69.2333
20
-191.062
11
69.3045
21
-191.205
0
LINE
8
BLACK
10
69.3045
20
-191.205
11
69.3758
21
-191.277
0
LINE
8
BLACK
10
69.3758
20
-191.277
11
69.5185
21
-191.348
0
LINE
8
BLACK
10
69.5185
20
-191.348
11
69.8042
21
-191.349
0
LINE
8
BLACK
10
69.8042
20
-191.349
11
69.9472
21
-191.278
0
LINE
8
BLACK
10
69.9472
20
-191.278
11
70.0188
21
-191.206
0
LINE
8
BLACK
10
70.0188
20
-191.206
11
70.0904
21
-191.063
0
LINE
8
BLACK
10
71.3764
20
-190.923
11
71.3747
21
-191.923
0
LINE
8
BLACK
10
71.0203
20
-190.351
11
70.6613
21
-191.422
0
LINE
8
BLACK
10
70.6613
20
-191.422
11
71.5898
21
-191.423
0
LINE
8
BLACK
10
72.3762
20
-191.067
11
72.2334
21
-190.996
0
LINE
8
BLACK
10
72.2334
20
-190.996
11
72.1621
21
-190.924
0
LINE
8
BLACK
10
72.1621
20
-190.924
11
72.0909
21
-190.781
0
LINE
8
BLACK
10
72.0909
20
-190.781
11
72.0911
21
-190.71
0
LINE
8
BLACK
10
72.0911
20
-190.71
11
72.1627
21
-190.567
0
LINE
8
BLACK
10
72.1627
20
-190.567
11
72.2343
21
-190.496
0
LINE
8
BLACK
10
72.2343
20
-190.496
11
72.3773
21
-190.425
0
LINE
8
BLACK
10
72.3773
20
-190.425
11
72.663
21
-190.425
0
LINE
8
BLACK
10
72.663
20
-190.425
11
72.8057
21
-190.497
0
LINE
8
BLACK
10
72.8057
20
-190.497
11
72.877
21
-190.568
0
LINE
8
BLACK
10
72.877
20
-190.568
11
72.9482
21
-190.711
0
LINE
8
BLACK
10
72.9482
20
-190.711
11
72.9481
21
-190.783
0
LINE
8
BLACK
10
72.9481
20
-190.783
11
72.8764
21
-190.925
0
LINE
8
BLACK
10
72.8764
20
-190.925
11
72.8049
21
-190.997
0
LINE
8
BLACK
10
72.8049
20
-190.997
11
72.6619
21
-191.068
0
LINE
8
BLACK
10
72.6619
20
-191.068
11
72.3762
21
-191.067
0
LINE
8
BLACK
10
72.3762
20
-191.067
11
72.2332
21
-191.139
0
LINE
8
BLACK
10
72.2332
20
-191.139
11
72.1616
21
-191.21
0
LINE
8
BLACK
10
72.1616
20
-191.21
11
72.0899
21
-191.353
0
LINE
8
BLACK
10
72.0899
20
-191.353
11
72.0894
21
-191.638
0
LINE
8
BLACK
10
72.0894
20
-191.638
11
72.1606
21
-191.781
0
LINE
8
BLACK
10
72.1606
20
-191.781
11
72.2319
21
-191.853
0
LINE
8
BLACK
10
72.2319
20
-191.853
11
72.3747
21
-191.925
0
LINE
8
BLACK
10
72.3747
20
-191.925
11
72.6604
21
-191.925
0
LINE
8
BLACK
10
72.6604
20
-191.925
11
72.8034
21
-191.854
0
LINE
8
BLACK
10
72.8034
20
-191.854
11
72.8749
21
-191.783
0
LINE
8
BLACK
10
72.8749
20
-191.783
11
72.9466
21
-191.64
0
LINE
8
BLACK
10
72.9466
20
-191.64
11
72.9471
21
-191.354
0
LINE
8
BLACK
10
72.9471
20
-191.354
11
72.8759
21
-191.211
0
LINE
8
BLACK
10
72.8759
20
-191.211
11
72.8046
21
-191.14
0
LINE
8
BLACK
10
72.8046
20
-191.14
11
72.6619
21
-191.068
0
LINE
8
BLACK
10
74.7318
20
-191.929
11
74.7335
21
-190.929
0
LINE
8
BLACK
10
74.7333
20
-191.072
11
74.8048
21
-191
0
LINE
8
BLACK
10
74.8048
20
-191
11
74.9478
21
-190.929
0
LINE
8
BLACK
10
74.9478
20
-190.929
11
75.1621
21
-190.929
0
LINE
8
BLACK
10
75.1621
20
-190.929
11
75.3048
21
-191.001
0
LINE
8
BLACK
10
75.3048
20
-191.001
11
75.376
21
-191.144
0
LINE
8
BLACK
10
75.376
20
-191.144
11
75.3747
21
-191.93
0
LINE
8
BLACK
10
75.376
20
-191.144
11
75.4477
21
-191.001
0
LINE
8
BLACK
10
75.4477
20
-191.001
11
75.5907
21
-190.93
0
LINE
8
BLACK
10
75.5907
20
-190.93
11
75.805
21
-190.931
0
LINE
8
BLACK
10
75.805
20
-190.931
11
75.9477
21
-191.002
0
LINE
8
BLACK
10
75.9477
20
-191.002
11
76.0189
21
-191.145
0
LINE
8
BLACK
10
76.0189
20
-191.145
11
76.0175
21
-191.931
0
LINE
8
BLACK
10
76.7318
20
-191.932
11
76.7335
21
-190.932
0
LINE
8
BLACK
10
76.7333
20
-191.075
11
76.8048
21
-191.004
0
LINE
8
BLACK
10
76.8048
20
-191.004
11
76.9478
21
-190.933
0
LINE
8
BLACK
10
76.9478
20
-190.933
11
77.1621
21
-190.933
0
LINE
8
BLACK
10
77.1621
20
-190.933
11
77.3048
21
-191.005
0
LINE
8
BLACK
10
77.3048
20
-191.005
11
77.376
21
-191.148
0
LINE
8
BLACK
10
77.376
20
-191.148
11
77.3747
21
-191.933
0
LINE
8
BLACK
10
77.376
20
-191.148
11
77.4477
21
-191.005
0
LINE
8
BLACK
10
77.4477
20
-191.005
11
77.5907
21
-190.934
0
LINE
8
BLACK
10
77.5907
20
-190.934
11
77.805
21
-190.934
0
LINE
8
BLACK
10
77.805
20
-190.934
11
77.9477
21
-191.006
0
LINE
8
BLACK
10
77.9477
20
-191.006
11
78.0189
21
-191.149
0
LINE
8
BLACK
10
78.0189
20
-191.149
11
78.0175
21
-191.934
0
LINE
8
BLACK
10
25.9039
20
-190.117
11
117.852
21
-190.117
0
LINE
8
BLACK
10
25.9039
20
-189.817
11
117.852
21
-189.817
0
ARC
8
BLACK
10
117.852
20
-189.967
40
0.15
50
270
51
450
0
ARC
8
BLACK
10
25.9039
20
-189.967
40
0.15
50
90
51
270
0
LINE
8
BLACK
10
25.7537
20
-187.452
11
25.7537
21
-192.59
0
LINE
8
BLACK
10
26.0537
20
-187.452
11
26.0537
21
-192.59
0
ARC
8
BLACK
10
25.9037
20
-192.59
40
0.15
50
180
51
360
0
ARC
8
BLACK
10
25.9037
20
-187.452
40
0.15
50
0
51
180
0
LINE
8
BLACK
10
117.702
20
-187.604
11
117.702
21
-192.743
0
LINE
8
BLACK
10
118.002
20
-187.604
11
118.002
21
-192.743
0
ARC
8
BLACK
10
117.852
20
-192.743
40
0.15
50
180
51
360
0
ARC
8
BLACK
10
117.852
20
-187.604
40
0.15
50
0
51
180
0
LINE
8
BLACK
10
117.782
20
-189.909
11
116.656
21
-190.495
0
LINE
8
BLACK
10
117.921
20
-190.175
11
116.794
21
-190.761
0
ARC
8
BLACK
10
116.725
20
-190.628
40
0.15
50
117.5
51
297.5
0
ARC
8
BLACK
10
117.851
20
-190.042
40
0.15
50
-62.5
51
117.5
0
LINE
8
BLACK
10
117.921
20
-189.91
11
116.796
21
-189.322
0
LINE
8
BLACK
10
117.782
20
-190.176
11
116.657
21
-189.587
0
ARC
8
BLACK
10
116.726
20
-189.454
40
0.15
50
422.4
51
602.4
0
ARC
8
BLACK
10
117.852
20
-190.043
40
0.15
50
242.4
51
422.4
0
LINE
8
BLACK
10
25.8342
20
-190.024
11
26.9607
21
-190.611
0
LINE
8
BLACK
10
25.9727
20
-189.758
11
27.0992
21
-190.345
0
ARC
8
BLACK
10
27.03
20
-190.478
40
0.15
50
242.5
51
422.5
0
ARC
8
BLACK
10
25.9035
20
-189.891
40
0.15
50
62.5
51
242.5
0
LINE
8
BLACK
10
25.973
20
-190.024
11
27.1005
21
-189.439
0
LINE
8
BLACK
10
25.8349
20
-189.757
11
26.9624
21
-189.173
0
ARC
8
BLACK
10
27.0315
20
-189.306
40
0.15
50
297.4
51
477.4
0
ARC
8
BLACK
10
25.9039
20
-189.89
40
0.15
50
117.4
51
297.4
0
LINE
8
BLACK
10
26.162
20
-187.553
11
26.2636
21
-187.553
0
LINE
8
BLACK
10
26.162
20
-187.453
11
26.2636
21
-187.453
0
ARC
8
BLACK
10
26.2636
20
-187.503
40
0.05
50
270
51
450
0
ARC
8
BLACK
10
26.162
20
-187.503
40
0.05
50
90
51
270
0
LINE
8
BLACK
10
26.3136
20
-187.503
11
26.3136
21
-34.1884
0
LINE
8
BLACK
10
26.2136
20
-187.503
11
26.2136
21
-34.1884
0
ARC
8
BLACK
10
26.2636
20
-34.1884
40
0.05
50
360
51
540
0
ARC
8
BLACK
10
26.2636
20
-187.503
40
0.05
50
180
51
360
0
LINE
8
BLACK
10
26.2636
20
-34.2384
11
117.754
21
-34.2384
0
LINE
8
BLACK
10
26.2636
20
-34.1384
11
117.754
21
-34.1384
0
ARC
8
BLACK
10
117.754
20
-34.1884
40
0.05
50
270
51
450
0
ARC
8
BLACK
10
26.2636
20
-34.1884
40
0.05
50
90
51
270
0
LINE
8
BLACK
10
117.804
20
-187.452
11
117.804
21
-34.1884
0
LINE
8
BLACK
10
117.704
20
-187.452
11
117.704
21
-34.1884
0
ARC
8
BLACK
10
117.754
20
-34.1884
40
0.05
50
360
51
540
0
ARC
8
BLACK
10
117.754
20
-187.452
40
0.05
50
180
51
360
0
LINE
8
BLACK
10
26.2128
20
-187.502
11
117.754
21
-187.502
0
LINE
8
BLACK
10
26.2128
20
-187.402
11
117.754
21
-187.402
0
ARC
8
BLACK
10
117.754
20
-187.452
40
0.05
50
270
51
450
0
ARC
8
BLACK
10
26.2128
20
-187.452
40
0.05
50
90
51
270
0
CIRCLE
8
BLACK
10
140.31
20
-45.0088
40
0.051666
0
LINE
8
BLACK
10
140.307
20
-45.0588
11
140.312
21
-45.0588
0
LINE
8
BLACK
10
140.307
20
-44.9588
11
140.312
21
-44.9588
0
ARC
8
BLACK
10
140.312
20
-45.0088
40
0.05
50
270
51
450
0
ARC
8
BLACK
10
140.307
20
-45.0088
40
0.05
50
90
51
270
0
LINE
8
BLACK
10
140.36
20
-45.0113
11
140.36
21
-45.0063
0
LINE
8
BLACK
10
140.26
20
-45.0113
11
140.26
21
-45.0063
0
ARC
8
BLACK
10
140.31
20
-45.0063
40
0.05
50
360
51
540
0
ARC
8
BLACK
10
140.31
20
-45.0113
40
0.05
50
180
51
360
0
CIRCLE
8
BLACK
10
37.5412
20
-108.788
40
1.92532
0
CIRCLE
8
BLACK
10
37.5412
20
-97.3582
40
1.92532
0
CIRCLE
8
BLACK
10
43.8912
20
-98.6282
40
0.762
0
CIRCLE
8
BLACK
10
46.4312
20
-99.2632
40
0.762
0
CIRCLE
8
BLACK
10
43.8912
20
-101.168
40
0.762
0
CIRCLE
8
BLACK
10
46.4312
20
-101.803
40
0.762
0
CIRCLE
8
BLACK
10
43.8912
20
-103.708
40
0.762
0
CIRCLE
8
BLACK
10
46.4312
20
-104.343
40
0.762
0
CIRCLE
8
BLACK
10
43.8912
20
-106.248
40
0.762
0
CIRCLE
8
BLACK
10
40.5892
20
-110.82
40
1.27
0
CIRCLE
8
BLACK
10
40.5892
20
-95.3262
40
1.27
0
CIRCLE
8
BLACK
10
51.2572
20
-100.152
40
0.762
0
CIRCLE
8
BLACK
10
51.2572
20
-105.994
40
0.762
0
CIRCLE
8
BLACK
10
51.2572
20
-97.6122
40
0.762
0
CIRCLE
8
BLACK
10
51.2572
20
-108.534
40
0.762
0
LINE
8
BLACK
10
47.1932
20
-106.121
11
45.6692
21
-106.121
0
LINE
8
BLACK
10
45.6692
20
-106.121
11
45.6692
21
-107.645
0
LINE
8
BLACK
10
45.6692
20
-107.645
11
47.1932
21
-107.645
0
LINE
8
BLACK
10
47.1932
20
-107.645
11
47.1932
21
-106.121
0
CIRCLE
8
BLACK
10
37.5412
20
-69.7738
40
1.92532
0
CIRCLE
8
BLACK
10
37.5412
20
-58.3438
40
1.92532
0
CIRCLE
8
BLACK
10
43.8912
20
-59.6138
40
0.762
0
CIRCLE
8
BLACK
10
46.4312
20
-60.2488
40
0.762
0
CIRCLE
8
BLACK
10
43.8912
20
-62.1538
40
0.762
0
CIRCLE
8
BLACK
10
46.4312
20
-62.7888
40
0.762
0
CIRCLE
8
BLACK
10
43.8912
20
-64.6938
40
0.762
0
CIRCLE
8
BLACK
10
46.4312
20
-65.3288
40
0.762
0
CIRCLE
8
BLACK
10
43.8912
20
-67.2338
40
0.762
0
CIRCLE
8
BLACK
10
40.5892
20
-71.8058
40
1.27
0
CIRCLE
8
BLACK
10
40.5892
20
-56.3118
40
1.27
0
CIRCLE
8
BLACK
10
51.2572
20
-61.1378
40
0.762
0
CIRCLE
8
BLACK
10
51.2572
20
-66.9798
40
0.762
0
CIRCLE
8
BLACK
10
51.2572
20
-58.5978
40
0.762
0
CIRCLE
8
BLACK
10
51.2572
20
-69.5198
40
0.762
0
LINE
8
BLACK
10
47.1932
20
-67.1068
11
45.6692
21
-67.1068
0
LINE
8
BLACK
10
45.6692
20
-67.1068
11
45.6692
21
-68.6308
0
LINE
8
BLACK
10
45.6692
20
-68.6308
11
47.1932
21
-68.6308
0
LINE
8
BLACK
10
47.1932
20
-68.6308
11
47.1932
21
-67.1068
0
CIRCLE
8
BLACK
10
37.5412
20
-89.281
40
1.92532
0
CIRCLE
8
BLACK
10
37.5412
20
-77.851
40
1.92532
0
CIRCLE
8
BLACK
10
43.8912
20
-79.121
40
0.762
0
CIRCLE
8
BLACK
10
46.4312
20
-79.756
40
0.762
0
CIRCLE
8
BLACK
10
43.8912
20
-81.661
40
0.762
0
CIRCLE
8
BLACK
10
46.4312
20
-82.296
40
0.762
0
CIRCLE
8
BLACK
10
43.8912
20
-84.201
40
0.762
0
CIRCLE
8
BLACK
10
46.4312
20
-84.836
40
0.762
0
CIRCLE
8
BLACK
10
43.8912
20
-86.741
40
0.762
0
CIRCLE
8
BLACK
10
40.5892
20
-91.313
40
1.27
0
CIRCLE
8
BLACK
10
40.5892
20
-75.819
40
1.27
0
CIRCLE
8
BLACK
10
51.2572
20
-80.645
40
0.762
0
CIRCLE
8
BLACK
10
51.2572
20
-86.487
40
0.762
0
CIRCLE
8
BLACK
10
51.2572
20
-78.105
40
0.762
0
CIRCLE
8
BLACK
10
51.2572
20
-89.027
40
0.762
0
LINE
8
BLACK
10
47.1932
20
-86.614
11
45.6692
21
-86.614
0
LINE
8
BLACK
10
45.6692
20
-86.614
11
45.6692
21
-88.138
0
LINE
8
BLACK
10
45.6692
20
-88.138
11
47.1932
21
-88.138
0
LINE
8
BLACK
10
47.1932
20
-88.138
11
47.1932
21
-86.614
0
LINE
8
BLACK
10
100.419
20
-107.785
11
100.419
21
-106.388
0
LINE
8
BLACK
10
100.419
20
-106.388
11
99.0219
21
-106.388
0
LINE
8
BLACK
10
99.0219
20
-106.388
11
99.0219
21
-107.785
0
LINE
8
BLACK
10
99.0219
20
-107.785
11
100.419
21
-107.785
0
CIRCLE
8
BLACK
10
97.1804
20
-107.086
40
0.6985
0
CIRCLE
8
BLACK
10
94.6404
20
-107.086
40
0.6985
0
CIRCLE
8
BLACK
10
92.1004
20
-107.086
40
0.6985
0
CIRCLE
8
BLACK
10
89.5604
20
-107.086
40
0.6985
0
CIRCLE
8
BLACK
10
87.0204
20
-107.086
40
0.6985
0
CIRCLE
8
BLACK
10
84.4804
20
-107.086
40
0.6985
0
CIRCLE
8
BLACK
10
81.9404
20
-107.086
40
0.6985
0
CIRCLE
8
BLACK
10
79.4004
20
-107.086
40
0.6985
0
CIRCLE
8
BLACK
10
76.8604
20
-107.086
40
0.6985
0
CIRCLE
8
BLACK
10
76.8604
20
-114.706
40
0.6985
0
CIRCLE
8
BLACK
10
79.4004
20
-114.706
40
0.6985
0
CIRCLE
8
BLACK
10
81.9404
20
-114.706
40
0.6985
0
CIRCLE
8
BLACK
10
84.4804
20
-114.706
40
0.6985
0
CIRCLE
8
BLACK
10
87.0204
20
-114.706
40
0.6985
0
CIRCLE
8
BLACK
10
89.5604
20
-114.706
40
0.6985
0
CIRCLE
8
BLACK
10
92.1004
20
-114.706
40
0.6985
0
CIRCLE
8
BLACK
10
94.6404
20
-114.706
40
0.6985
0
CIRCLE
8
BLACK
10
97.1804
20
-114.706
40
0.6985
0
CIRCLE
8
BLACK
10
99.7204
20
-114.706
40
0.6985
0
LINE
8
BLACK
10
100.47
20
-140.907
11
100.47
21
-139.51
0
LINE
8
BLACK
10
100.47
20
-139.51
11
99.0727
21
-139.51
0
LINE
8
BLACK
10
99.0727
20
-139.51
11
99.0727
21
-140.907
0
LINE
8
BLACK
10
99.0727
20
-140.907
11
100.47
21
-140.907
0
CIRCLE
8
BLACK
10
97.2312
20
-140.208
40
0.6985
0
CIRCLE
8
BLACK
10
94.6912
20
-140.208
40
0.6985
0
CIRCLE
8
BLACK
10
92.1512
20
-140.208
40
0.6985
0
CIRCLE
8
BLACK
10
89.6112
20
-140.208
40
0.6985
0
CIRCLE
8
BLACK
10
87.0712
20
-140.208
40
0.6985
0
CIRCLE
8
BLACK
10
84.5312
20
-140.208
40
0.6985
0
CIRCLE
8
BLACK
10
81.9912
20
-140.208
40
0.6985
0
CIRCLE
8
BLACK
10
79.4512
20
-140.208
40
0.6985
0
CIRCLE
8
BLACK
10
76.9112
20
-140.208
40
0.6985
0
CIRCLE
8
BLACK
10
76.9112
20
-147.828
40
0.6985
0
CIRCLE
8
BLACK
10
79.4512
20
-147.828
40
0.6985
0
CIRCLE
8
BLACK
10
81.9912
20
-147.828
40
0.6985
0
CIRCLE
8
BLACK
10
84.5312
20
-147.828
40
0.6985
0
CIRCLE
8
BLACK
10
87.0712
20
-147.828
40
0.6985
0
CIRCLE
8
BLACK
10
89.6112
20
-147.828
40
0.6985
0
CIRCLE
8
BLACK
10
92.1512
20
-147.828
40
0.6985
0
CIRCLE
8
BLACK
10
94.6912
20
-147.828
40
0.6985
0
CIRCLE
8
BLACK
10
97.2312
20
-147.828
40
0.6985
0
CIRCLE
8
BLACK
10
99.7712
20
-147.828
40
0.6985
0
LINE
8
BLACK
10
98.9457
20
-64.8589
11
98.9457
21
-63.4619
0
LINE
8
BLACK
10
98.9457
20
-63.4619
11
97.5487
21
-63.4619
0
LINE
8
BLACK
10
97.5487
20
-63.4619
11
97.5487
21
-64.8589
0
LINE
8
BLACK
10
97.5487
20
-64.8589
11
98.9457
21
-64.8589
0
CIRCLE
8
BLACK
10
95.7072
20
-64.1604
40
0.6985
0
CIRCLE
8
BLACK
10
93.1672
20
-64.1604
40
0.6985
0
CIRCLE
8
BLACK
10
90.6272
20
-64.1604
40
0.6985
0
CIRCLE
8
BLACK
10
88.0872
20
-64.1604
40
0.6985
0
CIRCLE
8
BLACK
10
85.5472
20
-64.1604
40
0.6985
0
CIRCLE
8
BLACK
10
83.0072
20
-64.1604
40
0.6985
0
CIRCLE
8
BLACK
10
80.4672
20
-64.1604
40
0.6985
0
CIRCLE
8
BLACK
10
80.4672
20
-71.7804
40
0.6985
0
CIRCLE
8
BLACK
10
83.0072
20
-71.7804
40
0.6985
0
CIRCLE
8
BLACK
10
85.5472
20
-71.7804
40
0.6985
0
CIRCLE
8
BLACK
10
88.0872
20
-71.7804
40
0.6985
0
CIRCLE
8
BLACK
10
90.6272
20
-71.7804
40
0.6985
0
CIRCLE
8
BLACK
10
93.1672
20
-71.7804
40
0.6985
0
CIRCLE
8
BLACK
10
95.7072
20
-71.7804
40
0.6985
0
CIRCLE
8
BLACK
10
98.2472
20
-71.7804
40
0.6985
0
LINE
8
BLACK
10
97.9551
20
-83.4263
11
97.9551
21
-82.0293
0
LINE
8
BLACK
10
97.9551
20
-82.0293
11
96.5581
21
-82.0293
0
LINE
8
BLACK
10
96.5581
20
-82.0293
11
96.5581
21
-83.4263
0
LINE
8
BLACK
10
96.5581
20
-83.4263
11
97.9551
21
-83.4263
0
CIRCLE
8
BLACK
10
94.7166
20
-82.7278
40
0.6985
0
CIRCLE
8
BLACK
10
92.1766
20
-82.7278
40
0.6985
0
CIRCLE
8
BLACK
10
89.6366
20
-82.7278
40
0.6985
0
CIRCLE
8
BLACK
10
87.0966
20
-82.7278
40
0.6985
0
CIRCLE
8
BLACK
10
84.5566
20
-82.7278
40
0.6985
0
CIRCLE
8
BLACK
10
82.0166
20
-82.7278
40
0.6985
0
CIRCLE
8
BLACK
10
79.4766
20
-82.7278
40
0.6985
0
CIRCLE
8
BLACK
10
79.4766
20
-90.3478
40
0.6985
0
CIRCLE
8
BLACK
10
82.0166
20
-90.3478
40
0.6985
0
CIRCLE
8
BLACK
10
84.5566
20
-90.3478
40
0.6985
0
CIRCLE
8
BLACK
10
87.0966
20
-90.3478
40
0.6985
0
CIRCLE
8
BLACK
10
89.6366
20
-90.3478
40
0.6985
0
CIRCLE
8
BLACK
10
92.1766
20
-90.3478
40
0.6985
0
CIRCLE
8
BLACK
10
94.7166
20
-90.3478
40
0.6985
0
CIRCLE
8
BLACK
10
97.2566
20
-90.3478
40
0.6985
0
LINE
8
BLACK
10
80.1497
20
-160.973
11
80.1497
21
-159.576
0
LINE
8
BLACK
10
80.1497
20
-159.576
11
78.7527
21
-159.576
0
LINE
8
BLACK
10
78.7527
20
-159.576
11
78.7527
21
-160.973
0
LINE
8
BLACK
10
78.7527
20
-160.973
11
80.1497
21
-160.973
0
CIRCLE
8
BLACK
10
87.0712
20
-160.274
40
0.6985
0
LINE
8
BLACK
10
83.7819
20
-129.502
11
83.7819
21
-130.899
0
LINE
8
BLACK
10
83.7819
20
-130.899
11
85.1789
21
-130.899
0
LINE
8
BLACK
10
85.1789
20
-130.899
11
85.1789
21
-129.502
0
LINE
8
BLACK
10
85.1789
20
-129.502
11
83.7819
21
-129.502
0
CIRCLE
8
BLACK
10
76.8604
20
-130.2
40
0.6985
0
LINE
8
BLACK
10
83.8327
20
-162.674
11
83.8327
21
-164.071
0
LINE
8
BLACK
10
83.8327
20
-164.071
11
85.2297
21
-164.071
0
LINE
8
BLACK
10
85.2297
20
-164.071
11
85.2297
21
-162.674
0
LINE
8
BLACK
10
85.2297
20
-162.674
11
83.8327
21
-162.674
0
CIRCLE
8
BLACK
10
76.9112
20
-163.373
40
0.6985
0
LINE
8
BLACK
10
80.0989
20
-127.851
11
80.0989
21
-126.454
0
LINE
8
BLACK
10
80.0989
20
-126.454
11
78.7019
21
-126.454
0
LINE
8
BLACK
10
78.7019
20
-126.454
11
78.7019
21
-127.851
0
LINE
8
BLACK
10
78.7019
20
-127.851
11
80.0989
21
-127.851
0
CIRCLE
8
BLACK
10
87.0204
20
-127.152
40
0.6985
0
CIRCLE
8
BLACK
10
105.41
20
-77.5208
40
0.6985
0
CIRCLE
8
BLACK
10
102.87
20
-77.5208
40
0.6985
0
CIRCLE
8
BLACK
10
69.4944
20
-121.107
40
0.6985
0
CIRCLE
8
BLACK
10
69.4944
20
-123.647
40
0.6985
0
CIRCLE
8
BLACK
10
81.3308
20
-78.6892
40
0.6985
0
CIRCLE
8
BLACK
10
83.8708
20
-78.6892
40
0.6985
0
CIRCLE
8
BLACK
10
105.41
20
-80.772
40
0.6985
0
CIRCLE
8
BLACK
10
102.87
20
-80.772
40
0.6985
0
CIRCLE
8
BLACK
10
105.41
20
-69.2404
40
0.6985
0
CIRCLE
8
BLACK
10
105.41
20
-66.7004
40
0.6985
0
CIRCLE
8
BLACK
10
81.8388
20
-59.9948
40
0.6985
0
CIRCLE
8
BLACK
10
84.3788
20
-59.9948
40
0.6985
0
CIRCLE
8
BLACK
10
90.5764
20
-59.8932
40
0.6985
0
CIRCLE
8
BLACK
10
88.0364
20
-59.8932
40
0.6985
0
CIRCLE
8
BLACK
10
96.6724
20
-59.8932
40
0.6985
0
CIRCLE
8
BLACK
10
94.1324
20
-59.8932
40
0.6985
0
CIRCLE
8
BLACK
10
89.6874
20
-78.7146
40
0.6985
0
CIRCLE
8
BLACK
10
87.1474
20
-78.7146
40
0.6985
0
CIRCLE
8
BLACK
10
96.1898
20
-78.613
40
0.6985
0
CIRCLE
8
BLACK
10
93.6498
20
-78.613
40
0.6985
0
CIRCLE
8
BLACK
10
63.246
20
-165.405
40
0.6985
0
CIRCLE
8
BLACK
10
63.246
20
-167.945
40
0.6985
0
CIRCLE
8
BLACK
10
76.8604
20
-123.647
40
0.6985
0
CIRCLE
8
BLACK
10
79.4004
20
-123.647
40
0.6985
0
CIRCLE
8
BLACK
10
94.6404
20
-127.051
40
0.6985
0
CIRCLE
8
BLACK
10
97.1804
20
-127.051
40
0.6985
0
CIRCLE
8
BLACK
10
67.7164
20
-117.196
40
0.6985
0
CIRCLE
8
BLACK
10
67.7164
20
-114.656
40
0.6985
0
CIRCLE
8
BLACK
10
63.0936
20
-148.742
40
0.6985
0
CIRCLE
8
BLACK
10
63.0936
20
-151.282
40
0.6985
0
CIRCLE
8
BLACK
10
63.0936
20
-156.87
40
0.6985
0
CIRCLE
8
BLACK
10
63.0936
20
-159.41
40
0.6985
0
CIRCLE
8
BLACK
10
94.6912
20
-159.664
40
0.6985
0
CIRCLE
8
BLACK
10
97.2312
20
-159.664
40
0.6985
0
CIRCLE
8
BLACK
10
76.9112
20
-157.124
40
0.6985
0
CIRCLE
8
BLACK
10
79.4512
20
-157.124
40
0.6985
0
CIRCLE
8
BLACK
10
72.898
20
-121.107
40
0.6985
0
CIRCLE
8
BLACK
10
72.898
20
-123.647
40
0.6985
0
LINE
8
BLACK
10
115.062
20
-154.127
11
112.522
21
-154.127
0
LINE
8
BLACK
10
112.522
20
-154.127
11
112.522
21
-156.667
0
LINE
8
BLACK
10
112.522
20
-156.667
11
115.062
21
-156.667
0
LINE
8
BLACK
10
115.062
20
-156.667
11
115.062
21
-154.127
0
CIRCLE
8
BLACK
10
113.792
20
-160.477
40
1.27
0
CIRCLE
8
BLACK
10
113.792
20
-165.557
40
1.27
0
LINE
8
BLACK
10
115.062
20
-137.668
11
112.522
21
-137.668
0
LINE
8
BLACK
10
112.522
20
-137.668
11
112.522
21
-140.208
0
LINE
8
BLACK
10
112.522
20
-140.208
11
115.062
21
-140.208
0
LINE
8
BLACK
10
115.062
20
-140.208
11
115.062
21
-137.668
0
CIRCLE
8
BLACK
10
113.792
20
-144.018
40
1.27
0
CIRCLE
8
BLACK
10
113.792
20
-149.098
40
1.27
0
LINE
8
BLACK
10
115.062
20
-121.056
11
112.522
21
-121.056
0
LINE
8
BLACK
10
112.522
20
-121.056
11
112.522
21
-123.596
0
LINE
8
BLACK
10
112.522
20
-123.596
11
115.062
21
-123.596
0
LINE
8
BLACK
10
115.062
20
-123.596
11
115.062
21
-121.056
0
CIRCLE
8
BLACK
10
113.792
20
-127.406
40
1.27
0
CIRCLE
8
BLACK
10
113.792
20
-132.486
40
1.27
0
LINE
8
BLACK
10
115.062
20
-104.546
11
112.522
21
-104.546
0
LINE
8
BLACK
10
112.522
20
-104.546
11
112.522
21
-107.086
0
LINE
8
BLACK
10
112.522
20
-107.086
11
115.062
21
-107.086
0
LINE
8
BLACK
10
115.062
20
-107.086
11
115.062
21
-104.546
0
CIRCLE
8
BLACK
10
113.792
20
-110.896
40
1.27
0
CIRCLE
8
BLACK
10
113.792
20
-115.976
40
1.27
0
CIRCLE
8
BLACK
10
51.4604
20
-159.41
40
0.6985
0
CIRCLE
8
BLACK
10
59.0804
20
-159.41
40
0.6985
0
CIRCLE
8
BLACK
10
51.6636
20
-167.945
40
0.6985
0
CIRCLE
8
BLACK
10
59.2836
20
-167.945
40
0.6985
0
CIRCLE
8
BLACK
10
87.0204
20
-130.2
40
0.6985
0
CIRCLE
8
BLACK
10
94.6404
20
-130.2
40
0.6985
0
CIRCLE
8
BLACK
10
51.562
20
-151.282
40
0.6985
0
CIRCLE
8
BLACK
10
59.182
20
-151.282
40
0.6985
0
CIRCLE
8
BLACK
10
71.5264
20
-107.086
40
0.6985
0
CIRCLE
8
BLACK
10
71.5264
20
-114.706
40
0.6985
0
CIRCLE
8
BLACK
10
87.0712
20
-163.373
40
0.6985
0
CIRCLE
8
BLACK
10
94.6912
20
-163.373
40
0.6985
0
LINE
8
BLACK
10
115.113
20
-173.888
11
112.573
21
-173.888
0
LINE
8
BLACK
10
112.573
20
-173.888
11
112.573
21
-176.428
0
LINE
8
BLACK
10
112.573
20
-176.428
11
115.113
21
-176.428
0
LINE
8
BLACK
10
115.113
20
-176.428
11
115.113
21
-173.888
0
CIRCLE
8
BLACK
10
113.843
20
-180.238
40
1.27
0
CIRCLE
8
BLACK
10
113.843
20
-185.318
40
1.27
0
LINE
8
BLACK
10
114.91
20
-73.6092
11
112.37
21
-73.6092
0
LINE
8
BLACK
10
112.37
20
-73.6092
11
112.37
21
-76.1492
0
LINE
8
BLACK
10
112.37
20
-76.1492
11
114.91
21
-76.1492
0
LINE
8
BLACK
10
114.91
20
-76.1492
11
114.91
21
-73.6092
0
CIRCLE
8
BLACK
10
113.64
20
-79.9592
40
1.27
0
CIRCLE
8
BLACK
10
102.337
20
-48.3616
40
1.905
0
CIRCLE
8
BLACK
10
76.9366
20
-48.3616
40
1.905
0
LINE
8
BLACK
10
83.2866
20
-50.1396
11
83.2866
21
-51.6636
0
LINE
8
BLACK
10
83.2866
20
-51.6636
11
84.8106
21
-51.6636
0
LINE
8
BLACK
10
84.8106
20
-51.6636
11
84.8106
21
-50.1396
0
LINE
8
BLACK
10
84.8106
20
-50.1396
11
83.2866
21
-50.1396
0
CIRCLE
8
BLACK
10
86.8426
20
-50.9016
40
0.762
0
CIRCLE
8
BLACK
10
89.5096
20
-50.9016
40
0.762
0
CIRCLE
8
BLACK
10
92.3036
20
-50.9016
40
0.762
0
CIRCLE
8
BLACK
10
95.0976
20
-50.9016
40
0.762
0
CIRCLE
8
BLACK
10
85.4456
20
-48.3616
40
0.762
0
CIRCLE
8
BLACK
10
88.2396
20
-48.3616
40
0.762
0
CIRCLE
8
BLACK
10
90.9066
20
-48.3616
40
0.762
0
CIRCLE
8
BLACK
10
93.7006
20
-48.3616
40
0.762
0
CIRCLE
8
BLACK
10
37.592
20
-137.236
40
1.905
0
CIRCLE
8
BLACK
10
37.592
20
-184.226
40
1.905
0
LINE
8
BLACK
10
39.37
20
-178.003
11
40.894
21
-178.003
0
LINE
8
BLACK
10
40.894
20
-178.003
11
40.894
21
-176.479
0
LINE
8
BLACK
10
40.894
20
-176.479
11
39.37
21
-176.479
0
LINE
8
BLACK
10
39.37
20
-176.479
11
39.37
21
-178.003
0
CIRCLE
8
BLACK
10
40.132
20
-174.447
40
0.762
0
CIRCLE
8
BLACK
10
40.132
20
-171.78
40
0.762
0
CIRCLE
8
BLACK
10
40.132
20
-168.986
40
0.762
0
CIRCLE
8
BLACK
10
40.132
20
-166.192
40
0.762
0
CIRCLE
8
BLACK
10
40.132
20
-163.398
40
0.762
0
CIRCLE
8
BLACK
10
40.132
20
-160.731
40
0.762
0
CIRCLE
8
BLACK
10
40.132
20
-157.937
40
0.762
0
CIRCLE
8
BLACK
10
40.132
20
-155.143
40
0.762
0
CIRCLE
8
BLACK
10
40.132
20
-152.349
40
0.762
0
CIRCLE
8
BLACK
10
40.132
20
-149.682
40
0.762
0
CIRCLE
8
BLACK
10
40.132
20
-146.888
40
0.762
0
CIRCLE
8
BLACK
10
40.132
20
-144.094
40
0.762
0
CIRCLE
8
BLACK
10
37.592
20
-175.666
40
0.762
0
CIRCLE
8
BLACK
10
37.592
20
-173.126
40
0.762
0
CIRCLE
8
BLACK
10
37.592
20
-170.332
40
0.762
0
CIRCLE
8
BLACK
10
37.592
20
-167.589
40
0.762
0
CIRCLE
8
BLACK
10
37.592
20
-164.846
40
0.762
0
CIRCLE
8
BLACK
10
37.592
20
-162.052
40
0.762
0
CIRCLE
8
BLACK
10
37.592
20
-159.309
40
0.762
0
CIRCLE
8
BLACK
10
37.592
20
-156.566
40
0.762
0
CIRCLE
8
BLACK
10
37.592
20
-153.721
40
0.762
0
CIRCLE
8
BLACK
10
37.592
20
-151.028
40
0.762
0
CIRCLE
8
BLACK
10
37.592
20
-148.285
40
0.762
0
CIRCLE
8
BLACK
10
37.592
20
-145.491
40
0.762
0
LINE
8
BLACK
10
29.0576
20
-127.864
11
31.5976
21
-127.864
0
LINE
8
BLACK
10
31.5976
20
-127.864
11
31.5976
21
-125.324
0
LINE
8
BLACK
10
31.5976
20
-125.324
11
29.0576
21
-125.324
0
LINE
8
BLACK
10
29.0576
20
-125.324
11
29.0576
21
-127.864
0
CIRCLE
8
BLACK
10
30.3276
20
-121.514
40
1.27
0
CIRCLE
8
BLACK
10
30.3276
20
-116.434
40
1.27
0
LINE
8
BLACK
10
63.0936
20
-185.369
11
63.0936
21
-182.829
0
LINE
8
BLACK
10
63.0936
20
-182.829
11
60.5536
21
-182.829
0
LINE
8
BLACK
10
60.5536
20
-182.829
11
60.5536
21
-185.369
0
LINE
8
BLACK
10
60.5536
20
-185.369
11
63.0936
21
-185.369
0
CIRCLE
8
BLACK
10
56.7436
20
-184.099
40
1.27
0
CIRCLE
8
BLACK
10
51.6636
20
-184.099
40
1.27
0
LINE
8
BLACK
10
51.9684
20
-41.5036
11
51.9684
21
-44.0436
0
LINE
8
BLACK
10
51.9684
20
-44.0436
11
54.5084
21
-44.0436
0
LINE
8
BLACK
10
54.5084
20
-44.0436
11
54.5084
21
-41.5036
0
LINE
8
BLACK
10
54.5084
20
-41.5036
11
51.9684
21
-41.5036
0
CIRCLE
8
BLACK
10
58.3184
20
-42.7736
40
1.27
0
CIRCLE
8
BLACK
10
63.3984
20
-42.7736
40
1.27
0
LINE
8
BLACK
10
36.322
20
-42.164
11
36.322
21
-44.704
0
LINE
8
BLACK
10
36.322
20
-44.704
11
38.862
21
-44.704
0
LINE
8
BLACK
10
38.862
20
-44.704
11
38.862
21
-42.164
0
LINE
8
BLACK
10
38.862
20
-42.164
11
36.322
21
-42.164
0
CIRCLE
8
BLACK
10
42.672
20
-43.434
40
1.27
0
CIRCLE
8
BLACK
10
98.8568
20
-74.93
40
0.4445
0
CIRCLE
8
BLACK
10
58.0136
20
-91.694
40
0.4445
0
CIRCLE
8
BLACK
10
57.9628
20
-85.2932
40
0.4445
0
CIRCLE
8
BLACK
10
83.9724
20
-125.12
40
0.4445
0
CIRCLE
8
BLACK
10
80.8228
20
-138.633
40
0.4445
0
CIRCLE
8
BLACK
10
88.7476
20
-179.121
40
0.4445
0
CIRCLE
8
BLACK
10
67.6656
20
-143.408
40
0.4445
0
CIRCLE
8
BLACK
10
68.0212
20
-136.296
40
0.4445
0
CIRCLE
8
BLACK
10
48.4632
20
-102.819
40
0.4445
0
CIRCLE
8
BLACK
10
42.2656
20
-104.953
40
0.4445
0
CIRCLE
8
BLACK
10
35.306
20
-171.501
40
0.4445
0
CIRCLE
8
BLACK
10
46.3804
20
-97.6376
40
0.4445
0
CIRCLE
8
BLACK
10
67.3608
20
-167.945
40
0.4445
0
CIRCLE
8
BLACK
10
70.9676
20
-166.167
40
0.4445
0
CIRCLE
8
BLACK
10
108.509
20
-120.65
40
0.4445
0
CIRCLE
8
BLACK
10
108.509
20
-103.124
40
0.4445
0
CIRCLE
8
BLACK
10
54.2036
20
-59.1312
40
0.4445
0
CIRCLE
8
BLACK
10
90.932
20
-54.1528
40
0.4445
0
CIRCLE
8
BLACK
10
37.5412
20
-48.3108
40
0.4445
0
CIRCLE
8
BLACK
10
42.672
20
-48.1076
40
0.4445
0
CIRCLE
8
BLACK
10
63.3476
20
-48.2092
40
0.4445
0
CIRCLE
8
BLACK
10
68.1228
20
-72.0852
40
0.4445
0
CIRCLE
8
BLACK
10
87.376
20
-55.2196
40
0.4445
0
CIRCLE
8
BLACK
10
58.3692
20
-47.9044
40
0.4445
0
CIRCLE
8
BLACK
10
53.1876
20
-47.5996
40
0.4445
0
CIRCLE
8
BLACK
10
65.786
20
-63.5
40
0.4445
0
CIRCLE
8
BLACK
10
65.786
20
-73.0504
40
0.4445
0
CIRCLE
8
BLACK
10
42.6212
20
-85.4964
40
0.4445
0
CIRCLE
8
BLACK
10
51.5112
20
-144.069
40
0.4445
0
CIRCLE
8
BLACK
10
48.3108
20
-83.566
40
0.4445
0
CIRCLE
8
BLACK
10
50.3936
20
-146.863
40
0.4445
0
CIRCLE
8
BLACK
10
71.3232
20
-60.3504
40
0.4445
0
CIRCLE
8
BLACK
10
48.7172
20
-81.788
40
0.4445
0
CIRCLE
8
BLACK
10
75.2348
20
-63.8556
40
0.4445
0
CIRCLE
8
BLACK
10
69.9516
20
-72.1868
40
0.4445
0
CIRCLE
8
BLACK
10
82.3976
20
-52.578
40
0.4445
0
CIRCLE
8
BLACK
10
75.2856
20
-74.422
40
0.4445
0
CIRCLE
8
BLACK
10
57.8612
20
-74.3204
40
0.4445
0
CIRCLE
8
BLACK
10
42.5196
20
-66.0908
40
0.4445
0
CIRCLE
8
BLACK
10
108.255
20
-153.365
40
0.4445
0
CIRCLE
8
BLACK
10
108.356
20
-136.449
40
0.4445
0
CIRCLE
8
BLACK
10
72.2884
20
-155.499
40
0.4445
0
CIRCLE
8
BLACK
10
67.564
20
-156.007
40
0.4445
0
CIRCLE
8
BLACK
10
84.6328
20
-118.161
40
0.4445
0
CIRCLE
8
BLACK
10
76.8604
20
-120.599
40
0.4445
0
CIRCLE
8
BLACK
10
90.8812
20
-153.162
40
0.4445
0
CIRCLE
8
BLACK
10
90.8304
20
-167.03
40
0.4445
0
LINE
8
BLACK
10
102.96
20
-77.431
11
100.42
21
-74.891
0
LINE
8
BLACK
10
102.78
20
-77.6106
11
100.24
21
-75.0706
0
ARC
8
BLACK
10
100.33
20
-74.9808
40
0.127
50
405
51
585
0
ARC
8
BLACK
10
102.87
20
-77.5208
40
0.127
50
225
51
405
0
LINE
8
BLACK
10
100.457
20
-74.9808
11
100.457
21
-74.93
0
LINE
8
BLACK
10
100.203
20
-74.9808
11
100.203
21
-74.93
0
ARC
8
BLACK
10
100.33
20
-74.93
40
0.127
50
360
51
540
0
ARC
8
BLACK
10
100.33
20
-74.9808
40
0.127
50
180
51
360
0
LINE
8
BLACK
10
98.8568
20
-75.057
11
99.568
21
-75.057
0
LINE
8
BLACK
10
98.8568
20
-74.803
11
99.568
21
-74.803
0
ARC
8
BLACK
10
99.568
20
-74.93
40
0.127
50
270
51
450
0
ARC
8
BLACK
10
98.8568
20
-74.93
40
0.127
50
90
51
270
0
LINE
8
BLACK
10
111.455
20
-80.0862
11
113.64
21
-80.0862
0
LINE
8
BLACK
10
111.455
20
-79.8322
11
113.64
21
-79.8322
0
ARC
8
BLACK
10
113.64
20
-79.9592
40
0.127
50
270
51
450
0
ARC
8
BLACK
10
111.455
20
-79.9592
40
0.127
50
90
51
270
0
LINE
8
BLACK
10
111.545
20
-79.8694
11
106.516
21
-74.8402
0
LINE
8
BLACK
10
111.365
20
-80.049
11
106.336
21
-75.0198
0
ARC
8
BLACK
10
106.426
20
-74.93
40
0.127
50
405
51
585
0
ARC
8
BLACK
10
111.455
20
-79.9592
40
0.127
50
225
51
405
0
LINE
8
BLACK
10
100.33
20
-75.057
11
106.426
21
-75.057
0
LINE
8
BLACK
10
100.33
20
-74.803
11
106.426
21
-74.803
0
ARC
8
BLACK
10
106.426
20
-74.93
40
0.127
50
270
51
450
0
ARC
8
BLACK
10
100.33
20
-74.93
40
0.127
50
90
51
270
0
LINE
8
BLACK
10
99.568
20
-75.057
11
100.33
21
-75.057
0
LINE
8
BLACK
10
99.568
20
-74.803
11
100.33
21
-74.803
0
ARC
8
BLACK
10
100.33
20
-74.93
40
0.127
50
270
51
450
0
ARC
8
BLACK
10
99.568
20
-74.93
40
0.127
50
90
51
270
0
LINE
8
BLACK
10
98.9076
20
-75.057
11
99.568
21
-75.057
0
LINE
8
BLACK
10
98.9076
20
-74.803
11
99.568
21
-74.803
0
ARC
8
BLACK
10
99.568
20
-74.93
40
0.127
50
270
51
450
0
ARC
8
BLACK
10
98.9076
20
-74.93
40
0.127
50
90
51
270
0
LINE
8
BLACK
10
58.1406
20
-91.694
11
58.1406
21
-85.344
0
LINE
8
BLACK
10
57.8866
20
-91.694
11
57.8866
21
-85.344
0
ARC
8
BLACK
10
58.0136
20
-85.344
40
0.127
50
360
51
540
0
ARC
8
BLACK
10
58.0136
20
-91.694
40
0.127
50
180
51
360
0
LINE
8
BLACK
10
58.1034
20
-85.2542
11
58.0526
21
-85.2034
0
LINE
8
BLACK
10
57.9238
20
-85.4338
11
57.873
21
-85.383
0
ARC
8
BLACK
10
57.9628
20
-85.2932
40
0.127
50
405
51
585
0
ARC
8
BLACK
10
58.0136
20
-85.344
40
0.127
50
225
51
405
0
LINE
8
BLACK
10
89.3962
20
-115.05
11
89.6502
21
-114.796
0
LINE
8
BLACK
10
89.2166
20
-114.871
11
89.4706
21
-114.617
0
ARC
8
BLACK
10
89.5604
20
-114.706
40
0.127
50
315
51
495
0
ARC
8
BLACK
10
89.3064
20
-114.96
40
0.127
50
135
51
315
0
LINE
8
BLACK
10
89.4334
20
-117.5
11
89.4334
21
-114.96
0
LINE
8
BLACK
10
89.1794
20
-117.5
11
89.1794
21
-114.96
0
ARC
8
BLACK
10
89.3064
20
-114.96
40
0.127
50
360
51
540
0
ARC
8
BLACK
10
89.3064
20
-117.5
40
0.127
50
180
51
360
0
LINE
8
BLACK
10
84.113
20
-122.873
11
89.3962
21
-117.59
0
LINE
8
BLACK
10
83.9334
20
-122.694
11
89.2166
21
-117.411
0
ARC
8
BLACK
10
89.3064
20
-117.5
40
0.127
50
315
51
495
0
ARC
8
BLACK
10
84.0232
20
-122.784
40
0.127
50
135
51
315
0
LINE
8
BLACK
10
84.1502
20
-122.834
11
84.1502
21
-122.784
0
LINE
8
BLACK
10
83.8962
20
-122.834
11
83.8962
21
-122.784
0
ARC
8
BLACK
10
84.0232
20
-122.784
40
0.127
50
360
51
540
0
ARC
8
BLACK
10
84.0232
20
-122.834
40
0.127
50
180
51
360
0
LINE
8
BLACK
10
83.9724
20
-122.961
11
84.0232
21
-122.961
0
LINE
8
BLACK
10
83.9724
20
-122.707
11
84.0232
21
-122.707
0
ARC
8
BLACK
10
84.0232
20
-122.834
40
0.127
50
270
51
450
0
ARC
8
BLACK
10
83.9724
20
-122.834
40
0.127
50
90
51
270
0
LINE
8
BLACK
10
84.0994
20
-125.12
11
84.0994
21
-122.834
0
LINE
8
BLACK
10
83.8454
20
-125.12
11
83.8454
21
-122.834
0
ARC
8
BLACK
10
83.9724
20
-122.834
40
0.127
50
360
51
540
0
ARC
8
BLACK
10
83.9724
20
-125.12
40
0.127
50
180
51
360
0
LINE
8
BLACK
10
86.575
20
-138.723
11
86.9814
21
-139.129
0
LINE
8
BLACK
10
86.7546
20
-138.543
11
87.161
21
-138.95
0
ARC
8
BLACK
10
87.0712
20
-139.04
40
0.127
50
225
51
405
0
ARC
8
BLACK
10
86.6648
20
-138.633
40
0.127
50
45
51
225
0
LINE
8
BLACK
10
87.1982
20
-140.208
11
87.1982
21
-139.04
0
LINE
8
BLACK
10
86.9442
20
-140.208
11
86.9442
21
-139.04
0
ARC
8
BLACK
10
87.0712
20
-139.04
40
0.127
50
360
51
540
0
ARC
8
BLACK
10
87.0712
20
-140.208
40
0.127
50
180
51
360
0
LINE
8
BLACK
10
87.9466
20
-138.723
11
89.5214
21
-140.298
0
LINE
8
BLACK
10
88.1262
20
-138.543
11
89.701
21
-140.118
0
ARC
8
BLACK
10
89.6112
20
-140.208
40
0.127
50
225
51
405
0
ARC
8
BLACK
10
88.0364
20
-138.633
40
0.127
50
45
51
225
0
LINE
8
BLACK
10
80.8228
20
-138.76
11
86.6648
21
-138.76
0
LINE
8
BLACK
10
80.8228
20
-138.506
11
86.6648
21
-138.506
0
ARC
8
BLACK
10
86.6648
20
-138.633
40
0.127
50
270
51
450
0
ARC
8
BLACK
10
80.8228
20
-138.633
40
0.127
50
90
51
270
0
LINE
8
BLACK
10
86.6648
20
-138.76
11
88.0364
21
-138.76
0
LINE
8
BLACK
10
86.6648
20
-138.506
11
88.0364
21
-138.506
0
ARC
8
BLACK
10
88.0364
20
-138.633
40
0.127
50
270
51
450
0
ARC
8
BLACK
10
86.6648
20
-138.633
40
0.127
50
90
51
270
0
LINE
8
BLACK
10
89.6874
20
-114.706
11
89.6874
21
-107.086
0
LINE
8
BLACK
10
89.4334
20
-114.706
11
89.4334
21
-107.086
0
ARC
8
BLACK
10
89.5604
20
-107.086
40
0.127
50
360
51
540
0
ARC
8
BLACK
10
89.5604
20
-114.706
40
0.127
50
180
51
360
0
LINE
8
BLACK
10
88.812
20
-149.569
11
89.701
21
-148.68
0
LINE
8
BLACK
10
88.6324
20
-149.389
11
89.5214
21
-148.5
0
ARC
8
BLACK
10
89.6112
20
-148.59
40
0.127
50
315
51
495
0
ARC
8
BLACK
10
88.7222
20
-149.479
40
0.127
50
135
51
315
0
LINE
8
BLACK
10
89.7382
20
-148.59
11
89.7382
21
-147.828
0
LINE
8
BLACK
10
89.4842
20
-148.59
11
89.4842
21
-147.828
0
ARC
8
BLACK
10
89.6112
20
-147.828
40
0.127
50
360
51
540
0
ARC
8
BLACK
10
89.6112
20
-148.59
40
0.127
50
180
51
360
0
LINE
8
BLACK
10
67.7164
20
-117.323
11
69.9516
21
-117.323
0
LINE
8
BLACK
10
67.7164
20
-117.069
11
69.9516
21
-117.069
0
ARC
8
BLACK
10
69.9516
20
-117.196
40
0.127
50
270
51
450
0
ARC
8
BLACK
10
67.7164
20
-117.196
40
0.127
50
90
51
270
0
LINE
8
BLACK
10
85.4338
20
-116.473
11
87.1102
21
-114.796
0
LINE
8
BLACK
10
85.2542
20
-116.293
11
86.9306
21
-114.617
0
ARC
8
BLACK
10
87.0204
20
-114.706
40
0.127
50
315
51
495
0
ARC
8
BLACK
10
85.344
20
-116.383
40
0.127
50
135
51
315
0
LINE
8
BLACK
10
72.3392
20
-116.51
11
85.344
21
-116.51
0
LINE
8
BLACK
10
72.3392
20
-116.256
11
85.344
21
-116.256
0
ARC
8
BLACK
10
85.344
20
-116.383
40
0.127
50
270
51
450
0
ARC
8
BLACK
10
72.3392
20
-116.383
40
0.127
50
90
51
270
0
LINE
8
BLACK
10
71.6162
20
-117.285
11
72.429
21
-116.473
0
LINE
8
BLACK
10
71.4366
20
-117.106
11
72.2494
21
-116.293
0
ARC
8
BLACK
10
72.3392
20
-116.383
40
0.127
50
315
51
495
0
ARC
8
BLACK
10
71.5264
20
-117.196
40
0.127
50
135
51
315
0
LINE
8
BLACK
10
69.9516
20
-117.323
11
71.5264
21
-117.323
0
LINE
8
BLACK
10
69.9516
20
-117.069
11
71.5264
21
-117.069
0
ARC
8
BLACK
10
71.5264
20
-117.196
40
0.127
50
270
51
450
0
ARC
8
BLACK
10
69.9516
20
-117.196
40
0.127
50
90
51
270
0
LINE
8
BLACK
10
86.9814
20
-147.918
11
88.6324
21
-149.569
0
LINE
8
BLACK
10
87.161
20
-147.738
11
88.812
21
-149.389
0
ARC
8
BLACK
10
88.7222
20
-149.479
40
0.127
50
225
51
405
0
ARC
8
BLACK
10
87.0712
20
-147.828
40
0.127
50
45
51
225
0
LINE
8
BLACK
10
88.6324
20
-149.569
11
88.6578
21
-149.594
0
LINE
8
BLACK
10
88.812
20
-149.389
11
88.8374
21
-149.415
0
ARC
8
BLACK
10
88.7476
20
-149.504
40
0.127
50
225
51
405
0
ARC
8
BLACK
10
88.7222
20
-149.479
40
0.127
50
45
51
225
0
LINE
8
BLACK
10
88.8746
20
-179.121
11
88.8746
21
-149.504
0
LINE
8
BLACK
10
88.6206
20
-179.121
11
88.6206
21
-149.504
0
ARC
8
BLACK
10
88.7476
20
-149.504
40
0.127
50
360
51
540
0
ARC
8
BLACK
10
88.7476
20
-179.121
40
0.127
50
180
51
360
0
LINE
8
BLACK
10
40.132
20
-171.907
11
45.847
21
-171.907
0
LINE
8
BLACK
10
40.132
20
-171.653
11
45.847
21
-171.653
0
ARC
8
BLACK
10
45.847
20
-171.78
40
0.127
50
270
51
450
0
ARC
8
BLACK
10
40.132
20
-171.78
40
0.127
50
90
51
270
0
LINE
8
BLACK
10
49.5926
20
-167.855
11
45.7572
21
-171.69
0
LINE
8
BLACK
10
49.7722
20
-168.035
11
45.9368
21
-171.87
0
ARC
8
BLACK
10
45.847
20
-171.78
40
0.127
50
135
51
315
0
ARC
8
BLACK
10
49.6824
20
-167.945
40
0.127
50
-45
51
135
0
LINE
8
BLACK
10
49.6824
20
-168.072
11
51.6636
21
-168.072
0
LINE
8
BLACK
10
49.6824
20
-167.818
11
51.6636
21
-167.818
0
ARC
8
BLACK
10
51.6636
20
-167.945
40
0.127
50
270
51
450
0
ARC
8
BLACK
10
49.6824
20
-167.945
40
0.127
50
90
51
270
0
LINE
8
BLACK
10
99.6306
20
-114.796
11
102.323
21
-117.489
0
LINE
8
BLACK
10
99.8102
20
-114.617
11
102.503
21
-117.309
0
ARC
8
BLACK
10
102.413
20
-117.399
40
0.127
50
225
51
405
0
ARC
8
BLACK
10
99.7204
20
-114.706
40
0.127
50
45
51
225
0
LINE
8
BLACK
10
67.7926
20
-144.729
11
67.7926
21
-143.408
0
LINE
8
BLACK
10
67.5386
20
-144.729
11
67.5386
21
-143.408
0
ARC
8
BLACK
10
67.6656
20
-143.408
40
0.127
50
360
51
540
0
ARC
8
BLACK
10
67.6656
20
-144.729
40
0.127
50
180
51
360
0
LINE
8
BLACK
10
70.0142
20
-134.124
11
67.9314
21
-136.207
0
LINE
8
BLACK
10
70.1938
20
-134.303
11
68.111
21
-136.386
0
ARC
8
BLACK
10
68.0212
20
-136.296
40
0.127
50
135
51
315
0
ARC
8
BLACK
10
70.104
20
-134.214
40
0.127
50
-45
51
135
0
LINE
8
BLACK
10
70.104
20
-134.341
11
98.4504
21
-134.341
0
LINE
8
BLACK
10
70.104
20
-134.087
11
98.4504
21
-134.087
0
ARC
8
BLACK
10
98.4504
20
-134.214
40
0.127
50
270
51
450
0
ARC
8
BLACK
10
70.104
20
-134.214
40
0.127
50
90
51
270
0
LINE
8
BLACK
10
102.323
20
-130.161
11
98.3606
21
-134.124
0
LINE
8
BLACK
10
102.503
20
-130.341
11
98.5402
21
-134.303
0
ARC
8
BLACK
10
98.4504
20
-134.214
40
0.127
50
135
51
315
0
ARC
8
BLACK
10
102.413
20
-130.251
40
0.127
50
-45
51
135
0
LINE
8
BLACK
10
102.54
20
-130.251
11
102.54
21
-130.2
0
LINE
8
BLACK
10
102.286
20
-130.251
11
102.286
21
-130.2
0
ARC
8
BLACK
10
102.413
20
-130.2
40
0.127
50
360
51
540
0
ARC
8
BLACK
10
102.413
20
-130.251
40
0.127
50
180
51
360
0
LINE
8
BLACK
10
102.54
20
-130.2
11
102.54
21
-117.399
0
LINE
8
BLACK
10
102.286
20
-130.2
11
102.286
21
-117.399
0
ARC
8
BLACK
10
102.413
20
-117.399
40
0.127
50
360
51
540
0
ARC
8
BLACK
10
102.413
20
-130.2
40
0.127
50
180
51
360
0
LINE
8
BLACK
10
67.5758
20
-144.639
11
66.255
21
-145.96
0
LINE
8
BLACK
10
67.7554
20
-144.819
11
66.4346
21
-146.14
0
ARC
8
BLACK
10
66.3448
20
-146.05
40
0.127
50
135
51
315
0
ARC
8
BLACK
10
67.6656
20
-144.729
40
0.127
50
-45
51
135
0
LINE
8
BLACK
10
66.4718
20
-149.606
11
66.4718
21
-146.05
0
LINE
8
BLACK
10
66.2178
20
-149.606
11
66.2178
21
-146.05
0
ARC
8
BLACK
10
66.3448
20
-146.05
40
0.127
50
360
51
540
0
ARC
8
BLACK
10
66.3448
20
-149.606
40
0.127
50
180
51
360
0
LINE
8
BLACK
10
66.4718
20
-150.165
11
66.4718
21
-149.606
0
LINE
8
BLACK
10
66.2178
20
-150.165
11
66.2178
21
-149.606
0
ARC
8
BLACK
10
66.3448
20
-149.606
40
0.127
50
360
51
540
0
ARC
8
BLACK
10
66.3448
20
-150.165
40
0.127
50
180
51
360
0
LINE
8
BLACK
10
66.255
20
-150.075
11
65.1882
21
-151.142
0
LINE
8
BLACK
10
66.4346
20
-150.255
11
65.3678
21
-151.321
0
ARC
8
BLACK
10
65.278
20
-151.232
40
0.127
50
135
51
315
0
ARC
8
BLACK
10
66.3448
20
-150.165
40
0.127
50
-45
51
135
0
LINE
8
BLACK
10
63.0546
20
-151.142
11
63.0038
21
-151.193
0
LINE
8
BLACK
10
63.2342
20
-151.321
11
63.1834
21
-151.372
0
ARC
8
BLACK
10
63.0936
20
-151.282
40
0.127
50
135
51
315
0
ARC
8
BLACK
10
63.1444
20
-151.232
40
0.127
50
-45
51
135
0
LINE
8
BLACK
10
63.1444
20
-151.359
11
65.278
21
-151.359
0
LINE
8
BLACK
10
63.1444
20
-151.105
11
65.278
21
-151.105
0
ARC
8
BLACK
10
65.278
20
-151.232
40
0.127
50
270
51
450
0
ARC
8
BLACK
10
63.1444
20
-151.232
40
0.127
50
90
51
270
0
LINE
8
BLACK
10
59.182
20
-151.409
11
63.0936
21
-151.409
0
LINE
8
BLACK
10
59.182
20
-151.155
11
63.0936
21
-151.155
0
ARC
8
BLACK
10
63.0936
20
-151.282
40
0.127
50
270
51
450
0
ARC
8
BLACK
10
59.182
20
-151.282
40
0.127
50
90
51
270
0
LINE
8
BLACK
10
70.143
20
-138.164
11
71.2098
21
-137.097
0
LINE
8
BLACK
10
69.9634
20
-137.985
11
71.0302
21
-136.918
0
ARC
8
BLACK
10
71.12
20
-137.008
40
0.127
50
315
51
495
0
ARC
8
BLACK
10
70.0532
20
-138.074
40
0.127
50
135
51
315
0
LINE
8
BLACK
10
44.8056
20
-160.858
11
45.6184
21
-160.858
0
LINE
8
BLACK
10
44.8056
20
-160.604
11
45.6184
21
-160.604
0
ARC
8
BLACK
10
45.6184
20
-160.731
40
0.127
50
270
51
450
0
ARC
8
BLACK
10
44.8056
20
-160.731
40
0.127
50
90
51
270
0
LINE
8
BLACK
10
45.7082
20
-160.821
11
50.331
21
-156.198
0
LINE
8
BLACK
10
45.5286
20
-160.641
11
50.1514
21
-156.019
0
ARC
8
BLACK
10
50.2412
20
-156.108
40
0.127
50
315
51
495
0
ARC
8
BLACK
10
45.6184
20
-160.731
40
0.127
50
135
51
315
0
LINE
8
BLACK
10
50.2412
20
-156.235
11
51.7144
21
-156.235
0
LINE
8
BLACK
10
50.2412
20
-155.981
11
51.7144
21
-155.981
0
ARC
8
BLACK
10
51.7144
20
-156.108
40
0.127
50
270
51
450
0
ARC
8
BLACK
10
50.2412
20
-156.108
40
0.127
50
90
51
270
0
LINE
8
BLACK
10
51.7144
20
-156.235
11
51.9176
21
-156.235
0
LINE
8
BLACK
10
51.7144
20
-155.981
11
51.9176
21
-155.981
0
ARC
8
BLACK
10
51.9176
20
-156.108
40
0.127
50
270
51
450
0
ARC
8
BLACK
10
51.7144
20
-156.108
40
0.127
50
90
51
270
0
LINE
8
BLACK
10
51.9176
20
-156.235
11
52.0192
21
-156.235
0
LINE
8
BLACK
10
51.9176
20
-155.981
11
52.0192
21
-155.981
0
ARC
8
BLACK
10
52.0192
20
-156.108
40
0.127
50
270
51
450
0
ARC
8
BLACK
10
51.9176
20
-156.108
40
0.127
50
90
51
270
0
LINE
8
BLACK
10
52.109
20
-156.198
11
70.143
21
-138.164
0
LINE
8
BLACK
10
51.9294
20
-156.019
11
69.9634
21
-137.985
0
ARC
8
BLACK
10
70.0532
20
-138.074
40
0.127
50
315
51
495
0
ARC
8
BLACK
10
52.0192
20
-156.108
40
0.127
50
135
51
315
0
LINE
8
BLACK
10
40.132
20
-160.858
11
44.8056
21
-160.858
0
LINE
8
BLACK
10
40.132
20
-160.604
11
44.8056
21
-160.604
0
ARC
8
BLACK
10
44.8056
20
-160.731
40
0.127
50
270
51
450
0
ARC
8
BLACK
10
40.132
20
-160.731
40
0.127
50
90
51
270
0
LINE
8
BLACK
10
99.9626
20
-107.149
11
99.8102
21
-106.997
0
LINE
8
BLACK
10
99.783
20
-107.329
11
99.6306
21
-107.176
0
ARC
8
BLACK
10
99.7204
20
-107.086
40
0.127
50
405
51
585
0
ARC
8
BLACK
10
99.8728
20
-107.239
40
0.127
50
225
51
405
0
LINE
8
BLACK
10
99.8728
20
-107.366
11
103.175
21
-107.366
0
LINE
8
BLACK
10
99.8728
20
-107.112
11
103.175
21
-107.112
0
ARC
8
BLACK
10
103.175
20
-107.239
40
0.127
50
270
51
450
0
ARC
8
BLACK
10
99.8728
20
-107.239
40
0.127
50
90
51
270
0
LINE
8
BLACK
10
105.043
20
-108.927
11
103.265
21
-107.149
0
LINE
8
BLACK
10
104.863
20
-109.107
11
103.085
21
-107.329
0
ARC
8
BLACK
10
103.175
20
-107.239
40
0.127
50
405
51
585
0
ARC
8
BLACK
10
104.953
20
-109.017
40
0.127
50
225
51
405
0
LINE
8
BLACK
10
105.08
20
-131.521
11
105.08
21
-109.017
0
LINE
8
BLACK
10
104.826
20
-131.521
11
104.826
21
-109.017
0
ARC
8
BLACK
10
104.953
20
-109.017
40
0.127
50
360
51
540
0
ARC
8
BLACK
10
104.953
20
-131.521
40
0.127
50
180
51
360
0
LINE
8
BLACK
10
99.5562
20
-137.097
11
105.043
21
-131.611
0
LINE
8
BLACK
10
99.3766
20
-136.918
11
104.863
21
-131.431
0
ARC
8
BLACK
10
104.953
20
-131.521
40
0.127
50
315
51
495
0
ARC
8
BLACK
10
99.4664
20
-137.008
40
0.127
50
135
51
315
0
LINE
8
BLACK
10
71.12
20
-137.135
11
99.4664
21
-137.135
0
LINE
8
BLACK
10
71.12
20
-136.881
11
99.4664
21
-136.881
0
ARC
8
BLACK
10
99.4664
20
-137.008
40
0.127
50
270
51
450
0
ARC
8
BLACK
10
71.12
20
-137.008
40
0.127
50
90
51
270
0
LINE
8
BLACK
10
99.3648
20
-111.633
11
101.651
21
-111.633
0
LINE
8
BLACK
10
99.3648
20
-111.379
11
101.651
21
-111.379
0
ARC
8
BLACK
10
101.651
20
-111.506
40
0.127
50
270
51
450
0
ARC
8
BLACK
10
99.3648
20
-111.506
40
0.127
50
90
51
270
0
LINE
8
BLACK
10
99.4546
20
-111.416
11
97.2702
21
-109.232
0
LINE
8
BLACK
10
99.275
20
-111.596
11
97.0906
21
-109.411
0
ARC
8
BLACK
10
97.1804
20
-109.322
40
0.127
50
405
51
585
0
ARC
8
BLACK
10
99.3648
20
-111.506
40
0.127
50
225
51
405
0
LINE
8
BLACK
10
97.3074
20
-109.322
11
97.3074
21
-107.086
0
LINE
8
BLACK
10
97.0534
20
-109.322
11
97.0534
21
-107.086
0
ARC
8
BLACK
10
97.1804
20
-107.086
40
0.127
50
360
51
540
0
ARC
8
BLACK
10
97.1804
20
-109.322
40
0.127
50
180
51
360
0
LINE
8
BLACK
10
101.561
20
-111.647
11
103.288
21
-113.374
0
LINE
8
BLACK
10
101.741
20
-111.467
11
103.468
21
-113.194
0
ARC
8
BLACK
10
103.378
20
-113.284
40
0.127
50
225
51
405
0
ARC
8
BLACK
10
101.651
20
-111.557
40
0.127
50
45
51
225
0
LINE
8
BLACK
10
101.778
20
-111.557
11
101.778
21
-111.506
0
LINE
8
BLACK
10
101.524
20
-111.557
11
101.524
21
-111.506
0
ARC
8
BLACK
10
101.651
20
-111.506
40
0.127
50
360
51
540
0
ARC
8
BLACK
10
101.651
20
-111.557
40
0.127
50
180
51
360
0
LINE
8
BLACK
10
103.505
20
-130.556
11
103.505
21
-113.284
0
LINE
8
BLACK
10
103.251
20
-130.556
11
103.251
21
-113.284
0
ARC
8
BLACK
10
103.378
20
-113.284
40
0.127
50
360
51
540
0
ARC
8
BLACK
10
103.378
20
-130.556
40
0.127
50
180
51
360
0
LINE
8
BLACK
10
98.8958
20
-135.218
11
103.468
21
-130.646
0
LINE
8
BLACK
10
98.7162
20
-135.038
11
103.288
21
-130.466
0
ARC
8
BLACK
10
103.378
20
-130.556
40
0.127
50
315
51
495
0
ARC
8
BLACK
10
98.806
20
-135.128
40
0.127
50
135
51
315
0
LINE
8
BLACK
10
71.0184
20
-135.255
11
98.806
21
-135.255
0
LINE
8
BLACK
10
71.0184
20
-135.001
11
98.806
21
-135.001
0
ARC
8
BLACK
10
98.806
20
-135.128
40
0.127
50
270
51
450
0
ARC
8
BLACK
10
71.0184
20
-135.128
40
0.127
50
90
51
270
0
LINE
8
BLACK
10
52.5154
20
-153.811
11
71.1082
21
-135.218
0
LINE
8
BLACK
10
52.3358
20
-153.631
11
70.9286
21
-135.038
0
ARC
8
BLACK
10
71.0184
20
-135.128
40
0.127
50
315
51
495
0
ARC
8
BLACK
10
52.4256
20
-153.721
40
0.127
50
135
51
315
0
LINE
8
BLACK
10
52.5526
20
-154.28
11
52.5526
21
-153.721
0
LINE
8
BLACK
10
52.2986
20
-154.28
11
52.2986
21
-153.721
0
ARC
8
BLACK
10
52.4256
20
-153.721
40
0.127
50
360
51
540
0
ARC
8
BLACK
10
52.4256
20
-154.28
40
0.127
50
180
51
360
0
LINE
8
BLACK
10
52.4646
20
-154.42
11
52.5154
21
-154.369
0
LINE
8
BLACK
10
52.285
20
-154.241
11
52.3358
21
-154.19
0
ARC
8
BLACK
10
52.4256
20
-154.28
40
0.127
50
315
51
495
0
ARC
8
BLACK
10
52.3748
20
-154.33
40
0.127
50
135
51
315
0
LINE
8
BLACK
10
50.1904
20
-154.457
11
52.3748
21
-154.457
0
LINE
8
BLACK
10
50.1904
20
-154.203
11
52.3748
21
-154.203
0
ARC
8
BLACK
10
52.3748
20
-154.33
40
0.127
50
270
51
450
0
ARC
8
BLACK
10
50.1904
20
-154.33
40
0.127
50
90
51
270
0
LINE
8
BLACK
10
46.6734
20
-158.027
11
50.2802
21
-154.42
0
LINE
8
BLACK
10
46.4938
20
-157.847
11
50.1006
21
-154.241
0
ARC
8
BLACK
10
50.1904
20
-154.33
40
0.127
50
315
51
495
0
ARC
8
BLACK
10
46.5836
20
-157.937
40
0.127
50
135
51
315
0
LINE
8
BLACK
10
45.7708
20
-158.064
11
46.5836
21
-158.064
0
LINE
8
BLACK
10
45.7708
20
-157.81
11
46.5836
21
-157.81
0
ARC
8
BLACK
10
46.5836
20
-157.937
40
0.127
50
270
51
450
0
ARC
8
BLACK
10
45.7708
20
-157.937
40
0.127
50
90
51
270
0
LINE
8
BLACK
10
40.132
20
-158.064
11
45.7708
21
-158.064
0
LINE
8
BLACK
10
40.132
20
-157.81
11
45.7708
21
-157.81
0
ARC
8
BLACK
10
45.7708
20
-157.937
40
0.127
50
270
51
450
0
ARC
8
BLACK
10
40.132
20
-157.937
40
0.127
50
90
51
270
0
LINE
8
BLACK
10
47.9434
20
-155.081
11
51.6518
21
-151.372
0
LINE
8
BLACK
10
47.7638
20
-154.901
11
51.4722
21
-151.193
0
ARC
8
BLACK
10
51.562
20
-151.282
40
0.127
50
315
51
495
0
ARC
8
BLACK
10
47.8536
20
-154.991
40
0.127
50
135
51
315
0
LINE
8
BLACK
10
40.2218
20
-155.233
11
40.3742
21
-155.081
0
LINE
8
BLACK
10
40.0422
20
-155.053
11
40.1946
21
-154.901
0
ARC
8
BLACK
10
40.2844
20
-154.991
40
0.127
50
315
51
495
0
ARC
8
BLACK
10
40.132
20
-155.143
40
0.127
50
135
51
315
0
LINE
8
BLACK
10
40.2844
20
-155.118
11
47.8536
21
-155.118
0
LINE
8
BLACK
10
40.2844
20
-154.864
11
47.8536
21
-154.864
0
ARC
8
BLACK
10
47.8536
20
-154.991
40
0.127
50
270
51
450
0
ARC
8
BLACK
10
40.2844
20
-154.991
40
0.127
50
90
51
270
0
LINE
8
BLACK
10
97.9304
20
-127.051
11
97.9304
21
-114.706
0
LINE
8
BLACK
10
96.4304
20
-127.051
11
96.4304
21
-114.706
0
ARC
8
BLACK
10
97.1804
20
-114.706
40
0.75
50
360
51
540
0
ARC
8
BLACK
10
97.1804
20
-127.051
40
0.75
50
180
51
360
0
LINE
8
BLACK
10
50.4054
20
-103.491
11
48.7798
21
-105.117
0
LINE
8
BLACK
10
50.585
20
-103.671
11
48.9594
21
-105.297
0
ARC
8
BLACK
10
48.8696
20
-105.207
40
0.127
50
135
51
315
0
ARC
8
BLACK
10
50.4952
20
-103.581
40
0.127
50
-45
51
135
0
LINE
8
BLACK
10
50.6222
20
-103.581
11
50.6222
21
-102.921
0
LINE
8
BLACK
10
50.3682
20
-103.581
11
50.3682
21
-102.921
0
ARC
8
BLACK
10
50.4952
20
-102.921
40
0.127
50
360
51
540
0
ARC
8
BLACK
10
50.4952
20
-103.581
40
0.127
50
180
51
360
0
LINE
8
BLACK
10
49.745
20
-102.35
11
50.4054
21
-103.011
0
LINE
8
BLACK
10
49.9246
20
-102.171
11
50.585
21
-102.831
0
ARC
8
BLACK
10
50.4952
20
-102.921
40
0.127
50
225
51
405
0
ARC
8
BLACK
10
49.8348
20
-102.26
40
0.127
50
45
51
225
0
LINE
8
BLACK
10
49.022
20
-102.387
11
49.8348
21
-102.387
0
LINE
8
BLACK
10
49.022
20
-102.133
11
49.8348
21
-102.133
0
ARC
8
BLACK
10
49.8348
20
-102.26
40
0.127
50
270
51
450
0
ARC
8
BLACK
10
49.022
20
-102.26
40
0.127
50
90
51
270
0
LINE
8
BLACK
10
48.553
20
-102.909
11
49.1118
21
-102.35
0
LINE
8
BLACK
10
48.3734
20
-102.729
11
48.9322
21
-102.171
0
ARC
8
BLACK
10
49.022
20
-102.26
40
0.127
50
315
51
495
0
ARC
8
BLACK
10
48.4632
20
-102.819
40
0.127
50
135
51
315
0
LINE
8
BLACK
10
48.9966
20
-147.117
11
48.9966
21
-105.207
0
LINE
8
BLACK
10
48.7426
20
-147.117
11
48.7426
21
-105.207
0
ARC
8
BLACK
10
48.8696
20
-105.207
40
0.127
50
360
51
540
0
ARC
8
BLACK
10
48.8696
20
-147.117
40
0.127
50
180
51
360
0
LINE
8
BLACK
10
48.7798
20
-147.027
11
43.5474
21
-152.259
0
LINE
8
BLACK
10
48.9594
20
-147.207
11
43.727
21
-152.439
0
ARC
8
BLACK
10
43.6372
20
-152.349
40
0.127
50
135
51
315
0
ARC
8
BLACK
10
48.8696
20
-147.117
40
0.127
50
-45
51
135
0
LINE
8
BLACK
10
40.132
20
-152.476
11
43.6372
21
-152.476
0
LINE
8
BLACK
10
40.132
20
-152.222
11
43.6372
21
-152.222
0
ARC
8
BLACK
10
43.6372
20
-152.349
40
0.127
50
270
51
450
0
ARC
8
BLACK
10
40.132
20
-152.349
40
0.127
50
90
51
270
0
LINE
8
BLACK
10
41.5798
20
-107.544
11
41.5798
21
-105.766
0
LINE
8
BLACK
10
41.3258
20
-107.544
11
41.3258
21
-105.766
0
ARC
8
BLACK
10
41.4528
20
-105.766
40
0.127
50
360
51
540
0
ARC
8
BLACK
10
41.4528
20
-107.544
40
0.127
50
180
51
360
0
LINE
8
BLACK
10
42.1758
20
-104.863
11
41.363
21
-105.676
0
LINE
8
BLACK
10
42.3554
20
-105.043
11
41.5426
21
-105.855
0
ARC
8
BLACK
10
41.4528
20
-105.766
40
0.127
50
135
51
315
0
ARC
8
BLACK
10
42.2656
20
-104.953
40
0.127
50
-45
51
135
0
LINE
8
BLACK
10
40.132
20
-149.809
11
42.4434
21
-149.809
0
LINE
8
BLACK
10
40.132
20
-149.555
11
42.4434
21
-149.555
0
ARC
8
BLACK
10
42.4434
20
-149.682
40
0.127
50
270
51
450
0
ARC
8
BLACK
10
40.132
20
-149.682
40
0.127
50
90
51
270
0
LINE
8
BLACK
10
47.029
20
-112.94
11
41.5426
21
-107.454
0
LINE
8
BLACK
10
46.8494
20
-113.12
11
41.363
21
-107.633
0
ARC
8
BLACK
10
41.4528
20
-107.544
40
0.127
50
405
51
585
0
ARC
8
BLACK
10
46.9392
20
-113.03
40
0.127
50
225
51
405
0
LINE
8
BLACK
10
47.0662
20
-145.186
11
47.0662
21
-113.03
0
LINE
8
BLACK
10
46.8122
20
-145.186
11
46.8122
21
-113.03
0
ARC
8
BLACK
10
46.9392
20
-113.03
40
0.127
50
360
51
540
0
ARC
8
BLACK
10
46.9392
20
-145.186
40
0.127
50
180
51
360
0
LINE
8
BLACK
10
42.5332
20
-149.772
11
47.029
21
-145.276
0
LINE
8
BLACK
10
42.3536
20
-149.592
11
46.8494
21
-145.097
0
ARC
8
BLACK
10
46.9392
20
-145.186
40
0.127
50
315
51
495
0
ARC
8
BLACK
10
42.4434
20
-149.682
40
0.127
50
135
51
315
0
LINE
8
BLACK
10
34.6964
20
-170.764
11
34.6964
21
-170.713
0
LINE
8
BLACK
10
34.4424
20
-170.764
11
34.4424
21
-170.713
0
ARC
8
BLACK
10
34.5694
20
-170.713
40
0.127
50
360
51
540
0
ARC
8
BLACK
10
34.5694
20
-170.764
40
0.127
50
180
51
360
0
LINE
8
BLACK
10
35.3958
20
-171.411
11
34.6592
21
-170.674
0
LINE
8
BLACK
10
35.2162
20
-171.591
11
34.4796
21
-170.854
0
ARC
8
BLACK
10
34.5694
20
-170.764
40
0.127
50
405
51
585
0
ARC
8
BLACK
10
35.306
20
-171.501
40
0.127
50
225
51
405
0
LINE
8
BLACK
10
46.0502
20
-97.1804
11
46.0502
21
-97.1296
0
LINE
8
BLACK
10
45.7962
20
-97.1804
11
45.7962
21
-97.1296
0
ARC
8
BLACK
10
45.9232
20
-97.1296
40
0.127
50
360
51
540
0
ARC
8
BLACK
10
45.9232
20
-97.1804
40
0.127
50
180
51
360
0
LINE
8
BLACK
10
46.4702
20
-97.5478
11
46.013
21
-97.0906
0
LINE
8
BLACK
10
46.2906
20
-97.7274
11
45.8334
21
-97.2702
0
ARC
8
BLACK
10
45.9232
20
-97.1804
40
0.127
50
405
51
585
0
ARC
8
BLACK
10
46.3804
20
-97.6376
40
0.127
50
225
51
405
0
LINE
8
BLACK
10
45.427
20
-96.813
11
45.8334
21
-97.2194
0
LINE
8
BLACK
10
45.6066
20
-96.6334
11
46.013
21
-97.0398
0
ARC
8
BLACK
10
45.9232
20
-97.1296
40
0.127
50
225
51
405
0
ARC
8
BLACK
10
45.5168
20
-96.7232
40
0.127
50
45
51
225
0
LINE
8
BLACK
10
43.0784
20
-96.8502
11
45.5168
21
-96.8502
0
LINE
8
BLACK
10
43.0784
20
-96.5962
11
45.5168
21
-96.5962
0
ARC
8
BLACK
10
45.5168
20
-96.7232
40
0.127
50
270
51
450
0
ARC
8
BLACK
10
43.0784
20
-96.7232
40
0.127
50
90
51
270
0
LINE
8
BLACK
10
34.2274
20
-105.754
11
43.1682
21
-96.813
0
LINE
8
BLACK
10
34.0478
20
-105.574
11
42.9886
21
-96.6334
0
ARC
8
BLACK
10
43.0784
20
-96.7232
40
0.127
50
315
51
495
0
ARC
8
BLACK
10
34.1376
20
-105.664
40
0.127
50
135
51
315
0
LINE
8
BLACK
10
34.2646
20
-131.877
11
34.2646
21
-105.664
0
LINE
8
BLACK
10
34.0106
20
-131.877
11
34.0106
21
-105.664
0
ARC
8
BLACK
10
34.1376
20
-105.664
40
0.127
50
360
51
540
0
ARC
8
BLACK
10
34.1376
20
-131.877
40
0.127
50
180
51
360
0
LINE
8
BLACK
10
33.821
20
-132.373
11
34.2274
21
-131.967
0
LINE
8
BLACK
10
33.6414
20
-132.193
11
34.0478
21
-131.787
0
ARC
8
BLACK
10
34.1376
20
-131.877
40
0.127
50
315
51
495
0
ARC
8
BLACK
10
33.7312
20
-132.283
40
0.127
50
135
51
315
0
LINE
8
BLACK
10
33.8582
20
-169.875
11
33.8582
21
-132.283
0
LINE
8
BLACK
10
33.6042
20
-169.875
11
33.6042
21
-132.283
0
ARC
8
BLACK
10
33.7312
20
-132.283
40
0.127
50
360
51
540
0
ARC
8
BLACK
10
33.7312
20
-169.875
40
0.127
50
180
51
360
0
LINE
8
BLACK
10
34.6592
20
-170.624
11
33.821
21
-169.785
0
LINE
8
BLACK
10
34.4796
20
-170.803
11
33.6414
21
-169.965
0
ARC
8
BLACK
10
33.7312
20
-169.875
40
0.127
50
405
51
585
0
ARC
8
BLACK
10
34.5694
20
-170.713
40
0.127
50
225
51
405
0
LINE
8
BLACK
10
59.2836
20
-168.072
11
63.246
21
-168.072
0
LINE
8
BLACK
10
59.2836
20
-167.818
11
63.246
21
-167.818
0
ARC
8
BLACK
10
63.246
20
-167.945
40
0.127
50
270
51
450
0
ARC
8
BLACK
10
59.2836
20
-167.945
40
0.127
50
90
51
270
0
LINE
8
BLACK
10
63.246
20
-168.072
11
67.3608
21
-168.072
0
LINE
8
BLACK
10
63.246
20
-167.818
11
67.3608
21
-167.818
0
ARC
8
BLACK
10
67.3608
20
-167.945
40
0.127
50
270
51
450
0
ARC
8
BLACK
10
63.246
20
-167.945
40
0.127
50
90
51
270
0
LINE
8
BLACK
10
71.0946
20
-166.167
11
71.0946
21
-147.726
0
LINE
8
BLACK
10
70.8406
20
-166.167
11
70.8406
21
-147.726
0
ARC
8
BLACK
10
70.9676
20
-147.726
40
0.127
50
360
51
540
0
ARC
8
BLACK
10
70.9676
20
-166.167
40
0.127
50
180
51
360
0
LINE
8
BLACK
10
99.8982
20
-147.828
11
99.8982
21
-146.406
0
LINE
8
BLACK
10
99.6442
20
-147.828
11
99.6442
21
-146.406
0
ARC
8
BLACK
10
99.7712
20
-146.406
40
0.127
50
360
51
540
0
ARC
8
BLACK
10
99.7712
20
-147.828
40
0.127
50
180
51
360
0
LINE
8
BLACK
10
73.875
20
-144.639
11
70.8778
21
-147.637
0
LINE
8
BLACK
10
74.0546
20
-144.819
11
71.0574
21
-147.816
0
ARC
8
BLACK
10
70.9676
20
-147.726
40
0.127
50
135
51
315
0
ARC
8
BLACK
10
73.9648
20
-144.729
40
0.127
50
-45
51
135
0
LINE
8
BLACK
10
73.9648
20
-144.856
11
98.0948
21
-144.856
0
LINE
8
BLACK
10
73.9648
20
-144.602
11
98.0948
21
-144.602
0
ARC
8
BLACK
10
98.0948
20
-144.729
40
0.127
50
270
51
450
0
ARC
8
BLACK
10
73.9648
20
-144.729
40
0.127
50
90
51
270
0
LINE
8
BLACK
10
99.861
20
-146.316
11
98.1846
21
-144.639
0
LINE
8
BLACK
10
99.6814
20
-146.495
11
98.005
21
-144.819
0
ARC
8
BLACK
10
98.0948
20
-144.729
40
0.127
50
405
51
585
0
ARC
8
BLACK
10
99.7712
20
-146.406
40
0.127
50
225
51
405
0
LINE
8
BLACK
10
97.9812
20
-159.664
11
97.9812
21
-147.828
0
LINE
8
BLACK
10
96.4812
20
-159.664
11
96.4812
21
-147.828
0
ARC
8
BLACK
10
97.2312
20
-147.828
40
0.75
50
360
51
540
0
ARC
8
BLACK
10
97.2312
20
-159.664
40
0.75
50
180
51
360
0
LINE
8
BLACK
10
109.259
20
-120.65
11
109.259
21
-119.786
0
LINE
8
BLACK
10
107.759
20
-120.65
11
107.759
21
-119.786
0
ARC
8
BLACK
10
108.509
20
-119.786
40
0.75
50
360
51
540
0
ARC
8
BLACK
10
108.509
20
-120.65
40
0.75
50
180
51
360
0
LINE
8
BLACK
10
109.259
20
-119.786
11
109.259
21
-103.124
0
LINE
8
BLACK
10
107.759
20
-119.786
11
107.759
21
-103.124
0
ARC
8
BLACK
10
108.509
20
-103.124
40
0.75
50
360
51
540
0
ARC
8
BLACK
10
108.509
20
-119.786
40
0.75
50
180
51
360
0
LINE
8
BLACK
10
109.259
20
-120.599
11
109.259
21
-119.786
0
LINE
8
BLACK
10
107.759
20
-120.599
11
107.759
21
-119.786
0
ARC
8
BLACK
10
108.509
20
-119.786
40
0.75
50
360
51
540
0
ARC
8
BLACK
10
108.509
20
-120.599
40
0.75
50
180
51
360
0
LINE
8
BLACK
10
71.5264
20
-114.833
11
76.8604
21
-114.833
0
LINE
8
BLACK
10
71.5264
20
-114.579
11
76.8604
21
-114.579
0
ARC
8
BLACK
10
76.8604
20
-114.706
40
0.127
50
270
51
450
0
ARC
8
BLACK
10
71.5264
20
-114.706
40
0.127
50
90
51
270
0
LINE
8
BLACK
10
67.7164
20
-114.833
11
71.5264
21
-114.833
0
LINE
8
BLACK
10
67.7164
20
-114.579
11
71.5264
21
-114.579
0
ARC
8
BLACK
10
71.5264
20
-114.706
40
0.127
50
270
51
450
0
ARC
8
BLACK
10
67.7164
20
-114.706
40
0.127
50
90
51
270
0
LINE
8
BLACK
10
67.8062
20
-114.617
11
67.7554
21
-114.566
0
LINE
8
BLACK
10
67.6266
20
-114.796
11
67.5758
21
-114.745
0
ARC
8
BLACK
10
67.6656
20
-114.656
40
0.127
50
405
51
585
0
ARC
8
BLACK
10
67.7164
20
-114.706
40
0.127
50
225
51
405
0
LINE
8
BLACK
10
99.8982
20
-142.443
11
99.8982
21
-140.208
0
LINE
8
BLACK
10
99.6442
20
-142.443
11
99.6442
21
-140.208
0
ARC
8
BLACK
10
99.7712
20
-140.208
40
0.127
50
360
51
540
0
ARC
8
BLACK
10
99.7712
20
-142.443
40
0.127
50
180
51
360
0
LINE
8
BLACK
10
40.132
20
-177.368
11
66.04
21
-177.368
0
LINE
8
BLACK
10
40.132
20
-177.114
11
66.04
21
-177.114
0
ARC
8
BLACK
10
66.04
20
-177.241
40
0.127
50
270
51
450
0
ARC
8
BLACK
10
40.132
20
-177.241
40
0.127
50
90
51
270
0
LINE
8
BLACK
10
69.9634
20
-173.138
11
65.9502
21
-177.151
0
LINE
8
BLACK
10
70.143
20
-173.318
11
66.1298
21
-177.331
0
ARC
8
BLACK
10
66.04
20
-177.241
40
0.127
50
135
51
315
0
ARC
8
BLACK
10
70.0532
20
-173.228
40
0.127
50
-45
51
135
0
LINE
8
BLACK
10
70.1802
20
-173.228
11
70.1802
21
-147.422
0
LINE
8
BLACK
10
69.9262
20
-173.228
11
69.9262
21
-147.422
0
ARC
8
BLACK
10
70.0532
20
-147.422
40
0.127
50
360
51
540
0
ARC
8
BLACK
10
70.0532
20
-173.228
40
0.127
50
180
51
360
0
LINE
8
BLACK
10
73.4686
20
-143.827
11
69.9634
21
-147.332
0
LINE
8
BLACK
10
73.6482
20
-144.006
11
70.143
21
-147.511
0
ARC
8
BLACK
10
70.0532
20
-147.422
40
0.127
50
135
51
315
0
ARC
8
BLACK
10
73.5584
20
-143.916
40
0.127
50
-45
51
135
0
LINE
8
BLACK
10
73.5584
20
-144.043
11
98.298
21
-144.043
0
LINE
8
BLACK
10
73.5584
20
-143.789
11
98.298
21
-143.789
0
ARC
8
BLACK
10
98.298
20
-143.916
40
0.127
50
270
51
450
0
ARC
8
BLACK
10
73.5584
20
-143.916
40
0.127
50
90
51
270
0
LINE
8
BLACK
10
99.6814
20
-142.353
11
98.2082
21
-143.827
0
LINE
8
BLACK
10
99.861
20
-142.533
11
98.3878
21
-144.006
0
ARC
8
BLACK
10
98.298
20
-143.916
40
0.127
50
135
51
315
0
ARC
8
BLACK
10
99.7712
20
-142.443
40
0.127
50
-45
51
135
0
LINE
8
BLACK
10
37.6818
20
-170.243
11
37.2246
21
-169.785
0
LINE
8
BLACK
10
37.5022
20
-170.422
11
37.045
21
-169.965
0
ARC
8
BLACK
10
37.1348
20
-169.875
40
0.127
50
405
51
585
0
ARC
8
BLACK
10
37.592
20
-170.332
40
0.127
50
225
51
405
0
LINE
8
BLACK
10
55.3212
20
-66.675
11
55.3212
21
-60.1218
0
LINE
8
BLACK
10
55.0672
20
-66.675
11
55.0672
21
-60.1218
0
ARC
8
BLACK
10
55.1942
20
-60.1218
40
0.127
50
360
51
540
0
ARC
8
BLACK
10
55.1942
20
-66.675
40
0.127
50
180
51
360
0
LINE
8
BLACK
10
54.1138
20
-59.221
11
55.1044
21
-60.2116
0
LINE
8
BLACK
10
54.2934
20
-59.0414
11
55.284
21
-60.032
0
ARC
8
BLACK
10
55.1942
20
-60.1218
40
0.127
50
225
51
405
0
ARC
8
BLACK
10
54.2036
20
-59.1312
40
0.127
50
45
51
225
0
LINE
8
BLACK
10
81.9268
20
-90.4376
11
81.9522
21
-90.463
0
LINE
8
BLACK
10
82.1064
20
-90.258
11
82.1318
21
-90.2834
0
ARC
8
BLACK
10
82.042
20
-90.3732
40
0.127
50
225
51
405
0
ARC
8
BLACK
10
82.0166
20
-90.3478
40
0.127
50
45
51
225
0
LINE
8
BLACK
10
60.4402
20
-71.7414
11
55.284
21
-66.5852
0
LINE
8
BLACK
10
60.2606
20
-71.921
11
55.1044
21
-66.7648
0
ARC
8
BLACK
10
55.1942
20
-66.675
40
0.127
50
405
51
585
0
ARC
8
BLACK
10
60.3504
20
-71.8312
40
0.127
50
225
51
405
0
LINE
8
BLACK
10
60.4774
20
-71.882
11
60.4774
21
-71.8312
0
LINE
8
BLACK
10
60.2234
20
-71.882
11
60.2234
21
-71.8312
0
ARC
8
BLACK
10
60.3504
20
-71.8312
40
0.127
50
360
51
540
0
ARC
8
BLACK
10
60.3504
20
-71.882
40
0.127
50
180
51
360
0
LINE
8
BLACK
10
60.4774
20
-78.8416
11
60.4774
21
-71.882
0
LINE
8
BLACK
10
60.2234
20
-78.8416
11
60.2234
21
-71.882
0
ARC
8
BLACK
10
60.3504
20
-71.882
40
0.127
50
360
51
540
0
ARC
8
BLACK
10
60.3504
20
-78.8416
40
0.127
50
180
51
360
0
LINE
8
BLACK
10
75.1214
20
-93.433
11
60.4402
21
-78.7518
0
LINE
8
BLACK
10
74.9418
20
-93.6126
11
60.2606
21
-78.9314
0
ARC
8
BLACK
10
60.3504
20
-78.8416
40
0.127
50
405
51
585
0
ARC
8
BLACK
10
75.0316
20
-93.5228
40
0.127
50
225
51
405
0
LINE
8
BLACK
10
75.0316
20
-93.6498
11
81.1784
21
-93.6498
0
LINE
8
BLACK
10
75.0316
20
-93.3958
11
81.1784
21
-93.3958
0
ARC
8
BLACK
10
81.1784
20
-93.5228
40
0.127
50
270
51
450
0
ARC
8
BLACK
10
75.0316
20
-93.5228
40
0.127
50
90
51
270
0
LINE
8
BLACK
10
81.9522
20
-92.5694
11
81.0886
21
-93.433
0
LINE
8
BLACK
10
82.1318
20
-92.749
11
81.2682
21
-93.6126
0
ARC
8
BLACK
10
81.1784
20
-93.5228
40
0.127
50
135
51
315
0
ARC
8
BLACK
10
82.042
20
-92.6592
40
0.127
50
-45
51
135
0
LINE
8
BLACK
10
82.169
20
-92.6592
11
82.169
21
-90.3732
0
LINE
8
BLACK
10
81.915
20
-92.6592
11
81.915
21
-90.3732
0
ARC
8
BLACK
10
82.042
20
-90.3732
40
0.127
50
360
51
540
0
ARC
8
BLACK
10
82.042
20
-92.6592
40
0.127
50
180
51
360
0
LINE
8
BLACK
10
88.3666
20
-57.2008
11
88.3666
21
-56.8452
0
LINE
8
BLACK
10
88.1126
20
-57.2008
11
88.1126
21
-56.8452
0
ARC
8
BLACK
10
88.2396
20
-56.8452
40
0.127
50
360
51
540
0
ARC
8
BLACK
10
88.2396
20
-57.2008
40
0.127
50
180
51
360
0
LINE
8
BLACK
10
90.8422
20
-54.063
11
88.1498
21
-56.7554
0
LINE
8
BLACK
10
91.0218
20
-54.2426
11
88.3294
21
-56.935
0
ARC
8
BLACK
10
88.2396
20
-56.8452
40
0.127
50
135
51
315
0
ARC
8
BLACK
10
90.932
20
-54.1528
40
0.127
50
-45
51
135
0
LINE
8
BLACK
10
86.1178
20
-60.8702
11
82.9174
21
-64.0706
0
LINE
8
BLACK
10
86.2974
20
-61.0498
11
83.097
21
-64.2502
0
ARC
8
BLACK
10
83.0072
20
-64.1604
40
0.127
50
135
51
315
0
ARC
8
BLACK
10
86.2076
20
-60.96
40
0.127
50
-45
51
135
0
LINE
8
BLACK
10
88.1498
20
-57.111
11
86.1178
21
-59.143
0
LINE
8
BLACK
10
88.3294
20
-57.2906
11
86.2974
21
-59.3226
0
ARC
8
BLACK
10
86.2076
20
-59.2328
40
0.127
50
135
51
315
0
ARC
8
BLACK
10
88.2396
20
-57.2008
40
0.127
50
-45
51
135
0
LINE
8
BLACK
10
86.3346
20
-60.96
11
86.3346
21
-59.2328
0
LINE
8
BLACK
10
86.0806
20
-60.96
11
86.0806
21
-59.2328
0
ARC
8
BLACK
10
86.2076
20
-59.2328
40
0.127
50
360
51
540
0
ARC
8
BLACK
10
86.2076
20
-60.96
40
0.127
50
180
51
360
0
LINE
8
BLACK
10
97.3582
20
-141.986
11
97.3582
21
-140.208
0
LINE
8
BLACK
10
97.1042
20
-141.986
11
97.1042
21
-140.208
0
ARC
8
BLACK
10
97.2312
20
-140.208
40
0.127
50
360
51
540
0
ARC
8
BLACK
10
97.2312
20
-141.986
40
0.127
50
180
51
360
0
LINE
8
BLACK
10
40.132
20
-174.574
11
67.7164
21
-174.574
0
LINE
8
BLACK
10
40.132
20
-174.32
11
67.7164
21
-174.32
0
ARC
8
BLACK
10
67.7164
20
-174.447
40
0.127
50
270
51
450
0
ARC
8
BLACK
10
40.132
20
-174.447
40
0.127
50
90
51
270
0
LINE
8
BLACK
10
69.1506
20
-172.833
11
67.6266
21
-174.357
0
LINE
8
BLACK
10
69.3302
20
-173.013
11
67.8062
21
-174.537
0
ARC
8
BLACK
10
67.7164
20
-174.447
40
0.127
50
135
51
315
0
ARC
8
BLACK
10
69.2404
20
-172.923
40
0.127
50
-45
51
135
0
LINE
8
BLACK
10
69.3674
20
-172.923
11
69.3674
21
-147.117
0
LINE
8
BLACK
10
69.1134
20
-172.923
11
69.1134
21
-147.117
0
ARC
8
BLACK
10
69.2404
20
-147.117
40
0.127
50
360
51
540
0
ARC
8
BLACK
10
69.2404
20
-172.923
40
0.127
50
180
51
360
0
LINE
8
BLACK
10
73.1638
20
-143.014
11
69.1506
21
-147.027
0
LINE
8
BLACK
10
73.3434
20
-143.193
11
69.3302
21
-147.207
0
ARC
8
BLACK
10
69.2404
20
-147.117
40
0.127
50
135
51
315
0
ARC
8
BLACK
10
73.2536
20
-143.104
40
0.127
50
-45
51
135
0
LINE
8
BLACK
10
73.2536
20
-143.231
11
96.1136
21
-143.231
0
LINE
8
BLACK
10
73.2536
20
-142.977
11
96.1136
21
-142.977
0
ARC
8
BLACK
10
96.1136
20
-143.104
40
0.127
50
270
51
450
0
ARC
8
BLACK
10
73.2536
20
-143.104
40
0.127
50
90
51
270
0
LINE
8
BLACK
10
97.1414
20
-141.896
11
96.0238
21
-143.014
0
LINE
8
BLACK
10
97.321
20
-142.076
11
96.2034
21
-143.193
0
ARC
8
BLACK
10
96.1136
20
-143.104
40
0.127
50
135
51
315
0
ARC
8
BLACK
10
97.2312
20
-141.986
40
0.127
50
-45
51
135
0
LINE
8
BLACK
10
37.719
20
-48.8696
11
37.719
21
-48.3616
0
LINE
8
BLACK
10
37.465
20
-48.8696
11
37.465
21
-48.3616
0
ARC
8
BLACK
10
37.592
20
-48.3616
40
0.127
50
360
51
540
0
ARC
8
BLACK
10
37.592
20
-48.8696
40
0.127
50
180
51
360
0
LINE
8
BLACK
10
37.4514
20
-48.4006
11
37.5022
21
-48.4514
0
LINE
8
BLACK
10
37.631
20
-48.221
11
37.6818
21
-48.2718
0
ARC
8
BLACK
10
37.592
20
-48.3616
40
0.127
50
225
51
405
0
ARC
8
BLACK
10
37.5412
20
-48.3108
40
0.127
50
45
51
225
0
LINE
8
BLACK
10
37.719
20
-49.6316
11
37.719
21
-48.8696
0
LINE
8
BLACK
10
37.465
20
-49.6316
11
37.465
21
-48.8696
0
ARC
8
BLACK
10
37.592
20
-48.8696
40
0.127
50
360
51
540
0
ARC
8
BLACK
10
37.592
20
-49.6316
40
0.127
50
180
51
360
0
LINE
8
BLACK
10
76.0984
20
-91.7702
11
78.1812
21
-91.7702
0
LINE
8
BLACK
10
76.0984
20
-91.5162
11
78.1812
21
-91.5162
0
ARC
8
BLACK
10
78.1812
20
-91.6432
40
0.127
50
270
51
450
0
ARC
8
BLACK
10
76.0984
20
-91.6432
40
0.127
50
90
51
270
0
LINE
8
BLACK
10
75.9968
20
-91.7702
11
76.0984
21
-91.7702
0
LINE
8
BLACK
10
75.9968
20
-91.5162
11
76.0984
21
-91.5162
0
ARC
8
BLACK
10
76.0984
20
-91.6432
40
0.127
50
270
51
450
0
ARC
8
BLACK
10
75.9968
20
-91.6432
40
0.127
50
90
51
270
0
LINE
8
BLACK
10
76.0866
20
-91.5534
11
62.5738
21
-78.0406
0
LINE
8
BLACK
10
75.907
20
-91.733
11
62.3942
21
-78.2202
0
ARC
8
BLACK
10
62.484
20
-78.1304
40
0.127
50
405
51
585
0
ARC
8
BLACK
10
75.9968
20
-91.6432
40
0.127
50
225
51
405
0
LINE
8
BLACK
10
62.611
20
-78.1304
11
62.611
21
-65.9384
0
LINE
8
BLACK
10
62.357
20
-78.1304
11
62.357
21
-65.9384
0
ARC
8
BLACK
10
62.484
20
-65.9384
40
0.127
50
360
51
540
0
ARC
8
BLACK
10
62.484
20
-78.1304
40
0.127
50
180
51
360
0
LINE
8
BLACK
10
62.5738
20
-65.8486
11
49.2642
21
-52.539
0
LINE
8
BLACK
10
62.3942
20
-66.0282
11
49.0846
21
-52.7186
0
ARC
8
BLACK
10
49.1744
20
-52.6288
40
0.127
50
405
51
585
0
ARC
8
BLACK
10
62.484
20
-65.9384
40
0.127
50
225
51
405
0
LINE
8
BLACK
10
40.5892
20
-52.7558
11
49.1744
21
-52.7558
0
LINE
8
BLACK
10
40.5892
20
-52.5018
11
49.1744
21
-52.5018
0
ARC
8
BLACK
10
49.1744
20
-52.6288
40
0.127
50
270
51
450
0
ARC
8
BLACK
10
40.5892
20
-52.6288
40
0.127
50
90
51
270
0
LINE
8
BLACK
10
40.679
20
-52.539
11
37.6818
21
-49.5418
0
LINE
8
BLACK
10
40.4994
20
-52.7186
11
37.5022
21
-49.7214
0
ARC
8
BLACK
10
37.592
20
-49.6316
40
0.127
50
405
51
585
0
ARC
8
BLACK
10
40.5892
20
-52.6288
40
0.127
50
225
51
405
0
LINE
8
BLACK
10
78.271
20
-91.733
11
79.5664
21
-90.4376
0
LINE
8
BLACK
10
78.0914
20
-91.5534
11
79.3868
21
-90.258
0
ARC
8
BLACK
10
79.4766
20
-90.3478
40
0.127
50
315
51
495
0
ARC
8
BLACK
10
78.1812
20
-91.6432
40
0.127
50
135
51
315
0
LINE
8
BLACK
10
42.799
20
-48.8188
11
42.799
21
-48.1076
0
LINE
8
BLACK
10
42.545
20
-48.8188
11
42.545
21
-48.1076
0
ARC
8
BLACK
10
42.672
20
-48.1076
40
0.127
50
360
51
540
0
ARC
8
BLACK
10
42.672
20
-48.8188
40
0.127
50
180
51
360
0
LINE
8
BLACK
10
42.5822
20
-48.9086
11
44.4618
21
-50.7882
0
LINE
8
BLACK
10
42.7618
20
-48.729
11
44.6414
21
-50.6086
0
ARC
8
BLACK
10
44.5516
20
-50.6984
40
0.127
50
225
51
405
0
ARC
8
BLACK
10
42.672
20
-48.8188
40
0.127
50
45
51
225
0
LINE
8
BLACK
10
75.5514
20
-79.0342
11
79.388
21
-82.8176
0
LINE
8
BLACK
10
75.7298
20
-78.8534
11
79.5664
21
-82.6368
0
ARC
8
BLACK
10
79.4772
20
-82.7272
40
0.127
50
225.4
51
405.4
0
ARC
8
BLACK
10
75.6406
20
-78.9438
40
0.127
50
45.4
51
225.4
0
LINE
8
BLACK
10
75.7682
20
-78.9432
11
75.7682
21
-76.4032
0
LINE
8
BLACK
10
75.5142
20
-78.9432
11
75.5142
21
-76.4032
0
ARC
8
BLACK
10
75.6412
20
-76.4032
40
0.127
50
360
51
540
0
ARC
8
BLACK
10
75.6412
20
-78.9432
40
0.127
50
180
51
360
0
LINE
8
BLACK
10
50.0371
20
-50.9533
11
75.5641
21
-76.4803
0
LINE
8
BLACK
10
50.2167
20
-50.7737
11
75.7437
21
-76.3007
0
ARC
8
BLACK
10
75.6539
20
-76.3905
40
0.127
50
225
51
405
0
ARC
8
BLACK
10
50.1269
20
-50.8635
40
0.127
50
45
51
225
0
LINE
8
BLACK
10
50.2666
20
-50.8508
11
50.2666
21
-50.6984
0
LINE
8
BLACK
10
50.0126
20
-50.8508
11
50.0126
21
-50.6984
0
ARC
8
BLACK
10
50.1396
20
-50.6984
40
0.127
50
360
51
540
0
ARC
8
BLACK
10
50.1396
20
-50.8508
40
0.127
50
180
51
360
0
LINE
8
BLACK
10
44.5516
20
-50.8254
11
50.1396
21
-50.8254
0
LINE
8
BLACK
10
44.5516
20
-50.5714
11
50.1396
21
-50.5714
0
ARC
8
BLACK
10
50.1396
20
-50.6984
40
0.127
50
270
51
450
0
ARC
8
BLACK
10
44.5516
20
-50.6984
40
0.127
50
90
51
270
0
LINE
8
BLACK
10
63.4238
20
-49.9364
11
63.4238
21
-48.26
0
LINE
8
BLACK
10
63.1698
20
-49.9364
11
63.1698
21
-48.26
0
ARC
8
BLACK
10
63.2968
20
-48.26
40
0.127
50
360
51
540
0
ARC
8
BLACK
10
63.2968
20
-49.9364
40
0.127
50
180
51
360
0
LINE
8
BLACK
10
63.2578
20
-48.1194
11
63.207
21
-48.1702
0
LINE
8
BLACK
10
63.4374
20
-48.299
11
63.3866
21
-48.3498
0
ARC
8
BLACK
10
63.2968
20
-48.26
40
0.127
50
135
51
315
0
ARC
8
BLACK
10
63.3476
20
-48.2092
40
0.127
50
-45
51
135
0
LINE
8
BLACK
10
88.177
20
-71.6906
11
84.9258
21
-68.4394
0
LINE
8
BLACK
10
87.9974
20
-71.8702
11
84.7462
21
-68.619
0
ARC
8
BLACK
10
84.836
20
-68.5292
40
0.127
50
405
51
585
0
ARC
8
BLACK
10
88.0872
20
-71.7804
40
0.127
50
225
51
405
0
LINE
8
BLACK
10
63.4238
20
-50.1396
11
63.4238
21
-49.9364
0
LINE
8
BLACK
10
63.1698
20
-50.1396
11
63.1698
21
-49.9364
0
ARC
8
BLACK
10
63.2968
20
-49.9364
40
0.127
50
360
51
540
0
ARC
8
BLACK
10
63.2968
20
-50.1396
40
0.127
50
180
51
360
0
LINE
8
BLACK
10
77.8764
20
-68.6562
11
84.836
21
-68.6562
0
LINE
8
BLACK
10
77.8764
20
-68.4022
11
84.836
21
-68.4022
0
ARC
8
BLACK
10
84.836
20
-68.5292
40
0.127
50
270
51
450
0
ARC
8
BLACK
10
77.8764
20
-68.5292
40
0.127
50
90
51
270
0
LINE
8
BLACK
10
77.4192
20
-68.6562
11
77.8764
21
-68.6562
0
LINE
8
BLACK
10
77.4192
20
-68.4022
11
77.8764
21
-68.4022
0
ARC
8
BLACK
10
77.8764
20
-68.5292
40
0.127
50
270
51
450
0
ARC
8
BLACK
10
77.4192
20
-68.5292
40
0.127
50
90
51
270
0
LINE
8
BLACK
10
77.509
20
-68.4394
11
73.445
21
-64.3754
0
LINE
8
BLACK
10
77.3294
20
-68.619
11
73.2654
21
-64.555
0
ARC
8
BLACK
10
73.3552
20
-64.4652
40
0.127
50
405
51
585
0
ARC
8
BLACK
10
77.4192
20
-68.5292
40
0.127
50
225
51
405
0
LINE
8
BLACK
10
73.4822
20
-64.4652
11
73.4822
21
-60.198
0
LINE
8
BLACK
10
73.2282
20
-64.4652
11
73.2282
21
-60.198
0
ARC
8
BLACK
10
73.3552
20
-60.198
40
0.127
50
360
51
540
0
ARC
8
BLACK
10
73.3552
20
-64.4652
40
0.127
50
180
51
360
0
LINE
8
BLACK
10
73.445
20
-60.1082
11
63.3866
21
-50.0498
0
LINE
8
BLACK
10
73.2654
20
-60.2878
11
63.207
21
-50.2294
0
ARC
8
BLACK
10
63.2968
20
-50.1396
40
0.127
50
405
51
585
0
ARC
8
BLACK
10
73.3552
20
-60.198
40
0.127
50
225
51
405
0
LINE
8
BLACK
10
78.5876
20
-87.1982
11
86.36
21
-87.1982
0
LINE
8
BLACK
10
78.5876
20
-86.9442
11
86.36
21
-86.9442
0
ARC
8
BLACK
10
86.36
20
-87.0712
40
0.127
50
270
51
450
0
ARC
8
BLACK
10
78.5876
20
-87.0712
40
0.127
50
90
51
270
0
LINE
8
BLACK
10
78.6774
20
-86.9814
11
70.7018
21
-79.0058
0
LINE
8
BLACK
10
78.4978
20
-87.161
11
70.5222
21
-79.1854
0
ARC
8
BLACK
10
70.612
20
-79.0956
40
0.127
50
405
51
585
0
ARC
8
BLACK
10
78.5876
20
-87.0712
40
0.127
50
225
51
405
0
LINE
8
BLACK
10
86.2702
20
-87.161
11
89.5468
21
-90.4376
0
LINE
8
BLACK
10
86.4498
20
-86.9814
11
89.7264
21
-90.258
0
ARC
8
BLACK
10
89.6366
20
-90.3478
40
0.127
50
225
51
405
0
ARC
8
BLACK
10
86.36
20
-87.0712
40
0.127
50
45
51
225
0
LINE
8
BLACK
10
70.739
20
-79.0956
11
70.739
21
-74.5744
0
LINE
8
BLACK
10
70.485
20
-79.0956
11
70.485
21
-74.5744
0
ARC
8
BLACK
10
70.612
20
-74.5744
40
0.127
50
360
51
540
0
ARC
8
BLACK
10
70.612
20
-79.0956
40
0.127
50
180
51
360
0
LINE
8
BLACK
10
70.7018
20
-74.4846
11
68.2126
21
-71.9954
0
LINE
8
BLACK
10
70.5222
20
-74.6642
11
68.033
21
-72.175
0
ARC
8
BLACK
10
68.1228
20
-72.0852
40
0.127
50
405
51
585
0
ARC
8
BLACK
10
70.612
20
-74.5744
40
0.127
50
225
51
405
0
LINE
8
BLACK
10
87.1728
20
-55.3466
11
87.376
21
-55.3466
0
LINE
8
BLACK
10
87.1728
20
-55.0926
11
87.376
21
-55.0926
0
ARC
8
BLACK
10
87.376
20
-55.2196
40
0.127
50
270
51
450
0
ARC
8
BLACK
10
87.1728
20
-55.2196
40
0.127
50
90
51
270
0
LINE
8
BLACK
10
80.557
20
-64.0706
11
79.3886
21
-62.9022
0
LINE
8
BLACK
10
80.3774
20
-64.2502
11
79.209
21
-63.0818
0
ARC
8
BLACK
10
79.2988
20
-62.992
40
0.127
50
405
51
585
0
ARC
8
BLACK
10
80.4672
20
-64.1604
40
0.127
50
225
51
405
0
LINE
8
BLACK
10
79.4258
20
-62.992
11
79.4258
21
-57.5564
0
LINE
8
BLACK
10
79.1718
20
-62.992
11
79.1718
21
-57.5564
0
ARC
8
BLACK
10
79.2988
20
-57.5564
40
0.127
50
360
51
540
0
ARC
8
BLACK
10
79.2988
20
-62.992
40
0.127
50
180
51
360
0
LINE
8
BLACK
10
79.4258
20
-57.5564
11
79.4258
21
-57.404
0
LINE
8
BLACK
10
79.1718
20
-57.5564
11
79.1718
21
-57.404
0
ARC
8
BLACK
10
79.2988
20
-57.404
40
0.127
50
360
51
540
0
ARC
8
BLACK
10
79.2988
20
-57.5564
40
0.127
50
180
51
360
0
LINE
8
BLACK
10
81.5222
20
-55.3602
11
81.573
21
-55.3094
0
LINE
8
BLACK
10
81.3426
20
-55.1806
11
81.3934
21
-55.1298
0
ARC
8
BLACK
10
81.4832
20
-55.2196
40
0.127
50
315
51
495
0
ARC
8
BLACK
10
81.4324
20
-55.2704
40
0.127
50
135
51
315
0
LINE
8
BLACK
10
81.4832
20
-55.3466
11
87.1728
21
-55.3466
0
LINE
8
BLACK
10
81.4832
20
-55.0926
11
87.1728
21
-55.0926
0
ARC
8
BLACK
10
87.1728
20
-55.2196
40
0.127
50
270
51
450
0
ARC
8
BLACK
10
81.4832
20
-55.2196
40
0.127
50
90
51
270
0
LINE
8
BLACK
10
79.3886
20
-57.4938
11
81.5222
21
-55.3602
0
LINE
8
BLACK
10
79.209
20
-57.3142
11
81.3426
21
-55.1806
0
ARC
8
BLACK
10
81.4324
20
-55.2704
40
0.127
50
315
51
495
0
ARC
8
BLACK
10
79.2988
20
-57.404
40
0.127
50
135
51
315
0
LINE
8
BLACK
10
81.5222
20
-55.3602
11
81.6238
21
-55.2586
0
LINE
8
BLACK
10
81.3426
20
-55.1806
11
81.4442
21
-55.079
0
ARC
8
BLACK
10
81.534
20
-55.1688
40
0.127
50
315
51
495
0
ARC
8
BLACK
10
81.4324
20
-55.2704
40
0.127
50
135
51
315
0
LINE
8
BLACK
10
58.2286
20
-49.6198
11
68.6426
21
-60.0338
0
LINE
8
BLACK
10
58.4082
20
-49.4402
11
68.8222
21
-59.8542
0
ARC
8
BLACK
10
68.7324
20
-59.944
40
0.127
50
225
51
405
0
ARC
8
BLACK
10
58.3184
20
-49.53
40
0.127
50
45
51
225
0
LINE
8
BLACK
10
58.4962
20
-49.5808
11
58.4962
21
-47.9044
0
LINE
8
BLACK
10
58.2422
20
-49.5808
11
58.2422
21
-47.9044
0
ARC
8
BLACK
10
58.3692
20
-47.9044
40
0.127
50
360
51
540
0
ARC
8
BLACK
10
58.3692
20
-49.5808
40
0.127
50
180
51
360
0
LINE
8
BLACK
10
68.8594
20
-65.9384
11
68.8594
21
-59.944
0
LINE
8
BLACK
10
68.6054
20
-65.9384
11
68.6054
21
-59.944
0
ARC
8
BLACK
10
68.7324
20
-59.944
40
0.127
50
360
51
540
0
ARC
8
BLACK
10
68.7324
20
-65.9384
40
0.127
50
180
51
360
0
LINE
8
BLACK
10
68.6426
20
-66.0282
11
74.8402
21
-72.2258
0
LINE
8
BLACK
10
68.8222
20
-65.8486
11
75.0198
21
-72.0462
0
ARC
8
BLACK
10
74.93
20
-72.136
40
0.127
50
225
51
405
0
ARC
8
BLACK
10
68.7324
20
-65.9384
40
0.127
50
45
51
225
0
LINE
8
BLACK
10
74.93
20
-72.263
11
80.1116
21
-72.263
0
LINE
8
BLACK
10
74.93
20
-72.009
11
80.1116
21
-72.009
0
ARC
8
BLACK
10
80.1116
20
-72.136
40
0.127
50
270
51
450
0
ARC
8
BLACK
10
74.93
20
-72.136
40
0.127
50
90
51
270
0
LINE
8
BLACK
10
80.2014
20
-72.2258
11
80.557
21
-71.8702
0
LINE
8
BLACK
10
80.0218
20
-72.0462
11
80.3774
21
-71.6906
0
ARC
8
BLACK
10
80.4672
20
-71.7804
40
0.127
50
315
51
495
0
ARC
8
BLACK
10
80.1116
20
-72.136
40
0.127
50
135
51
315
0
LINE
8
BLACK
10
53.34
20
-50.165
11
53.34
21
-47.625
0
LINE
8
BLACK
10
53.086
20
-50.165
11
53.086
21
-47.625
0
ARC
8
BLACK
10
53.213
20
-47.625
40
0.127
50
360
51
540
0
ARC
8
BLACK
10
53.213
20
-50.165
40
0.127
50
180
51
360
0
LINE
8
BLACK
10
53.0978
20
-47.6894
11
53.1232
21
-47.7148
0
LINE
8
BLACK
10
53.2774
20
-47.5098
11
53.3028
21
-47.5352
0
ARC
8
BLACK
10
53.213
20
-47.625
40
0.127
50
225
51
405
0
ARC
8
BLACK
10
53.1876
20
-47.5996
40
0.127
50
45
51
225
0
LINE
8
BLACK
10
87.1864
20
-90.258
11
85.129
21
-88.2006
0
LINE
8
BLACK
10
87.0068
20
-90.4376
11
84.9494
21
-88.3802
0
ARC
8
BLACK
10
85.0392
20
-88.2904
40
0.127
50
405
51
585
0
ARC
8
BLACK
10
87.0966
20
-90.3478
40
0.127
50
225
51
405
0
LINE
8
BLACK
10
65.6218
20
-62.3942
11
53.3028
21
-50.0752
0
LINE
8
BLACK
10
65.4422
20
-62.5738
11
53.1232
21
-50.2548
0
ARC
8
BLACK
10
53.213
20
-50.165
40
0.127
50
405
51
585
0
ARC
8
BLACK
10
65.532
20
-62.484
40
0.127
50
225
51
405
0
LINE
8
BLACK
10
65.4422
20
-62.5738
11
65.6962
21
-62.8278
0
LINE
8
BLACK
10
65.6218
20
-62.3942
11
65.8758
21
-62.6482
0
ARC
8
BLACK
10
65.786
20
-62.738
40
0.127
50
225
51
405
0
ARC
8
BLACK
10
65.532
20
-62.484
40
0.127
50
45
51
225
0
LINE
8
BLACK
10
65.913
20
-63.5
11
65.913
21
-62.738
0
LINE
8
BLACK
10
65.659
20
-63.5
11
65.659
21
-62.738
0
ARC
8
BLACK
10
65.786
20
-62.738
40
0.127
50
360
51
540
0
ARC
8
BLACK
10
65.786
20
-63.5
40
0.127
50
180
51
360
0
LINE
8
BLACK
10
78.232
20
-88.4174
11
85.0392
21
-88.4174
0
LINE
8
BLACK
10
78.232
20
-88.1634
11
85.0392
21
-88.1634
0
ARC
8
BLACK
10
85.0392
20
-88.2904
40
0.127
50
270
51
450
0
ARC
8
BLACK
10
78.232
20
-88.2904
40
0.127
50
90
51
270
0
LINE
8
BLACK
10
78.1304
20
-88.4174
11
78.232
21
-88.4174
0
LINE
8
BLACK
10
78.1304
20
-88.1634
11
78.232
21
-88.1634
0
ARC
8
BLACK
10
78.232
20
-88.2904
40
0.127
50
270
51
450
0
ARC
8
BLACK
10
78.1304
20
-88.2904
40
0.127
50
90
51
270
0
LINE
8
BLACK
10
78.2202
20
-88.2006
11
65.8758
21
-75.8562
0
LINE
8
BLACK
10
78.0406
20
-88.3802
11
65.6962
21
-76.0358
0
ARC
8
BLACK
10
65.786
20
-75.946
40
0.127
50
405
51
585
0
ARC
8
BLACK
10
78.1304
20
-88.2904
40
0.127
50
225
51
405
0
LINE
8
BLACK
10
65.913
20
-75.946
11
65.913
21
-73.0504
0
LINE
8
BLACK
10
65.659
20
-75.946
11
65.659
21
-73.0504
0
ARC
8
BLACK
10
65.786
20
-73.0504
40
0.127
50
360
51
540
0
ARC
8
BLACK
10
65.786
20
-75.946
40
0.127
50
180
51
360
0
LINE
8
BLACK
10
42.1767
20
-86.0425
11
42.2021
21
-86.0425
0
LINE
8
BLACK
10
42.1767
20
-85.7885
11
42.2021
21
-85.7885
0
ARC
8
BLACK
10
42.2021
20
-85.9155
40
0.127
50
270
51
450
0
ARC
8
BLACK
10
42.1767
20
-85.9155
40
0.127
50
90
51
270
0
LINE
8
BLACK
10
42.5314
20
-85.4066
11
42.1123
21
-85.8257
0
LINE
8
BLACK
10
42.711
20
-85.5862
11
42.2919
21
-86.0053
0
ARC
8
BLACK
10
42.2021
20
-85.9155
40
0.127
50
135
51
315
0
ARC
8
BLACK
10
42.6212
20
-85.4964
40
0.127
50
-45
51
135
0
LINE
8
BLACK
10
42.0869
20
-85.8257
11
41.6678
21
-86.2448
0
LINE
8
BLACK
10
42.2665
20
-86.0053
11
41.8474
21
-86.4244
0
ARC
8
BLACK
10
41.7576
20
-86.3346
40
0.127
50
135
51
315
0
ARC
8
BLACK
10
42.1767
20
-85.9155
40
0.127
50
-45
51
135
0
LINE
8
BLACK
10
41.8846
20
-88.9
11
41.8846
21
-86.3346
0
LINE
8
BLACK
10
41.6306
20
-88.9
11
41.6306
21
-86.3346
0
ARC
8
BLACK
10
41.7576
20
-86.3346
40
0.127
50
360
51
540
0
ARC
8
BLACK
10
41.7576
20
-88.9
40
0.127
50
180
51
360
0
LINE
8
BLACK
10
41.7576
20
-89.027
11
41.8084
21
-89.027
0
LINE
8
BLACK
10
41.7576
20
-88.773
11
41.8084
21
-88.773
0
ARC
8
BLACK
10
41.8084
20
-88.9
40
0.127
50
270
51
450
0
ARC
8
BLACK
10
41.7576
20
-88.9
40
0.127
50
90
51
270
0
LINE
8
BLACK
10
41.7186
20
-88.9898
11
47.8146
21
-95.0858
0
LINE
8
BLACK
10
41.8982
20
-88.8102
11
47.9942
21
-94.9062
0
ARC
8
BLACK
10
47.9044
20
-94.996
40
0.127
50
225
51
405
0
ARC
8
BLACK
10
41.8084
20
-88.9
40
0.127
50
45
51
225
0
LINE
8
BLACK
10
47.9044
20
-95.123
11
51.4096
21
-95.123
0
LINE
8
BLACK
10
47.9044
20
-94.869
11
51.4096
21
-94.869
0
ARC
8
BLACK
10
51.4096
20
-94.996
40
0.127
50
270
51
450
0
ARC
8
BLACK
10
47.9044
20
-94.996
40
0.127
50
90
51
270
0
LINE
8
BLACK
10
51.3198
20
-95.0858
11
54.0122
21
-97.7782
0
LINE
8
BLACK
10
51.4994
20
-94.9062
11
54.1918
21
-97.5986
0
ARC
8
BLACK
10
54.102
20
-97.6884
40
0.127
50
225
51
405
0
ARC
8
BLACK
10
51.4096
20
-94.996
40
0.127
50
45
51
225
0
LINE
8
BLACK
10
54.229
20
-142.85
11
54.229
21
-97.6884
0
LINE
8
BLACK
10
53.975
20
-142.85
11
53.975
21
-97.6884
0
ARC
8
BLACK
10
54.102
20
-97.6884
40
0.127
50
360
51
540
0
ARC
8
BLACK
10
54.102
20
-142.85
40
0.127
50
180
51
360
0
LINE
8
BLACK
10
54.0122
20
-142.76
11
52.793
21
-143.979
0
LINE
8
BLACK
10
54.1918
20
-142.939
11
52.9726
21
-144.159
0
ARC
8
BLACK
10
52.8828
20
-144.069
40
0.127
50
135
51
315
0
ARC
8
BLACK
10
54.102
20
-142.85
40
0.127
50
-45
51
135
0
LINE
8
BLACK
10
51.5112
20
-144.196
11
52.8828
21
-144.196
0
LINE
8
BLACK
10
51.5112
20
-143.942
11
52.8828
21
-143.942
0
ARC
8
BLACK
10
52.8828
20
-144.069
40
0.127
50
270
51
450
0
ARC
8
BLACK
10
51.5112
20
-144.069
40
0.127
50
90
51
270
0
LINE
8
BLACK
10
79.3614
20
-140.118
11
77.3294
21
-142.15
0
LINE
8
BLACK
10
79.541
20
-140.298
11
77.509
21
-142.33
0
ARC
8
BLACK
10
77.4192
20
-142.24
40
0.127
50
135
51
315
0
ARC
8
BLACK
10
79.4512
20
-140.208
40
0.127
50
-45
51
135
0
LINE
8
BLACK
10
41.1344
20
-167.804
11
40.0422
21
-168.896
0
LINE
8
BLACK
10
41.314
20
-167.984
11
40.2218
21
-169.076
0
ARC
8
BLACK
10
40.132
20
-168.986
40
0.127
50
135
51
315
0
ARC
8
BLACK
10
41.2242
20
-167.894
40
0.127
50
-45
51
135
0
LINE
8
BLACK
10
41.2242
20
-168.021
11
44.6024
21
-168.021
0
LINE
8
BLACK
10
41.2242
20
-167.767
11
44.6024
21
-167.767
0
ARC
8
BLACK
10
44.6024
20
-167.894
40
0.127
50
270
51
450
0
ARC
8
BLACK
10
41.2242
20
-167.894
40
0.127
50
90
51
270
0
LINE
8
BLACK
10
49.8974
20
-162.419
11
44.5126
21
-167.804
0
LINE
8
BLACK
10
50.077
20
-162.599
11
44.6922
21
-167.984
0
ARC
8
BLACK
10
44.6024
20
-167.894
40
0.127
50
135
51
315
0
ARC
8
BLACK
10
49.9872
20
-162.509
40
0.127
50
-45
51
135
0
LINE
8
BLACK
10
49.9872
20
-162.636
11
64.7192
21
-162.636
0
LINE
8
BLACK
10
49.9872
20
-162.382
11
64.7192
21
-162.382
0
ARC
8
BLACK
10
64.7192
20
-162.509
40
0.127
50
270
51
450
0
ARC
8
BLACK
10
49.9872
20
-162.509
40
0.127
50
90
51
270
0
LINE
8
BLACK
10
68.5918
20
-158.457
11
64.6294
21
-162.419
0
LINE
8
BLACK
10
68.7714
20
-158.637
11
64.809
21
-162.599
0
ARC
8
BLACK
10
64.7192
20
-162.509
40
0.127
50
135
51
315
0
ARC
8
BLACK
10
68.6816
20
-158.547
40
0.127
50
-45
51
135
0
LINE
8
BLACK
10
68.8086
20
-158.547
11
68.8086
21
-146.558
0
LINE
8
BLACK
10
68.5546
20
-158.547
11
68.5546
21
-146.558
0
ARC
8
BLACK
10
68.6816
20
-146.558
40
0.127
50
360
51
540
0
ARC
8
BLACK
10
68.6816
20
-158.547
40
0.127
50
180
51
360
0
LINE
8
BLACK
10
72.9098
20
-142.15
11
68.5918
21
-146.468
0
LINE
8
BLACK
10
73.0894
20
-142.33
11
68.7714
21
-146.648
0
ARC
8
BLACK
10
68.6816
20
-146.558
40
0.127
50
135
51
315
0
ARC
8
BLACK
10
72.9996
20
-142.24
40
0.127
50
-45
51
135
0
LINE
8
BLACK
10
72.9996
20
-142.367
11
77.4192
21
-142.367
0
LINE
8
BLACK
10
72.9996
20
-142.113
11
77.4192
21
-142.113
0
ARC
8
BLACK
10
77.4192
20
-142.24
40
0.127
50
270
51
450
0
ARC
8
BLACK
10
72.9996
20
-142.24
40
0.127
50
90
51
270
0
LINE
8
BLACK
10
50.1514
20
-84.6954
11
48.983
21
-85.8638
0
LINE
8
BLACK
10
50.331
20
-84.875
11
49.1626
21
-86.0434
0
ARC
8
BLACK
10
49.0728
20
-85.9536
40
0.127
50
135
51
315
0
ARC
8
BLACK
10
50.2412
20
-84.7852
40
0.127
50
-45
51
135
0
LINE
8
BLACK
10
50.3682
20
-84.7852
11
50.3682
21
-83.7184
0
LINE
8
BLACK
10
50.1142
20
-84.7852
11
50.1142
21
-83.7184
0
ARC
8
BLACK
10
50.2412
20
-83.7184
40
0.127
50
360
51
540
0
ARC
8
BLACK
10
50.2412
20
-84.7852
40
0.127
50
180
51
360
0
LINE
8
BLACK
10
49.5926
20
-83.2494
11
50.1514
21
-83.8082
0
LINE
8
BLACK
10
49.7722
20
-83.0698
11
50.331
21
-83.6286
0
ARC
8
BLACK
10
50.2412
20
-83.7184
40
0.127
50
225
51
405
0
ARC
8
BLACK
10
49.6824
20
-83.1596
40
0.127
50
45
51
225
0
LINE
8
BLACK
10
48.7172
20
-83.2866
11
49.6824
21
-83.2866
0
LINE
8
BLACK
10
48.7172
20
-83.0326
11
49.6824
21
-83.0326
0
ARC
8
BLACK
10
49.6824
20
-83.1596
40
0.127
50
270
51
450
0
ARC
8
BLACK
10
48.7172
20
-83.1596
40
0.127
50
90
51
270
0
LINE
8
BLACK
10
48.4006
20
-83.6558
11
48.807
21
-83.2494
0
LINE
8
BLACK
10
48.221
20
-83.4762
11
48.6274
21
-83.0698
0
ARC
8
BLACK
10
48.7172
20
-83.1596
40
0.127
50
315
51
495
0
ARC
8
BLACK
10
48.3108
20
-83.566
40
0.127
50
135
51
315
0
LINE
8
BLACK
10
49.1998
20
-91.1352
11
49.1998
21
-85.9536
0
LINE
8
BLACK
10
48.9458
20
-91.1352
11
48.9458
21
-85.9536
0
ARC
8
BLACK
10
49.0728
20
-85.9536
40
0.127
50
360
51
540
0
ARC
8
BLACK
10
49.0728
20
-91.1352
40
0.127
50
180
51
360
0
LINE
8
BLACK
10
55.157
20
-97.0398
11
49.1626
21
-91.0454
0
LINE
8
BLACK
10
54.9774
20
-97.2194
11
48.983
21
-91.225
0
ARC
8
BLACK
10
49.0728
20
-91.1352
40
0.127
50
405
51
585
0
ARC
8
BLACK
10
55.0672
20
-97.1296
40
0.127
50
225
51
405
0
LINE
8
BLACK
10
50.3936
20
-146.99
11
52.578
21
-146.99
0
LINE
8
BLACK
10
50.3936
20
-146.736
11
52.578
21
-146.736
0
ARC
8
BLACK
10
52.578
20
-146.863
40
0.127
50
270
51
450
0
ARC
8
BLACK
10
50.3936
20
-146.863
40
0.127
50
90
51
270
0
LINE
8
BLACK
10
52.6678
20
-146.953
11
55.157
21
-144.463
0
LINE
8
BLACK
10
52.4882
20
-146.773
11
54.9774
21
-144.284
0
ARC
8
BLACK
10
55.0672
20
-144.374
40
0.127
50
315
51
495
0
ARC
8
BLACK
10
52.578
20
-146.863
40
0.127
50
135
51
315
0
LINE
8
BLACK
10
55.1942
20
-144.374
11
55.1942
21
-97.1296
0
LINE
8
BLACK
10
54.9402
20
-144.374
11
54.9402
21
-97.1296
0
ARC
8
BLACK
10
55.0672
20
-97.1296
40
0.127
50
360
51
540
0
ARC
8
BLACK
10
55.0672
20
-144.374
40
0.127
50
180
51
360
0
LINE
8
BLACK
10
71.4502
20
-64.9224
11
71.4502
21
-60.3504
0
LINE
8
BLACK
10
71.1962
20
-64.9224
11
71.1962
21
-60.3504
0
ARC
8
BLACK
10
71.3232
20
-60.3504
40
0.127
50
360
51
540
0
ARC
8
BLACK
10
71.3232
20
-64.9224
40
0.127
50
180
51
360
0
LINE
8
BLACK
10
76.0866
20
-69.5062
11
71.413
21
-64.8326
0
LINE
8
BLACK
10
75.907
20
-69.6858
11
71.2334
21
-65.0122
0
ARC
8
BLACK
10
71.3232
20
-64.9224
40
0.127
50
405
51
585
0
ARC
8
BLACK
10
75.9968
20
-69.596
40
0.127
50
225
51
405
0
LINE
8
BLACK
10
75.9968
20
-69.723
11
76.5556
21
-69.723
0
LINE
8
BLACK
10
75.9968
20
-69.469
11
76.5556
21
-69.469
0
ARC
8
BLACK
10
76.5556
20
-69.596
40
0.127
50
270
51
450
0
ARC
8
BLACK
10
75.9968
20
-69.596
40
0.127
50
90
51
270
0
LINE
8
BLACK
10
76.5556
20
-69.723
11
83.3628
21
-69.723
0
LINE
8
BLACK
10
76.5556
20
-69.469
11
83.3628
21
-69.469
0
ARC
8
BLACK
10
83.3628
20
-69.596
40
0.127
50
270
51
450
0
ARC
8
BLACK
10
76.5556
20
-69.596
40
0.127
50
90
51
270
0
LINE
8
BLACK
10
85.637
20
-71.6906
11
83.4526
21
-69.5062
0
LINE
8
BLACK
10
85.4574
20
-71.8702
11
83.273
21
-69.6858
0
ARC
8
BLACK
10
83.3628
20
-69.596
40
0.127
50
405
51
585
0
ARC
8
BLACK
10
85.5472
20
-71.7804
40
0.127
50
225
51
405
0
LINE
8
BLACK
10
40.2218
20
-166.282
11
41.5172
21
-164.987
0
LINE
8
BLACK
10
40.0422
20
-166.102
11
41.3376
21
-164.807
0
ARC
8
BLACK
10
41.4274
20
-164.897
40
0.127
50
315
51
495
0
ARC
8
BLACK
10
40.132
20
-166.192
40
0.127
50
135
51
315
0
LINE
8
BLACK
10
73.7108
20
-140.335
11
76.9112
21
-140.335
0
LINE
8
BLACK
10
73.7108
20
-140.081
11
76.9112
21
-140.081
0
ARC
8
BLACK
10
76.9112
20
-140.208
40
0.127
50
270
51
450
0
ARC
8
BLACK
10
73.7108
20
-140.208
40
0.127
50
90
51
270
0
LINE
8
BLACK
10
67.857
20
-146.241
11
73.8006
21
-140.298
0
LINE
8
BLACK
10
67.6774
20
-146.062
11
73.621
21
-140.118
0
ARC
8
BLACK
10
73.7108
20
-140.208
40
0.127
50
315
51
495
0
ARC
8
BLACK
10
67.7672
20
-146.152
40
0.127
50
135
51
315
0
LINE
8
BLACK
10
67.8942
20
-152.908
11
67.8942
21
-146.152
0
LINE
8
BLACK
10
67.6402
20
-152.908
11
67.6402
21
-146.152
0
ARC
8
BLACK
10
67.7672
20
-146.152
40
0.127
50
360
51
540
0
ARC
8
BLACK
10
67.7672
20
-152.908
40
0.127
50
180
51
360
0
LINE
8
BLACK
10
66.4346
20
-154.42
11
67.857
21
-152.998
0
LINE
8
BLACK
10
66.255
20
-154.241
11
67.6774
21
-152.818
0
ARC
8
BLACK
10
67.7672
20
-152.908
40
0.127
50
315
51
495
0
ARC
8
BLACK
10
66.3448
20
-154.33
40
0.127
50
135
51
315
0
LINE
8
BLACK
10
60.3504
20
-154.457
11
66.3448
21
-154.457
0
LINE
8
BLACK
10
60.3504
20
-154.203
11
66.3448
21
-154.203
0
ARC
8
BLACK
10
66.3448
20
-154.33
40
0.127
50
270
51
450
0
ARC
8
BLACK
10
60.3504
20
-154.33
40
0.127
50
90
51
270
0
LINE
8
BLACK
10
53.379
20
-161.481
11
60.4402
21
-154.42
0
LINE
8
BLACK
10
53.1994
20
-161.302
11
60.2606
21
-154.241
0
ARC
8
BLACK
10
60.3504
20
-154.33
40
0.127
50
315
51
495
0
ARC
8
BLACK
10
53.2892
20
-161.392
40
0.127
50
135
51
315
0
LINE
8
BLACK
10
49.3776
20
-161.519
11
53.2892
21
-161.519
0
LINE
8
BLACK
10
49.3776
20
-161.265
11
53.2892
21
-161.265
0
ARC
8
BLACK
10
53.2892
20
-161.392
40
0.127
50
270
51
450
0
ARC
8
BLACK
10
49.3776
20
-161.392
40
0.127
50
90
51
270
0
LINE
8
BLACK
10
45.9622
20
-164.987
11
49.4674
21
-161.481
0
LINE
8
BLACK
10
45.7826
20
-164.807
11
49.2878
21
-161.302
0
ARC
8
BLACK
10
49.3776
20
-161.392
40
0.127
50
315
51
495
0
ARC
8
BLACK
10
45.8724
20
-164.897
40
0.127
50
135
51
315
0
LINE
8
BLACK
10
41.4274
20
-165.024
11
45.8724
21
-165.024
0
LINE
8
BLACK
10
41.4274
20
-164.77
11
45.8724
21
-164.77
0
ARC
8
BLACK
10
45.8724
20
-164.897
40
0.127
50
270
51
450
0
ARC
8
BLACK
10
41.4274
20
-164.897
40
0.127
50
90
51
270
0
LINE
8
BLACK
10
84.6836
20
-93.5482
11
84.6836
21
-90.3478
0
LINE
8
BLACK
10
84.4296
20
-93.5482
11
84.4296
21
-90.3478
0
ARC
8
BLACK
10
84.5566
20
-90.3478
40
0.127
50
360
51
540
0
ARC
8
BLACK
10
84.5566
20
-93.5482
40
0.127
50
180
51
360
0
LINE
8
BLACK
10
82.6398
20
-95.6446
11
84.6464
21
-93.638
0
LINE
8
BLACK
10
82.4602
20
-95.465
11
84.4668
21
-93.4584
0
ARC
8
BLACK
10
84.5566
20
-93.5482
40
0.127
50
315
51
495
0
ARC
8
BLACK
10
82.55
20
-95.5548
40
0.127
50
135
51
315
0
LINE
8
BLACK
10
74.5744
20
-95.6818
11
82.55
21
-95.6818
0
LINE
8
BLACK
10
74.5744
20
-95.4278
11
82.55
21
-95.4278
0
ARC
8
BLACK
10
82.55
20
-95.5548
40
0.127
50
270
51
450
0
ARC
8
BLACK
10
74.5744
20
-95.5548
40
0.127
50
90
51
270
0
LINE
8
BLACK
10
61.175
20
-82.335
11
74.4846
21
-95.6446
0
LINE
8
BLACK
10
61.3546
20
-82.1554
11
74.6642
21
-95.465
0
ARC
8
BLACK
10
74.5744
20
-95.5548
40
0.127
50
225
51
405
0
ARC
8
BLACK
10
61.2648
20
-82.2452
40
0.127
50
45
51
225
0
LINE
8
BLACK
10
49.1744
20
-82.3722
11
61.2648
21
-82.3722
0
LINE
8
BLACK
10
49.1744
20
-82.1182
11
61.2648
21
-82.1182
0
ARC
8
BLACK
10
61.2648
20
-82.2452
40
0.127
50
270
51
450
0
ARC
8
BLACK
10
49.1744
20
-82.2452
40
0.127
50
90
51
270
0
LINE
8
BLACK
10
48.6274
20
-81.8778
11
49.0846
21
-82.335
0
LINE
8
BLACK
10
48.807
20
-81.6982
11
49.2642
21
-82.1554
0
ARC
8
BLACK
10
49.1744
20
-82.2452
40
0.127
50
225
51
405
0
ARC
8
BLACK
10
48.7172
20
-81.788
40
0.127
50
45
51
225
0
LINE
8
BLACK
10
79.0448
20
-85.3694
11
87.0712
21
-85.3694
0
LINE
8
BLACK
10
79.0448
20
-85.1154
11
87.0712
21
-85.1154
0
ARC
8
BLACK
10
87.0712
20
-85.2424
40
0.127
50
270
51
450
0
ARC
8
BLACK
10
79.0448
20
-85.2424
40
0.127
50
90
51
270
0
LINE
8
BLACK
10
78.9432
20
-85.3694
11
79.0448
21
-85.3694
0
LINE
8
BLACK
10
78.9432
20
-85.1154
11
79.0448
21
-85.1154
0
ARC
8
BLACK
10
79.0448
20
-85.2424
40
0.127
50
270
51
450
0
ARC
8
BLACK
10
78.9432
20
-85.2424
40
0.127
50
90
51
270
0
LINE
8
BLACK
10
79.033
20
-85.1526
11
72.3782
21
-78.4978
0
LINE
8
BLACK
10
78.8534
20
-85.3322
11
72.1986
21
-78.6774
0
ARC
8
BLACK
10
72.2884
20
-78.5876
40
0.127
50
405
51
585
0
ARC
8
BLACK
10
78.9432
20
-85.2424
40
0.127
50
225
51
405
0
LINE
8
BLACK
10
86.9814
20
-85.3322
11
92.0868
21
-90.4376
0
LINE
8
BLACK
10
87.161
20
-85.1526
11
92.2664
21
-90.258
0
ARC
8
BLACK
10
92.1766
20
-90.3478
40
0.127
50
225
51
405
0
ARC
8
BLACK
10
87.0712
20
-85.2424
40
0.127
50
45
51
225
0
LINE
8
BLACK
10
78.359
20
-60.8584
11
78.359
21
-56.7182
0
LINE
8
BLACK
10
78.105
20
-60.8584
11
78.105
21
-56.7182
0
ARC
8
BLACK
10
78.232
20
-56.7182
40
0.127
50
360
51
540
0
ARC
8
BLACK
10
78.232
20
-60.8584
40
0.127
50
180
51
360
0
LINE
8
BLACK
10
78.1422
20
-60.7686
11
75.145
21
-63.7658
0
LINE
8
BLACK
10
78.3218
20
-60.9482
11
75.3246
21
-63.9454
0
ARC
8
BLACK
10
75.2348
20
-63.8556
40
0.127
50
135
51
315
0
ARC
8
BLACK
10
78.232
20
-60.8584
40
0.127
50
-45
51
135
0
LINE
8
BLACK
10
70.0786
20
-72.4408
11
70.0786
21
-72.1868
0
LINE
8
BLACK
10
69.8246
20
-72.4408
11
69.8246
21
-72.1868
0
ARC
8
BLACK
10
69.9516
20
-72.1868
40
0.127
50
360
51
540
0
ARC
8
BLACK
10
69.9516
20
-72.4408
40
0.127
50
180
51
360
0
LINE
8
BLACK
10
69.8618
20
-72.5306
11
72.1986
21
-74.8674
0
LINE
8
BLACK
10
70.0414
20
-72.351
11
72.3782
21
-74.6878
0
ARC
8
BLACK
10
72.2884
20
-74.7776
40
0.127
50
225
51
405
0
ARC
8
BLACK
10
69.9516
20
-72.4408
40
0.127
50
45
51
225
0
LINE
8
BLACK
10
72.4154
20
-78.5876
11
72.4154
21
-74.7776
0
LINE
8
BLACK
10
72.1614
20
-78.5876
11
72.1614
21
-74.7776
0
ARC
8
BLACK
10
72.2884
20
-74.7776
40
0.127
50
360
51
540
0
ARC
8
BLACK
10
72.2884
20
-78.5876
40
0.127
50
180
51
360
0
LINE
8
BLACK
10
78.359
20
-56.7436
11
78.359
21
-56.7182
0
LINE
8
BLACK
10
78.105
20
-56.7436
11
78.105
21
-56.7182
0
ARC
8
BLACK
10
78.232
20
-56.7182
40
0.127
50
360
51
540
0
ARC
8
BLACK
10
78.232
20
-56.7436
40
0.127
50
180
51
360
0
LINE
8
BLACK
10
82.3078
20
-52.4882
11
78.1422
21
-56.6538
0
LINE
8
BLACK
10
82.4874
20
-52.6678
11
78.3218
21
-56.8334
0
ARC
8
BLACK
10
78.232
20
-56.7436
40
0.127
50
135
51
315
0
ARC
8
BLACK
10
82.3976
20
-52.578
40
0.127
50
-45
51
135
0
LINE
8
BLACK
10
42.4942
20
-66.2178
11
42.5196
21
-66.2178
0
LINE
8
BLACK
10
42.4942
20
-65.9638
11
42.5196
21
-65.9638
0
ARC
8
BLACK
10
42.5196
20
-66.0908
40
0.127
50
270
51
450
0
ARC
8
BLACK
10
42.4942
20
-66.0908
40
0.127
50
90
51
270
0
LINE
8
BLACK
10
46.8258
20
-74.2306
11
41.2378
21
-68.6426
0
LINE
8
BLACK
10
46.6462
20
-74.4102
11
41.0582
21
-68.8222
0
ARC
8
BLACK
10
41.148
20
-68.7324
40
0.127
50
405
51
585
0
ARC
8
BLACK
10
46.736
20
-74.3204
40
0.127
50
225
51
405
0
LINE
8
BLACK
10
41.275
20
-68.7324
11
41.275
21
-67.437
0
LINE
8
BLACK
10
41.021
20
-68.7324
11
41.021
21
-67.437
0
ARC
8
BLACK
10
41.148
20
-67.437
40
0.127
50
360
51
540
0
ARC
8
BLACK
10
41.148
20
-68.7324
40
0.127
50
180
51
360
0
LINE
8
BLACK
10
75.3872
20
-74.4474
11
80.4672
21
-74.4474
0
LINE
8
BLACK
10
75.3872
20
-74.1934
11
80.4672
21
-74.1934
0
ARC
8
BLACK
10
80.4672
20
-74.3204
40
0.127
50
270
51
450
0
ARC
8
BLACK
10
75.3872
20
-74.3204
40
0.127
50
90
51
270
0
LINE
8
BLACK
10
75.2974
20
-74.2306
11
75.1958
21
-74.3322
0
LINE
8
BLACK
10
75.477
20
-74.4102
11
75.3754
21
-74.5118
0
ARC
8
BLACK
10
75.2856
20
-74.422
40
0.127
50
135
51
315
0
ARC
8
BLACK
10
75.3872
20
-74.3204
40
0.127
50
-45
51
135
0
LINE
8
BLACK
10
46.736
20
-74.4474
11
57.8612
21
-74.4474
0
LINE
8
BLACK
10
46.736
20
-74.1934
11
57.8612
21
-74.1934
0
ARC
8
BLACK
10
57.8612
20
-74.3204
40
0.127
50
270
51
450
0
ARC
8
BLACK
10
46.736
20
-74.3204
40
0.127
50
90
51
270
0
LINE
8
BLACK
10
82.9174
20
-71.6906
11
80.3774
21
-74.2306
0
LINE
8
BLACK
10
83.097
20
-71.8702
11
80.557
21
-74.4102
0
ARC
8
BLACK
10
80.4672
20
-74.3204
40
0.127
50
135
51
315
0
ARC
8
BLACK
10
83.0072
20
-71.7804
40
0.127
50
-45
51
135
0
LINE
8
BLACK
10
42.4044
20
-66.001
11
41.0582
21
-67.3472
0
LINE
8
BLACK
10
42.584
20
-66.1806
11
41.2378
21
-67.5268
0
ARC
8
BLACK
10
41.148
20
-67.437
40
0.127
50
135
51
315
0
ARC
8
BLACK
10
42.4942
20
-66.0908
40
0.127
50
-45
51
135
0
LINE
8
BLACK
10
108.785
20
-153.896
11
108.887
21
-153.794
0
LINE
8
BLACK
10
107.724
20
-152.835
11
107.826
21
-152.733
0
ARC
8
BLACK
10
108.356
20
-153.264
40
0.75
50
315
51
495
0
ARC
8
BLACK
10
108.255
20
-153.365
40
0.75
50
135
51
315
0
LINE
8
BLACK
10
109.106
20
-153.264
11
109.106
21
-152.806
0
LINE
8
BLACK
10
107.606
20
-153.264
11
107.606
21
-152.806
0
ARC
8
BLACK
10
108.356
20
-152.806
40
0.75
50
360
51
540
0
ARC
8
BLACK
10
108.356
20
-153.264
40
0.75
50
180
51
360
0
LINE
8
BLACK
10
109.106
20
-153.314
11
109.106
21
-152.806
0
LINE
8
BLACK
10
107.606
20
-153.314
11
107.606
21
-152.806
0
ARC
8
BLACK
10
108.356
20
-152.806
40
0.75
50
360
51
540
0
ARC
8
BLACK
10
108.356
20
-153.314
40
0.75
50
180
51
360
0
LINE
8
BLACK
10
109.106
20
-152.806
11
109.106
21
-136.449
0
LINE
8
BLACK
10
107.606
20
-152.806
11
107.606
21
-136.449
0
ARC
8
BLACK
10
108.356
20
-136.449
40
0.75
50
360
51
540
0
ARC
8
BLACK
10
108.356
20
-152.806
40
0.75
50
180
51
360
0
LINE
8
BLACK
10
40.132
20
-163.525
11
45.1866
21
-163.525
0
LINE
8
BLACK
10
40.132
20
-163.271
11
45.1866
21
-163.271
0
ARC
8
BLACK
10
45.1866
20
-163.398
40
0.127
50
270
51
450
0
ARC
8
BLACK
10
40.132
20
-163.398
40
0.127
50
90
51
270
0
LINE
8
BLACK
10
49.0846
20
-159.321
11
45.0968
21
-163.308
0
LINE
8
BLACK
10
49.2642
20
-159.5
11
45.2764
21
-163.488
0
ARC
8
BLACK
10
45.1866
20
-163.398
40
0.127
50
135
51
315
0
ARC
8
BLACK
10
49.1744
20
-159.41
40
0.127
50
-45
51
135
0
LINE
8
BLACK
10
49.1744
20
-159.537
11
51.4604
21
-159.537
0
LINE
8
BLACK
10
49.1744
20
-159.283
11
51.4604
21
-159.283
0
ARC
8
BLACK
10
51.4604
20
-159.41
40
0.127
50
270
51
450
0
ARC
8
BLACK
10
49.1744
20
-159.41
40
0.127
50
90
51
270
0
LINE
8
BLACK
10
72.3782
20
-152.541
11
77.001
21
-147.918
0
LINE
8
BLACK
10
72.1986
20
-152.361
11
76.8214
21
-147.738
0
ARC
8
BLACK
10
76.9112
20
-147.828
40
0.127
50
315
51
495
0
ARC
8
BLACK
10
72.2884
20
-152.451
40
0.127
50
135
51
315
0
LINE
8
BLACK
10
72.4154
20
-155.499
11
72.4154
21
-152.451
0
LINE
8
BLACK
10
72.1614
20
-155.499
11
72.1614
21
-152.451
0
ARC
8
BLACK
10
72.2884
20
-152.451
40
0.127
50
360
51
540
0
ARC
8
BLACK
10
72.2884
20
-155.499
40
0.127
50
180
51
360
0
LINE
8
BLACK
10
66.4972
20
-156.134
11
67.564
21
-156.134
0
LINE
8
BLACK
10
66.4972
20
-155.88
11
67.564
21
-155.88
0
ARC
8
BLACK
10
67.564
20
-156.007
40
0.127
50
270
51
450
0
ARC
8
BLACK
10
66.4972
20
-156.007
40
0.127
50
90
51
270
0
LINE
8
BLACK
10
59.0804
20
-159.537
11
63.0936
21
-159.537
0
LINE
8
BLACK
10
59.0804
20
-159.283
11
63.0936
21
-159.283
0
ARC
8
BLACK
10
63.0936
20
-159.41
40
0.127
50
270
51
450
0
ARC
8
BLACK
10
59.0804
20
-159.41
40
0.127
50
90
51
270
0
LINE
8
BLACK
10
63.1834
20
-159.5
11
66.587
21
-156.097
0
LINE
8
BLACK
10
63.0038
20
-159.321
11
66.4074
21
-155.917
0
ARC
8
BLACK
10
66.4972
20
-156.007
40
0.127
50
315
51
495
0
ARC
8
BLACK
10
63.0936
20
-159.41
40
0.127
50
135
51
315
0
LINE
8
BLACK
10
84.9599
20
-118.894
11
85.1631
21
-118.691
0
LINE
8
BLACK
10
83.8993
20
-117.834
11
84.1025
21
-117.63
0
ARC
8
BLACK
10
84.6328
20
-118.161
40
0.75
50
315
51
495
0
ARC
8
BLACK
10
84.4296
20
-118.364
40
0.75
50
135
51
315
0
LINE
8
BLACK
10
78.232
20
-119.114
11
84.4296
21
-119.114
0
LINE
8
BLACK
10
78.232
20
-117.614
11
84.4296
21
-117.614
0
ARC
8
BLACK
10
84.4296
20
-118.364
40
0.75
50
270
51
450
0
ARC
8
BLACK
10
78.232
20
-118.364
40
0.75
50
90
51
270
0
LINE
8
BLACK
10
77.0734
20
-119.489
11
78.445
21
-119.083
0
LINE
8
BLACK
10
76.6474
20
-118.051
11
78.019
21
-117.645
0
ARC
8
BLACK
10
78.232
20
-118.364
40
0.75
50
286.5
51
466.5
0
ARC
8
BLACK
10
76.8604
20
-118.77
40
0.75
50
106.5
51
286.5
0
LINE
8
BLACK
10
77.6104
20
-120.599
11
77.6104
21
-118.77
0
LINE
8
BLACK
10
76.1104
20
-120.599
11
76.1104
21
-118.77
0
ARC
8
BLACK
10
76.8604
20
-118.77
40
0.75
50
360
51
540
0
ARC
8
BLACK
10
76.8604
20
-120.599
40
0.75
50
180
51
360
0
LINE
8
BLACK
10
90.3509
20
-166.449
11
90.3001
21
-166.5
0
LINE
8
BLACK
10
91.4115
20
-167.51
11
91.3607
21
-167.561
0
ARC
8
BLACK
10
90.8304
20
-167.03
40
0.75
50
135
51
315
0
ARC
8
BLACK
10
90.8812
20
-166.98
40
0.75
50
-45
51
135
0
LINE
8
BLACK
10
91.6312
20
-166.98
11
91.6312
21
-153.162
0
LINE
8
BLACK
10
90.1312
20
-166.98
11
90.1312
21
-153.162
0
ARC
8
BLACK
10
90.8812
20
-153.162
40
0.75
50
360
51
540
0
ARC
8
BLACK
10
90.8812
20
-166.98
40
0.75
50
180
51
360
  0
ENDSEC
  0
EOF
