  0
SECTION
  2
HEADER
  9
$ANGBASE
  50
0.0
  9
$ANGDIR
  70
  1
  9
$MEASUREMENT
  70
0
  0
ENDSEC
  0
SECTION
  2
TABLES
  0
TABLE
  2
LTYPE
  70
1
  0
LTYPE
  2
CONTINUOUS
  70
0
  3
Solid line
  72
65
  73
0
  40
0.0
  0
ENDTAB
  0
TABLE
  2
STYLE
  70
4
  0
STYLE
  2
KICAD
  70
0
  40
0
  41
1
  42
1
  50
0
  71
0
  3
isocp.shx
  0
STYLE
  2
KICADB
  70
0
  40
0
  41
1
  42
1
  50
0
  71
0
  3
isocp.shx
  0
STYLE
  2
KICADI
  70
0
  40
0
  41
1
  42
1
  50
15
  71
0
  3
isocp.shx
  0
STYLE
  2
KICADBI
  70
0
  40
0
  41
1
  42
1
  50
15
  71
0
  3
isocp.shx
  0
ENDTAB
  0
TABLE
  2
LAYER
  70
24
  0
LAYER
  2
BLACK
  70
0
  62
250
  6
CONTINUOUS
  0
LAYER
  2
BLUE
  70
0
  62
5
  6
CONTINUOUS
  0
LAYER
  2
GREEN
  70
0
  62
3
  6
CONTINUOUS
  0
LAYER
  2
CYAN
  70
0
  62
4
  6
CONTINUOUS
  0
LAYER
  2
RED
  70
0
  62
1
  6
CONTINUOUS
  0
LAYER
  2
MAGENTA
  70
0
  62
6
  6
CONTINUOUS
  0
LAYER
  2
BROWN
  70
0
  62
54
  6
CONTINUOUS
  0
LAYER
  2
LIGHTGRAY
  70
0
  62
9
  6
CONTINUOUS
  0
LAYER
  2
DARKGRAY
  70
0
  62
8
  6
CONTINUOUS
  0
LAYER
  2
LIGHTBLUE
  70
0
  62
171
  6
CONTINUOUS
  0
LAYER
  2
LIGHTGREEN
  70
0
  62
91
  6
CONTINUOUS
  0
LAYER
  2
LIGHTCYAN
  70
0
  62
131
  6
CONTINUOUS
  0
LAYER
  2
LIGHTRED
  70
0
  62
11
  6
CONTINUOUS
  0
LAYER
  2
LIGHTMAGENTA
  70
0
  62
221
  6
CONTINUOUS
  0
LAYER
  2
YELLOW
  70
0
  62
2
  6
CONTINUOUS
  0
LAYER
  2
WHITE
  70
0
  62
7
  6
CONTINUOUS
  0
LAYER
  2
DARKDARKGRAY
  70
0
  62
251
  6
CONTINUOUS
  0
LAYER
  2
DARKBLUE
  70
0
  62
178
  6
CONTINUOUS
  0
LAYER
  2
DARKGREEN
  70
0
  62
98
  6
CONTINUOUS
  0
LAYER
  2
DARKCYAN
  70
0
  62
138
  6
CONTINUOUS
  0
LAYER
  2
DARKRED
  70
0
  62
18
  6
CONTINUOUS
  0
LAYER
  2
DARKMAGENTA
  70
0
  62
228
  6
CONTINUOUS
  0
LAYER
  2
DARKBROWN
  70
0
  62
58
  6
CONTINUOUS
  0
LAYER
  2
LIGHTYELLOW
  70
0
  62
51
  6
CONTINUOUS
  0
ENDTAB
  0
ENDSEC
  0
SECTION
  2
ENTITIES
0
CIRCLE
8
BLACK
10
37.5412
20
-108.788
40
1.92532
0
CIRCLE
8
BLACK
10
37.5412
20
-97.3582
40
1.92532
0
CIRCLE
8
BLACK
10
43.8912
20
-98.6282
40
0.762
0
CIRCLE
8
BLACK
10
46.4312
20
-99.2632
40
0.762
0
CIRCLE
8
BLACK
10
43.8912
20
-101.168
40
0.762
0
CIRCLE
8
BLACK
10
46.4312
20
-101.803
40
0.762
0
CIRCLE
8
BLACK
10
43.8912
20
-103.708
40
0.762
0
CIRCLE
8
BLACK
10
46.4312
20
-104.343
40
0.762
0
CIRCLE
8
BLACK
10
43.8912
20
-106.248
40
0.762
0
CIRCLE
8
BLACK
10
40.5892
20
-110.82
40
1.27
0
CIRCLE
8
BLACK
10
40.5892
20
-95.3262
40
1.27
0
CIRCLE
8
BLACK
10
51.2572
20
-100.152
40
0.762
0
CIRCLE
8
BLACK
10
51.2572
20
-105.994
40
0.762
0
CIRCLE
8
BLACK
10
51.2572
20
-97.6122
40
0.762
0
CIRCLE
8
BLACK
10
51.2572
20
-108.534
40
0.762
0
LINE
8
BLACK
10
47.1932
20
-106.121
11
45.6692
21
-106.121
0
LINE
8
BLACK
10
45.6692
20
-106.121
11
45.6692
21
-107.645
0
LINE
8
BLACK
10
45.6692
20
-107.645
11
47.1932
21
-107.645
0
LINE
8
BLACK
10
47.1932
20
-107.645
11
47.1932
21
-106.121
0
CIRCLE
8
BLACK
10
37.5412
20
-69.7738
40
1.92532
0
CIRCLE
8
BLACK
10
37.5412
20
-58.3438
40
1.92532
0
CIRCLE
8
BLACK
10
43.8912
20
-59.6138
40
0.762
0
CIRCLE
8
BLACK
10
46.4312
20
-60.2488
40
0.762
0
CIRCLE
8
BLACK
10
43.8912
20
-62.1538
40
0.762
0
CIRCLE
8
BLACK
10
46.4312
20
-62.7888
40
0.762
0
CIRCLE
8
BLACK
10
43.8912
20
-64.6938
40
0.762
0
CIRCLE
8
BLACK
10
46.4312
20
-65.3288
40
0.762
0
CIRCLE
8
BLACK
10
43.8912
20
-67.2338
40
0.762
0
CIRCLE
8
BLACK
10
40.5892
20
-71.8058
40
1.27
0
CIRCLE
8
BLACK
10
40.5892
20
-56.3118
40
1.27
0
CIRCLE
8
BLACK
10
51.2572
20
-61.1378
40
0.762
0
CIRCLE
8
BLACK
10
51.2572
20
-66.9798
40
0.762
0
CIRCLE
8
BLACK
10
51.2572
20
-58.5978
40
0.762
0
CIRCLE
8
BLACK
10
51.2572
20
-69.5198
40
0.762
0
LINE
8
BLACK
10
47.1932
20
-67.1068
11
45.6692
21
-67.1068
0
LINE
8
BLACK
10
45.6692
20
-67.1068
11
45.6692
21
-68.6308
0
LINE
8
BLACK
10
45.6692
20
-68.6308
11
47.1932
21
-68.6308
0
LINE
8
BLACK
10
47.1932
20
-68.6308
11
47.1932
21
-67.1068
0
CIRCLE
8
BLACK
10
37.5412
20
-89.281
40
1.92532
0
CIRCLE
8
BLACK
10
37.5412
20
-77.851
40
1.92532
0
CIRCLE
8
BLACK
10
43.8912
20
-79.121
40
0.762
0
CIRCLE
8
BLACK
10
46.4312
20
-79.756
40
0.762
0
CIRCLE
8
BLACK
10
43.8912
20
-81.661
40
0.762
0
CIRCLE
8
BLACK
10
46.4312
20
-82.296
40
0.762
0
CIRCLE
8
BLACK
10
43.8912
20
-84.201
40
0.762
0
CIRCLE
8
BLACK
10
46.4312
20
-84.836
40
0.762
0
CIRCLE
8
BLACK
10
43.8912
20
-86.741
40
0.762
0
CIRCLE
8
BLACK
10
40.5892
20
-91.313
40
1.27
0
CIRCLE
8
BLACK
10
40.5892
20
-75.819
40
1.27
0
CIRCLE
8
BLACK
10
51.2572
20
-80.645
40
0.762
0
CIRCLE
8
BLACK
10
51.2572
20
-86.487
40
0.762
0
CIRCLE
8
BLACK
10
51.2572
20
-78.105
40
0.762
0
CIRCLE
8
BLACK
10
51.2572
20
-89.027
40
0.762
0
LINE
8
BLACK
10
47.1932
20
-86.614
11
45.6692
21
-86.614
0
LINE
8
BLACK
10
45.6692
20
-86.614
11
45.6692
21
-88.138
0
LINE
8
BLACK
10
45.6692
20
-88.138
11
47.1932
21
-88.138
0
LINE
8
BLACK
10
47.1932
20
-88.138
11
47.1932
21
-86.614
0
LINE
8
BLACK
10
100.419
20
-107.785
11
100.419
21
-106.388
0
LINE
8
BLACK
10
100.419
20
-106.388
11
99.0219
21
-106.388
0
LINE
8
BLACK
10
99.0219
20
-106.388
11
99.0219
21
-107.785
0
LINE
8
BLACK
10
99.0219
20
-107.785
11
100.419
21
-107.785
0
CIRCLE
8
BLACK
10
97.1804
20
-107.086
40
0.6985
0
CIRCLE
8
BLACK
10
94.6404
20
-107.086
40
0.6985
0
CIRCLE
8
BLACK
10
92.1004
20
-107.086
40
0.6985
0
CIRCLE
8
BLACK
10
89.5604
20
-107.086
40
0.6985
0
CIRCLE
8
BLACK
10
87.0204
20
-107.086
40
0.6985
0
CIRCLE
8
BLACK
10
84.4804
20
-107.086
40
0.6985
0
CIRCLE
8
BLACK
10
81.9404
20
-107.086
40
0.6985
0
CIRCLE
8
BLACK
10
79.4004
20
-107.086
40
0.6985
0
CIRCLE
8
BLACK
10
76.8604
20
-107.086
40
0.6985
0
CIRCLE
8
BLACK
10
76.8604
20
-114.706
40
0.6985
0
CIRCLE
8
BLACK
10
79.4004
20
-114.706
40
0.6985
0
CIRCLE
8
BLACK
10
81.9404
20
-114.706
40
0.6985
0
CIRCLE
8
BLACK
10
84.4804
20
-114.706
40
0.6985
0
CIRCLE
8
BLACK
10
87.0204
20
-114.706
40
0.6985
0
CIRCLE
8
BLACK
10
89.5604
20
-114.706
40
0.6985
0
CIRCLE
8
BLACK
10
92.1004
20
-114.706
40
0.6985
0
CIRCLE
8
BLACK
10
94.6404
20
-114.706
40
0.6985
0
CIRCLE
8
BLACK
10
97.1804
20
-114.706
40
0.6985
0
CIRCLE
8
BLACK
10
99.7204
20
-114.706
40
0.6985
0
LINE
8
BLACK
10
100.47
20
-140.907
11
100.47
21
-139.51
0
LINE
8
BLACK
10
100.47
20
-139.51
11
99.0727
21
-139.51
0
LINE
8
BLACK
10
99.0727
20
-139.51
11
99.0727
21
-140.907
0
LINE
8
BLACK
10
99.0727
20
-140.907
11
100.47
21
-140.907
0
CIRCLE
8
BLACK
10
97.2312
20
-140.208
40
0.6985
0
CIRCLE
8
BLACK
10
94.6912
20
-140.208
40
0.6985
0
CIRCLE
8
BLACK
10
92.1512
20
-140.208
40
0.6985
0
CIRCLE
8
BLACK
10
89.6112
20
-140.208
40
0.6985
0
CIRCLE
8
BLACK
10
87.0712
20
-140.208
40
0.6985
0
CIRCLE
8
BLACK
10
84.5312
20
-140.208
40
0.6985
0
CIRCLE
8
BLACK
10
81.9912
20
-140.208
40
0.6985
0
CIRCLE
8
BLACK
10
79.4512
20
-140.208
40
0.6985
0
CIRCLE
8
BLACK
10
76.9112
20
-140.208
40
0.6985
0
CIRCLE
8
BLACK
10
76.9112
20
-147.828
40
0.6985
0
CIRCLE
8
BLACK
10
79.4512
20
-147.828
40
0.6985
0
CIRCLE
8
BLACK
10
81.9912
20
-147.828
40
0.6985
0
CIRCLE
8
BLACK
10
84.5312
20
-147.828
40
0.6985
0
CIRCLE
8
BLACK
10
87.0712
20
-147.828
40
0.6985
0
CIRCLE
8
BLACK
10
89.6112
20
-147.828
40
0.6985
0
CIRCLE
8
BLACK
10
92.1512
20
-147.828
40
0.6985
0
CIRCLE
8
BLACK
10
94.6912
20
-147.828
40
0.6985
0
CIRCLE
8
BLACK
10
97.2312
20
-147.828
40
0.6985
0
CIRCLE
8
BLACK
10
99.7712
20
-147.828
40
0.6985
0
LINE
8
BLACK
10
98.9457
20
-64.8589
11
98.9457
21
-63.4619
0
LINE
8
BLACK
10
98.9457
20
-63.4619
11
97.5487
21
-63.4619
0
LINE
8
BLACK
10
97.5487
20
-63.4619
11
97.5487
21
-64.8589
0
LINE
8
BLACK
10
97.5487
20
-64.8589
11
98.9457
21
-64.8589
0
CIRCLE
8
BLACK
10
95.7072
20
-64.1604
40
0.6985
0
CIRCLE
8
BLACK
10
93.1672
20
-64.1604
40
0.6985
0
CIRCLE
8
BLACK
10
90.6272
20
-64.1604
40
0.6985
0
CIRCLE
8
BLACK
10
88.0872
20
-64.1604
40
0.6985
0
CIRCLE
8
BLACK
10
85.5472
20
-64.1604
40
0.6985
0
CIRCLE
8
BLACK
10
83.0072
20
-64.1604
40
0.6985
0
CIRCLE
8
BLACK
10
80.4672
20
-64.1604
40
0.6985
0
CIRCLE
8
BLACK
10
80.4672
20
-71.7804
40
0.6985
0
CIRCLE
8
BLACK
10
83.0072
20
-71.7804
40
0.6985
0
CIRCLE
8
BLACK
10
85.5472
20
-71.7804
40
0.6985
0
CIRCLE
8
BLACK
10
88.0872
20
-71.7804
40
0.6985
0
CIRCLE
8
BLACK
10
90.6272
20
-71.7804
40
0.6985
0
CIRCLE
8
BLACK
10
93.1672
20
-71.7804
40
0.6985
0
CIRCLE
8
BLACK
10
95.7072
20
-71.7804
40
0.6985
0
CIRCLE
8
BLACK
10
98.2472
20
-71.7804
40
0.6985
0
LINE
8
BLACK
10
97.9551
20
-83.4263
11
97.9551
21
-82.0293
0
LINE
8
BLACK
10
97.9551
20
-82.0293
11
96.5581
21
-82.0293
0
LINE
8
BLACK
10
96.5581
20
-82.0293
11
96.5581
21
-83.4263
0
LINE
8
BLACK
10
96.5581
20
-83.4263
11
97.9551
21
-83.4263
0
CIRCLE
8
BLACK
10
94.7166
20
-82.7278
40
0.6985
0
CIRCLE
8
BLACK
10
92.1766
20
-82.7278
40
0.6985
0
CIRCLE
8
BLACK
10
89.6366
20
-82.7278
40
0.6985
0
CIRCLE
8
BLACK
10
87.0966
20
-82.7278
40
0.6985
0
CIRCLE
8
BLACK
10
84.5566
20
-82.7278
40
0.6985
0
CIRCLE
8
BLACK
10
82.0166
20
-82.7278
40
0.6985
0
CIRCLE
8
BLACK
10
79.4766
20
-82.7278
40
0.6985
0
CIRCLE
8
BLACK
10
79.4766
20
-90.3478
40
0.6985
0
CIRCLE
8
BLACK
10
82.0166
20
-90.3478
40
0.6985
0
CIRCLE
8
BLACK
10
84.5566
20
-90.3478
40
0.6985
0
CIRCLE
8
BLACK
10
87.0966
20
-90.3478
40
0.6985
0
CIRCLE
8
BLACK
10
89.6366
20
-90.3478
40
0.6985
0
CIRCLE
8
BLACK
10
92.1766
20
-90.3478
40
0.6985
0
CIRCLE
8
BLACK
10
94.7166
20
-90.3478
40
0.6985
0
CIRCLE
8
BLACK
10
97.2566
20
-90.3478
40
0.6985
0
LINE
8
BLACK
10
80.1497
20
-160.973
11
80.1497
21
-159.576
0
LINE
8
BLACK
10
80.1497
20
-159.576
11
78.7527
21
-159.576
0
LINE
8
BLACK
10
78.7527
20
-159.576
11
78.7527
21
-160.973
0
LINE
8
BLACK
10
78.7527
20
-160.973
11
80.1497
21
-160.973
0
CIRCLE
8
BLACK
10
87.0712
20
-160.274
40
0.6985
0
LINE
8
BLACK
10
83.7819
20
-129.502
11
83.7819
21
-130.899
0
LINE
8
BLACK
10
83.7819
20
-130.899
11
85.1789
21
-130.899
0
LINE
8
BLACK
10
85.1789
20
-130.899
11
85.1789
21
-129.502
0
LINE
8
BLACK
10
85.1789
20
-129.502
11
83.7819
21
-129.502
0
CIRCLE
8
BLACK
10
76.8604
20
-130.2
40
0.6985
0
LINE
8
BLACK
10
83.8327
20
-162.674
11
83.8327
21
-164.071
0
LINE
8
BLACK
10
83.8327
20
-164.071
11
85.2297
21
-164.071
0
LINE
8
BLACK
10
85.2297
20
-164.071
11
85.2297
21
-162.674
0
LINE
8
BLACK
10
85.2297
20
-162.674
11
83.8327
21
-162.674
0
CIRCLE
8
BLACK
10
76.9112
20
-163.373
40
0.6985
0
LINE
8
BLACK
10
80.0989
20
-127.851
11
80.0989
21
-126.454
0
LINE
8
BLACK
10
80.0989
20
-126.454
11
78.7019
21
-126.454
0
LINE
8
BLACK
10
78.7019
20
-126.454
11
78.7019
21
-127.851
0
LINE
8
BLACK
10
78.7019
20
-127.851
11
80.0989
21
-127.851
0
CIRCLE
8
BLACK
10
87.0204
20
-127.152
40
0.6985
0
CIRCLE
8
BLACK
10
105.41
20
-77.5208
40
0.6985
0
CIRCLE
8
BLACK
10
102.87
20
-77.5208
40
0.6985
0
CIRCLE
8
BLACK
10
69.4944
20
-121.107
40
0.6985
0
CIRCLE
8
BLACK
10
69.4944
20
-123.647
40
0.6985
0
CIRCLE
8
BLACK
10
81.3308
20
-78.6892
40
0.6985
0
CIRCLE
8
BLACK
10
83.8708
20
-78.6892
40
0.6985
0
CIRCLE
8
BLACK
10
105.41
20
-80.772
40
0.6985
0
CIRCLE
8
BLACK
10
102.87
20
-80.772
40
0.6985
0
CIRCLE
8
BLACK
10
105.41
20
-69.2404
40
0.6985
0
CIRCLE
8
BLACK
10
105.41
20
-66.7004
40
0.6985
0
CIRCLE
8
BLACK
10
81.8388
20
-59.9948
40
0.6985
0
CIRCLE
8
BLACK
10
84.3788
20
-59.9948
40
0.6985
0
CIRCLE
8
BLACK
10
90.5764
20
-59.8932
40
0.6985
0
CIRCLE
8
BLACK
10
88.0364
20
-59.8932
40
0.6985
0
CIRCLE
8
BLACK
10
96.6724
20
-59.8932
40
0.6985
0
CIRCLE
8
BLACK
10
94.1324
20
-59.8932
40
0.6985
0
CIRCLE
8
BLACK
10
89.6874
20
-78.7146
40
0.6985
0
CIRCLE
8
BLACK
10
87.1474
20
-78.7146
40
0.6985
0
CIRCLE
8
BLACK
10
96.1898
20
-78.613
40
0.6985
0
CIRCLE
8
BLACK
10
93.6498
20
-78.613
40
0.6985
0
CIRCLE
8
BLACK
10
63.246
20
-165.405
40
0.6985
0
CIRCLE
8
BLACK
10
63.246
20
-167.945
40
0.6985
0
CIRCLE
8
BLACK
10
76.8604
20
-123.647
40
0.6985
0
CIRCLE
8
BLACK
10
79.4004
20
-123.647
40
0.6985
0
CIRCLE
8
BLACK
10
94.6404
20
-127.051
40
0.6985
0
CIRCLE
8
BLACK
10
97.1804
20
-127.051
40
0.6985
0
CIRCLE
8
BLACK
10
67.7164
20
-117.196
40
0.6985
0
CIRCLE
8
BLACK
10
67.7164
20
-114.656
40
0.6985
0
CIRCLE
8
BLACK
10
63.0936
20
-148.742
40
0.6985
0
CIRCLE
8
BLACK
10
63.0936
20
-151.282
40
0.6985
0
CIRCLE
8
BLACK
10
63.0936
20
-156.87
40
0.6985
0
CIRCLE
8
BLACK
10
63.0936
20
-159.41
40
0.6985
0
CIRCLE
8
BLACK
10
94.6912
20
-159.664
40
0.6985
0
CIRCLE
8
BLACK
10
97.2312
20
-159.664
40
0.6985
0
CIRCLE
8
BLACK
10
76.9112
20
-157.124
40
0.6985
0
CIRCLE
8
BLACK
10
79.4512
20
-157.124
40
0.6985
0
CIRCLE
8
BLACK
10
72.898
20
-121.107
40
0.6985
0
CIRCLE
8
BLACK
10
72.898
20
-123.647
40
0.6985
0
LINE
8
BLACK
10
115.062
20
-154.127
11
112.522
21
-154.127
0
LINE
8
BLACK
10
112.522
20
-154.127
11
112.522
21
-156.667
0
LINE
8
BLACK
10
112.522
20
-156.667
11
115.062
21
-156.667
0
LINE
8
BLACK
10
115.062
20
-156.667
11
115.062
21
-154.127
0
CIRCLE
8
BLACK
10
113.792
20
-160.477
40
1.27
0
CIRCLE
8
BLACK
10
113.792
20
-165.557
40
1.27
0
LINE
8
BLACK
10
115.062
20
-137.668
11
112.522
21
-137.668
0
LINE
8
BLACK
10
112.522
20
-137.668
11
112.522
21
-140.208
0
LINE
8
BLACK
10
112.522
20
-140.208
11
115.062
21
-140.208
0
LINE
8
BLACK
10
115.062
20
-140.208
11
115.062
21
-137.668
0
CIRCLE
8
BLACK
10
113.792
20
-144.018
40
1.27
0
CIRCLE
8
BLACK
10
113.792
20
-149.098
40
1.27
0
LINE
8
BLACK
10
115.062
20
-121.056
11
112.522
21
-121.056
0
LINE
8
BLACK
10
112.522
20
-121.056
11
112.522
21
-123.596
0
LINE
8
BLACK
10
112.522
20
-123.596
11
115.062
21
-123.596
0
LINE
8
BLACK
10
115.062
20
-123.596
11
115.062
21
-121.056
0
CIRCLE
8
BLACK
10
113.792
20
-127.406
40
1.27
0
CIRCLE
8
BLACK
10
113.792
20
-132.486
40
1.27
0
LINE
8
BLACK
10
115.062
20
-104.546
11
112.522
21
-104.546
0
LINE
8
BLACK
10
112.522
20
-104.546
11
112.522
21
-107.086
0
LINE
8
BLACK
10
112.522
20
-107.086
11
115.062
21
-107.086
0
LINE
8
BLACK
10
115.062
20
-107.086
11
115.062
21
-104.546
0
CIRCLE
8
BLACK
10
113.792
20
-110.896
40
1.27
0
CIRCLE
8
BLACK
10
113.792
20
-115.976
40
1.27
0
CIRCLE
8
BLACK
10
51.4604
20
-159.41
40
0.6985
0
CIRCLE
8
BLACK
10
59.0804
20
-159.41
40
0.6985
0
CIRCLE
8
BLACK
10
51.6636
20
-167.945
40
0.6985
0
CIRCLE
8
BLACK
10
59.2836
20
-167.945
40
0.6985
0
CIRCLE
8
BLACK
10
87.0204
20
-130.2
40
0.6985
0
CIRCLE
8
BLACK
10
94.6404
20
-130.2
40
0.6985
0
CIRCLE
8
BLACK
10
51.562
20
-151.282
40
0.6985
0
CIRCLE
8
BLACK
10
59.182
20
-151.282
40
0.6985
0
CIRCLE
8
BLACK
10
71.5264
20
-107.086
40
0.6985
0
CIRCLE
8
BLACK
10
71.5264
20
-114.706
40
0.6985
0
CIRCLE
8
BLACK
10
87.0712
20
-163.373
40
0.6985
0
CIRCLE
8
BLACK
10
94.6912
20
-163.373
40
0.6985
0
LINE
8
BLACK
10
115.113
20
-173.888
11
112.573
21
-173.888
0
LINE
8
BLACK
10
112.573
20
-173.888
11
112.573
21
-176.428
0
LINE
8
BLACK
10
112.573
20
-176.428
11
115.113
21
-176.428
0
LINE
8
BLACK
10
115.113
20
-176.428
11
115.113
21
-173.888
0
CIRCLE
8
BLACK
10
113.843
20
-180.238
40
1.27
0
CIRCLE
8
BLACK
10
113.843
20
-185.318
40
1.27
0
LINE
8
BLACK
10
114.91
20
-73.6092
11
112.37
21
-73.6092
0
LINE
8
BLACK
10
112.37
20
-73.6092
11
112.37
21
-76.1492
0
LINE
8
BLACK
10
112.37
20
-76.1492
11
114.91
21
-76.1492
0
LINE
8
BLACK
10
114.91
20
-76.1492
11
114.91
21
-73.6092
0
CIRCLE
8
BLACK
10
113.64
20
-79.9592
40
1.27
0
CIRCLE
8
BLACK
10
102.337
20
-48.3616
40
1.905
0
CIRCLE
8
BLACK
10
76.9366
20
-48.3616
40
1.905
0
LINE
8
BLACK
10
83.2866
20
-50.1396
11
83.2866
21
-51.6636
0
LINE
8
BLACK
10
83.2866
20
-51.6636
11
84.8106
21
-51.6636
0
LINE
8
BLACK
10
84.8106
20
-51.6636
11
84.8106
21
-50.1396
0
LINE
8
BLACK
10
84.8106
20
-50.1396
11
83.2866
21
-50.1396
0
CIRCLE
8
BLACK
10
86.8426
20
-50.9016
40
0.762
0
CIRCLE
8
BLACK
10
89.5096
20
-50.9016
40
0.762
0
CIRCLE
8
BLACK
10
92.3036
20
-50.9016
40
0.762
0
CIRCLE
8
BLACK
10
95.0976
20
-50.9016
40
0.762
0
CIRCLE
8
BLACK
10
85.4456
20
-48.3616
40
0.762
0
CIRCLE
8
BLACK
10
88.2396
20
-48.3616
40
0.762
0
CIRCLE
8
BLACK
10
90.9066
20
-48.3616
40
0.762
0
CIRCLE
8
BLACK
10
93.7006
20
-48.3616
40
0.762
0
CIRCLE
8
BLACK
10
37.592
20
-137.236
40
1.905
0
CIRCLE
8
BLACK
10
37.592
20
-184.226
40
1.905
0
LINE
8
BLACK
10
39.37
20
-178.003
11
40.894
21
-178.003
0
LINE
8
BLACK
10
40.894
20
-178.003
11
40.894
21
-176.479
0
LINE
8
BLACK
10
40.894
20
-176.479
11
39.37
21
-176.479
0
LINE
8
BLACK
10
39.37
20
-176.479
11
39.37
21
-178.003
0
CIRCLE
8
BLACK
10
40.132
20
-174.447
40
0.762
0
CIRCLE
8
BLACK
10
40.132
20
-171.78
40
0.762
0
CIRCLE
8
BLACK
10
40.132
20
-168.986
40
0.762
0
CIRCLE
8
BLACK
10
40.132
20
-166.192
40
0.762
0
CIRCLE
8
BLACK
10
40.132
20
-163.398
40
0.762
0
CIRCLE
8
BLACK
10
40.132
20
-160.731
40
0.762
0
CIRCLE
8
BLACK
10
40.132
20
-157.937
40
0.762
0
CIRCLE
8
BLACK
10
40.132
20
-155.143
40
0.762
0
CIRCLE
8
BLACK
10
40.132
20
-152.349
40
0.762
0
CIRCLE
8
BLACK
10
40.132
20
-149.682
40
0.762
0
CIRCLE
8
BLACK
10
40.132
20
-146.888
40
0.762
0
CIRCLE
8
BLACK
10
40.132
20
-144.094
40
0.762
0
CIRCLE
8
BLACK
10
37.592
20
-175.666
40
0.762
0
CIRCLE
8
BLACK
10
37.592
20
-173.126
40
0.762
0
CIRCLE
8
BLACK
10
37.592
20
-170.332
40
0.762
0
CIRCLE
8
BLACK
10
37.592
20
-167.589
40
0.762
0
CIRCLE
8
BLACK
10
37.592
20
-164.846
40
0.762
0
CIRCLE
8
BLACK
10
37.592
20
-162.052
40
0.762
0
CIRCLE
8
BLACK
10
37.592
20
-159.309
40
0.762
0
CIRCLE
8
BLACK
10
37.592
20
-156.566
40
0.762
0
CIRCLE
8
BLACK
10
37.592
20
-153.721
40
0.762
0
CIRCLE
8
BLACK
10
37.592
20
-151.028
40
0.762
0
CIRCLE
8
BLACK
10
37.592
20
-148.285
40
0.762
0
CIRCLE
8
BLACK
10
37.592
20
-145.491
40
0.762
0
LINE
8
BLACK
10
29.0576
20
-127.864
11
31.5976
21
-127.864
0
LINE
8
BLACK
10
31.5976
20
-127.864
11
31.5976
21
-125.324
0
LINE
8
BLACK
10
31.5976
20
-125.324
11
29.0576
21
-125.324
0
LINE
8
BLACK
10
29.0576
20
-125.324
11
29.0576
21
-127.864
0
CIRCLE
8
BLACK
10
30.3276
20
-121.514
40
1.27
0
CIRCLE
8
BLACK
10
30.3276
20
-116.434
40
1.27
0
LINE
8
BLACK
10
63.0936
20
-185.369
11
63.0936
21
-182.829
0
LINE
8
BLACK
10
63.0936
20
-182.829
11
60.5536
21
-182.829
0
LINE
8
BLACK
10
60.5536
20
-182.829
11
60.5536
21
-185.369
0
LINE
8
BLACK
10
60.5536
20
-185.369
11
63.0936
21
-185.369
0
CIRCLE
8
BLACK
10
56.7436
20
-184.099
40
1.27
0
CIRCLE
8
BLACK
10
51.6636
20
-184.099
40
1.27
0
LINE
8
BLACK
10
51.9684
20
-41.5036
11
51.9684
21
-44.0436
0
LINE
8
BLACK
10
51.9684
20
-44.0436
11
54.5084
21
-44.0436
0
LINE
8
BLACK
10
54.5084
20
-44.0436
11
54.5084
21
-41.5036
0
LINE
8
BLACK
10
54.5084
20
-41.5036
11
51.9684
21
-41.5036
0
CIRCLE
8
BLACK
10
58.3184
20
-42.7736
40
1.27
0
CIRCLE
8
BLACK
10
63.3984
20
-42.7736
40
1.27
0
LINE
8
BLACK
10
36.322
20
-42.164
11
36.322
21
-44.704
0
LINE
8
BLACK
10
36.322
20
-44.704
11
38.862
21
-44.704
0
LINE
8
BLACK
10
38.862
20
-44.704
11
38.862
21
-42.164
0
LINE
8
BLACK
10
38.862
20
-42.164
11
36.322
21
-42.164
0
CIRCLE
8
BLACK
10
42.672
20
-43.434
40
1.27
  0
ENDSEC
  0
EOF
