G04 (created by PCBNEW (2013-07-07 BZR 4022)-stable) date 24/03/2015 16:32:38*
%MOIN*%
G04 Gerber Fmt 3.4, Leading zero omitted, Abs format*
%FSLAX34Y34*%
G01*
G70*
G90*
G04 APERTURE LIST*
%ADD10C,0.00590551*%
%ADD11C,0.1516*%
%ADD12C,0.06*%
%ADD13C,0.1*%
%ADD14R,0.06X0.06*%
%ADD15C,0.055*%
%ADD16R,0.055X0.055*%
%ADD17R,0.08X0.08*%
%ADD18C,0.08*%
%ADD19C,0.0590551*%
%ADD20C,0.0472441*%
%ADD21C,0.015748*%
G04 APERTURE END LIST*
G54D10*
G54D11*
X6175Y23295D03*
X10675Y23295D03*
G54D12*
X10175Y20795D03*
X9925Y19795D03*
X9175Y20795D03*
X8925Y19795D03*
X8175Y20795D03*
X7925Y19795D03*
X7175Y20795D03*
G54D13*
X5375Y22095D03*
X11475Y22095D03*
G54D14*
X6925Y19795D03*
G54D11*
X10777Y4594D03*
X6277Y4594D03*
G54D12*
X6777Y7094D03*
X7027Y8094D03*
X7777Y7094D03*
X8027Y8094D03*
X8777Y7094D03*
X9027Y8094D03*
X9777Y7094D03*
G54D13*
X11577Y5794D03*
X5477Y5794D03*
G54D14*
X10027Y8094D03*
G54D11*
X6177Y11494D03*
X6177Y15994D03*
G54D12*
X8677Y15494D03*
X9677Y15244D03*
X8677Y14494D03*
X9677Y14244D03*
X8677Y13494D03*
X9677Y13244D03*
X8677Y12494D03*
G54D13*
X7377Y10694D03*
X7377Y16794D03*
G54D14*
X9677Y12244D03*
G54D15*
X13964Y16649D03*
X16964Y16649D03*
X13944Y15212D03*
X16944Y15212D03*
X14055Y11566D03*
X17055Y11566D03*
X14007Y13421D03*
X17007Y13421D03*
X13929Y18964D03*
X16929Y18964D03*
X13929Y20417D03*
X16929Y20417D03*
G54D16*
X18484Y18968D03*
G54D15*
X21484Y18968D03*
G54D16*
X18476Y20417D03*
G54D15*
X21476Y20417D03*
G54D16*
X18543Y11527D03*
G54D15*
X21543Y11527D03*
G54D16*
X18559Y13468D03*
G54D15*
X21559Y13468D03*
G54D16*
X18496Y16625D03*
G54D15*
X21496Y16625D03*
G54D16*
X18531Y15196D03*
G54D15*
X21531Y15196D03*
G54D17*
X13598Y22543D03*
G54D18*
X13598Y23543D03*
X14598Y22543D03*
X14598Y23543D03*
X15598Y22543D03*
X15598Y23543D03*
X16598Y22543D03*
X16598Y23543D03*
X17598Y22543D03*
X17598Y23543D03*
X18598Y22543D03*
X18598Y23543D03*
X19598Y22543D03*
X19598Y23543D03*
X20598Y22543D03*
X20598Y23543D03*
X21598Y22543D03*
X21598Y23543D03*
X22598Y22543D03*
X22598Y23543D03*
X23598Y22543D03*
X23598Y23543D03*
X24598Y22543D03*
X24598Y23543D03*
X25598Y22543D03*
X25598Y23543D03*
X26598Y22543D03*
X26598Y23543D03*
X27598Y22543D03*
X27598Y23543D03*
X28598Y22543D03*
X28598Y23543D03*
X29598Y22543D03*
X29598Y23543D03*
X30598Y22543D03*
X30598Y23543D03*
X31598Y22543D03*
X31598Y23543D03*
X32598Y22543D03*
X32598Y23543D03*
X33598Y22543D03*
X33598Y23543D03*
X34598Y22543D03*
X34598Y23543D03*
X35598Y22543D03*
X35598Y23543D03*
G54D17*
X13649Y3444D03*
G54D18*
X13649Y4444D03*
X14649Y3444D03*
X14649Y4444D03*
X15649Y3444D03*
X15649Y4444D03*
X16649Y3444D03*
X16649Y4444D03*
X17649Y3444D03*
X17649Y4444D03*
X18649Y3444D03*
X18649Y4444D03*
X19649Y3444D03*
X19649Y4444D03*
X20649Y3444D03*
X20649Y4444D03*
X21649Y3444D03*
X21649Y4444D03*
X22649Y3444D03*
X22649Y4444D03*
X23649Y3444D03*
X23649Y4444D03*
X24649Y3444D03*
X24649Y4444D03*
X25649Y3444D03*
X25649Y4444D03*
X26649Y3444D03*
X26649Y4444D03*
X27649Y3444D03*
X27649Y4444D03*
X28649Y3444D03*
X28649Y4444D03*
X29649Y3444D03*
X29649Y4444D03*
X30649Y3444D03*
X30649Y4444D03*
X31649Y3444D03*
X31649Y4444D03*
X32649Y3444D03*
X32649Y4444D03*
X33649Y3444D03*
X33649Y4444D03*
X34649Y3444D03*
X34649Y4444D03*
X35649Y3444D03*
X35649Y4444D03*
G54D14*
X26232Y25649D03*
G54D12*
X27232Y25649D03*
X28232Y25649D03*
X29232Y25649D03*
X30232Y25649D03*
G54D14*
X37401Y20244D03*
G54D12*
X37401Y21244D03*
X37401Y22244D03*
X37401Y23244D03*
X37401Y24244D03*
G54D14*
X31822Y25629D03*
G54D12*
X32822Y25629D03*
X33822Y25629D03*
X34822Y25629D03*
X35822Y25629D03*
G54D14*
X37204Y11177D03*
G54D12*
X37204Y10177D03*
G54D14*
X37240Y13799D03*
G54D12*
X37240Y12799D03*
G54D14*
X37275Y16251D03*
G54D12*
X37275Y15251D03*
G54D14*
X37311Y18700D03*
G54D12*
X37311Y17700D03*
G54D14*
X37240Y8480D03*
G54D12*
X37240Y7480D03*
G54D14*
X18988Y7161D03*
G54D12*
X17988Y7161D03*
G54D19*
X35155Y14403D03*
X35141Y15394D03*
X35141Y16371D03*
X35141Y17361D03*
X30429Y17365D03*
X30444Y16375D03*
X30459Y15400D03*
X30459Y14419D03*
X28722Y16214D03*
X28708Y17205D03*
X28708Y18182D03*
X28708Y19172D03*
X23996Y19176D03*
X24011Y18186D03*
X24026Y17211D03*
X24026Y16230D03*
X27257Y10064D03*
X27243Y11055D03*
X27243Y12032D03*
X27243Y13022D03*
X22531Y13026D03*
X22546Y12036D03*
X22561Y11061D03*
X22561Y10080D03*
X35190Y8242D03*
X35176Y9233D03*
X35176Y10210D03*
X35176Y11200D03*
X30464Y11204D03*
X30479Y10214D03*
X30494Y9239D03*
X30494Y8258D03*
G54D20*
X25181Y15468D03*
X32649Y15094D03*
X25200Y10393D03*
X9696Y11165D03*
X12389Y10677D03*
X12633Y8468D03*
X13755Y177D03*
X18480Y1996D03*
X21874Y1996D03*
X29795Y944D03*
X33118Y2464D03*
X30204Y2598D03*
X28299Y5535D03*
X28496Y11885D03*
X22866Y21625D03*
X22645Y7350D03*
X7594Y14700D03*
X30311Y24531D03*
X36259Y20814D03*
X34779Y19669D03*
X29649Y21468D03*
X32125Y24409D03*
X34299Y21078D03*
X32590Y21500D03*
X26724Y24606D03*
X27685Y2023D03*
X38318Y21937D03*
X37496Y25086D03*
X33086Y24307D03*
X29015Y5704D03*
X28940Y14086D03*
X18708Y24574D03*
X4169Y8956D03*
X15011Y2574D03*
X24409Y2003D03*
X24602Y12035D03*
X32326Y8185D03*
X31755Y9657D03*
X29551Y13125D03*
X27200Y14476D03*
X12547Y19688D03*
G54D21*
X32649Y15094D02*
X32633Y15094D01*
X26531Y15468D02*
X25181Y15468D01*
X28259Y15468D02*
X26531Y15468D01*
X30051Y13677D02*
X28259Y15468D01*
X31216Y13677D02*
X30051Y13677D01*
X32633Y15094D02*
X31216Y13677D01*
X18929Y7133D02*
X20728Y7133D01*
X25200Y7106D02*
X25200Y10393D01*
X24043Y5948D02*
X25200Y7106D01*
X21913Y5948D02*
X24043Y5948D01*
X20728Y7133D02*
X21913Y5948D01*
X11901Y11165D02*
X9696Y11165D01*
X12389Y10677D02*
X11901Y11165D01*
X18929Y7133D02*
X18929Y7248D01*
X17708Y8468D02*
X12633Y8468D01*
X18929Y7248D02*
X17708Y8468D01*
X33649Y3444D02*
X33649Y2996D01*
X13791Y212D02*
X13755Y177D01*
X16696Y212D02*
X13791Y212D01*
X18480Y1996D02*
X16696Y212D01*
X22960Y909D02*
X21874Y1996D01*
X29759Y909D02*
X22960Y909D01*
X29795Y944D02*
X29759Y909D01*
X33649Y2996D02*
X33118Y2464D01*
X17007Y13421D02*
X18511Y13421D01*
X18511Y13421D02*
X18559Y13468D01*
X18476Y20417D02*
X18476Y20094D01*
X26598Y21574D02*
X26598Y22543D01*
X26192Y21169D02*
X26598Y21574D01*
X23267Y21169D02*
X26192Y21169D01*
X21720Y19622D02*
X23267Y21169D01*
X18948Y19622D02*
X21720Y19622D01*
X18476Y20094D02*
X18948Y19622D01*
X30649Y3444D02*
X30649Y3043D01*
X30649Y3043D02*
X30204Y2598D01*
X18531Y15196D02*
X16960Y15196D01*
X16960Y15196D02*
X16944Y15212D01*
X28299Y5535D02*
X28496Y5732D01*
X28496Y5732D02*
X28496Y11885D01*
X23598Y22358D02*
X23598Y22543D01*
X22866Y21625D02*
X23598Y22358D01*
X22645Y7385D02*
X22645Y7350D01*
X20196Y9834D02*
X22645Y7385D01*
X10043Y9834D02*
X20196Y9834D01*
X6720Y13157D02*
X10043Y9834D01*
X6720Y13826D02*
X6720Y13157D01*
X7594Y14700D02*
X6720Y13826D01*
X29598Y23543D02*
X29598Y23818D01*
X29598Y23818D02*
X30311Y24531D01*
X29598Y22543D02*
X29598Y21519D01*
X36259Y20015D02*
X36259Y20814D01*
X35913Y19669D02*
X36259Y20015D01*
X34779Y19669D02*
X35913Y19669D01*
X29598Y21519D02*
X29649Y21468D01*
X31598Y23881D02*
X32125Y24409D01*
X31598Y23543D02*
X31598Y23881D01*
X34283Y21094D02*
X33818Y21094D01*
X34299Y21078D02*
X34283Y21094D01*
X31598Y22543D02*
X31598Y20858D01*
X33657Y21094D02*
X33818Y21094D01*
X33818Y21094D02*
X34314Y21094D01*
X32846Y20283D02*
X33657Y21094D01*
X32173Y20283D02*
X32846Y20283D01*
X31598Y20858D02*
X32173Y20283D01*
X32590Y21500D02*
X32598Y21507D01*
X32598Y22543D02*
X32598Y21507D01*
X28598Y23543D02*
X28598Y23929D01*
X27921Y24606D02*
X26724Y24606D01*
X28598Y23929D02*
X27921Y24606D01*
X27649Y2059D02*
X27649Y3444D01*
X27685Y2023D02*
X27649Y2059D01*
X32598Y23543D02*
X32598Y23818D01*
X38366Y21984D02*
X38318Y21937D01*
X38366Y24787D02*
X38366Y21984D01*
X38055Y25098D02*
X38366Y24787D01*
X37507Y25098D02*
X38055Y25098D01*
X37496Y25086D02*
X37507Y25098D01*
X32598Y23818D02*
X33086Y24307D01*
X29015Y12704D02*
X29015Y14011D01*
X29015Y12704D02*
X29015Y5704D01*
X29015Y14011D02*
X28940Y14086D01*
X23598Y24240D02*
X23598Y23543D01*
X23220Y24618D02*
X23598Y24240D01*
X18751Y24618D02*
X23220Y24618D01*
X18708Y24574D02*
X18751Y24618D01*
X25598Y23543D02*
X25598Y24409D01*
X4169Y19015D02*
X4169Y8956D01*
X10740Y25586D02*
X4169Y19015D01*
X24421Y25586D02*
X10740Y25586D01*
X25598Y24409D02*
X24421Y25586D01*
X24732Y11925D02*
X24712Y11925D01*
X15011Y2574D02*
X14586Y2574D01*
X26055Y10602D02*
X24732Y11925D01*
X26055Y6992D02*
X26055Y10602D01*
X24385Y5322D02*
X26055Y6992D01*
X13208Y5322D02*
X24385Y5322D01*
X12657Y4771D02*
X13208Y5322D01*
X12657Y2795D02*
X12657Y4771D01*
X12877Y2574D02*
X12657Y2795D01*
X14586Y2574D02*
X12877Y2574D01*
X24649Y2244D02*
X24409Y2003D01*
X24649Y3444D02*
X24649Y2244D01*
X24712Y11925D02*
X24602Y12035D01*
X21929Y362D02*
X34759Y362D01*
X20291Y2000D02*
X20291Y2003D01*
X34086Y6425D02*
X32326Y8185D01*
X35933Y6425D02*
X34086Y6425D01*
X37539Y4818D02*
X35933Y6425D01*
X37539Y3141D02*
X37539Y4818D01*
X34759Y362D02*
X37539Y3141D01*
X20291Y2000D02*
X21929Y362D01*
X19649Y2645D02*
X19649Y3444D01*
X20291Y2003D02*
X19649Y2645D01*
X23196Y2354D02*
X23188Y2354D01*
X22649Y3444D02*
X22649Y2893D01*
X23196Y2354D02*
X24051Y1500D01*
X24051Y1500D02*
X35303Y1500D01*
X35303Y1500D02*
X37011Y3208D01*
X37011Y3208D02*
X37011Y4622D01*
X37011Y4622D02*
X35673Y5960D01*
X35673Y5960D02*
X33559Y5960D01*
X33559Y5960D02*
X31755Y7763D01*
X31755Y7763D02*
X31755Y9657D01*
X23188Y2354D02*
X22649Y2893D01*
X23500Y20854D02*
X28122Y20854D01*
X33559Y24137D02*
X33559Y23582D01*
X34149Y24728D02*
X33559Y24137D01*
X36177Y24728D02*
X34149Y24728D01*
X36405Y24500D02*
X36177Y24728D01*
X36405Y21677D02*
X36405Y24500D01*
X35582Y20854D02*
X36405Y21677D01*
X22866Y20220D02*
X23500Y20854D01*
X22866Y18917D02*
X22866Y20220D01*
X21877Y17929D02*
X22866Y18917D01*
X18881Y17929D02*
X21877Y17929D01*
X18484Y18326D02*
X18881Y17929D01*
X18484Y18968D02*
X18484Y18326D01*
X33559Y23582D02*
X33598Y23543D01*
X34799Y20854D02*
X35582Y20854D01*
X33523Y19578D02*
X34799Y20854D01*
X29397Y19578D02*
X33523Y19578D01*
X28122Y20854D02*
X29397Y19578D01*
X29649Y3444D02*
X29649Y2157D01*
X29503Y13078D02*
X29551Y13125D01*
X27200Y14476D02*
X27137Y14539D01*
X27137Y14539D02*
X23901Y14539D01*
X23901Y14539D02*
X22185Y16255D01*
X22185Y16255D02*
X22185Y17070D01*
X22185Y17070D02*
X21854Y17401D01*
X21854Y17401D02*
X19271Y17401D01*
X19271Y17401D02*
X18496Y16625D01*
X29503Y8086D02*
X29503Y11165D01*
X32059Y5531D02*
X29503Y8086D01*
X35570Y5531D02*
X32059Y5531D01*
X36551Y4551D02*
X35570Y5531D01*
X36551Y3255D02*
X36551Y4551D01*
X35165Y1870D02*
X36551Y3255D01*
X30775Y1870D02*
X35165Y1870D01*
X29503Y11165D02*
X29503Y13078D01*
X29937Y1870D02*
X30775Y1870D01*
X29649Y2157D02*
X29937Y1870D01*
X16964Y16649D02*
X18472Y16649D01*
X18472Y16649D02*
X18496Y16625D01*
X17055Y11566D02*
X18503Y11566D01*
X18503Y11566D02*
X18543Y11527D01*
X24598Y24381D02*
X24598Y23543D01*
X23724Y25232D02*
X24598Y24381D01*
X13515Y25233D02*
X23724Y25232D01*
X12480Y23822D02*
X13515Y25233D01*
X12480Y19755D02*
X12480Y23822D01*
X12547Y19688D02*
X12480Y19755D01*
G54D10*
G36*
X22551Y19047D02*
X21747Y18244D01*
X19012Y18244D01*
X18799Y18457D01*
X18799Y18457D01*
X18806Y18457D01*
X18892Y18493D01*
X18959Y18559D01*
X18995Y18646D01*
X18995Y18740D01*
X18995Y19290D01*
X18988Y19307D01*
X21720Y19307D01*
X21720Y19307D01*
X21841Y19331D01*
X21943Y19399D01*
X22551Y20007D01*
X22551Y19047D01*
X22551Y19047D01*
G37*
G54D21*
X22551Y19047D02*
X21747Y18244D01*
X19012Y18244D01*
X18799Y18457D01*
X18799Y18457D01*
X18806Y18457D01*
X18892Y18493D01*
X18959Y18559D01*
X18995Y18646D01*
X18995Y18740D01*
X18995Y19290D01*
X18988Y19307D01*
X21720Y19307D01*
X21720Y19307D01*
X21841Y19331D01*
X21943Y19399D01*
X22551Y20007D01*
X22551Y19047D01*
G54D10*
G36*
X39641Y94D02*
X38791Y94D01*
X38791Y22030D01*
X38719Y22204D01*
X38681Y22242D01*
X38681Y24787D01*
X38681Y24787D01*
X38657Y24907D01*
X38588Y25010D01*
X38588Y25010D01*
X38277Y25321D01*
X38175Y25389D01*
X38055Y25413D01*
X37837Y25413D01*
X37764Y25486D01*
X37590Y25558D01*
X37402Y25559D01*
X37228Y25487D01*
X37095Y25354D01*
X37023Y25181D01*
X37023Y24993D01*
X37095Y24819D01*
X37181Y24733D01*
X37098Y24698D01*
X36947Y24548D01*
X36865Y24351D01*
X36865Y24137D01*
X36946Y23940D01*
X37097Y23789D01*
X37207Y23744D01*
X37098Y23698D01*
X36947Y23548D01*
X36865Y23351D01*
X36865Y23137D01*
X36946Y22940D01*
X37097Y22789D01*
X37207Y22744D01*
X37098Y22698D01*
X36947Y22548D01*
X36865Y22351D01*
X36865Y22137D01*
X36946Y21940D01*
X37097Y21789D01*
X37207Y21744D01*
X37098Y21698D01*
X36947Y21548D01*
X36865Y21351D01*
X36865Y21137D01*
X36946Y20940D01*
X37097Y20789D01*
X37120Y20780D01*
X37054Y20780D01*
X36967Y20744D01*
X36901Y20678D01*
X36865Y20591D01*
X36865Y20497D01*
X36865Y19897D01*
X36901Y19810D01*
X36967Y19743D01*
X37054Y19707D01*
X37148Y19707D01*
X37748Y19707D01*
X37835Y19743D01*
X37901Y19810D01*
X37937Y19896D01*
X37937Y19990D01*
X37937Y20590D01*
X37901Y20677D01*
X37835Y20744D01*
X37748Y20780D01*
X37683Y20780D01*
X37704Y20789D01*
X37855Y20939D01*
X37937Y21136D01*
X37937Y21350D01*
X37856Y21547D01*
X37705Y21698D01*
X37595Y21744D01*
X37704Y21789D01*
X37846Y21930D01*
X37846Y21843D01*
X37918Y21669D01*
X38050Y21536D01*
X38224Y21464D01*
X38412Y21464D01*
X38586Y21536D01*
X38719Y21669D01*
X38791Y21842D01*
X38791Y22030D01*
X38791Y94D01*
X34915Y94D01*
X34982Y139D01*
X37762Y2919D01*
X37762Y2919D01*
X37830Y3021D01*
X37854Y3141D01*
X37854Y3141D01*
X37854Y4818D01*
X37847Y4854D01*
X37847Y17806D01*
X37765Y18004D01*
X37615Y18155D01*
X37592Y18164D01*
X37657Y18164D01*
X37744Y18200D01*
X37811Y18266D01*
X37847Y18353D01*
X37847Y18447D01*
X37847Y19047D01*
X37811Y19134D01*
X37745Y19200D01*
X37658Y19236D01*
X37564Y19237D01*
X36964Y19237D01*
X36877Y19201D01*
X36810Y19134D01*
X36774Y19047D01*
X36774Y18954D01*
X36774Y18354D01*
X36810Y18267D01*
X36877Y18200D01*
X36963Y18164D01*
X37029Y18164D01*
X37007Y18155D01*
X36856Y18004D01*
X36774Y17807D01*
X36774Y17594D01*
X36856Y17397D01*
X37006Y17246D01*
X37203Y17164D01*
X37417Y17164D01*
X37614Y17245D01*
X37765Y17396D01*
X37847Y17593D01*
X37847Y17806D01*
X37847Y4854D01*
X37830Y4939D01*
X37811Y4967D01*
X37811Y15358D01*
X37730Y15555D01*
X37579Y15706D01*
X37557Y15715D01*
X37622Y15715D01*
X37709Y15751D01*
X37775Y15817D01*
X37811Y15904D01*
X37811Y15998D01*
X37811Y16598D01*
X37775Y16685D01*
X37709Y16752D01*
X37622Y16788D01*
X37528Y16788D01*
X36928Y16788D01*
X36841Y16752D01*
X36775Y16685D01*
X36739Y16599D01*
X36739Y16505D01*
X36739Y15905D01*
X36775Y15818D01*
X36841Y15751D01*
X36928Y15715D01*
X36993Y15715D01*
X36972Y15706D01*
X36821Y15556D01*
X36739Y15359D01*
X36739Y15145D01*
X36820Y14948D01*
X36971Y14797D01*
X37168Y14715D01*
X37381Y14715D01*
X37578Y14797D01*
X37729Y14947D01*
X37811Y15144D01*
X37811Y15358D01*
X37811Y4967D01*
X37776Y5020D01*
X37776Y12905D01*
X37695Y13102D01*
X37544Y13253D01*
X37521Y13262D01*
X37586Y13262D01*
X37673Y13298D01*
X37740Y13365D01*
X37776Y13452D01*
X37776Y13545D01*
X37776Y14145D01*
X37740Y14232D01*
X37674Y14299D01*
X37587Y14335D01*
X37493Y14335D01*
X36893Y14335D01*
X36806Y14299D01*
X36740Y14233D01*
X36732Y14214D01*
X36732Y20908D01*
X36660Y21082D01*
X36527Y21215D01*
X36429Y21255D01*
X36628Y21454D01*
X36628Y21454D01*
X36696Y21556D01*
X36720Y21677D01*
X36720Y21677D01*
X36720Y24500D01*
X36720Y24500D01*
X36696Y24620D01*
X36655Y24681D01*
X36628Y24722D01*
X36628Y24722D01*
X36399Y24951D01*
X36359Y24978D01*
X36359Y25736D01*
X36277Y25933D01*
X36126Y26084D01*
X35929Y26166D01*
X35716Y26166D01*
X35519Y26084D01*
X35368Y25934D01*
X35322Y25824D01*
X35277Y25933D01*
X35126Y26084D01*
X34929Y26166D01*
X34716Y26166D01*
X34519Y26084D01*
X34368Y25934D01*
X34322Y25824D01*
X34277Y25933D01*
X34126Y26084D01*
X33929Y26166D01*
X33716Y26166D01*
X33519Y26084D01*
X33368Y25934D01*
X33322Y25824D01*
X33277Y25933D01*
X33126Y26084D01*
X32929Y26166D01*
X32716Y26166D01*
X32519Y26084D01*
X32368Y25934D01*
X32359Y25911D01*
X32359Y25976D01*
X32323Y26063D01*
X32256Y26130D01*
X32170Y26166D01*
X32076Y26166D01*
X31476Y26166D01*
X31389Y26130D01*
X31322Y26063D01*
X31286Y25977D01*
X31286Y25883D01*
X31286Y25283D01*
X31322Y25196D01*
X31388Y25129D01*
X31475Y25093D01*
X31569Y25093D01*
X32169Y25093D01*
X32256Y25129D01*
X32322Y25195D01*
X32359Y25282D01*
X32359Y25348D01*
X32367Y25326D01*
X32518Y25175D01*
X32715Y25093D01*
X32929Y25093D01*
X33126Y25175D01*
X33277Y25325D01*
X33322Y25435D01*
X33367Y25326D01*
X33518Y25175D01*
X33715Y25093D01*
X33929Y25093D01*
X34126Y25175D01*
X34277Y25325D01*
X34322Y25435D01*
X34367Y25326D01*
X34518Y25175D01*
X34715Y25093D01*
X34929Y25093D01*
X35126Y25175D01*
X35277Y25325D01*
X35322Y25435D01*
X35367Y25326D01*
X35518Y25175D01*
X35715Y25093D01*
X35929Y25093D01*
X36126Y25175D01*
X36277Y25325D01*
X36358Y25522D01*
X36359Y25736D01*
X36359Y24978D01*
X36297Y25019D01*
X36177Y25043D01*
X34149Y25043D01*
X34029Y25019D01*
X33926Y24951D01*
X33505Y24529D01*
X33487Y24574D01*
X33354Y24707D01*
X33181Y24779D01*
X32993Y24779D01*
X32819Y24707D01*
X32686Y24575D01*
X32614Y24401D01*
X32614Y24280D01*
X32562Y24228D01*
X32598Y24315D01*
X32598Y24503D01*
X32526Y24676D01*
X32393Y24809D01*
X32220Y24881D01*
X32032Y24881D01*
X31858Y24810D01*
X31725Y24677D01*
X31653Y24503D01*
X31653Y24382D01*
X31435Y24164D01*
X31238Y24082D01*
X31098Y23943D01*
X30959Y24082D01*
X30725Y24179D01*
X30627Y24179D01*
X30711Y24263D01*
X30783Y24437D01*
X30783Y24625D01*
X30768Y24661D01*
X30768Y25755D01*
X30687Y25952D01*
X30536Y26103D01*
X30339Y26185D01*
X30126Y26185D01*
X29928Y26104D01*
X29777Y25953D01*
X29732Y25843D01*
X29687Y25952D01*
X29536Y26103D01*
X29339Y26185D01*
X29126Y26185D01*
X28928Y26104D01*
X28777Y25953D01*
X28732Y25843D01*
X28687Y25952D01*
X28536Y26103D01*
X28339Y26185D01*
X28126Y26185D01*
X27928Y26104D01*
X27777Y25953D01*
X27732Y25843D01*
X27687Y25952D01*
X27536Y26103D01*
X27339Y26185D01*
X27126Y26185D01*
X26928Y26104D01*
X26777Y25953D01*
X26768Y25931D01*
X26768Y25996D01*
X26732Y26083D01*
X26666Y26149D01*
X26579Y26185D01*
X26485Y26185D01*
X25885Y26185D01*
X25798Y26149D01*
X25732Y26083D01*
X25696Y25996D01*
X25696Y25902D01*
X25696Y25302D01*
X25731Y25215D01*
X25798Y25149D01*
X25885Y25113D01*
X25979Y25113D01*
X26579Y25113D01*
X26665Y25149D01*
X26732Y25215D01*
X26768Y25302D01*
X26768Y25367D01*
X26777Y25346D01*
X26928Y25195D01*
X27125Y25113D01*
X27338Y25113D01*
X27535Y25194D01*
X27686Y25345D01*
X27732Y25455D01*
X27777Y25346D01*
X27928Y25195D01*
X28125Y25113D01*
X28338Y25113D01*
X28535Y25194D01*
X28686Y25345D01*
X28732Y25455D01*
X28777Y25346D01*
X28928Y25195D01*
X29125Y25113D01*
X29338Y25113D01*
X29535Y25194D01*
X29686Y25345D01*
X29732Y25455D01*
X29777Y25346D01*
X29928Y25195D01*
X30125Y25113D01*
X30338Y25113D01*
X30535Y25194D01*
X30686Y25345D01*
X30768Y25542D01*
X30768Y25755D01*
X30768Y24661D01*
X30711Y24798D01*
X30578Y24931D01*
X30405Y25003D01*
X30217Y25004D01*
X30043Y24932D01*
X29910Y24799D01*
X29838Y24625D01*
X29838Y24504D01*
X29513Y24179D01*
X29472Y24179D01*
X29238Y24082D01*
X29098Y23943D01*
X28959Y24082D01*
X28832Y24135D01*
X28821Y24151D01*
X28821Y24151D01*
X28143Y24829D01*
X28041Y24897D01*
X27921Y24921D01*
X27077Y24921D01*
X26992Y25006D01*
X26818Y25078D01*
X26630Y25078D01*
X26457Y25007D01*
X26324Y24874D01*
X26252Y24700D01*
X26251Y24512D01*
X26323Y24339D01*
X26456Y24206D01*
X26520Y24179D01*
X26472Y24179D01*
X26238Y24082D01*
X26098Y23943D01*
X25959Y24082D01*
X25913Y24101D01*
X25913Y24409D01*
X25889Y24529D01*
X25821Y24632D01*
X25821Y24632D01*
X24643Y25809D01*
X24541Y25877D01*
X24421Y25901D01*
X10740Y25901D01*
X10619Y25877D01*
X10517Y25809D01*
X7169Y22461D01*
X7169Y23492D01*
X7018Y23857D01*
X6739Y24137D01*
X6373Y24289D01*
X5978Y24289D01*
X5612Y24138D01*
X5332Y23859D01*
X5181Y23493D01*
X5180Y23098D01*
X5331Y22732D01*
X5611Y22452D01*
X5976Y22301D01*
X6372Y22300D01*
X6737Y22451D01*
X7017Y22731D01*
X7169Y23096D01*
X7169Y23492D01*
X7169Y22461D01*
X3946Y19238D01*
X3878Y19136D01*
X3854Y19015D01*
X3854Y9309D01*
X3769Y9224D01*
X3696Y9051D01*
X3696Y8863D01*
X3768Y8689D01*
X3901Y8556D01*
X4074Y8484D01*
X4262Y8484D01*
X4436Y8555D01*
X4569Y8688D01*
X4641Y8862D01*
X4641Y9050D01*
X4570Y9223D01*
X4484Y9309D01*
X4484Y18885D01*
X10870Y25271D01*
X13153Y25271D01*
X12226Y24009D01*
X12210Y23974D01*
X12189Y23943D01*
X12184Y23919D01*
X12174Y23897D01*
X12172Y23860D01*
X12165Y23822D01*
X12165Y19975D01*
X12146Y19956D01*
X12074Y19783D01*
X12074Y19595D01*
X12146Y19421D01*
X12279Y19288D01*
X12452Y19216D01*
X12640Y19216D01*
X12814Y19288D01*
X12947Y19421D01*
X13019Y19594D01*
X13019Y19782D01*
X12947Y19956D01*
X12815Y20089D01*
X12795Y20097D01*
X12795Y23719D01*
X13676Y24919D01*
X18384Y24919D01*
X18308Y24842D01*
X18236Y24669D01*
X18236Y24481D01*
X18307Y24307D01*
X18440Y24174D01*
X18450Y24170D01*
X18238Y24082D01*
X18098Y23943D01*
X17959Y24082D01*
X17725Y24179D01*
X17472Y24179D01*
X17238Y24082D01*
X17098Y23943D01*
X16959Y24082D01*
X16725Y24179D01*
X16472Y24179D01*
X16238Y24082D01*
X16098Y23943D01*
X15959Y24082D01*
X15725Y24179D01*
X15472Y24179D01*
X15238Y24082D01*
X15098Y23943D01*
X14959Y24082D01*
X14725Y24179D01*
X14472Y24179D01*
X14238Y24082D01*
X14098Y23943D01*
X13959Y24082D01*
X13725Y24179D01*
X13472Y24179D01*
X13238Y24082D01*
X13059Y23904D01*
X12962Y23670D01*
X12962Y23417D01*
X13058Y23183D01*
X13237Y23004D01*
X13471Y22907D01*
X13724Y22906D01*
X13958Y23003D01*
X14098Y23143D01*
X14198Y23043D01*
X14059Y22904D01*
X13962Y22670D01*
X13962Y22417D01*
X14058Y22183D01*
X14237Y22004D01*
X14471Y21907D01*
X14724Y21906D01*
X14958Y22003D01*
X15098Y22143D01*
X15237Y22004D01*
X15471Y21907D01*
X15724Y21906D01*
X15958Y22003D01*
X16098Y22143D01*
X16237Y22004D01*
X16471Y21907D01*
X16724Y21906D01*
X16958Y22003D01*
X17098Y22143D01*
X17237Y22004D01*
X17471Y21907D01*
X17724Y21906D01*
X17958Y22003D01*
X18098Y22143D01*
X18237Y22004D01*
X18471Y21907D01*
X18724Y21906D01*
X18958Y22003D01*
X19098Y22143D01*
X19237Y22004D01*
X19471Y21907D01*
X19724Y21906D01*
X19958Y22003D01*
X20098Y22143D01*
X20237Y22004D01*
X20471Y21907D01*
X20724Y21906D01*
X20958Y22003D01*
X21098Y22143D01*
X21237Y22004D01*
X21471Y21907D01*
X21724Y21906D01*
X21958Y22003D01*
X22098Y22143D01*
X22237Y22004D01*
X22471Y21907D01*
X22479Y21907D01*
X22465Y21893D01*
X22393Y21720D01*
X22393Y21532D01*
X22465Y21358D01*
X22598Y21225D01*
X22771Y21153D01*
X22806Y21153D01*
X21590Y19937D01*
X19079Y19937D01*
X18968Y20048D01*
X18987Y20095D01*
X18987Y20189D01*
X18987Y20739D01*
X18951Y20825D01*
X18885Y20892D01*
X18798Y20928D01*
X18704Y20928D01*
X18154Y20928D01*
X18067Y20892D01*
X18001Y20826D01*
X17965Y20739D01*
X17965Y20645D01*
X17965Y20095D01*
X18001Y20008D01*
X18067Y19942D01*
X18154Y19906D01*
X18230Y19906D01*
X18253Y19871D01*
X18645Y19479D01*
X18162Y19479D01*
X18075Y19443D01*
X18009Y19377D01*
X17973Y19290D01*
X17972Y19196D01*
X17972Y18646D01*
X18008Y18559D01*
X18075Y18493D01*
X18162Y18457D01*
X18169Y18457D01*
X18169Y18326D01*
X18193Y18206D01*
X18261Y18104D01*
X18659Y17706D01*
X18659Y17706D01*
X18761Y17638D01*
X18881Y17614D01*
X19038Y17614D01*
X18561Y17137D01*
X18174Y17137D01*
X18087Y17101D01*
X18020Y17034D01*
X17991Y16964D01*
X17440Y16964D01*
X17440Y19065D01*
X17440Y20518D01*
X17362Y20706D01*
X17219Y20850D01*
X17031Y20928D01*
X16827Y20928D01*
X16639Y20850D01*
X16495Y20707D01*
X16418Y20519D01*
X16417Y20316D01*
X16495Y20128D01*
X16639Y19984D01*
X16826Y19906D01*
X17030Y19906D01*
X17218Y19983D01*
X17362Y20127D01*
X17440Y20315D01*
X17440Y20518D01*
X17440Y19065D01*
X17362Y19253D01*
X17219Y19397D01*
X17031Y19475D01*
X16827Y19475D01*
X16639Y19398D01*
X16495Y19254D01*
X16418Y19066D01*
X16417Y18863D01*
X16495Y18675D01*
X16639Y18531D01*
X16826Y18453D01*
X17030Y18453D01*
X17218Y18530D01*
X17362Y18674D01*
X17440Y18862D01*
X17440Y19065D01*
X17440Y16964D01*
X17372Y16964D01*
X17254Y17082D01*
X17066Y17160D01*
X16863Y17160D01*
X16675Y17083D01*
X16531Y16939D01*
X16453Y16751D01*
X16453Y16548D01*
X16530Y16360D01*
X16674Y16216D01*
X16862Y16138D01*
X17065Y16138D01*
X17253Y16215D01*
X17372Y16334D01*
X17984Y16334D01*
X17984Y16304D01*
X18020Y16217D01*
X18087Y16150D01*
X18173Y16114D01*
X18267Y16114D01*
X18817Y16114D01*
X18904Y16150D01*
X18971Y16217D01*
X19007Y16303D01*
X19007Y16397D01*
X19007Y16691D01*
X19402Y17086D01*
X21723Y17086D01*
X21870Y16940D01*
X21870Y16255D01*
X21894Y16135D01*
X21962Y16033D01*
X23678Y14316D01*
X23678Y14316D01*
X23781Y14248D01*
X23901Y14224D01*
X26793Y14224D01*
X26800Y14209D01*
X26932Y14076D01*
X27106Y14004D01*
X27294Y14003D01*
X27468Y14075D01*
X27601Y14208D01*
X27673Y14381D01*
X27673Y14569D01*
X27601Y14743D01*
X27468Y14876D01*
X27295Y14948D01*
X27107Y14948D01*
X26933Y14877D01*
X26910Y14854D01*
X24557Y14854D01*
X24557Y17316D01*
X24477Y17512D01*
X24327Y17661D01*
X24230Y17702D01*
X24311Y17735D01*
X24461Y17885D01*
X24542Y18080D01*
X24542Y18291D01*
X24462Y18487D01*
X24312Y18636D01*
X24197Y18684D01*
X24296Y18725D01*
X24446Y18875D01*
X24527Y19070D01*
X24527Y19281D01*
X24447Y19477D01*
X24297Y19626D01*
X24102Y19707D01*
X23891Y19708D01*
X23695Y19627D01*
X23545Y19477D01*
X23464Y19282D01*
X23464Y19071D01*
X23545Y18875D01*
X23694Y18726D01*
X23809Y18678D01*
X23710Y18637D01*
X23560Y18487D01*
X23479Y18292D01*
X23479Y18081D01*
X23560Y17885D01*
X23709Y17736D01*
X23806Y17695D01*
X23725Y17662D01*
X23575Y17512D01*
X23494Y17317D01*
X23494Y17106D01*
X23575Y16910D01*
X23724Y16761D01*
X23920Y16680D01*
X24131Y16679D01*
X24326Y16760D01*
X24476Y16910D01*
X24557Y17105D01*
X24557Y17316D01*
X24557Y14854D01*
X24032Y14854D01*
X22500Y16386D01*
X22500Y17070D01*
X22476Y17191D01*
X22407Y17293D01*
X22407Y17293D01*
X22077Y17624D01*
X22027Y17657D01*
X22100Y17706D01*
X23088Y18694D01*
X23157Y18796D01*
X23181Y18917D01*
X23181Y18917D01*
X23181Y20090D01*
X23630Y20539D01*
X27991Y20539D01*
X28835Y19695D01*
X28814Y19703D01*
X28603Y19704D01*
X28407Y19623D01*
X28257Y19473D01*
X28176Y19278D01*
X28176Y19067D01*
X28257Y18871D01*
X28406Y18722D01*
X28514Y18677D01*
X28407Y18633D01*
X28257Y18483D01*
X28176Y18288D01*
X28176Y18077D01*
X28257Y17881D01*
X28406Y17732D01*
X28498Y17694D01*
X28407Y17656D01*
X28257Y17506D01*
X28176Y17311D01*
X28176Y17100D01*
X28257Y16904D01*
X28406Y16755D01*
X28602Y16674D01*
X28813Y16673D01*
X29008Y16754D01*
X29158Y16904D01*
X29239Y17099D01*
X29239Y17310D01*
X29159Y17506D01*
X29009Y17655D01*
X28917Y17694D01*
X29008Y17731D01*
X29158Y17881D01*
X29239Y18076D01*
X29239Y18287D01*
X29159Y18483D01*
X29009Y18632D01*
X28902Y18677D01*
X29008Y18721D01*
X29158Y18871D01*
X29239Y19066D01*
X29239Y19277D01*
X29219Y19325D01*
X29277Y19287D01*
X29397Y19263D01*
X29397Y19263D01*
X33523Y19263D01*
X33523Y19263D01*
X33644Y19287D01*
X33746Y19356D01*
X34929Y20539D01*
X35582Y20539D01*
X35582Y20539D01*
X35703Y20563D01*
X35805Y20631D01*
X35818Y20645D01*
X35859Y20547D01*
X35944Y20461D01*
X35944Y20146D01*
X35782Y19984D01*
X35132Y19984D01*
X35047Y20069D01*
X34873Y20141D01*
X34685Y20141D01*
X34512Y20070D01*
X34379Y19937D01*
X34307Y19763D01*
X34307Y19575D01*
X34378Y19402D01*
X34511Y19269D01*
X34685Y19196D01*
X34873Y19196D01*
X35046Y19268D01*
X35132Y19354D01*
X35913Y19354D01*
X35913Y19354D01*
X36033Y19378D01*
X36136Y19446D01*
X36482Y19793D01*
X36482Y19793D01*
X36509Y19833D01*
X36550Y19895D01*
X36550Y19895D01*
X36574Y20015D01*
X36574Y20015D01*
X36574Y20461D01*
X36660Y20546D01*
X36732Y20720D01*
X36732Y20908D01*
X36732Y14214D01*
X36703Y14146D01*
X36703Y14052D01*
X36703Y13452D01*
X36739Y13365D01*
X36806Y13299D01*
X36892Y13263D01*
X36958Y13262D01*
X36936Y13254D01*
X36785Y13103D01*
X36704Y12906D01*
X36703Y12693D01*
X36785Y12495D01*
X36936Y12344D01*
X37133Y12263D01*
X37346Y12262D01*
X37543Y12344D01*
X37694Y12495D01*
X37776Y12692D01*
X37776Y12905D01*
X37776Y5020D01*
X37776Y5020D01*
X37776Y8227D01*
X37776Y8827D01*
X37741Y8912D01*
X37741Y10283D01*
X37659Y10480D01*
X37508Y10631D01*
X37486Y10640D01*
X37551Y10640D01*
X37638Y10676D01*
X37704Y10743D01*
X37740Y10829D01*
X37740Y10923D01*
X37740Y11523D01*
X37705Y11610D01*
X37638Y11677D01*
X37551Y11713D01*
X37457Y11713D01*
X36857Y11713D01*
X36771Y11677D01*
X36704Y11611D01*
X36668Y11524D01*
X36668Y11430D01*
X36668Y10830D01*
X36704Y10743D01*
X36770Y10677D01*
X36857Y10640D01*
X36922Y10640D01*
X36901Y10632D01*
X36750Y10481D01*
X36668Y10284D01*
X36668Y10070D01*
X36749Y9873D01*
X36900Y9722D01*
X37097Y9641D01*
X37310Y9640D01*
X37508Y9722D01*
X37659Y9873D01*
X37740Y10070D01*
X37741Y10283D01*
X37741Y8912D01*
X37740Y8913D01*
X37674Y8980D01*
X37587Y9016D01*
X37493Y9016D01*
X36893Y9016D01*
X36806Y8980D01*
X36740Y8914D01*
X36703Y8827D01*
X36703Y8733D01*
X36703Y8133D01*
X36739Y8046D01*
X36806Y7980D01*
X36892Y7944D01*
X36986Y7944D01*
X37586Y7944D01*
X37673Y7979D01*
X37740Y8046D01*
X37776Y8133D01*
X37776Y8227D01*
X37776Y5020D01*
X37762Y5041D01*
X37762Y5041D01*
X36155Y6647D01*
X36053Y6716D01*
X35933Y6740D01*
X35708Y6740D01*
X35708Y9338D01*
X35627Y9533D01*
X35478Y9683D01*
X35386Y9721D01*
X35477Y9759D01*
X35627Y9908D01*
X35708Y10103D01*
X35708Y10315D01*
X35627Y10510D01*
X35478Y10660D01*
X35370Y10705D01*
X35477Y10749D01*
X35627Y10898D01*
X35708Y11093D01*
X35708Y11305D01*
X35672Y11391D01*
X35672Y15499D01*
X35592Y15695D01*
X35442Y15844D01*
X35350Y15883D01*
X35442Y15920D01*
X35591Y16070D01*
X35672Y16265D01*
X35672Y16476D01*
X35592Y16672D01*
X35442Y16821D01*
X35335Y16866D01*
X35442Y16910D01*
X35591Y17060D01*
X35672Y17255D01*
X35672Y17466D01*
X35592Y17662D01*
X35442Y17811D01*
X35247Y17892D01*
X35036Y17893D01*
X34840Y17812D01*
X34691Y17662D01*
X34609Y17467D01*
X34609Y17256D01*
X34690Y17060D01*
X34839Y16911D01*
X34947Y16866D01*
X34840Y16822D01*
X34691Y16672D01*
X34609Y16477D01*
X34609Y16266D01*
X34690Y16070D01*
X34839Y15921D01*
X34931Y15883D01*
X34840Y15845D01*
X34691Y15695D01*
X34609Y15500D01*
X34609Y15289D01*
X34690Y15093D01*
X34839Y14944D01*
X35035Y14863D01*
X35246Y14862D01*
X35442Y14943D01*
X35591Y15093D01*
X35672Y15288D01*
X35672Y15499D01*
X35672Y11391D01*
X35627Y11500D01*
X35478Y11650D01*
X35282Y11731D01*
X35071Y11731D01*
X34876Y11650D01*
X34726Y11501D01*
X34645Y11306D01*
X34645Y11094D01*
X34725Y10899D01*
X34875Y10749D01*
X34982Y10705D01*
X34876Y10660D01*
X34726Y10511D01*
X34645Y10316D01*
X34645Y10104D01*
X34725Y9909D01*
X34875Y9759D01*
X34967Y9721D01*
X34876Y9683D01*
X34726Y9534D01*
X34645Y9339D01*
X34645Y9127D01*
X34725Y8932D01*
X34875Y8782D01*
X35070Y8701D01*
X35282Y8701D01*
X35477Y8782D01*
X35627Y8931D01*
X35708Y9126D01*
X35708Y9338D01*
X35708Y6740D01*
X34217Y6740D01*
X32799Y8158D01*
X32799Y8278D01*
X32727Y8452D01*
X32594Y8585D01*
X32421Y8657D01*
X32233Y8657D01*
X32070Y8590D01*
X32070Y9304D01*
X32156Y9389D01*
X32228Y9563D01*
X32228Y9751D01*
X32156Y9924D01*
X32023Y10057D01*
X31850Y10129D01*
X31662Y10130D01*
X31488Y10058D01*
X31355Y9925D01*
X31283Y9751D01*
X31283Y9563D01*
X31355Y9390D01*
X31440Y9304D01*
X31440Y7763D01*
X31464Y7643D01*
X31533Y7541D01*
X33227Y5846D01*
X32189Y5846D01*
X31026Y7009D01*
X31026Y9344D01*
X30945Y9539D01*
X30796Y9689D01*
X30699Y9729D01*
X30780Y9763D01*
X30930Y9912D01*
X31011Y10107D01*
X31011Y10319D01*
X30930Y10514D01*
X30781Y10664D01*
X30666Y10712D01*
X30765Y10753D01*
X30915Y10902D01*
X30996Y11097D01*
X30996Y11309D01*
X30915Y11504D01*
X30766Y11654D01*
X30570Y11735D01*
X30359Y11735D01*
X30164Y11654D01*
X30014Y11505D01*
X29933Y11310D01*
X29933Y11098D01*
X30013Y10903D01*
X30163Y10753D01*
X30278Y10705D01*
X30179Y10664D01*
X30029Y10515D01*
X29948Y10320D01*
X29948Y10108D01*
X30028Y9913D01*
X30178Y9763D01*
X30275Y9723D01*
X30194Y9689D01*
X30044Y9540D01*
X29963Y9345D01*
X29963Y9133D01*
X30043Y8938D01*
X30193Y8788D01*
X30388Y8707D01*
X30600Y8707D01*
X30795Y8788D01*
X30945Y8937D01*
X31026Y9132D01*
X31026Y9344D01*
X31026Y7009D01*
X29818Y8217D01*
X29818Y11165D01*
X29818Y12725D01*
X29951Y12858D01*
X30023Y13031D01*
X30023Y13219D01*
X29957Y13380D01*
X30051Y13362D01*
X30051Y13362D01*
X31216Y13362D01*
X31216Y13362D01*
X31337Y13386D01*
X31439Y13454D01*
X32606Y14622D01*
X32743Y14621D01*
X32916Y14693D01*
X33049Y14826D01*
X33121Y15000D01*
X33122Y15188D01*
X33050Y15361D01*
X32917Y15494D01*
X32743Y15566D01*
X32556Y15567D01*
X32382Y15495D01*
X32249Y15362D01*
X32177Y15188D01*
X32177Y15083D01*
X31086Y13992D01*
X30990Y13992D01*
X30990Y15505D01*
X30910Y15701D01*
X30760Y15850D01*
X30663Y15891D01*
X30745Y15924D01*
X30894Y16074D01*
X30975Y16269D01*
X30975Y16480D01*
X30895Y16676D01*
X30745Y16825D01*
X30630Y16873D01*
X30730Y16914D01*
X30879Y17064D01*
X30960Y17259D01*
X30960Y17470D01*
X30880Y17666D01*
X30730Y17815D01*
X30535Y17896D01*
X30324Y17897D01*
X30128Y17816D01*
X29979Y17666D01*
X29897Y17471D01*
X29897Y17260D01*
X29978Y17064D01*
X30127Y16915D01*
X30242Y16867D01*
X30143Y16826D01*
X29994Y16676D01*
X29912Y16481D01*
X29912Y16270D01*
X29993Y16074D01*
X30142Y15925D01*
X30239Y15884D01*
X30158Y15851D01*
X30009Y15701D01*
X29927Y15506D01*
X29927Y15295D01*
X30008Y15099D01*
X30157Y14950D01*
X30353Y14869D01*
X30564Y14868D01*
X30760Y14949D01*
X30909Y15099D01*
X30990Y15294D01*
X30990Y15505D01*
X30990Y13992D01*
X30181Y13992D01*
X28482Y15691D01*
X28380Y15759D01*
X28259Y15783D01*
X26531Y15783D01*
X25534Y15783D01*
X25449Y15868D01*
X25275Y15940D01*
X25087Y15941D01*
X24913Y15869D01*
X24780Y15736D01*
X24708Y15562D01*
X24708Y15374D01*
X24780Y15201D01*
X24913Y15068D01*
X25086Y14996D01*
X25274Y14995D01*
X25448Y15067D01*
X25534Y15153D01*
X26531Y15153D01*
X28129Y15153D01*
X28759Y14523D01*
X28673Y14487D01*
X28540Y14354D01*
X28468Y14181D01*
X28468Y13993D01*
X28540Y13819D01*
X28672Y13686D01*
X28700Y13674D01*
X28700Y12704D01*
X28700Y12312D01*
X28590Y12358D01*
X28402Y12358D01*
X28228Y12286D01*
X28095Y12153D01*
X28023Y11980D01*
X28023Y11792D01*
X28095Y11618D01*
X28181Y11532D01*
X28181Y5997D01*
X28031Y5936D01*
X27898Y5803D01*
X27826Y5629D01*
X27826Y5441D01*
X27898Y5268D01*
X28031Y5135D01*
X28204Y5063D01*
X28392Y5062D01*
X28566Y5134D01*
X28699Y5267D01*
X28724Y5327D01*
X28747Y5304D01*
X28921Y5232D01*
X29109Y5232D01*
X29283Y5303D01*
X29416Y5436D01*
X29488Y5610D01*
X29488Y5798D01*
X29416Y5971D01*
X29330Y6057D01*
X29330Y7814D01*
X31836Y5308D01*
X31938Y5240D01*
X32059Y5216D01*
X35440Y5216D01*
X35575Y5081D01*
X35523Y5081D01*
X35289Y4984D01*
X35149Y4844D01*
X35010Y4983D01*
X34776Y5080D01*
X34523Y5081D01*
X34289Y4984D01*
X34149Y4844D01*
X34010Y4983D01*
X33776Y5080D01*
X33523Y5081D01*
X33289Y4984D01*
X33149Y4844D01*
X33010Y4983D01*
X32776Y5080D01*
X32523Y5081D01*
X32289Y4984D01*
X32149Y4844D01*
X32010Y4983D01*
X31776Y5080D01*
X31523Y5081D01*
X31289Y4984D01*
X31149Y4844D01*
X31010Y4983D01*
X30776Y5080D01*
X30523Y5081D01*
X30289Y4984D01*
X30149Y4844D01*
X30010Y4983D01*
X29776Y5080D01*
X29523Y5081D01*
X29289Y4984D01*
X29149Y4844D01*
X29010Y4983D01*
X28776Y5080D01*
X28523Y5081D01*
X28289Y4984D01*
X28149Y4844D01*
X28010Y4983D01*
X27776Y5080D01*
X27775Y5080D01*
X27775Y11161D01*
X27694Y11356D01*
X27545Y11506D01*
X27453Y11544D01*
X27544Y11582D01*
X27694Y11731D01*
X27775Y11926D01*
X27775Y12138D01*
X27694Y12333D01*
X27545Y12483D01*
X27437Y12527D01*
X27544Y12572D01*
X27694Y12721D01*
X27775Y12916D01*
X27775Y13128D01*
X27694Y13323D01*
X27545Y13473D01*
X27349Y13554D01*
X27138Y13554D01*
X26943Y13473D01*
X26793Y13324D01*
X26712Y13129D01*
X26712Y12917D01*
X26792Y12722D01*
X26942Y12572D01*
X27049Y12527D01*
X26943Y12483D01*
X26793Y12334D01*
X26712Y12139D01*
X26712Y11927D01*
X26792Y11732D01*
X26942Y11582D01*
X27034Y11544D01*
X26943Y11506D01*
X26793Y11357D01*
X26712Y11162D01*
X26712Y10950D01*
X26792Y10755D01*
X26942Y10605D01*
X27137Y10524D01*
X27348Y10524D01*
X27544Y10605D01*
X27694Y10754D01*
X27775Y10949D01*
X27775Y11161D01*
X27775Y5080D01*
X27523Y5081D01*
X27289Y4984D01*
X27149Y4844D01*
X27010Y4983D01*
X26776Y5080D01*
X26523Y5081D01*
X26289Y4984D01*
X26149Y4844D01*
X26010Y4983D01*
X25776Y5080D01*
X25523Y5081D01*
X25289Y4984D01*
X25149Y4844D01*
X25010Y4983D01*
X24776Y5080D01*
X24580Y5081D01*
X24608Y5100D01*
X26277Y6769D01*
X26277Y6769D01*
X26346Y6871D01*
X26370Y6992D01*
X26370Y6992D01*
X26370Y10602D01*
X26346Y10722D01*
X26277Y10825D01*
X26277Y10825D01*
X25074Y12028D01*
X25074Y12128D01*
X25003Y12302D01*
X24870Y12435D01*
X24696Y12507D01*
X24508Y12507D01*
X24335Y12436D01*
X24202Y12303D01*
X24130Y12129D01*
X24129Y11941D01*
X24201Y11768D01*
X24334Y11635D01*
X24507Y11563D01*
X24649Y11562D01*
X25382Y10829D01*
X25295Y10866D01*
X25107Y10866D01*
X24933Y10794D01*
X24800Y10661D01*
X24728Y10488D01*
X24728Y10300D01*
X24800Y10126D01*
X24885Y10040D01*
X24885Y7236D01*
X23912Y6263D01*
X23118Y6263D01*
X23118Y7443D01*
X23093Y7504D01*
X23093Y11167D01*
X23012Y11362D01*
X22863Y11512D01*
X22766Y11552D01*
X22847Y11586D01*
X22997Y11735D01*
X23078Y11930D01*
X23078Y12142D01*
X22997Y12337D01*
X22848Y12487D01*
X22733Y12535D01*
X22832Y12576D01*
X22982Y12725D01*
X23063Y12920D01*
X23063Y13132D01*
X22982Y13327D01*
X22833Y13477D01*
X22637Y13558D01*
X22426Y13558D01*
X22231Y13477D01*
X22081Y13328D01*
X22000Y13133D01*
X22000Y12921D01*
X22080Y12726D01*
X22230Y12576D01*
X22345Y12528D01*
X22246Y12487D01*
X22096Y12338D01*
X22015Y12143D01*
X22015Y11931D01*
X22095Y11736D01*
X22245Y11586D01*
X22342Y11546D01*
X22261Y11512D01*
X22111Y11363D01*
X22030Y11168D01*
X22030Y10956D01*
X22110Y10761D01*
X22260Y10611D01*
X22455Y10530D01*
X22666Y10530D01*
X22862Y10611D01*
X23012Y10760D01*
X23093Y10955D01*
X23093Y11167D01*
X23093Y7504D01*
X23046Y7617D01*
X22913Y7750D01*
X22740Y7822D01*
X22654Y7822D01*
X20419Y10057D01*
X20317Y10125D01*
X20196Y10149D01*
X19070Y10149D01*
X19070Y13240D01*
X19070Y13790D01*
X19042Y13856D01*
X19042Y14968D01*
X19042Y15518D01*
X19006Y15605D01*
X18940Y15671D01*
X18853Y15708D01*
X18759Y15708D01*
X18209Y15708D01*
X18122Y15672D01*
X18056Y15605D01*
X18020Y15519D01*
X18020Y15511D01*
X17368Y15511D01*
X17234Y15645D01*
X17047Y15723D01*
X16843Y15723D01*
X16655Y15646D01*
X16511Y15502D01*
X16433Y15314D01*
X16433Y15111D01*
X16511Y14923D01*
X16654Y14779D01*
X16842Y14701D01*
X17046Y14701D01*
X17234Y14778D01*
X17337Y14881D01*
X18020Y14881D01*
X18020Y14875D01*
X18056Y14788D01*
X18122Y14721D01*
X18209Y14685D01*
X18303Y14685D01*
X18853Y14685D01*
X18940Y14721D01*
X19006Y14787D01*
X19042Y14874D01*
X19042Y14968D01*
X19042Y13856D01*
X19034Y13877D01*
X18968Y13943D01*
X18881Y13979D01*
X18787Y13979D01*
X18237Y13979D01*
X18150Y13943D01*
X18083Y13877D01*
X18047Y13790D01*
X18047Y13736D01*
X17415Y13736D01*
X17297Y13854D01*
X17110Y13932D01*
X16906Y13932D01*
X16718Y13854D01*
X16574Y13711D01*
X16496Y13523D01*
X16496Y13320D01*
X16574Y13132D01*
X16717Y12988D01*
X16905Y12910D01*
X17109Y12909D01*
X17297Y12987D01*
X17415Y13106D01*
X18064Y13106D01*
X18083Y13059D01*
X18150Y12993D01*
X18236Y12957D01*
X18330Y12957D01*
X18880Y12957D01*
X18967Y12993D01*
X19034Y13059D01*
X19070Y13146D01*
X19070Y13240D01*
X19070Y10149D01*
X19054Y10149D01*
X19054Y11299D01*
X19054Y11849D01*
X19018Y11936D01*
X18952Y12002D01*
X18865Y12038D01*
X18771Y12038D01*
X18221Y12038D01*
X18134Y12002D01*
X18068Y11936D01*
X18045Y11881D01*
X17463Y11881D01*
X17345Y12000D01*
X17157Y12078D01*
X16953Y12078D01*
X16765Y12000D01*
X16621Y11856D01*
X16543Y11669D01*
X16543Y11465D01*
X16621Y11277D01*
X16765Y11133D01*
X16952Y11055D01*
X17156Y11055D01*
X17344Y11133D01*
X17463Y11251D01*
X18032Y11251D01*
X18032Y11205D01*
X18067Y11118D01*
X18134Y11052D01*
X18221Y11016D01*
X18315Y11016D01*
X18865Y11016D01*
X18951Y11052D01*
X19018Y11118D01*
X19054Y11205D01*
X19054Y11299D01*
X19054Y10149D01*
X14566Y10149D01*
X14566Y11668D01*
X14519Y11782D01*
X14519Y13522D01*
X14475Y13627D01*
X14475Y16750D01*
X14440Y16836D01*
X14440Y19065D01*
X14440Y20518D01*
X14362Y20706D01*
X14219Y20850D01*
X14031Y20928D01*
X13827Y20928D01*
X13639Y20850D01*
X13495Y20707D01*
X13418Y20519D01*
X13417Y20316D01*
X13495Y20128D01*
X13639Y19984D01*
X13826Y19906D01*
X14030Y19906D01*
X14218Y19983D01*
X14362Y20127D01*
X14440Y20315D01*
X14440Y20518D01*
X14440Y19065D01*
X14362Y19253D01*
X14219Y19397D01*
X14031Y19475D01*
X13827Y19475D01*
X13639Y19398D01*
X13495Y19254D01*
X13418Y19066D01*
X13417Y18863D01*
X13495Y18675D01*
X13639Y18531D01*
X13826Y18453D01*
X14030Y18453D01*
X14218Y18530D01*
X14362Y18674D01*
X14440Y18862D01*
X14440Y19065D01*
X14440Y16836D01*
X14398Y16938D01*
X14254Y17082D01*
X14066Y17160D01*
X13863Y17160D01*
X13675Y17083D01*
X13531Y16939D01*
X13453Y16751D01*
X13453Y16548D01*
X13530Y16360D01*
X13674Y16216D01*
X13862Y16138D01*
X14065Y16138D01*
X14253Y16215D01*
X14397Y16359D01*
X14475Y16547D01*
X14475Y16750D01*
X14475Y13627D01*
X14456Y13674D01*
X14456Y15313D01*
X14378Y15501D01*
X14234Y15645D01*
X14047Y15723D01*
X13843Y15723D01*
X13655Y15646D01*
X13511Y15502D01*
X13433Y15314D01*
X13433Y15111D01*
X13511Y14923D01*
X13654Y14779D01*
X13842Y14701D01*
X14046Y14701D01*
X14234Y14778D01*
X14378Y14922D01*
X14456Y15110D01*
X14456Y15313D01*
X14456Y13674D01*
X14441Y13710D01*
X14297Y13854D01*
X14110Y13932D01*
X13906Y13932D01*
X13718Y13854D01*
X13574Y13711D01*
X13496Y13523D01*
X13496Y13320D01*
X13574Y13132D01*
X13717Y12988D01*
X13905Y12910D01*
X14109Y12909D01*
X14297Y12987D01*
X14441Y13131D01*
X14519Y13319D01*
X14519Y13522D01*
X14519Y11782D01*
X14488Y11856D01*
X14345Y12000D01*
X14157Y12078D01*
X13953Y12078D01*
X13765Y12000D01*
X13621Y11856D01*
X13543Y11669D01*
X13543Y11465D01*
X13621Y11277D01*
X13765Y11133D01*
X13952Y11055D01*
X14156Y11055D01*
X14344Y11133D01*
X14488Y11276D01*
X14566Y11464D01*
X14566Y11668D01*
X14566Y10149D01*
X10173Y10149D01*
X9630Y10692D01*
X9790Y10692D01*
X9964Y10764D01*
X10050Y10850D01*
X11771Y10850D01*
X11917Y10704D01*
X11917Y10583D01*
X11989Y10409D01*
X12121Y10276D01*
X12295Y10204D01*
X12483Y10204D01*
X12657Y10276D01*
X12790Y10409D01*
X12862Y10582D01*
X12862Y10770D01*
X12790Y10944D01*
X12657Y11077D01*
X12484Y11149D01*
X12362Y11149D01*
X12124Y11388D01*
X12022Y11456D01*
X11901Y11480D01*
X11669Y11480D01*
X11669Y23492D01*
X11518Y23857D01*
X11239Y24137D01*
X10873Y24289D01*
X10478Y24289D01*
X10112Y24138D01*
X9832Y23859D01*
X9681Y23493D01*
X9680Y23098D01*
X9831Y22732D01*
X10111Y22452D01*
X10476Y22301D01*
X10872Y22300D01*
X11237Y22451D01*
X11517Y22731D01*
X11669Y23096D01*
X11669Y23492D01*
X11669Y11480D01*
X10711Y11480D01*
X10711Y20901D01*
X10630Y21098D01*
X10479Y21249D01*
X10282Y21331D01*
X10069Y21331D01*
X9871Y21250D01*
X9720Y21099D01*
X9675Y20989D01*
X9630Y21098D01*
X9479Y21249D01*
X9282Y21331D01*
X9069Y21331D01*
X8871Y21250D01*
X8720Y21099D01*
X8675Y20989D01*
X8630Y21098D01*
X8479Y21249D01*
X8282Y21331D01*
X8069Y21331D01*
X7871Y21250D01*
X7720Y21099D01*
X7675Y20989D01*
X7630Y21098D01*
X7479Y21249D01*
X7282Y21331D01*
X7069Y21331D01*
X6871Y21250D01*
X6720Y21099D01*
X6639Y20902D01*
X6638Y20689D01*
X6720Y20491D01*
X6871Y20340D01*
X7068Y20259D01*
X7281Y20258D01*
X7478Y20340D01*
X7629Y20491D01*
X7675Y20601D01*
X7720Y20491D01*
X7871Y20340D01*
X7893Y20331D01*
X7819Y20331D01*
X7621Y20250D01*
X7470Y20099D01*
X7389Y19902D01*
X7388Y19689D01*
X7470Y19491D01*
X7621Y19340D01*
X7818Y19259D01*
X8031Y19258D01*
X8228Y19340D01*
X8379Y19491D01*
X8425Y19601D01*
X8470Y19491D01*
X8621Y19340D01*
X8818Y19259D01*
X9031Y19258D01*
X9228Y19340D01*
X9379Y19491D01*
X9461Y19688D01*
X9461Y19901D01*
X9380Y20098D01*
X9229Y20249D01*
X9206Y20259D01*
X9281Y20258D01*
X9478Y20340D01*
X9629Y20491D01*
X9675Y20601D01*
X9720Y20491D01*
X9871Y20340D01*
X10068Y20259D01*
X10281Y20258D01*
X10478Y20340D01*
X10629Y20491D01*
X10711Y20688D01*
X10711Y20901D01*
X10711Y11480D01*
X10213Y11480D01*
X10213Y13350D01*
X10132Y13547D01*
X9981Y13698D01*
X9871Y13744D01*
X9980Y13789D01*
X10131Y13939D01*
X10213Y14136D01*
X10213Y14350D01*
X10132Y14547D01*
X9981Y14698D01*
X9784Y14780D01*
X9570Y14780D01*
X9373Y14698D01*
X9222Y14548D01*
X9213Y14525D01*
X9213Y14600D01*
X9132Y14797D01*
X8981Y14948D01*
X8871Y14994D01*
X8980Y15039D01*
X9131Y15189D01*
X9213Y15386D01*
X9213Y15600D01*
X9132Y15797D01*
X8981Y15948D01*
X8784Y16030D01*
X8570Y16030D01*
X8373Y15948D01*
X8222Y15798D01*
X8141Y15601D01*
X8140Y15387D01*
X8222Y15190D01*
X8373Y15039D01*
X8483Y14994D01*
X8373Y14948D01*
X8222Y14798D01*
X8141Y14601D01*
X8140Y14387D01*
X8222Y14190D01*
X8373Y14039D01*
X8483Y13994D01*
X8373Y13948D01*
X8222Y13798D01*
X8141Y13601D01*
X8140Y13387D01*
X8222Y13190D01*
X8373Y13039D01*
X8483Y12994D01*
X8373Y12948D01*
X8222Y12798D01*
X8141Y12601D01*
X8140Y12387D01*
X8222Y12190D01*
X8373Y12039D01*
X8570Y11957D01*
X8783Y11957D01*
X8980Y12039D01*
X9131Y12189D01*
X9213Y12386D01*
X9213Y12600D01*
X9132Y12797D01*
X8981Y12948D01*
X8871Y12994D01*
X8980Y13039D01*
X9131Y13189D01*
X9140Y13212D01*
X9140Y13137D01*
X9222Y12940D01*
X9373Y12789D01*
X9570Y12707D01*
X9783Y12707D01*
X9980Y12789D01*
X10131Y12939D01*
X10213Y13136D01*
X10213Y13350D01*
X10213Y11480D01*
X10049Y11480D01*
X9964Y11565D01*
X9791Y11637D01*
X9603Y11637D01*
X9429Y11566D01*
X9296Y11433D01*
X9224Y11259D01*
X9224Y11099D01*
X7035Y13287D01*
X7035Y13696D01*
X7567Y14228D01*
X7688Y14228D01*
X7861Y14300D01*
X7994Y14432D01*
X8066Y14606D01*
X8067Y14794D01*
X7995Y14968D01*
X7862Y15101D01*
X7688Y15173D01*
X7500Y15173D01*
X7327Y15101D01*
X7194Y14968D01*
X7171Y14914D01*
X7171Y16190D01*
X7020Y16556D01*
X6741Y16836D01*
X6375Y16988D01*
X5980Y16988D01*
X5614Y16837D01*
X5334Y16558D01*
X5183Y16192D01*
X5182Y15797D01*
X5333Y15431D01*
X5613Y15151D01*
X5978Y15000D01*
X6374Y14999D01*
X6739Y15150D01*
X7019Y15430D01*
X7171Y15795D01*
X7171Y16190D01*
X7171Y14914D01*
X7122Y14795D01*
X7122Y14673D01*
X6497Y14049D01*
X6429Y13947D01*
X6405Y13826D01*
X6405Y13157D01*
X6429Y13036D01*
X6497Y12934D01*
X9820Y9611D01*
X9820Y9611D01*
X9922Y9543D01*
X10043Y9519D01*
X20066Y9519D01*
X22173Y7412D01*
X22173Y7256D01*
X22244Y7083D01*
X22377Y6950D01*
X22551Y6878D01*
X22739Y6877D01*
X22912Y6949D01*
X23045Y7082D01*
X23118Y7256D01*
X23118Y7443D01*
X23118Y6263D01*
X22043Y6263D01*
X20951Y7356D01*
X20848Y7424D01*
X20728Y7448D01*
X19524Y7448D01*
X19524Y7508D01*
X19488Y7595D01*
X19422Y7661D01*
X19335Y7697D01*
X19241Y7697D01*
X18924Y7697D01*
X17931Y8691D01*
X17829Y8759D01*
X17708Y8783D01*
X12986Y8783D01*
X12901Y8868D01*
X12728Y8940D01*
X12540Y8941D01*
X12366Y8869D01*
X12233Y8736D01*
X12161Y8562D01*
X12161Y8374D01*
X12233Y8201D01*
X12365Y8068D01*
X12539Y7996D01*
X12727Y7995D01*
X12901Y8067D01*
X12987Y8153D01*
X17578Y8153D01*
X18451Y7279D01*
X18451Y6814D01*
X18487Y6727D01*
X18554Y6661D01*
X18640Y6625D01*
X18734Y6625D01*
X19334Y6625D01*
X19421Y6661D01*
X19488Y6727D01*
X19524Y6814D01*
X19524Y6818D01*
X20597Y6818D01*
X21690Y5726D01*
X21690Y5726D01*
X21731Y5698D01*
X21792Y5657D01*
X21893Y5637D01*
X13208Y5637D01*
X13088Y5613D01*
X13054Y5591D01*
X12985Y5545D01*
X12434Y4994D01*
X12366Y4892D01*
X12342Y4771D01*
X12342Y2795D01*
X12366Y2674D01*
X12434Y2572D01*
X12655Y2352D01*
X12655Y2352D01*
X12757Y2283D01*
X12877Y2259D01*
X14586Y2259D01*
X14658Y2259D01*
X14743Y2174D01*
X14917Y2102D01*
X15105Y2102D01*
X15279Y2174D01*
X15412Y2306D01*
X15484Y2480D01*
X15484Y2668D01*
X15412Y2842D01*
X15391Y2863D01*
X15522Y2808D01*
X15775Y2808D01*
X16009Y2905D01*
X16149Y3045D01*
X16288Y2905D01*
X16522Y2808D01*
X16775Y2808D01*
X17009Y2905D01*
X17149Y3045D01*
X17288Y2905D01*
X17522Y2808D01*
X17775Y2808D01*
X18009Y2905D01*
X18149Y3045D01*
X18288Y2905D01*
X18522Y2808D01*
X18775Y2808D01*
X19009Y2905D01*
X19149Y3045D01*
X19288Y2905D01*
X19334Y2886D01*
X19334Y2645D01*
X19358Y2525D01*
X19426Y2422D01*
X20060Y1789D01*
X20068Y1777D01*
X21706Y139D01*
X21706Y139D01*
X21773Y94D01*
X17024Y94D01*
X18453Y1523D01*
X18573Y1523D01*
X18747Y1595D01*
X18880Y1728D01*
X18952Y1901D01*
X18952Y2089D01*
X18881Y2263D01*
X18748Y2396D01*
X18574Y2468D01*
X18386Y2468D01*
X18213Y2396D01*
X18080Y2264D01*
X18007Y2090D01*
X18007Y1969D01*
X16566Y527D01*
X14073Y527D01*
X14023Y577D01*
X13850Y649D01*
X13662Y649D01*
X13488Y577D01*
X13355Y445D01*
X13283Y271D01*
X13283Y94D01*
X11771Y94D01*
X11771Y4791D01*
X11620Y5156D01*
X11341Y5436D01*
X10976Y5588D01*
X10580Y5588D01*
X10313Y5478D01*
X10313Y7200D01*
X10232Y7397D01*
X10081Y7548D01*
X9884Y7630D01*
X9671Y7630D01*
X9474Y7549D01*
X9323Y7398D01*
X9277Y7288D01*
X9232Y7397D01*
X9081Y7548D01*
X9058Y7558D01*
X9133Y7558D01*
X9330Y7639D01*
X9481Y7790D01*
X9563Y7987D01*
X9563Y8200D01*
X9482Y8397D01*
X9331Y8548D01*
X9134Y8630D01*
X8921Y8630D01*
X8724Y8549D01*
X8573Y8398D01*
X8527Y8288D01*
X8482Y8397D01*
X8331Y8548D01*
X8134Y8630D01*
X7921Y8630D01*
X7724Y8549D01*
X7573Y8398D01*
X7491Y8201D01*
X7491Y7988D01*
X7572Y7791D01*
X7723Y7640D01*
X7746Y7630D01*
X7671Y7630D01*
X7474Y7549D01*
X7323Y7398D01*
X7277Y7288D01*
X7232Y7397D01*
X7171Y7458D01*
X7171Y11690D01*
X7020Y12056D01*
X6741Y12336D01*
X6375Y12488D01*
X5980Y12488D01*
X5614Y12337D01*
X5334Y12058D01*
X5183Y11692D01*
X5182Y11297D01*
X5333Y10931D01*
X5613Y10651D01*
X5978Y10500D01*
X6374Y10499D01*
X6739Y10650D01*
X7019Y10930D01*
X7171Y11295D01*
X7171Y11690D01*
X7171Y7458D01*
X7081Y7548D01*
X6884Y7630D01*
X6671Y7630D01*
X6474Y7549D01*
X6323Y7398D01*
X6241Y7201D01*
X6241Y6988D01*
X6322Y6791D01*
X6473Y6640D01*
X6670Y6558D01*
X6883Y6558D01*
X7080Y6639D01*
X7231Y6790D01*
X7277Y6900D01*
X7322Y6791D01*
X7473Y6640D01*
X7670Y6558D01*
X7883Y6558D01*
X8080Y6639D01*
X8231Y6790D01*
X8277Y6900D01*
X8322Y6791D01*
X8473Y6640D01*
X8670Y6558D01*
X8883Y6558D01*
X9080Y6639D01*
X9231Y6790D01*
X9277Y6900D01*
X9322Y6791D01*
X9473Y6640D01*
X9670Y6558D01*
X9883Y6558D01*
X10080Y6639D01*
X10231Y6790D01*
X10313Y6987D01*
X10313Y7200D01*
X10313Y5478D01*
X10215Y5437D01*
X9935Y5158D01*
X9783Y4793D01*
X9783Y4397D01*
X9934Y4032D01*
X10213Y3752D01*
X10578Y3600D01*
X10974Y3600D01*
X11340Y3751D01*
X11619Y4030D01*
X11771Y4395D01*
X11771Y4791D01*
X11771Y94D01*
X7271Y94D01*
X7271Y4791D01*
X7120Y5156D01*
X6841Y5436D01*
X6476Y5588D01*
X6080Y5588D01*
X5715Y5437D01*
X5435Y5158D01*
X5283Y4793D01*
X5283Y4397D01*
X5434Y4032D01*
X5713Y3752D01*
X6078Y3600D01*
X6474Y3600D01*
X6840Y3751D01*
X7119Y4030D01*
X7271Y4395D01*
X7271Y4791D01*
X7271Y94D01*
X78Y94D01*
X82Y28019D01*
X39641Y28019D01*
X39641Y94D01*
X39641Y94D01*
G37*
G54D21*
X39641Y94D02*
X38791Y94D01*
X38791Y22030D01*
X38719Y22204D01*
X38681Y22242D01*
X38681Y24787D01*
X38681Y24787D01*
X38657Y24907D01*
X38588Y25010D01*
X38588Y25010D01*
X38277Y25321D01*
X38175Y25389D01*
X38055Y25413D01*
X37837Y25413D01*
X37764Y25486D01*
X37590Y25558D01*
X37402Y25559D01*
X37228Y25487D01*
X37095Y25354D01*
X37023Y25181D01*
X37023Y24993D01*
X37095Y24819D01*
X37181Y24733D01*
X37098Y24698D01*
X36947Y24548D01*
X36865Y24351D01*
X36865Y24137D01*
X36946Y23940D01*
X37097Y23789D01*
X37207Y23744D01*
X37098Y23698D01*
X36947Y23548D01*
X36865Y23351D01*
X36865Y23137D01*
X36946Y22940D01*
X37097Y22789D01*
X37207Y22744D01*
X37098Y22698D01*
X36947Y22548D01*
X36865Y22351D01*
X36865Y22137D01*
X36946Y21940D01*
X37097Y21789D01*
X37207Y21744D01*
X37098Y21698D01*
X36947Y21548D01*
X36865Y21351D01*
X36865Y21137D01*
X36946Y20940D01*
X37097Y20789D01*
X37120Y20780D01*
X37054Y20780D01*
X36967Y20744D01*
X36901Y20678D01*
X36865Y20591D01*
X36865Y20497D01*
X36865Y19897D01*
X36901Y19810D01*
X36967Y19743D01*
X37054Y19707D01*
X37148Y19707D01*
X37748Y19707D01*
X37835Y19743D01*
X37901Y19810D01*
X37937Y19896D01*
X37937Y19990D01*
X37937Y20590D01*
X37901Y20677D01*
X37835Y20744D01*
X37748Y20780D01*
X37683Y20780D01*
X37704Y20789D01*
X37855Y20939D01*
X37937Y21136D01*
X37937Y21350D01*
X37856Y21547D01*
X37705Y21698D01*
X37595Y21744D01*
X37704Y21789D01*
X37846Y21930D01*
X37846Y21843D01*
X37918Y21669D01*
X38050Y21536D01*
X38224Y21464D01*
X38412Y21464D01*
X38586Y21536D01*
X38719Y21669D01*
X38791Y21842D01*
X38791Y22030D01*
X38791Y94D01*
X34915Y94D01*
X34982Y139D01*
X37762Y2919D01*
X37762Y2919D01*
X37830Y3021D01*
X37854Y3141D01*
X37854Y3141D01*
X37854Y4818D01*
X37847Y4854D01*
X37847Y17806D01*
X37765Y18004D01*
X37615Y18155D01*
X37592Y18164D01*
X37657Y18164D01*
X37744Y18200D01*
X37811Y18266D01*
X37847Y18353D01*
X37847Y18447D01*
X37847Y19047D01*
X37811Y19134D01*
X37745Y19200D01*
X37658Y19236D01*
X37564Y19237D01*
X36964Y19237D01*
X36877Y19201D01*
X36810Y19134D01*
X36774Y19047D01*
X36774Y18954D01*
X36774Y18354D01*
X36810Y18267D01*
X36877Y18200D01*
X36963Y18164D01*
X37029Y18164D01*
X37007Y18155D01*
X36856Y18004D01*
X36774Y17807D01*
X36774Y17594D01*
X36856Y17397D01*
X37006Y17246D01*
X37203Y17164D01*
X37417Y17164D01*
X37614Y17245D01*
X37765Y17396D01*
X37847Y17593D01*
X37847Y17806D01*
X37847Y4854D01*
X37830Y4939D01*
X37811Y4967D01*
X37811Y15358D01*
X37730Y15555D01*
X37579Y15706D01*
X37557Y15715D01*
X37622Y15715D01*
X37709Y15751D01*
X37775Y15817D01*
X37811Y15904D01*
X37811Y15998D01*
X37811Y16598D01*
X37775Y16685D01*
X37709Y16752D01*
X37622Y16788D01*
X37528Y16788D01*
X36928Y16788D01*
X36841Y16752D01*
X36775Y16685D01*
X36739Y16599D01*
X36739Y16505D01*
X36739Y15905D01*
X36775Y15818D01*
X36841Y15751D01*
X36928Y15715D01*
X36993Y15715D01*
X36972Y15706D01*
X36821Y15556D01*
X36739Y15359D01*
X36739Y15145D01*
X36820Y14948D01*
X36971Y14797D01*
X37168Y14715D01*
X37381Y14715D01*
X37578Y14797D01*
X37729Y14947D01*
X37811Y15144D01*
X37811Y15358D01*
X37811Y4967D01*
X37776Y5020D01*
X37776Y12905D01*
X37695Y13102D01*
X37544Y13253D01*
X37521Y13262D01*
X37586Y13262D01*
X37673Y13298D01*
X37740Y13365D01*
X37776Y13452D01*
X37776Y13545D01*
X37776Y14145D01*
X37740Y14232D01*
X37674Y14299D01*
X37587Y14335D01*
X37493Y14335D01*
X36893Y14335D01*
X36806Y14299D01*
X36740Y14233D01*
X36732Y14214D01*
X36732Y20908D01*
X36660Y21082D01*
X36527Y21215D01*
X36429Y21255D01*
X36628Y21454D01*
X36628Y21454D01*
X36696Y21556D01*
X36720Y21677D01*
X36720Y21677D01*
X36720Y24500D01*
X36720Y24500D01*
X36696Y24620D01*
X36655Y24681D01*
X36628Y24722D01*
X36628Y24722D01*
X36399Y24951D01*
X36359Y24978D01*
X36359Y25736D01*
X36277Y25933D01*
X36126Y26084D01*
X35929Y26166D01*
X35716Y26166D01*
X35519Y26084D01*
X35368Y25934D01*
X35322Y25824D01*
X35277Y25933D01*
X35126Y26084D01*
X34929Y26166D01*
X34716Y26166D01*
X34519Y26084D01*
X34368Y25934D01*
X34322Y25824D01*
X34277Y25933D01*
X34126Y26084D01*
X33929Y26166D01*
X33716Y26166D01*
X33519Y26084D01*
X33368Y25934D01*
X33322Y25824D01*
X33277Y25933D01*
X33126Y26084D01*
X32929Y26166D01*
X32716Y26166D01*
X32519Y26084D01*
X32368Y25934D01*
X32359Y25911D01*
X32359Y25976D01*
X32323Y26063D01*
X32256Y26130D01*
X32170Y26166D01*
X32076Y26166D01*
X31476Y26166D01*
X31389Y26130D01*
X31322Y26063D01*
X31286Y25977D01*
X31286Y25883D01*
X31286Y25283D01*
X31322Y25196D01*
X31388Y25129D01*
X31475Y25093D01*
X31569Y25093D01*
X32169Y25093D01*
X32256Y25129D01*
X32322Y25195D01*
X32359Y25282D01*
X32359Y25348D01*
X32367Y25326D01*
X32518Y25175D01*
X32715Y25093D01*
X32929Y25093D01*
X33126Y25175D01*
X33277Y25325D01*
X33322Y25435D01*
X33367Y25326D01*
X33518Y25175D01*
X33715Y25093D01*
X33929Y25093D01*
X34126Y25175D01*
X34277Y25325D01*
X34322Y25435D01*
X34367Y25326D01*
X34518Y25175D01*
X34715Y25093D01*
X34929Y25093D01*
X35126Y25175D01*
X35277Y25325D01*
X35322Y25435D01*
X35367Y25326D01*
X35518Y25175D01*
X35715Y25093D01*
X35929Y25093D01*
X36126Y25175D01*
X36277Y25325D01*
X36358Y25522D01*
X36359Y25736D01*
X36359Y24978D01*
X36297Y25019D01*
X36177Y25043D01*
X34149Y25043D01*
X34029Y25019D01*
X33926Y24951D01*
X33505Y24529D01*
X33487Y24574D01*
X33354Y24707D01*
X33181Y24779D01*
X32993Y24779D01*
X32819Y24707D01*
X32686Y24575D01*
X32614Y24401D01*
X32614Y24280D01*
X32562Y24228D01*
X32598Y24315D01*
X32598Y24503D01*
X32526Y24676D01*
X32393Y24809D01*
X32220Y24881D01*
X32032Y24881D01*
X31858Y24810D01*
X31725Y24677D01*
X31653Y24503D01*
X31653Y24382D01*
X31435Y24164D01*
X31238Y24082D01*
X31098Y23943D01*
X30959Y24082D01*
X30725Y24179D01*
X30627Y24179D01*
X30711Y24263D01*
X30783Y24437D01*
X30783Y24625D01*
X30768Y24661D01*
X30768Y25755D01*
X30687Y25952D01*
X30536Y26103D01*
X30339Y26185D01*
X30126Y26185D01*
X29928Y26104D01*
X29777Y25953D01*
X29732Y25843D01*
X29687Y25952D01*
X29536Y26103D01*
X29339Y26185D01*
X29126Y26185D01*
X28928Y26104D01*
X28777Y25953D01*
X28732Y25843D01*
X28687Y25952D01*
X28536Y26103D01*
X28339Y26185D01*
X28126Y26185D01*
X27928Y26104D01*
X27777Y25953D01*
X27732Y25843D01*
X27687Y25952D01*
X27536Y26103D01*
X27339Y26185D01*
X27126Y26185D01*
X26928Y26104D01*
X26777Y25953D01*
X26768Y25931D01*
X26768Y25996D01*
X26732Y26083D01*
X26666Y26149D01*
X26579Y26185D01*
X26485Y26185D01*
X25885Y26185D01*
X25798Y26149D01*
X25732Y26083D01*
X25696Y25996D01*
X25696Y25902D01*
X25696Y25302D01*
X25731Y25215D01*
X25798Y25149D01*
X25885Y25113D01*
X25979Y25113D01*
X26579Y25113D01*
X26665Y25149D01*
X26732Y25215D01*
X26768Y25302D01*
X26768Y25367D01*
X26777Y25346D01*
X26928Y25195D01*
X27125Y25113D01*
X27338Y25113D01*
X27535Y25194D01*
X27686Y25345D01*
X27732Y25455D01*
X27777Y25346D01*
X27928Y25195D01*
X28125Y25113D01*
X28338Y25113D01*
X28535Y25194D01*
X28686Y25345D01*
X28732Y25455D01*
X28777Y25346D01*
X28928Y25195D01*
X29125Y25113D01*
X29338Y25113D01*
X29535Y25194D01*
X29686Y25345D01*
X29732Y25455D01*
X29777Y25346D01*
X29928Y25195D01*
X30125Y25113D01*
X30338Y25113D01*
X30535Y25194D01*
X30686Y25345D01*
X30768Y25542D01*
X30768Y25755D01*
X30768Y24661D01*
X30711Y24798D01*
X30578Y24931D01*
X30405Y25003D01*
X30217Y25004D01*
X30043Y24932D01*
X29910Y24799D01*
X29838Y24625D01*
X29838Y24504D01*
X29513Y24179D01*
X29472Y24179D01*
X29238Y24082D01*
X29098Y23943D01*
X28959Y24082D01*
X28832Y24135D01*
X28821Y24151D01*
X28821Y24151D01*
X28143Y24829D01*
X28041Y24897D01*
X27921Y24921D01*
X27077Y24921D01*
X26992Y25006D01*
X26818Y25078D01*
X26630Y25078D01*
X26457Y25007D01*
X26324Y24874D01*
X26252Y24700D01*
X26251Y24512D01*
X26323Y24339D01*
X26456Y24206D01*
X26520Y24179D01*
X26472Y24179D01*
X26238Y24082D01*
X26098Y23943D01*
X25959Y24082D01*
X25913Y24101D01*
X25913Y24409D01*
X25889Y24529D01*
X25821Y24632D01*
X25821Y24632D01*
X24643Y25809D01*
X24541Y25877D01*
X24421Y25901D01*
X10740Y25901D01*
X10619Y25877D01*
X10517Y25809D01*
X7169Y22461D01*
X7169Y23492D01*
X7018Y23857D01*
X6739Y24137D01*
X6373Y24289D01*
X5978Y24289D01*
X5612Y24138D01*
X5332Y23859D01*
X5181Y23493D01*
X5180Y23098D01*
X5331Y22732D01*
X5611Y22452D01*
X5976Y22301D01*
X6372Y22300D01*
X6737Y22451D01*
X7017Y22731D01*
X7169Y23096D01*
X7169Y23492D01*
X7169Y22461D01*
X3946Y19238D01*
X3878Y19136D01*
X3854Y19015D01*
X3854Y9309D01*
X3769Y9224D01*
X3696Y9051D01*
X3696Y8863D01*
X3768Y8689D01*
X3901Y8556D01*
X4074Y8484D01*
X4262Y8484D01*
X4436Y8555D01*
X4569Y8688D01*
X4641Y8862D01*
X4641Y9050D01*
X4570Y9223D01*
X4484Y9309D01*
X4484Y18885D01*
X10870Y25271D01*
X13153Y25271D01*
X12226Y24009D01*
X12210Y23974D01*
X12189Y23943D01*
X12184Y23919D01*
X12174Y23897D01*
X12172Y23860D01*
X12165Y23822D01*
X12165Y19975D01*
X12146Y19956D01*
X12074Y19783D01*
X12074Y19595D01*
X12146Y19421D01*
X12279Y19288D01*
X12452Y19216D01*
X12640Y19216D01*
X12814Y19288D01*
X12947Y19421D01*
X13019Y19594D01*
X13019Y19782D01*
X12947Y19956D01*
X12815Y20089D01*
X12795Y20097D01*
X12795Y23719D01*
X13676Y24919D01*
X18384Y24919D01*
X18308Y24842D01*
X18236Y24669D01*
X18236Y24481D01*
X18307Y24307D01*
X18440Y24174D01*
X18450Y24170D01*
X18238Y24082D01*
X18098Y23943D01*
X17959Y24082D01*
X17725Y24179D01*
X17472Y24179D01*
X17238Y24082D01*
X17098Y23943D01*
X16959Y24082D01*
X16725Y24179D01*
X16472Y24179D01*
X16238Y24082D01*
X16098Y23943D01*
X15959Y24082D01*
X15725Y24179D01*
X15472Y24179D01*
X15238Y24082D01*
X15098Y23943D01*
X14959Y24082D01*
X14725Y24179D01*
X14472Y24179D01*
X14238Y24082D01*
X14098Y23943D01*
X13959Y24082D01*
X13725Y24179D01*
X13472Y24179D01*
X13238Y24082D01*
X13059Y23904D01*
X12962Y23670D01*
X12962Y23417D01*
X13058Y23183D01*
X13237Y23004D01*
X13471Y22907D01*
X13724Y22906D01*
X13958Y23003D01*
X14098Y23143D01*
X14198Y23043D01*
X14059Y22904D01*
X13962Y22670D01*
X13962Y22417D01*
X14058Y22183D01*
X14237Y22004D01*
X14471Y21907D01*
X14724Y21906D01*
X14958Y22003D01*
X15098Y22143D01*
X15237Y22004D01*
X15471Y21907D01*
X15724Y21906D01*
X15958Y22003D01*
X16098Y22143D01*
X16237Y22004D01*
X16471Y21907D01*
X16724Y21906D01*
X16958Y22003D01*
X17098Y22143D01*
X17237Y22004D01*
X17471Y21907D01*
X17724Y21906D01*
X17958Y22003D01*
X18098Y22143D01*
X18237Y22004D01*
X18471Y21907D01*
X18724Y21906D01*
X18958Y22003D01*
X19098Y22143D01*
X19237Y22004D01*
X19471Y21907D01*
X19724Y21906D01*
X19958Y22003D01*
X20098Y22143D01*
X20237Y22004D01*
X20471Y21907D01*
X20724Y21906D01*
X20958Y22003D01*
X21098Y22143D01*
X21237Y22004D01*
X21471Y21907D01*
X21724Y21906D01*
X21958Y22003D01*
X22098Y22143D01*
X22237Y22004D01*
X22471Y21907D01*
X22479Y21907D01*
X22465Y21893D01*
X22393Y21720D01*
X22393Y21532D01*
X22465Y21358D01*
X22598Y21225D01*
X22771Y21153D01*
X22806Y21153D01*
X21590Y19937D01*
X19079Y19937D01*
X18968Y20048D01*
X18987Y20095D01*
X18987Y20189D01*
X18987Y20739D01*
X18951Y20825D01*
X18885Y20892D01*
X18798Y20928D01*
X18704Y20928D01*
X18154Y20928D01*
X18067Y20892D01*
X18001Y20826D01*
X17965Y20739D01*
X17965Y20645D01*
X17965Y20095D01*
X18001Y20008D01*
X18067Y19942D01*
X18154Y19906D01*
X18230Y19906D01*
X18253Y19871D01*
X18645Y19479D01*
X18162Y19479D01*
X18075Y19443D01*
X18009Y19377D01*
X17973Y19290D01*
X17972Y19196D01*
X17972Y18646D01*
X18008Y18559D01*
X18075Y18493D01*
X18162Y18457D01*
X18169Y18457D01*
X18169Y18326D01*
X18193Y18206D01*
X18261Y18104D01*
X18659Y17706D01*
X18659Y17706D01*
X18761Y17638D01*
X18881Y17614D01*
X19038Y17614D01*
X18561Y17137D01*
X18174Y17137D01*
X18087Y17101D01*
X18020Y17034D01*
X17991Y16964D01*
X17440Y16964D01*
X17440Y19065D01*
X17440Y20518D01*
X17362Y20706D01*
X17219Y20850D01*
X17031Y20928D01*
X16827Y20928D01*
X16639Y20850D01*
X16495Y20707D01*
X16418Y20519D01*
X16417Y20316D01*
X16495Y20128D01*
X16639Y19984D01*
X16826Y19906D01*
X17030Y19906D01*
X17218Y19983D01*
X17362Y20127D01*
X17440Y20315D01*
X17440Y20518D01*
X17440Y19065D01*
X17362Y19253D01*
X17219Y19397D01*
X17031Y19475D01*
X16827Y19475D01*
X16639Y19398D01*
X16495Y19254D01*
X16418Y19066D01*
X16417Y18863D01*
X16495Y18675D01*
X16639Y18531D01*
X16826Y18453D01*
X17030Y18453D01*
X17218Y18530D01*
X17362Y18674D01*
X17440Y18862D01*
X17440Y19065D01*
X17440Y16964D01*
X17372Y16964D01*
X17254Y17082D01*
X17066Y17160D01*
X16863Y17160D01*
X16675Y17083D01*
X16531Y16939D01*
X16453Y16751D01*
X16453Y16548D01*
X16530Y16360D01*
X16674Y16216D01*
X16862Y16138D01*
X17065Y16138D01*
X17253Y16215D01*
X17372Y16334D01*
X17984Y16334D01*
X17984Y16304D01*
X18020Y16217D01*
X18087Y16150D01*
X18173Y16114D01*
X18267Y16114D01*
X18817Y16114D01*
X18904Y16150D01*
X18971Y16217D01*
X19007Y16303D01*
X19007Y16397D01*
X19007Y16691D01*
X19402Y17086D01*
X21723Y17086D01*
X21870Y16940D01*
X21870Y16255D01*
X21894Y16135D01*
X21962Y16033D01*
X23678Y14316D01*
X23678Y14316D01*
X23781Y14248D01*
X23901Y14224D01*
X26793Y14224D01*
X26800Y14209D01*
X26932Y14076D01*
X27106Y14004D01*
X27294Y14003D01*
X27468Y14075D01*
X27601Y14208D01*
X27673Y14381D01*
X27673Y14569D01*
X27601Y14743D01*
X27468Y14876D01*
X27295Y14948D01*
X27107Y14948D01*
X26933Y14877D01*
X26910Y14854D01*
X24557Y14854D01*
X24557Y17316D01*
X24477Y17512D01*
X24327Y17661D01*
X24230Y17702D01*
X24311Y17735D01*
X24461Y17885D01*
X24542Y18080D01*
X24542Y18291D01*
X24462Y18487D01*
X24312Y18636D01*
X24197Y18684D01*
X24296Y18725D01*
X24446Y18875D01*
X24527Y19070D01*
X24527Y19281D01*
X24447Y19477D01*
X24297Y19626D01*
X24102Y19707D01*
X23891Y19708D01*
X23695Y19627D01*
X23545Y19477D01*
X23464Y19282D01*
X23464Y19071D01*
X23545Y18875D01*
X23694Y18726D01*
X23809Y18678D01*
X23710Y18637D01*
X23560Y18487D01*
X23479Y18292D01*
X23479Y18081D01*
X23560Y17885D01*
X23709Y17736D01*
X23806Y17695D01*
X23725Y17662D01*
X23575Y17512D01*
X23494Y17317D01*
X23494Y17106D01*
X23575Y16910D01*
X23724Y16761D01*
X23920Y16680D01*
X24131Y16679D01*
X24326Y16760D01*
X24476Y16910D01*
X24557Y17105D01*
X24557Y17316D01*
X24557Y14854D01*
X24032Y14854D01*
X22500Y16386D01*
X22500Y17070D01*
X22476Y17191D01*
X22407Y17293D01*
X22407Y17293D01*
X22077Y17624D01*
X22027Y17657D01*
X22100Y17706D01*
X23088Y18694D01*
X23157Y18796D01*
X23181Y18917D01*
X23181Y18917D01*
X23181Y20090D01*
X23630Y20539D01*
X27991Y20539D01*
X28835Y19695D01*
X28814Y19703D01*
X28603Y19704D01*
X28407Y19623D01*
X28257Y19473D01*
X28176Y19278D01*
X28176Y19067D01*
X28257Y18871D01*
X28406Y18722D01*
X28514Y18677D01*
X28407Y18633D01*
X28257Y18483D01*
X28176Y18288D01*
X28176Y18077D01*
X28257Y17881D01*
X28406Y17732D01*
X28498Y17694D01*
X28407Y17656D01*
X28257Y17506D01*
X28176Y17311D01*
X28176Y17100D01*
X28257Y16904D01*
X28406Y16755D01*
X28602Y16674D01*
X28813Y16673D01*
X29008Y16754D01*
X29158Y16904D01*
X29239Y17099D01*
X29239Y17310D01*
X29159Y17506D01*
X29009Y17655D01*
X28917Y17694D01*
X29008Y17731D01*
X29158Y17881D01*
X29239Y18076D01*
X29239Y18287D01*
X29159Y18483D01*
X29009Y18632D01*
X28902Y18677D01*
X29008Y18721D01*
X29158Y18871D01*
X29239Y19066D01*
X29239Y19277D01*
X29219Y19325D01*
X29277Y19287D01*
X29397Y19263D01*
X29397Y19263D01*
X33523Y19263D01*
X33523Y19263D01*
X33644Y19287D01*
X33746Y19356D01*
X34929Y20539D01*
X35582Y20539D01*
X35582Y20539D01*
X35703Y20563D01*
X35805Y20631D01*
X35818Y20645D01*
X35859Y20547D01*
X35944Y20461D01*
X35944Y20146D01*
X35782Y19984D01*
X35132Y19984D01*
X35047Y20069D01*
X34873Y20141D01*
X34685Y20141D01*
X34512Y20070D01*
X34379Y19937D01*
X34307Y19763D01*
X34307Y19575D01*
X34378Y19402D01*
X34511Y19269D01*
X34685Y19196D01*
X34873Y19196D01*
X35046Y19268D01*
X35132Y19354D01*
X35913Y19354D01*
X35913Y19354D01*
X36033Y19378D01*
X36136Y19446D01*
X36482Y19793D01*
X36482Y19793D01*
X36509Y19833D01*
X36550Y19895D01*
X36550Y19895D01*
X36574Y20015D01*
X36574Y20015D01*
X36574Y20461D01*
X36660Y20546D01*
X36732Y20720D01*
X36732Y20908D01*
X36732Y14214D01*
X36703Y14146D01*
X36703Y14052D01*
X36703Y13452D01*
X36739Y13365D01*
X36806Y13299D01*
X36892Y13263D01*
X36958Y13262D01*
X36936Y13254D01*
X36785Y13103D01*
X36704Y12906D01*
X36703Y12693D01*
X36785Y12495D01*
X36936Y12344D01*
X37133Y12263D01*
X37346Y12262D01*
X37543Y12344D01*
X37694Y12495D01*
X37776Y12692D01*
X37776Y12905D01*
X37776Y5020D01*
X37776Y5020D01*
X37776Y8227D01*
X37776Y8827D01*
X37741Y8912D01*
X37741Y10283D01*
X37659Y10480D01*
X37508Y10631D01*
X37486Y10640D01*
X37551Y10640D01*
X37638Y10676D01*
X37704Y10743D01*
X37740Y10829D01*
X37740Y10923D01*
X37740Y11523D01*
X37705Y11610D01*
X37638Y11677D01*
X37551Y11713D01*
X37457Y11713D01*
X36857Y11713D01*
X36771Y11677D01*
X36704Y11611D01*
X36668Y11524D01*
X36668Y11430D01*
X36668Y10830D01*
X36704Y10743D01*
X36770Y10677D01*
X36857Y10640D01*
X36922Y10640D01*
X36901Y10632D01*
X36750Y10481D01*
X36668Y10284D01*
X36668Y10070D01*
X36749Y9873D01*
X36900Y9722D01*
X37097Y9641D01*
X37310Y9640D01*
X37508Y9722D01*
X37659Y9873D01*
X37740Y10070D01*
X37741Y10283D01*
X37741Y8912D01*
X37740Y8913D01*
X37674Y8980D01*
X37587Y9016D01*
X37493Y9016D01*
X36893Y9016D01*
X36806Y8980D01*
X36740Y8914D01*
X36703Y8827D01*
X36703Y8733D01*
X36703Y8133D01*
X36739Y8046D01*
X36806Y7980D01*
X36892Y7944D01*
X36986Y7944D01*
X37586Y7944D01*
X37673Y7979D01*
X37740Y8046D01*
X37776Y8133D01*
X37776Y8227D01*
X37776Y5020D01*
X37762Y5041D01*
X37762Y5041D01*
X36155Y6647D01*
X36053Y6716D01*
X35933Y6740D01*
X35708Y6740D01*
X35708Y9338D01*
X35627Y9533D01*
X35478Y9683D01*
X35386Y9721D01*
X35477Y9759D01*
X35627Y9908D01*
X35708Y10103D01*
X35708Y10315D01*
X35627Y10510D01*
X35478Y10660D01*
X35370Y10705D01*
X35477Y10749D01*
X35627Y10898D01*
X35708Y11093D01*
X35708Y11305D01*
X35672Y11391D01*
X35672Y15499D01*
X35592Y15695D01*
X35442Y15844D01*
X35350Y15883D01*
X35442Y15920D01*
X35591Y16070D01*
X35672Y16265D01*
X35672Y16476D01*
X35592Y16672D01*
X35442Y16821D01*
X35335Y16866D01*
X35442Y16910D01*
X35591Y17060D01*
X35672Y17255D01*
X35672Y17466D01*
X35592Y17662D01*
X35442Y17811D01*
X35247Y17892D01*
X35036Y17893D01*
X34840Y17812D01*
X34691Y17662D01*
X34609Y17467D01*
X34609Y17256D01*
X34690Y17060D01*
X34839Y16911D01*
X34947Y16866D01*
X34840Y16822D01*
X34691Y16672D01*
X34609Y16477D01*
X34609Y16266D01*
X34690Y16070D01*
X34839Y15921D01*
X34931Y15883D01*
X34840Y15845D01*
X34691Y15695D01*
X34609Y15500D01*
X34609Y15289D01*
X34690Y15093D01*
X34839Y14944D01*
X35035Y14863D01*
X35246Y14862D01*
X35442Y14943D01*
X35591Y15093D01*
X35672Y15288D01*
X35672Y15499D01*
X35672Y11391D01*
X35627Y11500D01*
X35478Y11650D01*
X35282Y11731D01*
X35071Y11731D01*
X34876Y11650D01*
X34726Y11501D01*
X34645Y11306D01*
X34645Y11094D01*
X34725Y10899D01*
X34875Y10749D01*
X34982Y10705D01*
X34876Y10660D01*
X34726Y10511D01*
X34645Y10316D01*
X34645Y10104D01*
X34725Y9909D01*
X34875Y9759D01*
X34967Y9721D01*
X34876Y9683D01*
X34726Y9534D01*
X34645Y9339D01*
X34645Y9127D01*
X34725Y8932D01*
X34875Y8782D01*
X35070Y8701D01*
X35282Y8701D01*
X35477Y8782D01*
X35627Y8931D01*
X35708Y9126D01*
X35708Y9338D01*
X35708Y6740D01*
X34217Y6740D01*
X32799Y8158D01*
X32799Y8278D01*
X32727Y8452D01*
X32594Y8585D01*
X32421Y8657D01*
X32233Y8657D01*
X32070Y8590D01*
X32070Y9304D01*
X32156Y9389D01*
X32228Y9563D01*
X32228Y9751D01*
X32156Y9924D01*
X32023Y10057D01*
X31850Y10129D01*
X31662Y10130D01*
X31488Y10058D01*
X31355Y9925D01*
X31283Y9751D01*
X31283Y9563D01*
X31355Y9390D01*
X31440Y9304D01*
X31440Y7763D01*
X31464Y7643D01*
X31533Y7541D01*
X33227Y5846D01*
X32189Y5846D01*
X31026Y7009D01*
X31026Y9344D01*
X30945Y9539D01*
X30796Y9689D01*
X30699Y9729D01*
X30780Y9763D01*
X30930Y9912D01*
X31011Y10107D01*
X31011Y10319D01*
X30930Y10514D01*
X30781Y10664D01*
X30666Y10712D01*
X30765Y10753D01*
X30915Y10902D01*
X30996Y11097D01*
X30996Y11309D01*
X30915Y11504D01*
X30766Y11654D01*
X30570Y11735D01*
X30359Y11735D01*
X30164Y11654D01*
X30014Y11505D01*
X29933Y11310D01*
X29933Y11098D01*
X30013Y10903D01*
X30163Y10753D01*
X30278Y10705D01*
X30179Y10664D01*
X30029Y10515D01*
X29948Y10320D01*
X29948Y10108D01*
X30028Y9913D01*
X30178Y9763D01*
X30275Y9723D01*
X30194Y9689D01*
X30044Y9540D01*
X29963Y9345D01*
X29963Y9133D01*
X30043Y8938D01*
X30193Y8788D01*
X30388Y8707D01*
X30600Y8707D01*
X30795Y8788D01*
X30945Y8937D01*
X31026Y9132D01*
X31026Y9344D01*
X31026Y7009D01*
X29818Y8217D01*
X29818Y11165D01*
X29818Y12725D01*
X29951Y12858D01*
X30023Y13031D01*
X30023Y13219D01*
X29957Y13380D01*
X30051Y13362D01*
X30051Y13362D01*
X31216Y13362D01*
X31216Y13362D01*
X31337Y13386D01*
X31439Y13454D01*
X32606Y14622D01*
X32743Y14621D01*
X32916Y14693D01*
X33049Y14826D01*
X33121Y15000D01*
X33122Y15188D01*
X33050Y15361D01*
X32917Y15494D01*
X32743Y15566D01*
X32556Y15567D01*
X32382Y15495D01*
X32249Y15362D01*
X32177Y15188D01*
X32177Y15083D01*
X31086Y13992D01*
X30990Y13992D01*
X30990Y15505D01*
X30910Y15701D01*
X30760Y15850D01*
X30663Y15891D01*
X30745Y15924D01*
X30894Y16074D01*
X30975Y16269D01*
X30975Y16480D01*
X30895Y16676D01*
X30745Y16825D01*
X30630Y16873D01*
X30730Y16914D01*
X30879Y17064D01*
X30960Y17259D01*
X30960Y17470D01*
X30880Y17666D01*
X30730Y17815D01*
X30535Y17896D01*
X30324Y17897D01*
X30128Y17816D01*
X29979Y17666D01*
X29897Y17471D01*
X29897Y17260D01*
X29978Y17064D01*
X30127Y16915D01*
X30242Y16867D01*
X30143Y16826D01*
X29994Y16676D01*
X29912Y16481D01*
X29912Y16270D01*
X29993Y16074D01*
X30142Y15925D01*
X30239Y15884D01*
X30158Y15851D01*
X30009Y15701D01*
X29927Y15506D01*
X29927Y15295D01*
X30008Y15099D01*
X30157Y14950D01*
X30353Y14869D01*
X30564Y14868D01*
X30760Y14949D01*
X30909Y15099D01*
X30990Y15294D01*
X30990Y15505D01*
X30990Y13992D01*
X30181Y13992D01*
X28482Y15691D01*
X28380Y15759D01*
X28259Y15783D01*
X26531Y15783D01*
X25534Y15783D01*
X25449Y15868D01*
X25275Y15940D01*
X25087Y15941D01*
X24913Y15869D01*
X24780Y15736D01*
X24708Y15562D01*
X24708Y15374D01*
X24780Y15201D01*
X24913Y15068D01*
X25086Y14996D01*
X25274Y14995D01*
X25448Y15067D01*
X25534Y15153D01*
X26531Y15153D01*
X28129Y15153D01*
X28759Y14523D01*
X28673Y14487D01*
X28540Y14354D01*
X28468Y14181D01*
X28468Y13993D01*
X28540Y13819D01*
X28672Y13686D01*
X28700Y13674D01*
X28700Y12704D01*
X28700Y12312D01*
X28590Y12358D01*
X28402Y12358D01*
X28228Y12286D01*
X28095Y12153D01*
X28023Y11980D01*
X28023Y11792D01*
X28095Y11618D01*
X28181Y11532D01*
X28181Y5997D01*
X28031Y5936D01*
X27898Y5803D01*
X27826Y5629D01*
X27826Y5441D01*
X27898Y5268D01*
X28031Y5135D01*
X28204Y5063D01*
X28392Y5062D01*
X28566Y5134D01*
X28699Y5267D01*
X28724Y5327D01*
X28747Y5304D01*
X28921Y5232D01*
X29109Y5232D01*
X29283Y5303D01*
X29416Y5436D01*
X29488Y5610D01*
X29488Y5798D01*
X29416Y5971D01*
X29330Y6057D01*
X29330Y7814D01*
X31836Y5308D01*
X31938Y5240D01*
X32059Y5216D01*
X35440Y5216D01*
X35575Y5081D01*
X35523Y5081D01*
X35289Y4984D01*
X35149Y4844D01*
X35010Y4983D01*
X34776Y5080D01*
X34523Y5081D01*
X34289Y4984D01*
X34149Y4844D01*
X34010Y4983D01*
X33776Y5080D01*
X33523Y5081D01*
X33289Y4984D01*
X33149Y4844D01*
X33010Y4983D01*
X32776Y5080D01*
X32523Y5081D01*
X32289Y4984D01*
X32149Y4844D01*
X32010Y4983D01*
X31776Y5080D01*
X31523Y5081D01*
X31289Y4984D01*
X31149Y4844D01*
X31010Y4983D01*
X30776Y5080D01*
X30523Y5081D01*
X30289Y4984D01*
X30149Y4844D01*
X30010Y4983D01*
X29776Y5080D01*
X29523Y5081D01*
X29289Y4984D01*
X29149Y4844D01*
X29010Y4983D01*
X28776Y5080D01*
X28523Y5081D01*
X28289Y4984D01*
X28149Y4844D01*
X28010Y4983D01*
X27776Y5080D01*
X27775Y5080D01*
X27775Y11161D01*
X27694Y11356D01*
X27545Y11506D01*
X27453Y11544D01*
X27544Y11582D01*
X27694Y11731D01*
X27775Y11926D01*
X27775Y12138D01*
X27694Y12333D01*
X27545Y12483D01*
X27437Y12527D01*
X27544Y12572D01*
X27694Y12721D01*
X27775Y12916D01*
X27775Y13128D01*
X27694Y13323D01*
X27545Y13473D01*
X27349Y13554D01*
X27138Y13554D01*
X26943Y13473D01*
X26793Y13324D01*
X26712Y13129D01*
X26712Y12917D01*
X26792Y12722D01*
X26942Y12572D01*
X27049Y12527D01*
X26943Y12483D01*
X26793Y12334D01*
X26712Y12139D01*
X26712Y11927D01*
X26792Y11732D01*
X26942Y11582D01*
X27034Y11544D01*
X26943Y11506D01*
X26793Y11357D01*
X26712Y11162D01*
X26712Y10950D01*
X26792Y10755D01*
X26942Y10605D01*
X27137Y10524D01*
X27348Y10524D01*
X27544Y10605D01*
X27694Y10754D01*
X27775Y10949D01*
X27775Y11161D01*
X27775Y5080D01*
X27523Y5081D01*
X27289Y4984D01*
X27149Y4844D01*
X27010Y4983D01*
X26776Y5080D01*
X26523Y5081D01*
X26289Y4984D01*
X26149Y4844D01*
X26010Y4983D01*
X25776Y5080D01*
X25523Y5081D01*
X25289Y4984D01*
X25149Y4844D01*
X25010Y4983D01*
X24776Y5080D01*
X24580Y5081D01*
X24608Y5100D01*
X26277Y6769D01*
X26277Y6769D01*
X26346Y6871D01*
X26370Y6992D01*
X26370Y6992D01*
X26370Y10602D01*
X26346Y10722D01*
X26277Y10825D01*
X26277Y10825D01*
X25074Y12028D01*
X25074Y12128D01*
X25003Y12302D01*
X24870Y12435D01*
X24696Y12507D01*
X24508Y12507D01*
X24335Y12436D01*
X24202Y12303D01*
X24130Y12129D01*
X24129Y11941D01*
X24201Y11768D01*
X24334Y11635D01*
X24507Y11563D01*
X24649Y11562D01*
X25382Y10829D01*
X25295Y10866D01*
X25107Y10866D01*
X24933Y10794D01*
X24800Y10661D01*
X24728Y10488D01*
X24728Y10300D01*
X24800Y10126D01*
X24885Y10040D01*
X24885Y7236D01*
X23912Y6263D01*
X23118Y6263D01*
X23118Y7443D01*
X23093Y7504D01*
X23093Y11167D01*
X23012Y11362D01*
X22863Y11512D01*
X22766Y11552D01*
X22847Y11586D01*
X22997Y11735D01*
X23078Y11930D01*
X23078Y12142D01*
X22997Y12337D01*
X22848Y12487D01*
X22733Y12535D01*
X22832Y12576D01*
X22982Y12725D01*
X23063Y12920D01*
X23063Y13132D01*
X22982Y13327D01*
X22833Y13477D01*
X22637Y13558D01*
X22426Y13558D01*
X22231Y13477D01*
X22081Y13328D01*
X22000Y13133D01*
X22000Y12921D01*
X22080Y12726D01*
X22230Y12576D01*
X22345Y12528D01*
X22246Y12487D01*
X22096Y12338D01*
X22015Y12143D01*
X22015Y11931D01*
X22095Y11736D01*
X22245Y11586D01*
X22342Y11546D01*
X22261Y11512D01*
X22111Y11363D01*
X22030Y11168D01*
X22030Y10956D01*
X22110Y10761D01*
X22260Y10611D01*
X22455Y10530D01*
X22666Y10530D01*
X22862Y10611D01*
X23012Y10760D01*
X23093Y10955D01*
X23093Y11167D01*
X23093Y7504D01*
X23046Y7617D01*
X22913Y7750D01*
X22740Y7822D01*
X22654Y7822D01*
X20419Y10057D01*
X20317Y10125D01*
X20196Y10149D01*
X19070Y10149D01*
X19070Y13240D01*
X19070Y13790D01*
X19042Y13856D01*
X19042Y14968D01*
X19042Y15518D01*
X19006Y15605D01*
X18940Y15671D01*
X18853Y15708D01*
X18759Y15708D01*
X18209Y15708D01*
X18122Y15672D01*
X18056Y15605D01*
X18020Y15519D01*
X18020Y15511D01*
X17368Y15511D01*
X17234Y15645D01*
X17047Y15723D01*
X16843Y15723D01*
X16655Y15646D01*
X16511Y15502D01*
X16433Y15314D01*
X16433Y15111D01*
X16511Y14923D01*
X16654Y14779D01*
X16842Y14701D01*
X17046Y14701D01*
X17234Y14778D01*
X17337Y14881D01*
X18020Y14881D01*
X18020Y14875D01*
X18056Y14788D01*
X18122Y14721D01*
X18209Y14685D01*
X18303Y14685D01*
X18853Y14685D01*
X18940Y14721D01*
X19006Y14787D01*
X19042Y14874D01*
X19042Y14968D01*
X19042Y13856D01*
X19034Y13877D01*
X18968Y13943D01*
X18881Y13979D01*
X18787Y13979D01*
X18237Y13979D01*
X18150Y13943D01*
X18083Y13877D01*
X18047Y13790D01*
X18047Y13736D01*
X17415Y13736D01*
X17297Y13854D01*
X17110Y13932D01*
X16906Y13932D01*
X16718Y13854D01*
X16574Y13711D01*
X16496Y13523D01*
X16496Y13320D01*
X16574Y13132D01*
X16717Y12988D01*
X16905Y12910D01*
X17109Y12909D01*
X17297Y12987D01*
X17415Y13106D01*
X18064Y13106D01*
X18083Y13059D01*
X18150Y12993D01*
X18236Y12957D01*
X18330Y12957D01*
X18880Y12957D01*
X18967Y12993D01*
X19034Y13059D01*
X19070Y13146D01*
X19070Y13240D01*
X19070Y10149D01*
X19054Y10149D01*
X19054Y11299D01*
X19054Y11849D01*
X19018Y11936D01*
X18952Y12002D01*
X18865Y12038D01*
X18771Y12038D01*
X18221Y12038D01*
X18134Y12002D01*
X18068Y11936D01*
X18045Y11881D01*
X17463Y11881D01*
X17345Y12000D01*
X17157Y12078D01*
X16953Y12078D01*
X16765Y12000D01*
X16621Y11856D01*
X16543Y11669D01*
X16543Y11465D01*
X16621Y11277D01*
X16765Y11133D01*
X16952Y11055D01*
X17156Y11055D01*
X17344Y11133D01*
X17463Y11251D01*
X18032Y11251D01*
X18032Y11205D01*
X18067Y11118D01*
X18134Y11052D01*
X18221Y11016D01*
X18315Y11016D01*
X18865Y11016D01*
X18951Y11052D01*
X19018Y11118D01*
X19054Y11205D01*
X19054Y11299D01*
X19054Y10149D01*
X14566Y10149D01*
X14566Y11668D01*
X14519Y11782D01*
X14519Y13522D01*
X14475Y13627D01*
X14475Y16750D01*
X14440Y16836D01*
X14440Y19065D01*
X14440Y20518D01*
X14362Y20706D01*
X14219Y20850D01*
X14031Y20928D01*
X13827Y20928D01*
X13639Y20850D01*
X13495Y20707D01*
X13418Y20519D01*
X13417Y20316D01*
X13495Y20128D01*
X13639Y19984D01*
X13826Y19906D01*
X14030Y19906D01*
X14218Y19983D01*
X14362Y20127D01*
X14440Y20315D01*
X14440Y20518D01*
X14440Y19065D01*
X14362Y19253D01*
X14219Y19397D01*
X14031Y19475D01*
X13827Y19475D01*
X13639Y19398D01*
X13495Y19254D01*
X13418Y19066D01*
X13417Y18863D01*
X13495Y18675D01*
X13639Y18531D01*
X13826Y18453D01*
X14030Y18453D01*
X14218Y18530D01*
X14362Y18674D01*
X14440Y18862D01*
X14440Y19065D01*
X14440Y16836D01*
X14398Y16938D01*
X14254Y17082D01*
X14066Y17160D01*
X13863Y17160D01*
X13675Y17083D01*
X13531Y16939D01*
X13453Y16751D01*
X13453Y16548D01*
X13530Y16360D01*
X13674Y16216D01*
X13862Y16138D01*
X14065Y16138D01*
X14253Y16215D01*
X14397Y16359D01*
X14475Y16547D01*
X14475Y16750D01*
X14475Y13627D01*
X14456Y13674D01*
X14456Y15313D01*
X14378Y15501D01*
X14234Y15645D01*
X14047Y15723D01*
X13843Y15723D01*
X13655Y15646D01*
X13511Y15502D01*
X13433Y15314D01*
X13433Y15111D01*
X13511Y14923D01*
X13654Y14779D01*
X13842Y14701D01*
X14046Y14701D01*
X14234Y14778D01*
X14378Y14922D01*
X14456Y15110D01*
X14456Y15313D01*
X14456Y13674D01*
X14441Y13710D01*
X14297Y13854D01*
X14110Y13932D01*
X13906Y13932D01*
X13718Y13854D01*
X13574Y13711D01*
X13496Y13523D01*
X13496Y13320D01*
X13574Y13132D01*
X13717Y12988D01*
X13905Y12910D01*
X14109Y12909D01*
X14297Y12987D01*
X14441Y13131D01*
X14519Y13319D01*
X14519Y13522D01*
X14519Y11782D01*
X14488Y11856D01*
X14345Y12000D01*
X14157Y12078D01*
X13953Y12078D01*
X13765Y12000D01*
X13621Y11856D01*
X13543Y11669D01*
X13543Y11465D01*
X13621Y11277D01*
X13765Y11133D01*
X13952Y11055D01*
X14156Y11055D01*
X14344Y11133D01*
X14488Y11276D01*
X14566Y11464D01*
X14566Y11668D01*
X14566Y10149D01*
X10173Y10149D01*
X9630Y10692D01*
X9790Y10692D01*
X9964Y10764D01*
X10050Y10850D01*
X11771Y10850D01*
X11917Y10704D01*
X11917Y10583D01*
X11989Y10409D01*
X12121Y10276D01*
X12295Y10204D01*
X12483Y10204D01*
X12657Y10276D01*
X12790Y10409D01*
X12862Y10582D01*
X12862Y10770D01*
X12790Y10944D01*
X12657Y11077D01*
X12484Y11149D01*
X12362Y11149D01*
X12124Y11388D01*
X12022Y11456D01*
X11901Y11480D01*
X11669Y11480D01*
X11669Y23492D01*
X11518Y23857D01*
X11239Y24137D01*
X10873Y24289D01*
X10478Y24289D01*
X10112Y24138D01*
X9832Y23859D01*
X9681Y23493D01*
X9680Y23098D01*
X9831Y22732D01*
X10111Y22452D01*
X10476Y22301D01*
X10872Y22300D01*
X11237Y22451D01*
X11517Y22731D01*
X11669Y23096D01*
X11669Y23492D01*
X11669Y11480D01*
X10711Y11480D01*
X10711Y20901D01*
X10630Y21098D01*
X10479Y21249D01*
X10282Y21331D01*
X10069Y21331D01*
X9871Y21250D01*
X9720Y21099D01*
X9675Y20989D01*
X9630Y21098D01*
X9479Y21249D01*
X9282Y21331D01*
X9069Y21331D01*
X8871Y21250D01*
X8720Y21099D01*
X8675Y20989D01*
X8630Y21098D01*
X8479Y21249D01*
X8282Y21331D01*
X8069Y21331D01*
X7871Y21250D01*
X7720Y21099D01*
X7675Y20989D01*
X7630Y21098D01*
X7479Y21249D01*
X7282Y21331D01*
X7069Y21331D01*
X6871Y21250D01*
X6720Y21099D01*
X6639Y20902D01*
X6638Y20689D01*
X6720Y20491D01*
X6871Y20340D01*
X7068Y20259D01*
X7281Y20258D01*
X7478Y20340D01*
X7629Y20491D01*
X7675Y20601D01*
X7720Y20491D01*
X7871Y20340D01*
X7893Y20331D01*
X7819Y20331D01*
X7621Y20250D01*
X7470Y20099D01*
X7389Y19902D01*
X7388Y19689D01*
X7470Y19491D01*
X7621Y19340D01*
X7818Y19259D01*
X8031Y19258D01*
X8228Y19340D01*
X8379Y19491D01*
X8425Y19601D01*
X8470Y19491D01*
X8621Y19340D01*
X8818Y19259D01*
X9031Y19258D01*
X9228Y19340D01*
X9379Y19491D01*
X9461Y19688D01*
X9461Y19901D01*
X9380Y20098D01*
X9229Y20249D01*
X9206Y20259D01*
X9281Y20258D01*
X9478Y20340D01*
X9629Y20491D01*
X9675Y20601D01*
X9720Y20491D01*
X9871Y20340D01*
X10068Y20259D01*
X10281Y20258D01*
X10478Y20340D01*
X10629Y20491D01*
X10711Y20688D01*
X10711Y20901D01*
X10711Y11480D01*
X10213Y11480D01*
X10213Y13350D01*
X10132Y13547D01*
X9981Y13698D01*
X9871Y13744D01*
X9980Y13789D01*
X10131Y13939D01*
X10213Y14136D01*
X10213Y14350D01*
X10132Y14547D01*
X9981Y14698D01*
X9784Y14780D01*
X9570Y14780D01*
X9373Y14698D01*
X9222Y14548D01*
X9213Y14525D01*
X9213Y14600D01*
X9132Y14797D01*
X8981Y14948D01*
X8871Y14994D01*
X8980Y15039D01*
X9131Y15189D01*
X9213Y15386D01*
X9213Y15600D01*
X9132Y15797D01*
X8981Y15948D01*
X8784Y16030D01*
X8570Y16030D01*
X8373Y15948D01*
X8222Y15798D01*
X8141Y15601D01*
X8140Y15387D01*
X8222Y15190D01*
X8373Y15039D01*
X8483Y14994D01*
X8373Y14948D01*
X8222Y14798D01*
X8141Y14601D01*
X8140Y14387D01*
X8222Y14190D01*
X8373Y14039D01*
X8483Y13994D01*
X8373Y13948D01*
X8222Y13798D01*
X8141Y13601D01*
X8140Y13387D01*
X8222Y13190D01*
X8373Y13039D01*
X8483Y12994D01*
X8373Y12948D01*
X8222Y12798D01*
X8141Y12601D01*
X8140Y12387D01*
X8222Y12190D01*
X8373Y12039D01*
X8570Y11957D01*
X8783Y11957D01*
X8980Y12039D01*
X9131Y12189D01*
X9213Y12386D01*
X9213Y12600D01*
X9132Y12797D01*
X8981Y12948D01*
X8871Y12994D01*
X8980Y13039D01*
X9131Y13189D01*
X9140Y13212D01*
X9140Y13137D01*
X9222Y12940D01*
X9373Y12789D01*
X9570Y12707D01*
X9783Y12707D01*
X9980Y12789D01*
X10131Y12939D01*
X10213Y13136D01*
X10213Y13350D01*
X10213Y11480D01*
X10049Y11480D01*
X9964Y11565D01*
X9791Y11637D01*
X9603Y11637D01*
X9429Y11566D01*
X9296Y11433D01*
X9224Y11259D01*
X9224Y11099D01*
X7035Y13287D01*
X7035Y13696D01*
X7567Y14228D01*
X7688Y14228D01*
X7861Y14300D01*
X7994Y14432D01*
X8066Y14606D01*
X8067Y14794D01*
X7995Y14968D01*
X7862Y15101D01*
X7688Y15173D01*
X7500Y15173D01*
X7327Y15101D01*
X7194Y14968D01*
X7171Y14914D01*
X7171Y16190D01*
X7020Y16556D01*
X6741Y16836D01*
X6375Y16988D01*
X5980Y16988D01*
X5614Y16837D01*
X5334Y16558D01*
X5183Y16192D01*
X5182Y15797D01*
X5333Y15431D01*
X5613Y15151D01*
X5978Y15000D01*
X6374Y14999D01*
X6739Y15150D01*
X7019Y15430D01*
X7171Y15795D01*
X7171Y16190D01*
X7171Y14914D01*
X7122Y14795D01*
X7122Y14673D01*
X6497Y14049D01*
X6429Y13947D01*
X6405Y13826D01*
X6405Y13157D01*
X6429Y13036D01*
X6497Y12934D01*
X9820Y9611D01*
X9820Y9611D01*
X9922Y9543D01*
X10043Y9519D01*
X20066Y9519D01*
X22173Y7412D01*
X22173Y7256D01*
X22244Y7083D01*
X22377Y6950D01*
X22551Y6878D01*
X22739Y6877D01*
X22912Y6949D01*
X23045Y7082D01*
X23118Y7256D01*
X23118Y7443D01*
X23118Y6263D01*
X22043Y6263D01*
X20951Y7356D01*
X20848Y7424D01*
X20728Y7448D01*
X19524Y7448D01*
X19524Y7508D01*
X19488Y7595D01*
X19422Y7661D01*
X19335Y7697D01*
X19241Y7697D01*
X18924Y7697D01*
X17931Y8691D01*
X17829Y8759D01*
X17708Y8783D01*
X12986Y8783D01*
X12901Y8868D01*
X12728Y8940D01*
X12540Y8941D01*
X12366Y8869D01*
X12233Y8736D01*
X12161Y8562D01*
X12161Y8374D01*
X12233Y8201D01*
X12365Y8068D01*
X12539Y7996D01*
X12727Y7995D01*
X12901Y8067D01*
X12987Y8153D01*
X17578Y8153D01*
X18451Y7279D01*
X18451Y6814D01*
X18487Y6727D01*
X18554Y6661D01*
X18640Y6625D01*
X18734Y6625D01*
X19334Y6625D01*
X19421Y6661D01*
X19488Y6727D01*
X19524Y6814D01*
X19524Y6818D01*
X20597Y6818D01*
X21690Y5726D01*
X21690Y5726D01*
X21731Y5698D01*
X21792Y5657D01*
X21893Y5637D01*
X13208Y5637D01*
X13088Y5613D01*
X13054Y5591D01*
X12985Y5545D01*
X12434Y4994D01*
X12366Y4892D01*
X12342Y4771D01*
X12342Y2795D01*
X12366Y2674D01*
X12434Y2572D01*
X12655Y2352D01*
X12655Y2352D01*
X12757Y2283D01*
X12877Y2259D01*
X14586Y2259D01*
X14658Y2259D01*
X14743Y2174D01*
X14917Y2102D01*
X15105Y2102D01*
X15279Y2174D01*
X15412Y2306D01*
X15484Y2480D01*
X15484Y2668D01*
X15412Y2842D01*
X15391Y2863D01*
X15522Y2808D01*
X15775Y2808D01*
X16009Y2905D01*
X16149Y3045D01*
X16288Y2905D01*
X16522Y2808D01*
X16775Y2808D01*
X17009Y2905D01*
X17149Y3045D01*
X17288Y2905D01*
X17522Y2808D01*
X17775Y2808D01*
X18009Y2905D01*
X18149Y3045D01*
X18288Y2905D01*
X18522Y2808D01*
X18775Y2808D01*
X19009Y2905D01*
X19149Y3045D01*
X19288Y2905D01*
X19334Y2886D01*
X19334Y2645D01*
X19358Y2525D01*
X19426Y2422D01*
X20060Y1789D01*
X20068Y1777D01*
X21706Y139D01*
X21706Y139D01*
X21773Y94D01*
X17024Y94D01*
X18453Y1523D01*
X18573Y1523D01*
X18747Y1595D01*
X18880Y1728D01*
X18952Y1901D01*
X18952Y2089D01*
X18881Y2263D01*
X18748Y2396D01*
X18574Y2468D01*
X18386Y2468D01*
X18213Y2396D01*
X18080Y2264D01*
X18007Y2090D01*
X18007Y1969D01*
X16566Y527D01*
X14073Y527D01*
X14023Y577D01*
X13850Y649D01*
X13662Y649D01*
X13488Y577D01*
X13355Y445D01*
X13283Y271D01*
X13283Y94D01*
X11771Y94D01*
X11771Y4791D01*
X11620Y5156D01*
X11341Y5436D01*
X10976Y5588D01*
X10580Y5588D01*
X10313Y5478D01*
X10313Y7200D01*
X10232Y7397D01*
X10081Y7548D01*
X9884Y7630D01*
X9671Y7630D01*
X9474Y7549D01*
X9323Y7398D01*
X9277Y7288D01*
X9232Y7397D01*
X9081Y7548D01*
X9058Y7558D01*
X9133Y7558D01*
X9330Y7639D01*
X9481Y7790D01*
X9563Y7987D01*
X9563Y8200D01*
X9482Y8397D01*
X9331Y8548D01*
X9134Y8630D01*
X8921Y8630D01*
X8724Y8549D01*
X8573Y8398D01*
X8527Y8288D01*
X8482Y8397D01*
X8331Y8548D01*
X8134Y8630D01*
X7921Y8630D01*
X7724Y8549D01*
X7573Y8398D01*
X7491Y8201D01*
X7491Y7988D01*
X7572Y7791D01*
X7723Y7640D01*
X7746Y7630D01*
X7671Y7630D01*
X7474Y7549D01*
X7323Y7398D01*
X7277Y7288D01*
X7232Y7397D01*
X7171Y7458D01*
X7171Y11690D01*
X7020Y12056D01*
X6741Y12336D01*
X6375Y12488D01*
X5980Y12488D01*
X5614Y12337D01*
X5334Y12058D01*
X5183Y11692D01*
X5182Y11297D01*
X5333Y10931D01*
X5613Y10651D01*
X5978Y10500D01*
X6374Y10499D01*
X6739Y10650D01*
X7019Y10930D01*
X7171Y11295D01*
X7171Y11690D01*
X7171Y7458D01*
X7081Y7548D01*
X6884Y7630D01*
X6671Y7630D01*
X6474Y7549D01*
X6323Y7398D01*
X6241Y7201D01*
X6241Y6988D01*
X6322Y6791D01*
X6473Y6640D01*
X6670Y6558D01*
X6883Y6558D01*
X7080Y6639D01*
X7231Y6790D01*
X7277Y6900D01*
X7322Y6791D01*
X7473Y6640D01*
X7670Y6558D01*
X7883Y6558D01*
X8080Y6639D01*
X8231Y6790D01*
X8277Y6900D01*
X8322Y6791D01*
X8473Y6640D01*
X8670Y6558D01*
X8883Y6558D01*
X9080Y6639D01*
X9231Y6790D01*
X9277Y6900D01*
X9322Y6791D01*
X9473Y6640D01*
X9670Y6558D01*
X9883Y6558D01*
X10080Y6639D01*
X10231Y6790D01*
X10313Y6987D01*
X10313Y7200D01*
X10313Y5478D01*
X10215Y5437D01*
X9935Y5158D01*
X9783Y4793D01*
X9783Y4397D01*
X9934Y4032D01*
X10213Y3752D01*
X10578Y3600D01*
X10974Y3600D01*
X11340Y3751D01*
X11619Y4030D01*
X11771Y4395D01*
X11771Y4791D01*
X11771Y94D01*
X7271Y94D01*
X7271Y4791D01*
X7120Y5156D01*
X6841Y5436D01*
X6476Y5588D01*
X6080Y5588D01*
X5715Y5437D01*
X5435Y5158D01*
X5283Y4793D01*
X5283Y4397D01*
X5434Y4032D01*
X5713Y3752D01*
X6078Y3600D01*
X6474Y3600D01*
X6840Y3751D01*
X7119Y4030D01*
X7271Y4395D01*
X7271Y4791D01*
X7271Y94D01*
X78Y94D01*
X82Y28019D01*
X39641Y28019D01*
X39641Y94D01*
M02*
