M48
;DRILL file {Pcbnew (2013-07-07 BZR 4022)-stable} date 27/03/2015 10:17:13
;FORMAT={-:-/ absolute / metric / decimal}
FMAT,2
METRIC,TZ
T1C0.600
T2C0.762
T3C0.813
T4C1.000
T5C1.016
T6C1.778
T7C3.302
%
G90
G05
M71
T1
X57.23Y33.088
X57.269Y30.574
X57.307Y28.097
X57.307Y25.606
X60.95Y48.708
X60.989Y46.194
X61.027Y43.717
X61.027Y41.226
X69.199Y33.078
X69.199Y30.564
X69.199Y28.082
X69.235Y25.565
X72.919Y48.698
X72.919Y46.184
X72.919Y43.702
X72.955Y41.185
X77.29Y44.108
X77.329Y41.594
X77.367Y39.117
X77.367Y36.626
X77.38Y28.458
X77.419Y25.944
X77.457Y23.467
X77.457Y20.976
X89.259Y44.098
X89.259Y41.584
X89.259Y39.102
X89.295Y36.585
X89.349Y28.448
X89.349Y25.934
X89.349Y23.452
X89.385Y20.935
T2
X34.54Y59.8
X34.54Y57.26
X34.67Y11.29
X34.67Y8.75
X37.08Y59.8
X37.08Y57.26
X37.21Y11.29
X37.21Y8.75
X39.62Y59.8
X39.62Y57.26
X39.75Y11.29
X39.75Y8.75
X42.16Y59.8
X42.16Y57.26
X42.29Y11.29
X42.29Y8.75
X44.7Y59.8
X44.7Y57.26
X44.83Y11.29
X44.83Y8.75
X47.24Y59.8
X47.24Y57.26
X47.37Y11.29
X47.37Y8.75
X49.78Y59.8
X49.78Y57.26
X49.91Y11.29
X49.91Y8.75
X52.32Y59.8
X52.32Y57.26
X52.45Y11.29
X52.45Y8.75
X54.86Y59.8
X54.86Y57.26
X54.99Y11.29
X54.99Y8.75
X57.4Y59.8
X57.4Y57.26
X57.53Y11.29
X57.53Y8.75
X59.94Y59.8
X59.94Y57.26
X60.07Y11.29
X60.07Y8.75
X62.48Y59.8
X62.48Y57.26
X62.61Y11.29
X62.61Y8.75
X65.02Y59.8
X65.02Y57.26
X65.15Y11.29
X65.15Y8.75
X67.56Y59.8
X67.56Y57.26
X67.69Y11.29
X67.69Y8.75
X70.1Y59.8
X70.1Y57.26
X70.23Y11.29
X70.23Y8.75
X72.64Y59.8
X72.64Y57.26
X72.77Y11.29
X72.77Y8.75
X75.18Y59.8
X75.18Y57.26
X75.31Y11.29
X75.31Y8.75
X77.72Y59.8
X77.72Y57.26
X77.85Y11.29
X77.85Y8.75
X80.26Y59.8
X80.26Y57.26
X80.39Y11.29
X80.39Y8.75
X82.8Y59.8
X82.8Y57.26
X82.93Y11.29
X82.93Y8.75
X85.34Y59.8
X85.34Y57.26
X85.47Y11.29
X85.47Y8.75
X87.88Y59.8
X87.88Y57.26
X88.01Y11.29
X88.01Y8.75
X90.42Y59.8
X90.42Y57.26
X90.55Y11.29
X90.55Y8.75
T3
X35.38Y51.86
X35.38Y48.17
X35.42Y38.64
X35.47Y42.29
X35.58Y34.09
X35.7Y29.38
X43.Y51.86
X43.Y48.17
X43.04Y38.64
X43.09Y42.29
X43.2Y34.09
X43.32Y29.38
X46.93Y51.86
X46.95Y48.18
X46.98Y42.23
X47.07Y38.6
X47.1Y29.28
X47.14Y34.21
X54.55Y51.86
X54.57Y48.18
X54.6Y42.23
X54.69Y38.6
X54.72Y29.28
X54.76Y34.21
T4
X10.59Y22.75
X19.29Y37.34
X24.63Y28.36
X31.47Y27.12
X31.87Y50.01
X32.09Y21.51
X34.94Y0.45
X43.1Y5.81
X45.51Y3.74
X47.52Y62.42
X55.84Y3.85
X57.52Y18.67
X59.06Y54.04
X61.06Y30.49
X62.13Y5.88
X63.96Y39.29
X64.01Y26.4
X67.18Y15.69
X67.88Y62.5
X68.26Y4.89
X72.68Y3.44
X73.56Y29.05
X73.71Y32.21
X75.31Y54.53
X76.99Y62.31
X77.39Y6.49
X81.6Y62.
X82.78Y54.61
X82.83Y24.47
X82.93Y38.34
X83.5Y20.82
X85.37Y4.36
X85.93Y54.32
X87.81Y49.23
X91.54Y53.51
X97.33Y55.72
T5
X17.215Y18.02
X17.59Y50.28
X17.85Y20.56
X18.225Y52.82
X19.755Y18.02
X20.13Y50.28
X20.39Y20.56
X20.765Y52.82
X22.04Y39.355
X22.04Y36.815
X22.04Y34.275
X22.04Y31.735
X22.295Y18.02
X22.67Y50.28
X22.93Y20.56
X23.305Y52.82
X24.58Y38.72
X24.58Y36.18
X24.58Y33.64
X24.58Y31.1
X24.835Y18.02
X25.21Y50.28
X25.47Y20.56
X25.845Y52.82
X45.69Y18.19
X48.23Y18.19
X66.63Y65.15
X69.17Y65.15
X71.71Y65.15
X74.25Y65.15
X76.79Y65.15
X80.83Y65.1
X83.37Y65.1
X85.91Y65.1
X88.45Y65.1
X90.99Y65.1
X94.5Y28.39
X94.5Y25.85
X94.59Y35.05
X94.59Y32.51
X94.59Y21.54
X94.59Y19.
X94.68Y41.28
X94.68Y38.74
X94.77Y47.5
X94.77Y44.96
X95.Y61.58
X95.Y59.04
X95.Y56.5
X95.Y53.96
X95.Y51.42
T6
X13.653Y56.122
X13.913Y14.718
X18.738Y42.657
X18.738Y27.163
X29.147Y56.122
X29.407Y14.718
T7
X15.685Y59.17
X15.69Y40.625
X15.69Y29.195
X15.945Y11.67
X27.115Y59.17
X27.375Y11.67
T0
M30
